%TF.GenerationSoftware,KiCad,Pcbnew,9.0.5*%
%TF.CreationDate,2026-04-02T16:14:02+08:00*%
%TF.ProjectId,Coil_driver,436f696c-5f64-4726-9976-65722e6b6963,rev?*%
%TF.SameCoordinates,Original*%
%TF.FileFunction,Copper,L2,Bot*%
%TF.FilePolarity,Positive*%
%FSLAX46Y46*%
G04 Gerber Fmt 4.6, Leading zero omitted, Abs format (unit mm)*
G04 Created by KiCad (PCBNEW 9.0.5) date 2026-04-02 16:14:02*
%MOMM*%
%LPD*%
G01*
G04 APERTURE LIST*
G04 Aperture macros list*
%AMRoundRect*
0 Rectangle with rounded corners*
0 $1 Rounding radius*
0 $2 $3 $4 $5 $6 $7 $8 $9 X,Y pos of 4 corners*
0 Add a 4 corners polygon primitive as box body*
4,1,4,$2,$3,$4,$5,$6,$7,$8,$9,$2,$3,0*
0 Add four circle primitives for the rounded corners*
1,1,$1+$1,$2,$3*
1,1,$1+$1,$4,$5*
1,1,$1+$1,$6,$7*
1,1,$1+$1,$8,$9*
0 Add four rect primitives between the rounded corners*
20,1,$1+$1,$2,$3,$4,$5,0*
20,1,$1+$1,$4,$5,$6,$7,0*
20,1,$1+$1,$6,$7,$8,$9,0*
20,1,$1+$1,$8,$9,$2,$3,0*%
G04 Aperture macros list end*
%TA.AperFunction,ComponentPad*%
%ADD10R,1.700000X1.700000*%
%TD*%
%TA.AperFunction,ComponentPad*%
%ADD11C,1.700000*%
%TD*%
%TA.AperFunction,ComponentPad*%
%ADD12C,1.600000*%
%TD*%
%TA.AperFunction,ComponentPad*%
%ADD13RoundRect,0.250000X-0.550000X-0.550000X0.550000X-0.550000X0.550000X0.550000X-0.550000X0.550000X0*%
%TD*%
%TA.AperFunction,ComponentPad*%
%ADD14C,1.400000*%
%TD*%
%TA.AperFunction,ViaPad*%
%ADD15C,0.600000*%
%TD*%
%TA.AperFunction,ViaPad*%
%ADD16C,0.500000*%
%TD*%
%TA.AperFunction,Conductor*%
%ADD17C,0.200000*%
%TD*%
%TA.AperFunction,Conductor*%
%ADD18C,0.300000*%
%TD*%
G04 APERTURE END LIST*
D10*
%TO.P,J3,1,Pin_1*%
%TO.N,VDD*%
X107500000Y-83060000D03*
D11*
%TO.P,J3,2,Pin_2*%
%TO.N,GND*%
X107500000Y-80520000D03*
%TO.P,J3,3,Pin_3*%
%TO.N,/En*%
X107500000Y-77980000D03*
%TO.P,J3,4,Pin_4*%
%TO.N,/Dir*%
X107500000Y-75440000D03*
%TO.P,J3,5,Pin_5*%
%TO.N,/PWM*%
X107500000Y-72900000D03*
%TO.P,J3,6,Pin_6*%
%TO.N,/HEN*%
X107500000Y-70360000D03*
%TO.P,J3,7,Pin_7*%
%TO.N,/Out*%
X107500000Y-67820000D03*
%TO.P,J3,8,Pin_8*%
%TO.N,/Vsense*%
X107500000Y-65280000D03*
%TD*%
D12*
%TO.P,L1,1,1*%
%TO.N,VDD*%
X112780000Y-77200000D03*
%TO.P,L1,2,2*%
%TO.N,Net-(D1-A)*%
X115320000Y-77200000D03*
%TD*%
D10*
%TO.P,J4,1,Pin_1*%
%TO.N,/C*%
X119760000Y-90500000D03*
D11*
%TO.P,J4,2,Pin_2*%
%TO.N,/B*%
X122300000Y-90500000D03*
%TO.P,J4,3,Pin_3*%
%TO.N,/A*%
X124840000Y-90500000D03*
%TO.P,J4,4,Pin_4*%
%TO.N,GND*%
X127380000Y-90500000D03*
%TO.P,J4,5,Pin_5*%
%TO.N,Vdrive*%
X129920000Y-90500000D03*
%TO.P,J4,6,Pin_6*%
%TO.N,/En*%
X132460000Y-90500000D03*
%TD*%
D13*
%TO.P,U2,1*%
%TO.N,Net-(R3-Pad2)*%
X107295000Y-88425000D03*
D12*
%TO.P,U2,2*%
%TO.N,GND*%
X107295000Y-90965000D03*
%TO.P,U2,3*%
%TO.N,/B*%
X114915000Y-90965000D03*
%TO.P,U2,4*%
%TO.N,/C*%
X114915000Y-88425000D03*
%TD*%
D14*
%TO.P,R24,1*%
%TO.N,Net-(U5B-+)*%
X142390000Y-91600000D03*
%TO.P,R24,2*%
%TO.N,GND*%
X144290000Y-91600000D03*
%TD*%
%TO.P,R23,1*%
%TO.N,Net-(R18-Pad1)*%
X144205000Y-89000000D03*
%TO.P,R23,2*%
%TO.N,Net-(U5B-+)*%
X142305000Y-89000000D03*
%TD*%
D15*
%TO.N,GND*%
X119500000Y-77500000D03*
X119600000Y-75900000D03*
X129900000Y-74200000D03*
X128700000Y-71100000D03*
X131500000Y-74200000D03*
X122800000Y-79000000D03*
X121100000Y-82100000D03*
X118400000Y-81500000D03*
X117100000Y-80700000D03*
X122900000Y-85100000D03*
X121400000Y-85100000D03*
X119900000Y-85100000D03*
X138800000Y-69100000D03*
X141100000Y-70100000D03*
X146100000Y-72800000D03*
X147400000Y-72900000D03*
X153700000Y-68500000D03*
X156100000Y-72700000D03*
X157000000Y-71700000D03*
X157300000Y-69600000D03*
X160000000Y-68500000D03*
X160100000Y-65400000D03*
X157900000Y-63800000D03*
X154300000Y-63800000D03*
X150700000Y-66800000D03*
X149200000Y-66800000D03*
X149800000Y-65500000D03*
X151500000Y-65500000D03*
X148300000Y-65500000D03*
X150200000Y-64300000D03*
X148300000Y-64300000D03*
X152400000Y-64300000D03*
X146800000Y-64300000D03*
X146400000Y-69100000D03*
X142700000Y-70300000D03*
X146800000Y-74000000D03*
X145300000Y-73500000D03*
X146600000Y-72000000D03*
X144400000Y-72000000D03*
X145900000Y-80200000D03*
X144800000Y-82300000D03*
X142200000Y-82400000D03*
X148700000Y-92300000D03*
X147100000Y-90000000D03*
X148300000Y-87600000D03*
X133700000Y-87900000D03*
X138500000Y-93200000D03*
X132400000Y-93100000D03*
X117000000Y-90400000D03*
X120800000Y-87600000D03*
X115800000Y-85800000D03*
X127800000Y-85100000D03*
X126300000Y-84500000D03*
X130900000Y-79900000D03*
X129700000Y-78300000D03*
X133100000Y-78000000D03*
X131400000Y-76600000D03*
X130500000Y-73100000D03*
X129400000Y-72500000D03*
X132800000Y-70200000D03*
X139000000Y-67100000D03*
X140100000Y-65000000D03*
X135100000Y-67200000D03*
X136200000Y-65200000D03*
X128300000Y-64800000D03*
X126100000Y-66300000D03*
X123400000Y-64500000D03*
X113700000Y-64400000D03*
X116800000Y-67400000D03*
X110500000Y-67400000D03*
X114400000Y-69600000D03*
X110700000Y-69600000D03*
X113000000Y-72200000D03*
X110700000Y-72500000D03*
X110400000Y-75900000D03*
X112300000Y-91500000D03*
X110300000Y-89900000D03*
X112200000Y-88700000D03*
X112200000Y-85300000D03*
X111200000Y-82600000D03*
X108500000Y-85900000D03*
X103600000Y-92100000D03*
X104700000Y-83700000D03*
X103600000Y-76100000D03*
X105000000Y-69800000D03*
X103300000Y-64200000D03*
%TO.N,Vdrive*%
X130400000Y-83600000D03*
X130400000Y-87200000D03*
%TO.N,/A*%
X124400000Y-85400000D03*
X124400000Y-87300000D03*
%TO.N,Net-(J1-CC2)*%
X149600000Y-68700000D03*
X140700000Y-68300000D03*
%TO.N,/PWM*%
X124500000Y-72000000D03*
X117100000Y-71400000D03*
%TO.N,/HEN*%
X118800000Y-69600000D03*
X121800000Y-69600000D03*
%TO.N,/Out*%
X128200000Y-73800000D03*
X120000000Y-68700000D03*
%TO.N,/Vsense*%
X128700000Y-69200000D03*
X133700000Y-71500000D03*
X132100000Y-72700000D03*
X122200000Y-66300000D03*
%TO.N,/Dir*%
X113800000Y-73500000D03*
X123998118Y-74491061D03*
%TO.N,/Vmid*%
X120900000Y-78400000D03*
X127900000Y-77300000D03*
%TO.N,Net-(U3-LDEL)*%
X128200000Y-79800000D03*
X123900000Y-81900000D03*
%TO.N,Vdrive*%
X128300000Y-75200000D03*
X123500000Y-75300000D03*
%TO.N,Net-(U3-BLO)*%
X139900000Y-73000000D03*
X137500000Y-72600000D03*
%TO.N,/Vsense*%
X138000000Y-76200000D03*
X141000000Y-82500000D03*
%TO.N,Net-(Q2-B)*%
X140900000Y-74000000D03*
X137700000Y-77200000D03*
X133900000Y-81400000D03*
X139800000Y-75800000D03*
%TO.N,/AL*%
X150300000Y-77200000D03*
%TO.N,/Out-*%
X149200000Y-75800000D03*
%TO.N,/BL*%
X156500000Y-76100000D03*
X144800000Y-75700000D03*
%TO.N,/BH*%
X148300000Y-74100000D03*
D16*
%TO.N,/Out+*%
X153000000Y-82700000D03*
X153000000Y-81700000D03*
X153000000Y-80600000D03*
X153100000Y-79700000D03*
%TO.N,/Out-*%
X156500000Y-83100000D03*
X156500000Y-82300000D03*
X156500000Y-81600000D03*
X156500000Y-80800000D03*
X155800000Y-82700000D03*
X155800000Y-81900000D03*
X155800000Y-81100000D03*
X155800000Y-80300000D03*
X155100000Y-83100000D03*
X154300000Y-83100000D03*
X155100000Y-82400000D03*
X154300000Y-82400000D03*
X155100000Y-81600000D03*
X154300000Y-81600000D03*
X155100000Y-80800000D03*
X154300000Y-80800000D03*
X155100000Y-80000000D03*
X154300000Y-80000000D03*
X156500000Y-80100000D03*
X155900000Y-79600000D03*
X155100000Y-79300000D03*
%TO.N,/Out+*%
X152400000Y-82200000D03*
X151700000Y-81700000D03*
X152400000Y-81300000D03*
X152000000Y-80600000D03*
X151100000Y-80600000D03*
X152400000Y-80000000D03*
X151600000Y-80000000D03*
X152400000Y-79300000D03*
D15*
%TO.N,/BH*%
X156600000Y-74200000D03*
D16*
%TO.N,/Out+*%
X151100000Y-81300000D03*
D15*
%TO.N,/AL*%
X145100000Y-78627380D03*
%TO.N,/Out+*%
X141731161Y-80168839D03*
%TO.N,/AH*%
X140400000Y-80100000D03*
X145500000Y-77700000D03*
%TD*%
D17*
%TO.N,/Dir*%
X123107057Y-73600000D02*
X113900000Y-73600000D01*
X123998118Y-74491061D02*
X123107057Y-73600000D01*
X113900000Y-73600000D02*
X113800000Y-73500000D01*
%TO.N,Vdrive*%
X130400000Y-87200000D02*
X130400000Y-83600000D01*
%TO.N,/A*%
X124400000Y-87300000D02*
X124400000Y-85400000D01*
%TO.N,Net-(J1-CC2)*%
X140700000Y-68300000D02*
X149200000Y-68300000D01*
X149200000Y-68300000D02*
X149600000Y-68700000D01*
%TO.N,/PWM*%
X123900000Y-71400000D02*
X124500000Y-72000000D01*
X117100000Y-71400000D02*
X123900000Y-71400000D01*
%TO.N,/HEN*%
X121800000Y-69600000D02*
X118800000Y-69600000D01*
%TO.N,/Out*%
X123100000Y-68700000D02*
X128200000Y-73800000D01*
X120000000Y-68700000D02*
X123100000Y-68700000D01*
%TO.N,/Vsense*%
X127300000Y-67800000D02*
X128700000Y-69200000D01*
X122200000Y-66300000D02*
X123700000Y-67800000D01*
X123700000Y-67800000D02*
X127300000Y-67800000D01*
X132500000Y-72700000D02*
X133700000Y-71500000D01*
X132100000Y-72700000D02*
X132500000Y-72700000D01*
%TO.N,/Vmid*%
X122000000Y-77300000D02*
X127900000Y-77300000D01*
X120900000Y-78400000D02*
X122000000Y-77300000D01*
%TO.N,Net-(U3-LDEL)*%
X126100000Y-81900000D02*
X128200000Y-79800000D01*
X123900000Y-81900000D02*
X126100000Y-81900000D01*
D18*
%TO.N,Vdrive*%
X128200000Y-75300000D02*
X128300000Y-75200000D01*
X123500000Y-75300000D02*
X128200000Y-75300000D01*
D17*
%TO.N,Net-(Q2-B)*%
X133900000Y-81400000D02*
X133900000Y-81000000D01*
X133900000Y-81000000D02*
X137700000Y-77200000D01*
%TO.N,Net-(U3-BLO)*%
X139500000Y-72600000D02*
X139900000Y-73000000D01*
X137500000Y-72600000D02*
X139500000Y-72600000D01*
%TO.N,/Vsense*%
X141000000Y-82500000D02*
X138451000Y-79951000D01*
X138451000Y-79951000D02*
X138451000Y-76651000D01*
X138451000Y-76651000D02*
X138000000Y-76200000D01*
%TO.N,Net-(Q2-B)*%
X139800000Y-75100000D02*
X140900000Y-74000000D01*
X139800000Y-75800000D02*
X139800000Y-75100000D01*
%TO.N,/Out+*%
X142862322Y-81300000D02*
X151100000Y-81300000D01*
X141731161Y-80168839D02*
X142862322Y-81300000D01*
%TO.N,/AL*%
X150300000Y-77200000D02*
X148872620Y-78627380D01*
X148872620Y-78627380D02*
X145100000Y-78627380D01*
%TO.N,/Out-*%
X150902000Y-75102000D02*
X155100000Y-79300000D01*
X149898000Y-75102000D02*
X150902000Y-75102000D01*
X149200000Y-75800000D02*
X149898000Y-75102000D01*
%TO.N,/BH*%
X148400000Y-74200000D02*
X156600000Y-74200000D01*
X148300000Y-74100000D02*
X148400000Y-74200000D01*
%TO.N,/BL*%
X144800000Y-75700000D02*
X148100000Y-75700000D01*
X149611075Y-74651000D02*
X155051000Y-74651000D01*
X148100000Y-75700000D02*
X148849000Y-74951000D01*
X148849000Y-74951000D02*
X149311075Y-74951000D01*
X149311075Y-74951000D02*
X149611075Y-74651000D01*
X155051000Y-74651000D02*
X156500000Y-76100000D01*
%TO.N,/AH*%
X145500000Y-77700000D02*
X142800000Y-77700000D01*
X142800000Y-77700000D02*
X140400000Y-80100000D01*
%TD*%
%TA.AperFunction,Conductor*%
%TO.N,/Out+*%
G36*
X151066442Y-76119685D02*
G01*
X151087083Y-76136318D01*
X153329526Y-78378762D01*
X153363011Y-78440084D01*
X153365839Y-78467707D01*
X153340376Y-80963050D01*
X153294081Y-85500000D01*
X152900000Y-85500000D01*
X152900000Y-92000000D01*
X153227754Y-92000000D01*
X153227439Y-92030811D01*
X153152725Y-92047141D01*
X153152332Y-92047113D01*
X153151988Y-92047299D01*
X153126249Y-92050000D01*
X150764000Y-92050000D01*
X150696961Y-92030315D01*
X150651206Y-91977511D01*
X150640000Y-91926000D01*
X150640000Y-78003282D01*
X150659685Y-77936243D01*
X150701490Y-77896846D01*
X150701247Y-77896456D01*
X150703189Y-77895245D01*
X150703261Y-77895177D01*
X150703627Y-77894972D01*
X150778741Y-77843308D01*
X150778741Y-77843306D01*
X150784210Y-77839546D01*
X150787577Y-77836963D01*
X150810289Y-77821789D01*
X150921789Y-77710289D01*
X151009394Y-77579179D01*
X151069737Y-77433497D01*
X151100500Y-77278842D01*
X151100500Y-77121158D01*
X151100500Y-77121155D01*
X151100499Y-77121153D01*
X151069738Y-76966510D01*
X151069737Y-76966503D01*
X151069735Y-76966498D01*
X151009397Y-76820827D01*
X151009390Y-76820814D01*
X150921789Y-76689711D01*
X150921786Y-76689707D01*
X150810289Y-76578210D01*
X150695109Y-76501250D01*
X150690018Y-76495158D01*
X150682797Y-76491861D01*
X150667933Y-76468733D01*
X150650304Y-76447638D01*
X150648352Y-76438263D01*
X150645023Y-76433083D01*
X150640000Y-76398148D01*
X150640000Y-76224000D01*
X150659685Y-76156961D01*
X150712489Y-76111206D01*
X150764000Y-76100000D01*
X150999403Y-76100000D01*
X151066442Y-76119685D01*
G37*
%TD.AperFunction*%
%TD*%
%TA.AperFunction,Conductor*%
%TO.N,/Out-*%
G36*
X155602659Y-76119685D02*
G01*
X155647938Y-76171457D01*
X155778868Y-76451339D01*
X155778883Y-76451370D01*
X155780655Y-76455157D01*
X155790606Y-76479179D01*
X155798321Y-76490726D01*
X155801915Y-76497716D01*
X155801932Y-76497750D01*
X155804175Y-76502111D01*
X155805028Y-76503630D01*
X155860434Y-76584183D01*
X155863029Y-76587569D01*
X155878208Y-76610286D01*
X155878215Y-76610294D01*
X155989707Y-76721786D01*
X155989711Y-76721789D01*
X156120814Y-76809390D01*
X156120827Y-76809397D01*
X156184216Y-76835653D01*
X156266503Y-76869737D01*
X156394624Y-76895222D01*
X156421153Y-76900499D01*
X156421156Y-76900500D01*
X156421158Y-76900500D01*
X156578844Y-76900500D01*
X156578845Y-76900499D01*
X156733497Y-76869737D01*
X156846166Y-76823067D01*
X156879172Y-76809397D01*
X156879172Y-76809396D01*
X156879179Y-76809394D01*
X157010289Y-76721789D01*
X157121789Y-76610289D01*
X157209394Y-76479179D01*
X157269737Y-76333497D01*
X157291266Y-76225264D01*
X157296330Y-76199809D01*
X157328715Y-76137898D01*
X157389431Y-76103323D01*
X157417947Y-76100000D01*
X159823708Y-76100000D01*
X159890747Y-76119685D01*
X159936502Y-76172489D01*
X159947701Y-76225264D01*
X159941741Y-76809397D01*
X159859472Y-84871765D01*
X159839104Y-84938600D01*
X159785836Y-84983814D01*
X159735478Y-84994500D01*
X153930038Y-84994500D01*
X153862999Y-84974815D01*
X153817244Y-84922011D01*
X153806044Y-84869235D01*
X153871313Y-78472865D01*
X153868710Y-78416224D01*
X153865882Y-78388601D01*
X153856958Y-78332628D01*
X153806676Y-78197820D01*
X153773191Y-78136498D01*
X153686969Y-78021320D01*
X153686959Y-78021309D01*
X153536319Y-77870669D01*
X153502834Y-77809346D01*
X153500000Y-77782988D01*
X153500000Y-76224000D01*
X153519685Y-76156961D01*
X153572489Y-76111206D01*
X153624000Y-76100000D01*
X155535620Y-76100000D01*
X155602659Y-76119685D01*
G37*
%TD.AperFunction*%
%TD*%
%TA.AperFunction,Conductor*%
%TO.N,/Out+*%
G36*
X159843039Y-85519685D02*
G01*
X159888794Y-85572489D01*
X159900000Y-85624000D01*
X159900000Y-91876000D01*
X159880315Y-91943039D01*
X159827511Y-91988794D01*
X159776000Y-92000000D01*
X152900000Y-92000000D01*
X152900000Y-85500000D01*
X153294081Y-85500000D01*
X153294082Y-85500000D01*
X159776000Y-85500000D01*
X159843039Y-85519685D01*
G37*
%TD.AperFunction*%
%TD*%
%TA.AperFunction,Conductor*%
%TO.N,GND*%
G36*
X144264782Y-78320185D02*
G01*
X144310537Y-78372989D01*
X144320481Y-78442147D01*
X144319360Y-78448691D01*
X144299500Y-78548533D01*
X144299500Y-78706226D01*
X144330261Y-78860869D01*
X144330264Y-78860881D01*
X144390602Y-79006552D01*
X144390609Y-79006565D01*
X144478210Y-79137668D01*
X144478213Y-79137672D01*
X144589707Y-79249166D01*
X144589711Y-79249169D01*
X144720814Y-79336770D01*
X144720827Y-79336777D01*
X144822436Y-79378864D01*
X144866503Y-79397117D01*
X145021153Y-79427879D01*
X145021156Y-79427880D01*
X145021158Y-79427880D01*
X145178844Y-79427880D01*
X145178845Y-79427879D01*
X145333497Y-79397117D01*
X145354964Y-79388223D01*
X145360120Y-79386222D01*
X145776357Y-79235306D01*
X145818624Y-79227880D01*
X148785951Y-79227880D01*
X148785967Y-79227881D01*
X148793563Y-79227881D01*
X148951674Y-79227881D01*
X148951677Y-79227881D01*
X149104405Y-79186957D01*
X149156839Y-79156684D01*
X149241336Y-79107900D01*
X149353140Y-78996096D01*
X149353140Y-78996094D01*
X149363344Y-78985891D01*
X149363347Y-78985886D01*
X149922820Y-78426414D01*
X149984142Y-78392930D01*
X150053834Y-78397914D01*
X150109767Y-78439786D01*
X150134184Y-78505250D01*
X150134500Y-78514096D01*
X150134500Y-80575500D01*
X150114815Y-80642539D01*
X150062011Y-80688294D01*
X150010500Y-80699500D01*
X143162419Y-80699500D01*
X143095380Y-80679815D01*
X143074738Y-80663181D01*
X142663922Y-80252365D01*
X142639285Y-80217227D01*
X142559481Y-80046635D01*
X142450512Y-79813700D01*
X142440555Y-79789660D01*
X142432836Y-79778108D01*
X142426982Y-79766721D01*
X142426133Y-79765211D01*
X142374469Y-79690097D01*
X142374468Y-79690096D01*
X142370730Y-79684661D01*
X142368131Y-79681270D01*
X142352947Y-79658546D01*
X142241453Y-79547052D01*
X142241449Y-79547049D01*
X142105275Y-79456060D01*
X142106585Y-79454098D01*
X142064203Y-79412439D01*
X142048763Y-79344297D01*
X142072616Y-79278624D01*
X142084831Y-79264403D01*
X143012417Y-78336819D01*
X143073740Y-78303334D01*
X143100098Y-78300500D01*
X144197743Y-78300500D01*
X144264782Y-78320185D01*
G37*
%TD.AperFunction*%
%TA.AperFunction,Conductor*%
G36*
X160942539Y-63420185D02*
G01*
X160988294Y-63472989D01*
X160999500Y-63524500D01*
X160999500Y-93675500D01*
X160979815Y-93742539D01*
X160927011Y-93788294D01*
X160875500Y-93799500D01*
X102724500Y-93799500D01*
X102657461Y-93779815D01*
X102611706Y-93727011D01*
X102600500Y-93675500D01*
X102600500Y-87824983D01*
X105994500Y-87824983D01*
X105994500Y-89025001D01*
X105994501Y-89025018D01*
X106005000Y-89127796D01*
X106005001Y-89127799D01*
X106052856Y-89272213D01*
X106060186Y-89294334D01*
X106152288Y-89443656D01*
X106276344Y-89567712D01*
X106425666Y-89659814D01*
X106592203Y-89714999D01*
X106694991Y-89725500D01*
X107895008Y-89725499D01*
X107997797Y-89714999D01*
X108164334Y-89659814D01*
X108313656Y-89567712D01*
X108437712Y-89443656D01*
X108529814Y-89294334D01*
X108584999Y-89127797D01*
X108595500Y-89025009D01*
X108595499Y-88322648D01*
X113614500Y-88322648D01*
X113614500Y-88527351D01*
X113646522Y-88729534D01*
X113709781Y-88924223D01*
X113802715Y-89106613D01*
X113923028Y-89272213D01*
X114067786Y-89416971D01*
X114175248Y-89495045D01*
X114233390Y-89537287D01*
X114297709Y-89570059D01*
X114326080Y-89584515D01*
X114376876Y-89632490D01*
X114393671Y-89700311D01*
X114371134Y-89766446D01*
X114326080Y-89805485D01*
X114233386Y-89852715D01*
X114067786Y-89973028D01*
X113923028Y-90117786D01*
X113802715Y-90283386D01*
X113709781Y-90465776D01*
X113646522Y-90660465D01*
X113614500Y-90862648D01*
X113614500Y-91067351D01*
X113646522Y-91269534D01*
X113709781Y-91464223D01*
X113802715Y-91646613D01*
X113923028Y-91812213D01*
X114067786Y-91956971D01*
X114210741Y-92060832D01*
X114233390Y-92077287D01*
X114349607Y-92136503D01*
X114415776Y-92170218D01*
X114415778Y-92170218D01*
X114415781Y-92170220D01*
X114468973Y-92187503D01*
X114610465Y-92233477D01*
X114711557Y-92249488D01*
X114812648Y-92265500D01*
X114812649Y-92265500D01*
X115017351Y-92265500D01*
X115017352Y-92265500D01*
X115219534Y-92233477D01*
X115414219Y-92170220D01*
X115596610Y-92077287D01*
X115689590Y-92009732D01*
X115762213Y-91956971D01*
X115762215Y-91956968D01*
X115762219Y-91956966D01*
X115906966Y-91812219D01*
X115906968Y-91812215D01*
X115906971Y-91812213D01*
X115983014Y-91707547D01*
X116027287Y-91646610D01*
X116120220Y-91464219D01*
X116183477Y-91269534D01*
X116215500Y-91067352D01*
X116215500Y-90862648D01*
X116183477Y-90660466D01*
X116120220Y-90465781D01*
X116120218Y-90465778D01*
X116120218Y-90465776D01*
X116079473Y-90385811D01*
X116027287Y-90283390D01*
X116007850Y-90256637D01*
X115906971Y-90117786D01*
X115762213Y-89973028D01*
X115596614Y-89852715D01*
X115583431Y-89845998D01*
X115503917Y-89805483D01*
X115497591Y-89799509D01*
X115489340Y-89796749D01*
X115472580Y-89775887D01*
X115453123Y-89757511D01*
X115451031Y-89749064D01*
X115445581Y-89742280D01*
X115442760Y-89715666D01*
X115436328Y-89689690D01*
X115439135Y-89681452D01*
X115438218Y-89672799D01*
X115450232Y-89648887D01*
X115458865Y-89623555D01*
X115466502Y-89616505D01*
X115469587Y-89610367D01*
X115480518Y-89602135D01*
X118409500Y-89602135D01*
X118409500Y-91397870D01*
X118409501Y-91397876D01*
X118415908Y-91457483D01*
X118466202Y-91592328D01*
X118466206Y-91592335D01*
X118552452Y-91707544D01*
X118552455Y-91707547D01*
X118667664Y-91793793D01*
X118667671Y-91793797D01*
X118802517Y-91844091D01*
X118802516Y-91844091D01*
X118809444Y-91844835D01*
X118862127Y-91850500D01*
X120657872Y-91850499D01*
X120717483Y-91844091D01*
X120852331Y-91793796D01*
X120967546Y-91707546D01*
X121053796Y-91592331D01*
X121102810Y-91460916D01*
X121144681Y-91404984D01*
X121210145Y-91380566D01*
X121278418Y-91395417D01*
X121306673Y-91416569D01*
X121420213Y-91530109D01*
X121592179Y-91655048D01*
X121592181Y-91655049D01*
X121592184Y-91655051D01*
X121781588Y-91751557D01*
X121983757Y-91817246D01*
X122193713Y-91850500D01*
X122193714Y-91850500D01*
X122406286Y-91850500D01*
X122406287Y-91850500D01*
X122616243Y-91817246D01*
X122818412Y-91751557D01*
X123007816Y-91655051D01*
X123094138Y-91592335D01*
X123179786Y-91530109D01*
X123179788Y-91530106D01*
X123179792Y-91530104D01*
X123330104Y-91379792D01*
X123330106Y-91379788D01*
X123330109Y-91379786D01*
X123455048Y-91207820D01*
X123455047Y-91207820D01*
X123455051Y-91207816D01*
X123459514Y-91199054D01*
X123507488Y-91148259D01*
X123575308Y-91131463D01*
X123641444Y-91153999D01*
X123680486Y-91199056D01*
X123684951Y-91207820D01*
X123809890Y-91379786D01*
X123960213Y-91530109D01*
X124132179Y-91655048D01*
X124132181Y-91655049D01*
X124132184Y-91655051D01*
X124321588Y-91751557D01*
X124523757Y-91817246D01*
X124733713Y-91850500D01*
X124733714Y-91850500D01*
X124946286Y-91850500D01*
X124946287Y-91850500D01*
X125156243Y-91817246D01*
X125358412Y-91751557D01*
X125547816Y-91655051D01*
X125634138Y-91592335D01*
X125719786Y-91530109D01*
X125719788Y-91530106D01*
X125719792Y-91530104D01*
X125870104Y-91379792D01*
X125870106Y-91379788D01*
X125870109Y-91379786D01*
X125995048Y-91207820D01*
X125995047Y-91207820D01*
X125995051Y-91207816D01*
X126091557Y-91018412D01*
X126157246Y-90816243D01*
X126190500Y-90606287D01*
X126190500Y-90393713D01*
X128569500Y-90393713D01*
X128569500Y-90606287D01*
X128602754Y-90816243D01*
X128652973Y-90970801D01*
X128668444Y-91018414D01*
X128764951Y-91207820D01*
X128889890Y-91379786D01*
X129040213Y-91530109D01*
X129212179Y-91655048D01*
X129212181Y-91655049D01*
X129212184Y-91655051D01*
X129401588Y-91751557D01*
X129603757Y-91817246D01*
X129813713Y-91850500D01*
X129813714Y-91850500D01*
X130026286Y-91850500D01*
X130026287Y-91850500D01*
X130236243Y-91817246D01*
X130438412Y-91751557D01*
X130627816Y-91655051D01*
X130714138Y-91592335D01*
X130799786Y-91530109D01*
X130799788Y-91530106D01*
X130799792Y-91530104D01*
X130950104Y-91379792D01*
X130950106Y-91379788D01*
X130950109Y-91379786D01*
X131075048Y-91207820D01*
X131075047Y-91207820D01*
X131075051Y-91207816D01*
X131079514Y-91199054D01*
X131127488Y-91148259D01*
X131195308Y-91131463D01*
X131261444Y-91153999D01*
X131300486Y-91199056D01*
X131304951Y-91207820D01*
X131429890Y-91379786D01*
X131580213Y-91530109D01*
X131752179Y-91655048D01*
X131752181Y-91655049D01*
X131752184Y-91655051D01*
X131941588Y-91751557D01*
X132143757Y-91817246D01*
X132353713Y-91850500D01*
X132353714Y-91850500D01*
X132566286Y-91850500D01*
X132566287Y-91850500D01*
X132776243Y-91817246D01*
X132978412Y-91751557D01*
X133167816Y-91655051D01*
X133254138Y-91592335D01*
X133339786Y-91530109D01*
X133339788Y-91530106D01*
X133339792Y-91530104D01*
X133490104Y-91379792D01*
X133490106Y-91379788D01*
X133490109Y-91379786D01*
X133615048Y-91207820D01*
X133615047Y-91207820D01*
X133615051Y-91207816D01*
X133711557Y-91018412D01*
X133777246Y-90816243D01*
X133810500Y-90606287D01*
X133810500Y-90393713D01*
X133777246Y-90183757D01*
X133711557Y-89981588D01*
X133615051Y-89792184D01*
X133615049Y-89792181D01*
X133615048Y-89792179D01*
X133490109Y-89620213D01*
X133339786Y-89469890D01*
X133167820Y-89344951D01*
X132978414Y-89248444D01*
X132978413Y-89248443D01*
X132978412Y-89248443D01*
X132776243Y-89182754D01*
X132776241Y-89182753D01*
X132776240Y-89182753D01*
X132614957Y-89157208D01*
X132566287Y-89149500D01*
X132353713Y-89149500D01*
X132305042Y-89157208D01*
X132143760Y-89182753D01*
X131941585Y-89248444D01*
X131752179Y-89344951D01*
X131580213Y-89469890D01*
X131429890Y-89620213D01*
X131304949Y-89792182D01*
X131300484Y-89800946D01*
X131252509Y-89851742D01*
X131184688Y-89868536D01*
X131118553Y-89845998D01*
X131079516Y-89800946D01*
X131075050Y-89792182D01*
X130950109Y-89620213D01*
X130799786Y-89469890D01*
X130627820Y-89344951D01*
X130438414Y-89248444D01*
X130438413Y-89248443D01*
X130438412Y-89248443D01*
X130236243Y-89182754D01*
X130236241Y-89182753D01*
X130236240Y-89182753D01*
X130074957Y-89157208D01*
X130026287Y-89149500D01*
X129813713Y-89149500D01*
X129765042Y-89157208D01*
X129603760Y-89182753D01*
X129401585Y-89248444D01*
X129212179Y-89344951D01*
X129040213Y-89469890D01*
X128889890Y-89620213D01*
X128764951Y-89792179D01*
X128668444Y-89981585D01*
X128602753Y-90183760D01*
X128577475Y-90343361D01*
X128569500Y-90393713D01*
X126190500Y-90393713D01*
X126157246Y-90183757D01*
X126091557Y-89981588D01*
X125995051Y-89792184D01*
X125995049Y-89792181D01*
X125995048Y-89792179D01*
X125870109Y-89620213D01*
X125719786Y-89469890D01*
X125547820Y-89344951D01*
X125358414Y-89248444D01*
X125358413Y-89248443D01*
X125358412Y-89248443D01*
X125156243Y-89182754D01*
X125156241Y-89182753D01*
X125156240Y-89182753D01*
X124994957Y-89157208D01*
X124946287Y-89149500D01*
X124733713Y-89149500D01*
X124685042Y-89157208D01*
X124523760Y-89182753D01*
X124321585Y-89248444D01*
X124132179Y-89344951D01*
X123960213Y-89469890D01*
X123809890Y-89620213D01*
X123684949Y-89792182D01*
X123680484Y-89800946D01*
X123632509Y-89851742D01*
X123564688Y-89868536D01*
X123498553Y-89845998D01*
X123459516Y-89800946D01*
X123455050Y-89792182D01*
X123330109Y-89620213D01*
X123179786Y-89469890D01*
X123007820Y-89344951D01*
X122818414Y-89248444D01*
X122818413Y-89248443D01*
X122818412Y-89248443D01*
X122616243Y-89182754D01*
X122616241Y-89182753D01*
X122616240Y-89182753D01*
X122454957Y-89157208D01*
X122406287Y-89149500D01*
X122193713Y-89149500D01*
X122145042Y-89157208D01*
X121983760Y-89182753D01*
X121781585Y-89248444D01*
X121592179Y-89344951D01*
X121420215Y-89469889D01*
X121306673Y-89583431D01*
X121245350Y-89616915D01*
X121175658Y-89611931D01*
X121119725Y-89570059D01*
X121102810Y-89539082D01*
X121053797Y-89407671D01*
X121053793Y-89407664D01*
X120967547Y-89292455D01*
X120967544Y-89292452D01*
X120852335Y-89206206D01*
X120852328Y-89206202D01*
X120717482Y-89155908D01*
X120717483Y-89155908D01*
X120657883Y-89149501D01*
X120657881Y-89149500D01*
X120657873Y-89149500D01*
X120657864Y-89149500D01*
X118862129Y-89149500D01*
X118862123Y-89149501D01*
X118802516Y-89155908D01*
X118667671Y-89206202D01*
X118667664Y-89206206D01*
X118552455Y-89292452D01*
X118552452Y-89292455D01*
X118466206Y-89407664D01*
X118466202Y-89407671D01*
X118415908Y-89542517D01*
X118409501Y-89602116D01*
X118409500Y-89602135D01*
X115480518Y-89602135D01*
X115488948Y-89595787D01*
X115497101Y-89588263D01*
X115500446Y-89586284D01*
X115596610Y-89537287D01*
X115762219Y-89416966D01*
X115906966Y-89272219D01*
X115906968Y-89272215D01*
X115906971Y-89272213D01*
X115959732Y-89199590D01*
X116027287Y-89106610D01*
X116120220Y-88924219D01*
X116126298Y-88905513D01*
X141104500Y-88905513D01*
X141104500Y-89094486D01*
X141134059Y-89281118D01*
X141192454Y-89460836D01*
X141271772Y-89616505D01*
X141278240Y-89629199D01*
X141389310Y-89782073D01*
X141522927Y-89915690D01*
X141675801Y-90026760D01*
X141698546Y-90038349D01*
X141844163Y-90112545D01*
X141844165Y-90112545D01*
X141844168Y-90112547D01*
X142023882Y-90170940D01*
X142098536Y-90182763D01*
X142107969Y-90184258D01*
X142171103Y-90214187D01*
X142208035Y-90273498D01*
X142207037Y-90343361D01*
X142168428Y-90401594D01*
X142113330Y-90426759D01*
X142113610Y-90427925D01*
X142108881Y-90429059D01*
X141929163Y-90487454D01*
X141760800Y-90573240D01*
X141673579Y-90636610D01*
X141607927Y-90684310D01*
X141607925Y-90684312D01*
X141607924Y-90684312D01*
X141474312Y-90817924D01*
X141474312Y-90817925D01*
X141474310Y-90817927D01*
X141441818Y-90862648D01*
X141363240Y-90970800D01*
X141277454Y-91139163D01*
X141219059Y-91318881D01*
X141189500Y-91505513D01*
X141189500Y-91694486D01*
X141219059Y-91881118D01*
X141277454Y-92060836D01*
X141341992Y-92187497D01*
X141363240Y-92229199D01*
X141474310Y-92382073D01*
X141607927Y-92515690D01*
X141760801Y-92626760D01*
X141840347Y-92667290D01*
X141929163Y-92712545D01*
X141929165Y-92712545D01*
X141929168Y-92712547D01*
X142025497Y-92743846D01*
X142108881Y-92770940D01*
X142295514Y-92800500D01*
X142295519Y-92800500D01*
X142484486Y-92800500D01*
X142671118Y-92770940D01*
X142850832Y-92712547D01*
X143019199Y-92626760D01*
X143172073Y-92515690D01*
X143305690Y-92382073D01*
X143416760Y-92229199D01*
X143502547Y-92060832D01*
X143560940Y-91881118D01*
X143565790Y-91850498D01*
X143590500Y-91694486D01*
X143590500Y-91505513D01*
X143560940Y-91318881D01*
X143533846Y-91235497D01*
X143502547Y-91139168D01*
X143502545Y-91139165D01*
X143502545Y-91139163D01*
X143416759Y-90970800D01*
X143410111Y-90961650D01*
X143305690Y-90817927D01*
X143172073Y-90684310D01*
X143019199Y-90573240D01*
X142850836Y-90487454D01*
X142671119Y-90429060D01*
X142587029Y-90415741D01*
X142523895Y-90385811D01*
X142486964Y-90326500D01*
X142487962Y-90256637D01*
X142526572Y-90198405D01*
X142581671Y-90173247D01*
X142581390Y-90172075D01*
X142586118Y-90170940D01*
X142586121Y-90170939D01*
X142765832Y-90112547D01*
X142934199Y-90026760D01*
X143087073Y-89915690D01*
X143167319Y-89835444D01*
X143228642Y-89801959D01*
X143298334Y-89806943D01*
X143342681Y-89835444D01*
X143422927Y-89915690D01*
X143575801Y-90026760D01*
X143598546Y-90038349D01*
X143744163Y-90112545D01*
X143744165Y-90112545D01*
X143744168Y-90112547D01*
X143840497Y-90143846D01*
X143923881Y-90170940D01*
X144110514Y-90200500D01*
X144110519Y-90200500D01*
X144299486Y-90200500D01*
X144486118Y-90170940D01*
X144486121Y-90170939D01*
X144665832Y-90112547D01*
X144834199Y-90026760D01*
X144987073Y-89915690D01*
X145120690Y-89782073D01*
X145231760Y-89629199D01*
X145317547Y-89460832D01*
X145375940Y-89281118D01*
X145387805Y-89206204D01*
X145405500Y-89094486D01*
X145405500Y-88905513D01*
X145375940Y-88718881D01*
X145317545Y-88539163D01*
X145231759Y-88370800D01*
X145120690Y-88217927D01*
X144987073Y-88084310D01*
X144834199Y-87973240D01*
X144827320Y-87969735D01*
X144665836Y-87887454D01*
X144486118Y-87829059D01*
X144299486Y-87799500D01*
X144299481Y-87799500D01*
X144110519Y-87799500D01*
X144110514Y-87799500D01*
X143923881Y-87829059D01*
X143744163Y-87887454D01*
X143575800Y-87973240D01*
X143526035Y-88009397D01*
X143422927Y-88084310D01*
X143422925Y-88084312D01*
X143422924Y-88084312D01*
X143342681Y-88164556D01*
X143281358Y-88198041D01*
X143211666Y-88193057D01*
X143167319Y-88164556D01*
X143087075Y-88084312D01*
X143087073Y-88084310D01*
X142934199Y-87973240D01*
X142927320Y-87969735D01*
X142765836Y-87887454D01*
X142586118Y-87829059D01*
X142399486Y-87799500D01*
X142399481Y-87799500D01*
X142210519Y-87799500D01*
X142210514Y-87799500D01*
X142023881Y-87829059D01*
X141844163Y-87887454D01*
X141675800Y-87973240D01*
X141626035Y-88009397D01*
X141522927Y-88084310D01*
X141522925Y-88084312D01*
X141522924Y-88084312D01*
X141389312Y-88217924D01*
X141389312Y-88217925D01*
X141389310Y-88217927D01*
X141355000Y-88265150D01*
X141278240Y-88370800D01*
X141192454Y-88539163D01*
X141134059Y-88718881D01*
X141104500Y-88905513D01*
X116126298Y-88905513D01*
X116183477Y-88729534D01*
X116215500Y-88527352D01*
X116215500Y-88322648D01*
X116195764Y-88198041D01*
X116183477Y-88120465D01*
X116147388Y-88009397D01*
X116120220Y-87925781D01*
X116120218Y-87925778D01*
X116120218Y-87925776D01*
X116070938Y-87829060D01*
X116027287Y-87743390D01*
X115980640Y-87679185D01*
X115906971Y-87577786D01*
X115762213Y-87433028D01*
X115596613Y-87312715D01*
X115596612Y-87312714D01*
X115596610Y-87312713D01*
X115536898Y-87282288D01*
X115414223Y-87219781D01*
X115219534Y-87156522D01*
X115044995Y-87128878D01*
X115017352Y-87124500D01*
X114812648Y-87124500D01*
X114788329Y-87128351D01*
X114610465Y-87156522D01*
X114415776Y-87219781D01*
X114233386Y-87312715D01*
X114067786Y-87433028D01*
X113923028Y-87577786D01*
X113802715Y-87743386D01*
X113709781Y-87925776D01*
X113646522Y-88120465D01*
X113614500Y-88322648D01*
X108595499Y-88322648D01*
X108595499Y-87824992D01*
X108584999Y-87722203D01*
X108529814Y-87555666D01*
X108437712Y-87406344D01*
X108313656Y-87282288D01*
X108164334Y-87190186D01*
X107997797Y-87135001D01*
X107997795Y-87135000D01*
X107895010Y-87124500D01*
X106694998Y-87124500D01*
X106694981Y-87124501D01*
X106592203Y-87135000D01*
X106592200Y-87135001D01*
X106425668Y-87190185D01*
X106425663Y-87190187D01*
X106276342Y-87282289D01*
X106152289Y-87406342D01*
X106060187Y-87555663D01*
X106060185Y-87555668D01*
X106032349Y-87639670D01*
X106005001Y-87722203D01*
X106005001Y-87722204D01*
X106005000Y-87722204D01*
X105994500Y-87824983D01*
X102600500Y-87824983D01*
X102600500Y-85321153D01*
X123599500Y-85321153D01*
X123599500Y-85478846D01*
X123630261Y-85633489D01*
X123630263Y-85633497D01*
X123639144Y-85654938D01*
X123641156Y-85660122D01*
X123641655Y-85661497D01*
X123792073Y-86076355D01*
X123792074Y-86076356D01*
X123799500Y-86118623D01*
X123799500Y-86581372D01*
X123792074Y-86623640D01*
X123641634Y-87038550D01*
X123641615Y-87038604D01*
X123640196Y-87042520D01*
X123630263Y-87066503D01*
X123627565Y-87080062D01*
X123625154Y-87087572D01*
X123625140Y-87087614D01*
X123623688Y-87092138D01*
X123623222Y-87093798D01*
X123605367Y-87190266D01*
X123604822Y-87194398D01*
X123599500Y-87221156D01*
X123599500Y-87378846D01*
X123630261Y-87533489D01*
X123630264Y-87533501D01*
X123690602Y-87679172D01*
X123690609Y-87679185D01*
X123778210Y-87810288D01*
X123778213Y-87810292D01*
X123889707Y-87921786D01*
X123889711Y-87921789D01*
X124020814Y-88009390D01*
X124020827Y-88009397D01*
X124166498Y-88069735D01*
X124166503Y-88069737D01*
X124321153Y-88100499D01*
X124321156Y-88100500D01*
X124321158Y-88100500D01*
X124478844Y-88100500D01*
X124478845Y-88100499D01*
X124633497Y-88069737D01*
X124779179Y-88009394D01*
X124910289Y-87921789D01*
X125021789Y-87810289D01*
X125109394Y-87679179D01*
X125169737Y-87533497D01*
X125200500Y-87378842D01*
X125200500Y-87221158D01*
X125200500Y-87221156D01*
X125200500Y-87221155D01*
X125200499Y-87221153D01*
X125183362Y-87135000D01*
X125169737Y-87066503D01*
X125160854Y-87045057D01*
X125158843Y-87039877D01*
X125137155Y-86980062D01*
X125007926Y-86623642D01*
X125000500Y-86581375D01*
X125000500Y-86118622D01*
X125007926Y-86076355D01*
X125159786Y-85657518D01*
X125169737Y-85633497D01*
X125172426Y-85619977D01*
X125176238Y-85608118D01*
X125176707Y-85606450D01*
X125193419Y-85516279D01*
X125193418Y-85516275D01*
X125194630Y-85509741D01*
X125195175Y-85505608D01*
X125198400Y-85489395D01*
X125200500Y-85478844D01*
X125200500Y-85321155D01*
X125200499Y-85321153D01*
X125181056Y-85223409D01*
X125169737Y-85166503D01*
X125169735Y-85166498D01*
X125109397Y-85020827D01*
X125109390Y-85020814D01*
X125021789Y-84889711D01*
X125021786Y-84889707D01*
X124910292Y-84778213D01*
X124910288Y-84778210D01*
X124779185Y-84690609D01*
X124779172Y-84690602D01*
X124633501Y-84630264D01*
X124633489Y-84630261D01*
X124478845Y-84599500D01*
X124478842Y-84599500D01*
X124321158Y-84599500D01*
X124321155Y-84599500D01*
X124166510Y-84630261D01*
X124166498Y-84630264D01*
X124020827Y-84690602D01*
X124020814Y-84690609D01*
X123889711Y-84778210D01*
X123889707Y-84778213D01*
X123778213Y-84889707D01*
X123778210Y-84889711D01*
X123690609Y-85020814D01*
X123690602Y-85020827D01*
X123630264Y-85166498D01*
X123630261Y-85166510D01*
X123599500Y-85321153D01*
X102600500Y-85321153D01*
X102600500Y-82162135D01*
X106149500Y-82162135D01*
X106149500Y-83957870D01*
X106149501Y-83957876D01*
X106155908Y-84017483D01*
X106206202Y-84152328D01*
X106206206Y-84152335D01*
X106292452Y-84267544D01*
X106292455Y-84267547D01*
X106407664Y-84353793D01*
X106407671Y-84353797D01*
X106542517Y-84404091D01*
X106542516Y-84404091D01*
X106549444Y-84404835D01*
X106602127Y-84410500D01*
X108397872Y-84410499D01*
X108457483Y-84404091D01*
X108592331Y-84353796D01*
X108707546Y-84267546D01*
X108793796Y-84152331D01*
X108844091Y-84017483D01*
X108850500Y-83957873D01*
X108850500Y-83521153D01*
X129599500Y-83521153D01*
X129599500Y-83678846D01*
X129630261Y-83833489D01*
X129630263Y-83833497D01*
X129639144Y-83854938D01*
X129641156Y-83860122D01*
X129676598Y-83957872D01*
X129792073Y-84276355D01*
X129792074Y-84276356D01*
X129799500Y-84318623D01*
X129799500Y-86481372D01*
X129792074Y-86523640D01*
X129641634Y-86938550D01*
X129641615Y-86938604D01*
X129640196Y-86942520D01*
X129630263Y-86966503D01*
X129627565Y-86980062D01*
X129625154Y-86987572D01*
X129625140Y-86987614D01*
X129623688Y-86992138D01*
X129623222Y-86993798D01*
X129605367Y-87090266D01*
X129604822Y-87094398D01*
X129599500Y-87121156D01*
X129599500Y-87278846D01*
X129630261Y-87433489D01*
X129630264Y-87433501D01*
X129690602Y-87579172D01*
X129690609Y-87579185D01*
X129778210Y-87710288D01*
X129778213Y-87710292D01*
X129889707Y-87821786D01*
X129889711Y-87821789D01*
X130020814Y-87909390D01*
X130020827Y-87909397D01*
X130166498Y-87969735D01*
X130166503Y-87969737D01*
X130321153Y-88000499D01*
X130321156Y-88000500D01*
X130321158Y-88000500D01*
X130478844Y-88000500D01*
X130478845Y-88000499D01*
X130633497Y-87969737D01*
X130779179Y-87909394D01*
X130910289Y-87821789D01*
X131021789Y-87710289D01*
X131109394Y-87579179D01*
X131169737Y-87433497D01*
X131200500Y-87278842D01*
X131200500Y-87121158D01*
X131200500Y-87121156D01*
X131200500Y-87121155D01*
X131200499Y-87121153D01*
X131194728Y-87092139D01*
X131169737Y-86966503D01*
X131160854Y-86945057D01*
X131158843Y-86939877D01*
X131007926Y-86523642D01*
X131000500Y-86481375D01*
X131000500Y-84318622D01*
X131007926Y-84276355D01*
X131011121Y-84267544D01*
X131159786Y-83857518D01*
X131169737Y-83833497D01*
X131172426Y-83819977D01*
X131176238Y-83808118D01*
X131176707Y-83806450D01*
X131193419Y-83716279D01*
X131193418Y-83716275D01*
X131194630Y-83709741D01*
X131195175Y-83705608D01*
X131198400Y-83689395D01*
X131200500Y-83678844D01*
X131200500Y-83521155D01*
X131200499Y-83521153D01*
X131169738Y-83366510D01*
X131169737Y-83366503D01*
X131142398Y-83300500D01*
X131109397Y-83220827D01*
X131109390Y-83220814D01*
X131021789Y-83089711D01*
X131021786Y-83089707D01*
X130910292Y-82978213D01*
X130910288Y-82978210D01*
X130779185Y-82890609D01*
X130779172Y-82890602D01*
X130633501Y-82830264D01*
X130633489Y-82830261D01*
X130478845Y-82799500D01*
X130478842Y-82799500D01*
X130321158Y-82799500D01*
X130321155Y-82799500D01*
X130166510Y-82830261D01*
X130166498Y-82830264D01*
X130020827Y-82890602D01*
X130020814Y-82890609D01*
X129889711Y-82978210D01*
X129889707Y-82978213D01*
X129778213Y-83089707D01*
X129778210Y-83089711D01*
X129690609Y-83220814D01*
X129690602Y-83220827D01*
X129630264Y-83366498D01*
X129630261Y-83366510D01*
X129599500Y-83521153D01*
X108850500Y-83521153D01*
X108850499Y-83010294D01*
X108850499Y-82162129D01*
X108850498Y-82162123D01*
X108850497Y-82162116D01*
X108844091Y-82102517D01*
X108813981Y-82021789D01*
X108793797Y-81967671D01*
X108793793Y-81967664D01*
X108735189Y-81889380D01*
X108735188Y-81889379D01*
X108707546Y-81852454D01*
X108665740Y-81821158D01*
X108665733Y-81821153D01*
X123099500Y-81821153D01*
X123099500Y-81978846D01*
X123130261Y-82133489D01*
X123130264Y-82133501D01*
X123190602Y-82279172D01*
X123190609Y-82279185D01*
X123278210Y-82410288D01*
X123278213Y-82410292D01*
X123389707Y-82521786D01*
X123389711Y-82521789D01*
X123520814Y-82609390D01*
X123520827Y-82609397D01*
X123640185Y-82658836D01*
X123666503Y-82669737D01*
X123821153Y-82700499D01*
X123821156Y-82700500D01*
X123821158Y-82700500D01*
X123978844Y-82700500D01*
X123978845Y-82700499D01*
X124133497Y-82669737D01*
X124154964Y-82660843D01*
X124160120Y-82658842D01*
X124576357Y-82507926D01*
X124618624Y-82500500D01*
X126013331Y-82500500D01*
X126013347Y-82500501D01*
X126020943Y-82500501D01*
X126179054Y-82500501D01*
X126179057Y-82500501D01*
X126331785Y-82459577D01*
X126388940Y-82426578D01*
X126468716Y-82380520D01*
X126580520Y-82268716D01*
X126580520Y-82268714D01*
X126590724Y-82258511D01*
X126590728Y-82258506D01*
X127528080Y-81321153D01*
X133099500Y-81321153D01*
X133099500Y-81478846D01*
X133130261Y-81633489D01*
X133130264Y-81633501D01*
X133190602Y-81779172D01*
X133190609Y-81779185D01*
X133278210Y-81910288D01*
X133278213Y-81910292D01*
X133389707Y-82021786D01*
X133389711Y-82021789D01*
X133520814Y-82109390D01*
X133520827Y-82109397D01*
X133648150Y-82162135D01*
X133666503Y-82169737D01*
X133821153Y-82200499D01*
X133821156Y-82200500D01*
X133821158Y-82200500D01*
X133978844Y-82200500D01*
X133978845Y-82200499D01*
X134133497Y-82169737D01*
X134251592Y-82120821D01*
X134279172Y-82109397D01*
X134279172Y-82109396D01*
X134279179Y-82109394D01*
X134410289Y-82021789D01*
X134521789Y-81910289D01*
X134609394Y-81779179D01*
X134669737Y-81633497D01*
X134700500Y-81478842D01*
X134700500Y-81321158D01*
X134690379Y-81270278D01*
X134689626Y-81266118D01*
X134688657Y-81260191D01*
X134686387Y-81225468D01*
X134671327Y-81154155D01*
X134670869Y-81151350D01*
X134674836Y-81119411D01*
X134677328Y-81087312D01*
X134679179Y-81084450D01*
X134679482Y-81082014D01*
X134685175Y-81075183D01*
X134705562Y-81043671D01*
X137616477Y-78132756D01*
X137651611Y-78108122D01*
X137673958Y-78097668D01*
X137743022Y-78087093D01*
X137806841Y-78115534D01*
X137845152Y-78173964D01*
X137850500Y-78209987D01*
X137850500Y-79864330D01*
X137850499Y-79864348D01*
X137850499Y-80030054D01*
X137850498Y-80030054D01*
X137891423Y-80182785D01*
X137911204Y-80217045D01*
X137911205Y-80217049D01*
X137970475Y-80319709D01*
X137970481Y-80319717D01*
X138089349Y-80438585D01*
X138089355Y-80438590D01*
X140067235Y-82416470D01*
X140091872Y-82451608D01*
X140278868Y-82851339D01*
X140278883Y-82851370D01*
X140280655Y-82855157D01*
X140290606Y-82879179D01*
X140298321Y-82890726D01*
X140301915Y-82897716D01*
X140301932Y-82897750D01*
X140304175Y-82902111D01*
X140305028Y-82903630D01*
X140360434Y-82984183D01*
X140363029Y-82987569D01*
X140378208Y-83010286D01*
X140378215Y-83010294D01*
X140489707Y-83121786D01*
X140489711Y-83121789D01*
X140620814Y-83209390D01*
X140620827Y-83209397D01*
X140766498Y-83269735D01*
X140766503Y-83269737D01*
X140921153Y-83300499D01*
X140921156Y-83300500D01*
X140921158Y-83300500D01*
X141078844Y-83300500D01*
X141078845Y-83300499D01*
X141233497Y-83269737D01*
X141351592Y-83220821D01*
X141379172Y-83209397D01*
X141379172Y-83209396D01*
X141379179Y-83209394D01*
X141510289Y-83121789D01*
X141621789Y-83010289D01*
X141709394Y-82879179D01*
X141769737Y-82733497D01*
X141800500Y-82578842D01*
X141800500Y-82421158D01*
X141800500Y-82421155D01*
X141800499Y-82421153D01*
X141792417Y-82380522D01*
X141769737Y-82266503D01*
X141766427Y-82258511D01*
X141709397Y-82120827D01*
X141709390Y-82120814D01*
X141621789Y-81989711D01*
X141621786Y-81989707D01*
X141510292Y-81878213D01*
X141510284Y-81878207D01*
X141379181Y-81790607D01*
X141379182Y-81790607D01*
X141357744Y-81781727D01*
X141352657Y-81779485D01*
X140951608Y-81591872D01*
X140916470Y-81567235D01*
X140451786Y-81102551D01*
X140418301Y-81041228D01*
X140423285Y-80971536D01*
X140465157Y-80915603D01*
X140515276Y-80893253D01*
X140568001Y-80882765D01*
X140633497Y-80869737D01*
X140779179Y-80809394D01*
X140910289Y-80721789D01*
X140943480Y-80688597D01*
X141004799Y-80655113D01*
X141074490Y-80660096D01*
X141118841Y-80688598D01*
X141220871Y-80790628D01*
X141286417Y-80834424D01*
X141351982Y-80878233D01*
X141373449Y-80887124D01*
X141378524Y-80889360D01*
X141779549Y-81076962D01*
X141814686Y-81101599D01*
X142377461Y-81664374D01*
X142377471Y-81664385D01*
X142381801Y-81668715D01*
X142381802Y-81668716D01*
X142493606Y-81780520D01*
X142563995Y-81821158D01*
X142580417Y-81830639D01*
X142580419Y-81830641D01*
X142630535Y-81859576D01*
X142630537Y-81859577D01*
X142783264Y-81900500D01*
X142783265Y-81900500D01*
X150010500Y-81900500D01*
X150077539Y-81920185D01*
X150123294Y-81972989D01*
X150134500Y-82024500D01*
X150134500Y-91926000D01*
X150134501Y-91926009D01*
X150146052Y-92033450D01*
X150146054Y-92033462D01*
X150157260Y-92084972D01*
X150191383Y-92187497D01*
X150191386Y-92187503D01*
X150269171Y-92308537D01*
X150269179Y-92308548D01*
X150314923Y-92361340D01*
X150314926Y-92361343D01*
X150314930Y-92361347D01*
X150423664Y-92455567D01*
X150423667Y-92455568D01*
X150423668Y-92455569D01*
X150541582Y-92509420D01*
X150554541Y-92515338D01*
X150621580Y-92535023D01*
X150621584Y-92535024D01*
X150764000Y-92555500D01*
X150764003Y-92555500D01*
X153126236Y-92555500D01*
X153126249Y-92555500D01*
X153179005Y-92552739D01*
X153204744Y-92550038D01*
X153257401Y-92541686D01*
X153257403Y-92541685D01*
X153257474Y-92541674D01*
X153259958Y-92541033D01*
X153260662Y-92540983D01*
X153335376Y-92524653D01*
X153378814Y-92510418D01*
X153382689Y-92509420D01*
X153387965Y-92509596D01*
X153413621Y-92505500D01*
X159775990Y-92505500D01*
X159776000Y-92505500D01*
X159883456Y-92493947D01*
X159934967Y-92482741D01*
X159969197Y-92471347D01*
X160037497Y-92448616D01*
X160037501Y-92448613D01*
X160037504Y-92448613D01*
X160158543Y-92370825D01*
X160211347Y-92325070D01*
X160305567Y-92216336D01*
X160365338Y-92085459D01*
X160385023Y-92018420D01*
X160385024Y-92018416D01*
X160405500Y-91876000D01*
X160405500Y-85624000D01*
X160393947Y-85516544D01*
X160382741Y-85465033D01*
X160382637Y-85464722D01*
X160348616Y-85362502D01*
X160348613Y-85362496D01*
X160295669Y-85280115D01*
X160294093Y-85274750D01*
X160290206Y-85270735D01*
X160284358Y-85241596D01*
X160275984Y-85213076D01*
X160277269Y-85206268D01*
X160276459Y-85202231D01*
X160281715Y-85182715D01*
X160284518Y-85167869D01*
X160285991Y-85164105D01*
X160322648Y-85085960D01*
X160343016Y-85019125D01*
X160343017Y-85019122D01*
X160364946Y-84876923D01*
X160453175Y-76230422D01*
X160451399Y-76212623D01*
X160442191Y-76120339D01*
X160442190Y-76120334D01*
X160442190Y-76120332D01*
X160430991Y-76067557D01*
X160408702Y-76000013D01*
X160396321Y-75962495D01*
X160396320Y-75962493D01*
X160318537Y-75841462D01*
X160318528Y-75841451D01*
X160272784Y-75788659D01*
X160272780Y-75788656D01*
X160272778Y-75788653D01*
X160164044Y-75694433D01*
X160164041Y-75694431D01*
X160164039Y-75694430D01*
X160033173Y-75634664D01*
X160033168Y-75634662D01*
X160033167Y-75634662D01*
X159966128Y-75614977D01*
X159966130Y-75614977D01*
X159966125Y-75614976D01*
X159904055Y-75606052D01*
X159823708Y-75594500D01*
X157417947Y-75594500D01*
X157417934Y-75594500D01*
X157359456Y-75597896D01*
X157359402Y-75597901D01*
X157330926Y-75601220D01*
X157273175Y-75611373D01*
X157255699Y-75618249D01*
X157186108Y-75624476D01*
X157124197Y-75592091D01*
X157122619Y-75590540D01*
X157010292Y-75478213D01*
X157010284Y-75478207D01*
X156879181Y-75390607D01*
X156879182Y-75390607D01*
X156857744Y-75381727D01*
X156852657Y-75379485D01*
X156547686Y-75236818D01*
X156495304Y-75190581D01*
X156476234Y-75123364D01*
X156496532Y-75056508D01*
X156549753Y-75011238D01*
X156600229Y-75000500D01*
X156678844Y-75000500D01*
X156678845Y-75000499D01*
X156833497Y-74969737D01*
X156951592Y-74920821D01*
X156979172Y-74909397D01*
X156979172Y-74909396D01*
X156979179Y-74909394D01*
X157110289Y-74821789D01*
X157221789Y-74710289D01*
X157309394Y-74579179D01*
X157310177Y-74577290D01*
X157331628Y-74525500D01*
X157369737Y-74433497D01*
X157400500Y-74278842D01*
X157400500Y-74121158D01*
X157400500Y-74121155D01*
X157400499Y-74121153D01*
X157393015Y-74083528D01*
X157369737Y-73966503D01*
X157359953Y-73942882D01*
X157309397Y-73820827D01*
X157309390Y-73820814D01*
X157221789Y-73689711D01*
X157221786Y-73689707D01*
X157110292Y-73578213D01*
X157110288Y-73578210D01*
X156979185Y-73490609D01*
X156979172Y-73490602D01*
X156833501Y-73430264D01*
X156833489Y-73430261D01*
X156678845Y-73399500D01*
X156678842Y-73399500D01*
X156521158Y-73399500D01*
X156521156Y-73399500D01*
X156366504Y-73430262D01*
X156366499Y-73430264D01*
X156345058Y-73439144D01*
X156339879Y-73441154D01*
X155923640Y-73592074D01*
X155881373Y-73599500D01*
X149061589Y-73599500D01*
X148997184Y-73581462D01*
X148738779Y-73424398D01*
X148701420Y-73403797D01*
X148701417Y-73403796D01*
X148696394Y-73401026D01*
X148696519Y-73400798D01*
X148685039Y-73394521D01*
X148679179Y-73390606D01*
X148679177Y-73390605D01*
X148679174Y-73390603D01*
X148533501Y-73330264D01*
X148533489Y-73330261D01*
X148378845Y-73299500D01*
X148378842Y-73299500D01*
X148221158Y-73299500D01*
X148221155Y-73299500D01*
X148066510Y-73330261D01*
X148066498Y-73330264D01*
X147920827Y-73390602D01*
X147920814Y-73390609D01*
X147789711Y-73478210D01*
X147789707Y-73478213D01*
X147678213Y-73589707D01*
X147678210Y-73589711D01*
X147590609Y-73720814D01*
X147590602Y-73720827D01*
X147530264Y-73866498D01*
X147530261Y-73866510D01*
X147499500Y-74021153D01*
X147499500Y-74178846D01*
X147530261Y-74333489D01*
X147530264Y-74333501D01*
X147590602Y-74479172D01*
X147590609Y-74479185D01*
X147678210Y-74610288D01*
X147678213Y-74610292D01*
X147789707Y-74721786D01*
X147789711Y-74721789D01*
X147925886Y-74812779D01*
X147924572Y-74814745D01*
X147936331Y-74826298D01*
X147957907Y-74842450D01*
X147960878Y-74850415D01*
X147966944Y-74856375D01*
X147972905Y-74882661D01*
X147982325Y-74907914D01*
X147980517Y-74916223D01*
X147982398Y-74924514D01*
X147973203Y-74949847D01*
X147967474Y-74976187D01*
X147960039Y-74986118D01*
X147958561Y-74990192D01*
X147946323Y-75004441D01*
X147887585Y-75063180D01*
X147826262Y-75096666D01*
X147799903Y-75099500D01*
X145518625Y-75099500D01*
X145476358Y-75092074D01*
X145060132Y-74941160D01*
X145054947Y-74939147D01*
X145033502Y-74930264D01*
X145033487Y-74930261D01*
X145026959Y-74928962D01*
X145013225Y-74925401D01*
X145008178Y-74923779D01*
X145006520Y-74923312D01*
X144909793Y-74905377D01*
X144905598Y-74904822D01*
X144901292Y-74903965D01*
X144878842Y-74899500D01*
X144721158Y-74899500D01*
X144721155Y-74899500D01*
X144566510Y-74930261D01*
X144566498Y-74930264D01*
X144420827Y-74990602D01*
X144420814Y-74990609D01*
X144289711Y-75078210D01*
X144289707Y-75078213D01*
X144178213Y-75189707D01*
X144178210Y-75189711D01*
X144090609Y-75320814D01*
X144090602Y-75320827D01*
X144030264Y-75466498D01*
X144030261Y-75466510D01*
X143999500Y-75621153D01*
X143999500Y-75778846D01*
X144030261Y-75933489D01*
X144030264Y-75933501D01*
X144090602Y-76079172D01*
X144090609Y-76079185D01*
X144178210Y-76210288D01*
X144178213Y-76210292D01*
X144289707Y-76321786D01*
X144289711Y-76321789D01*
X144420814Y-76409390D01*
X144420827Y-76409397D01*
X144540185Y-76458836D01*
X144566503Y-76469737D01*
X144660499Y-76488434D01*
X144721153Y-76500499D01*
X144721156Y-76500500D01*
X144721158Y-76500500D01*
X144878844Y-76500500D01*
X144878845Y-76500499D01*
X145033497Y-76469737D01*
X145054964Y-76460843D01*
X145060120Y-76458842D01*
X145469831Y-76310292D01*
X145476357Y-76307926D01*
X145518624Y-76300500D01*
X148013331Y-76300500D01*
X148013347Y-76300501D01*
X148020943Y-76300501D01*
X148179054Y-76300501D01*
X148179057Y-76300501D01*
X148331785Y-76259577D01*
X148331787Y-76259575D01*
X148331789Y-76259575D01*
X148331790Y-76259574D01*
X148384578Y-76229097D01*
X148452478Y-76212623D01*
X148518505Y-76235475D01*
X148549681Y-76267592D01*
X148578210Y-76310288D01*
X148578213Y-76310292D01*
X148689707Y-76421786D01*
X148689711Y-76421789D01*
X148820814Y-76509390D01*
X148820827Y-76509397D01*
X148964038Y-76568716D01*
X148966503Y-76569737D01*
X149116201Y-76599514D01*
X149121153Y-76600499D01*
X149121156Y-76600500D01*
X149121158Y-76600500D01*
X149278844Y-76600500D01*
X149278845Y-76600499D01*
X149433497Y-76569737D01*
X149505043Y-76540101D01*
X149536231Y-76536748D01*
X149567159Y-76531533D01*
X149570691Y-76533043D01*
X149574512Y-76532633D01*
X149602560Y-76546673D01*
X149631400Y-76559007D01*
X149633555Y-76562188D01*
X149636991Y-76563908D01*
X149652998Y-76590887D01*
X149670589Y-76616852D01*
X149670682Y-76620692D01*
X149672643Y-76623997D01*
X149671523Y-76655339D01*
X149672285Y-76686701D01*
X149670242Y-76691212D01*
X149670149Y-76693822D01*
X149658406Y-76719152D01*
X149657038Y-76721397D01*
X149590606Y-76820821D01*
X149580659Y-76844834D01*
X149576616Y-76853475D01*
X149576610Y-76853486D01*
X149391872Y-77248390D01*
X149367235Y-77283528D01*
X148660204Y-77990561D01*
X148598881Y-78024046D01*
X148572523Y-78026880D01*
X146402257Y-78026880D01*
X146335218Y-78007195D01*
X146289463Y-77954391D01*
X146279519Y-77885233D01*
X146280640Y-77878689D01*
X146296944Y-77796716D01*
X146300500Y-77778842D01*
X146300500Y-77621158D01*
X146300500Y-77621155D01*
X146300499Y-77621153D01*
X146272947Y-77482642D01*
X146269737Y-77466503D01*
X146233427Y-77378842D01*
X146209397Y-77320827D01*
X146209390Y-77320814D01*
X146121789Y-77189711D01*
X146121786Y-77189707D01*
X146010292Y-77078213D01*
X146010288Y-77078210D01*
X145879185Y-76990609D01*
X145879172Y-76990602D01*
X145733501Y-76930264D01*
X145733489Y-76930261D01*
X145578845Y-76899500D01*
X145578842Y-76899500D01*
X145421158Y-76899500D01*
X145421156Y-76899500D01*
X145266504Y-76930262D01*
X145266499Y-76930264D01*
X145245058Y-76939144D01*
X145239879Y-76941154D01*
X144823640Y-77092074D01*
X144781373Y-77099500D01*
X142886670Y-77099500D01*
X142886654Y-77099499D01*
X142879058Y-77099499D01*
X142720943Y-77099499D01*
X142644579Y-77119961D01*
X142568214Y-77140423D01*
X142568209Y-77140426D01*
X142431290Y-77219475D01*
X142431282Y-77219481D01*
X140483528Y-79167235D01*
X140448390Y-79191872D01*
X140048668Y-79378864D01*
X140048621Y-79378887D01*
X140044836Y-79380658D01*
X140020821Y-79390606D01*
X140009243Y-79398341D01*
X140002279Y-79401923D01*
X140002204Y-79401961D01*
X139997707Y-79404275D01*
X139996191Y-79405128D01*
X139915799Y-79460446D01*
X139912423Y-79463034D01*
X139889714Y-79478208D01*
X139778209Y-79589712D01*
X139690609Y-79720814D01*
X139690602Y-79720827D01*
X139630264Y-79866498D01*
X139630261Y-79866508D01*
X139606746Y-79984724D01*
X139574361Y-80046635D01*
X139513645Y-80081209D01*
X139443875Y-80077468D01*
X139397448Y-80048213D01*
X139087819Y-79738584D01*
X139054334Y-79677261D01*
X139051500Y-79650903D01*
X139051500Y-76571944D01*
X139050909Y-76569738D01*
X139050636Y-76568716D01*
X139048034Y-76559007D01*
X139041077Y-76533043D01*
X139029124Y-76488432D01*
X139030785Y-76418584D01*
X139069947Y-76360721D01*
X139134175Y-76333216D01*
X139203078Y-76344802D01*
X139236579Y-76368658D01*
X139289707Y-76421786D01*
X139289711Y-76421789D01*
X139420814Y-76509390D01*
X139420827Y-76509397D01*
X139564038Y-76568716D01*
X139566503Y-76569737D01*
X139716201Y-76599514D01*
X139721153Y-76600499D01*
X139721156Y-76600500D01*
X139721158Y-76600500D01*
X139878844Y-76600500D01*
X139878845Y-76600499D01*
X140033497Y-76569737D01*
X140179179Y-76509394D01*
X140310289Y-76421789D01*
X140421789Y-76310289D01*
X140509394Y-76179179D01*
X140569737Y-76033497D01*
X140600500Y-75878842D01*
X140600500Y-75721158D01*
X140600500Y-75721156D01*
X140600500Y-75721155D01*
X140600499Y-75721153D01*
X140587147Y-75654028D01*
X140569737Y-75566503D01*
X140560854Y-75545057D01*
X140558843Y-75539877D01*
X140556527Y-75533489D01*
X140492735Y-75357551D01*
X140488390Y-75287818D01*
X140521627Y-75227606D01*
X140816476Y-74932757D01*
X140851608Y-74908125D01*
X141252639Y-74720519D01*
X141257699Y-74718290D01*
X141279179Y-74709394D01*
X141284842Y-74705609D01*
X141297032Y-74698434D01*
X141302117Y-74695821D01*
X141303627Y-74694972D01*
X141378741Y-74643308D01*
X141378741Y-74643306D01*
X141384210Y-74639546D01*
X141387577Y-74636963D01*
X141410289Y-74621789D01*
X141521789Y-74510289D01*
X141609394Y-74379179D01*
X141669737Y-74233497D01*
X141700500Y-74078842D01*
X141700500Y-73921158D01*
X141700500Y-73921155D01*
X141700499Y-73921153D01*
X141692148Y-73879172D01*
X141669737Y-73766503D01*
X141650955Y-73721158D01*
X141609397Y-73620827D01*
X141609390Y-73620814D01*
X141521789Y-73489711D01*
X141521786Y-73489707D01*
X141410292Y-73378213D01*
X141410288Y-73378210D01*
X141279185Y-73290609D01*
X141279172Y-73290602D01*
X141133501Y-73230264D01*
X141133489Y-73230261D01*
X140978845Y-73199500D01*
X140978842Y-73199500D01*
X140824500Y-73199500D01*
X140757461Y-73179815D01*
X140711706Y-73127011D01*
X140700500Y-73075500D01*
X140700500Y-72921155D01*
X140700499Y-72921153D01*
X140677155Y-72803797D01*
X140669737Y-72766503D01*
X140669735Y-72766498D01*
X140609397Y-72620827D01*
X140609390Y-72620814D01*
X140521789Y-72489711D01*
X140521786Y-72489707D01*
X140410296Y-72378217D01*
X140410291Y-72378213D01*
X140410289Y-72378211D01*
X140373298Y-72353494D01*
X140373082Y-72353298D01*
X140372305Y-72352831D01*
X140324399Y-72320821D01*
X140279184Y-72290609D01*
X140279175Y-72290604D01*
X140139151Y-72232604D01*
X140138495Y-72232330D01*
X139871321Y-72119863D01*
X139857432Y-72112964D01*
X139781904Y-72069360D01*
X139781902Y-72069358D01*
X139781901Y-72069358D01*
X139731785Y-72040423D01*
X139579057Y-71999499D01*
X139420943Y-71999499D01*
X139413347Y-71999499D01*
X139413331Y-71999500D01*
X138218625Y-71999500D01*
X138176358Y-71992074D01*
X137761490Y-71841652D01*
X137761456Y-71841640D01*
X137757516Y-71840212D01*
X137733497Y-71830263D01*
X137719991Y-71827576D01*
X137708178Y-71823779D01*
X137706520Y-71823312D01*
X137609793Y-71805377D01*
X137605598Y-71804822D01*
X137601292Y-71803965D01*
X137578842Y-71799500D01*
X137421158Y-71799500D01*
X137421155Y-71799500D01*
X137266510Y-71830261D01*
X137266498Y-71830264D01*
X137120827Y-71890602D01*
X137120814Y-71890609D01*
X136989711Y-71978210D01*
X136989707Y-71978213D01*
X136878213Y-72089707D01*
X136878210Y-72089711D01*
X136790609Y-72220814D01*
X136790602Y-72220827D01*
X136730264Y-72366498D01*
X136730261Y-72366510D01*
X136699500Y-72521153D01*
X136699500Y-72678846D01*
X136730261Y-72833489D01*
X136730264Y-72833501D01*
X136790602Y-72979172D01*
X136790609Y-72979185D01*
X136878210Y-73110288D01*
X136878213Y-73110292D01*
X136989707Y-73221786D01*
X136989711Y-73221789D01*
X137120814Y-73309390D01*
X137120827Y-73309397D01*
X137240185Y-73358836D01*
X137266503Y-73369737D01*
X137391095Y-73394520D01*
X137421153Y-73400499D01*
X137421156Y-73400500D01*
X137421158Y-73400500D01*
X137578844Y-73400500D01*
X137578845Y-73400499D01*
X137733497Y-73369737D01*
X137754964Y-73360843D01*
X137760120Y-73358842D01*
X138105830Y-73233497D01*
X138176357Y-73207926D01*
X138218624Y-73200500D01*
X139033741Y-73200500D01*
X139100780Y-73220185D01*
X139146535Y-73272989D01*
X139148302Y-73277048D01*
X139190602Y-73379172D01*
X139190609Y-73379185D01*
X139278210Y-73510288D01*
X139278213Y-73510292D01*
X139389707Y-73621786D01*
X139389711Y-73621789D01*
X139520814Y-73709390D01*
X139520827Y-73709397D01*
X139622735Y-73751608D01*
X139666503Y-73769737D01*
X139821153Y-73800499D01*
X139821156Y-73800500D01*
X139912932Y-73800500D01*
X139913499Y-73800666D01*
X139914070Y-73800505D01*
X139947026Y-73810511D01*
X139979971Y-73820185D01*
X139980357Y-73820631D01*
X139980926Y-73820804D01*
X140003241Y-73847041D01*
X140025726Y-73872989D01*
X140025810Y-73873574D01*
X140026194Y-73874026D01*
X140030776Y-73908114D01*
X140035670Y-73942147D01*
X140035450Y-73942882D01*
X140035503Y-73943273D01*
X140025249Y-73977045D01*
X139991871Y-74048392D01*
X139967235Y-74083528D01*
X139431286Y-74619478D01*
X139319481Y-74731282D01*
X139319475Y-74731290D01*
X139278527Y-74802216D01*
X139278527Y-74802218D01*
X139240423Y-74868214D01*
X139229390Y-74909390D01*
X139199499Y-75020943D01*
X139199499Y-75020945D01*
X139199499Y-75081375D01*
X139192073Y-75123643D01*
X139041634Y-75538550D01*
X139041615Y-75538604D01*
X139040196Y-75542520D01*
X139030263Y-75566503D01*
X139027565Y-75580062D01*
X139025154Y-75587572D01*
X139025140Y-75587614D01*
X139023688Y-75592138D01*
X139023222Y-75593798D01*
X139005262Y-75690839D01*
X139005028Y-75690795D01*
X139004822Y-75694398D01*
X138999500Y-75721156D01*
X138999500Y-75884934D01*
X138996999Y-75884934D01*
X138996328Y-75888459D01*
X138998528Y-75902820D01*
X138989938Y-75922092D01*
X138986000Y-75942826D01*
X138976000Y-75953368D01*
X138970087Y-75966639D01*
X138952440Y-75978209D01*
X138937919Y-75993521D01*
X138923808Y-75996983D01*
X138911658Y-76004951D01*
X138890557Y-76005144D01*
X138870063Y-76010174D01*
X138856318Y-76005457D01*
X138841791Y-76005591D01*
X138823936Y-75994346D01*
X138803975Y-75987497D01*
X138793881Y-75975418D01*
X138782669Y-75968357D01*
X138763317Y-75938842D01*
X138720526Y-75847371D01*
X138718280Y-75842276D01*
X138717938Y-75841451D01*
X138709794Y-75821786D01*
X138709396Y-75820825D01*
X138709395Y-75820823D01*
X138709394Y-75820821D01*
X138705610Y-75815159D01*
X138698435Y-75802967D01*
X138695821Y-75797882D01*
X138694972Y-75796372D01*
X138643308Y-75721258D01*
X138643307Y-75721257D01*
X138639569Y-75715822D01*
X138636970Y-75712431D01*
X138624942Y-75694430D01*
X138621789Y-75689711D01*
X138621788Y-75689710D01*
X138621786Y-75689707D01*
X138510292Y-75578213D01*
X138510288Y-75578210D01*
X138379185Y-75490609D01*
X138379172Y-75490602D01*
X138233501Y-75430264D01*
X138233489Y-75430261D01*
X138078845Y-75399500D01*
X138078842Y-75399500D01*
X137921158Y-75399500D01*
X137921155Y-75399500D01*
X137766510Y-75430261D01*
X137766498Y-75430264D01*
X137620827Y-75490602D01*
X137620814Y-75490609D01*
X137489711Y-75578210D01*
X137489707Y-75578213D01*
X137378213Y-75689707D01*
X137378210Y-75689711D01*
X137290609Y-75820814D01*
X137290602Y-75820827D01*
X137230264Y-75966498D01*
X137230261Y-75966510D01*
X137199500Y-76121153D01*
X137199500Y-76278846D01*
X137230260Y-76433488D01*
X137232030Y-76439320D01*
X137230391Y-76439817D01*
X137236985Y-76501170D01*
X137205707Y-76563648D01*
X137193631Y-76574993D01*
X137189717Y-76578205D01*
X137078209Y-76689712D01*
X137078207Y-76689715D01*
X136990607Y-76820818D01*
X136990606Y-76820819D01*
X136981726Y-76842257D01*
X136979485Y-76847342D01*
X136791873Y-77248388D01*
X136767236Y-77283526D01*
X133531286Y-80519478D01*
X133419481Y-80631282D01*
X133419479Y-80631285D01*
X133391461Y-80679815D01*
X133379518Y-80700501D01*
X133340423Y-80768215D01*
X133330534Y-80805116D01*
X133325761Y-80815217D01*
X133321041Y-80820521D01*
X133314469Y-80834424D01*
X133246543Y-80929280D01*
X133242055Y-80935651D01*
X133241879Y-80935906D01*
X133241859Y-80935937D01*
X133210231Y-80988037D01*
X133208464Y-80991753D01*
X133199600Y-81007359D01*
X133190607Y-81020818D01*
X133190604Y-81020825D01*
X133130264Y-81166498D01*
X133130261Y-81166510D01*
X133099500Y-81321153D01*
X127528080Y-81321153D01*
X128116476Y-80732757D01*
X128151608Y-80708125D01*
X128555129Y-80519355D01*
X128579179Y-80509394D01*
X128590734Y-80501673D01*
X128602117Y-80495821D01*
X128603627Y-80494972D01*
X128678741Y-80443308D01*
X128678741Y-80443306D01*
X128684210Y-80439546D01*
X128687577Y-80436963D01*
X128710289Y-80421789D01*
X128821789Y-80310289D01*
X128909394Y-80179179D01*
X128969737Y-80033497D01*
X129000500Y-79878842D01*
X129000500Y-79721158D01*
X129000500Y-79721155D01*
X129000499Y-79721153D01*
X128996742Y-79702265D01*
X128969737Y-79566503D01*
X128933166Y-79478211D01*
X128909397Y-79420827D01*
X128909390Y-79420814D01*
X128821789Y-79289711D01*
X128821786Y-79289707D01*
X128710292Y-79178213D01*
X128710288Y-79178210D01*
X128579185Y-79090609D01*
X128579172Y-79090602D01*
X128433501Y-79030264D01*
X128433489Y-79030261D01*
X128278845Y-78999500D01*
X128278842Y-78999500D01*
X128121158Y-78999500D01*
X128121155Y-78999500D01*
X127966510Y-79030261D01*
X127966498Y-79030264D01*
X127820827Y-79090602D01*
X127820814Y-79090609D01*
X127689711Y-79178210D01*
X127689707Y-79178213D01*
X127578213Y-79289707D01*
X127578207Y-79289715D01*
X127490607Y-79420818D01*
X127490606Y-79420819D01*
X127481726Y-79442257D01*
X127479485Y-79447342D01*
X127291872Y-79848390D01*
X127267235Y-79883528D01*
X125887584Y-81263181D01*
X125826261Y-81296666D01*
X125799903Y-81299500D01*
X124618625Y-81299500D01*
X124576358Y-81292074D01*
X124161490Y-81141652D01*
X124161456Y-81141640D01*
X124157516Y-81140212D01*
X124133497Y-81130263D01*
X124119991Y-81127576D01*
X124108178Y-81123779D01*
X124106520Y-81123312D01*
X124009793Y-81105377D01*
X124005598Y-81104822D01*
X124001292Y-81103965D01*
X123978842Y-81099500D01*
X123821158Y-81099500D01*
X123821155Y-81099500D01*
X123666510Y-81130261D01*
X123666498Y-81130264D01*
X123520827Y-81190602D01*
X123520814Y-81190609D01*
X123389711Y-81278210D01*
X123389707Y-81278213D01*
X123278213Y-81389707D01*
X123278210Y-81389711D01*
X123190609Y-81520814D01*
X123190602Y-81520827D01*
X123130264Y-81666498D01*
X123130261Y-81666510D01*
X123099500Y-81821153D01*
X108665733Y-81821153D01*
X108592335Y-81766206D01*
X108592328Y-81766202D01*
X108457482Y-81715908D01*
X108457483Y-81715908D01*
X108397883Y-81709501D01*
X108397881Y-81709500D01*
X108397873Y-81709500D01*
X108397864Y-81709500D01*
X106602129Y-81709500D01*
X106602123Y-81709501D01*
X106542516Y-81715908D01*
X106407671Y-81766202D01*
X106407664Y-81766206D01*
X106292455Y-81852452D01*
X106292452Y-81852455D01*
X106206206Y-81967664D01*
X106206202Y-81967671D01*
X106155908Y-82102517D01*
X106149501Y-82162116D01*
X106149501Y-82162123D01*
X106149500Y-82162135D01*
X102600500Y-82162135D01*
X102600500Y-65173713D01*
X106149500Y-65173713D01*
X106149500Y-65386286D01*
X106182753Y-65596239D01*
X106248444Y-65798414D01*
X106344951Y-65987820D01*
X106469890Y-66159786D01*
X106620213Y-66310109D01*
X106792182Y-66435050D01*
X106800946Y-66439516D01*
X106851742Y-66487491D01*
X106868536Y-66555312D01*
X106845998Y-66621447D01*
X106800946Y-66660484D01*
X106792182Y-66664949D01*
X106620213Y-66789890D01*
X106469890Y-66940213D01*
X106344951Y-67112179D01*
X106248444Y-67301585D01*
X106182753Y-67503760D01*
X106176980Y-67540212D01*
X106149500Y-67713713D01*
X106149500Y-67926287D01*
X106150130Y-67930263D01*
X106173563Y-68078217D01*
X106182754Y-68136243D01*
X106242729Y-68320827D01*
X106248444Y-68338414D01*
X106344951Y-68527820D01*
X106469890Y-68699786D01*
X106620213Y-68850109D01*
X106792182Y-68975050D01*
X106800946Y-68979516D01*
X106851742Y-69027491D01*
X106868536Y-69095312D01*
X106845998Y-69161447D01*
X106800946Y-69200484D01*
X106792182Y-69204949D01*
X106620213Y-69329890D01*
X106469890Y-69480213D01*
X106344951Y-69652179D01*
X106248444Y-69841585D01*
X106182753Y-70043760D01*
X106149500Y-70253713D01*
X106149500Y-70466286D01*
X106175471Y-70630264D01*
X106182754Y-70676243D01*
X106248378Y-70878213D01*
X106248444Y-70878414D01*
X106344951Y-71067820D01*
X106469890Y-71239786D01*
X106620213Y-71390109D01*
X106792182Y-71515050D01*
X106800946Y-71519516D01*
X106851742Y-71567491D01*
X106868536Y-71635312D01*
X106845998Y-71701447D01*
X106800946Y-71740484D01*
X106792182Y-71744949D01*
X106620213Y-71869890D01*
X106469890Y-72020213D01*
X106344951Y-72192179D01*
X106248444Y-72381585D01*
X106182753Y-72583760D01*
X106153298Y-72769735D01*
X106149500Y-72793713D01*
X106149500Y-73006287D01*
X106154907Y-73040423D01*
X106181810Y-73210288D01*
X106182754Y-73216243D01*
X106245513Y-73409395D01*
X106248444Y-73418414D01*
X106344951Y-73607820D01*
X106469890Y-73779786D01*
X106620213Y-73930109D01*
X106792182Y-74055050D01*
X106800946Y-74059516D01*
X106851742Y-74107491D01*
X106868536Y-74175312D01*
X106845998Y-74241447D01*
X106800946Y-74280484D01*
X106792182Y-74284949D01*
X106620213Y-74409890D01*
X106469890Y-74560213D01*
X106344951Y-74732179D01*
X106248444Y-74921585D01*
X106182753Y-75123760D01*
X106158604Y-75276233D01*
X106149500Y-75333713D01*
X106149500Y-75546287D01*
X106156046Y-75587614D01*
X106177196Y-75721156D01*
X106182754Y-75756243D01*
X106247199Y-75954584D01*
X106248444Y-75958414D01*
X106344951Y-76147820D01*
X106469890Y-76319786D01*
X106620213Y-76470109D01*
X106792182Y-76595050D01*
X106800946Y-76599516D01*
X106851742Y-76647491D01*
X106868536Y-76715312D01*
X106845998Y-76781447D01*
X106800946Y-76820484D01*
X106792182Y-76824949D01*
X106620213Y-76949890D01*
X106469890Y-77100213D01*
X106344951Y-77272179D01*
X106248444Y-77461585D01*
X106182753Y-77663760D01*
X106159545Y-77810289D01*
X106149500Y-77873713D01*
X106149500Y-78086287D01*
X106159534Y-78149644D01*
X106166238Y-78191969D01*
X106182754Y-78296243D01*
X106242084Y-78478842D01*
X106248444Y-78498414D01*
X106344951Y-78687820D01*
X106469890Y-78859786D01*
X106620213Y-79010109D01*
X106792179Y-79135048D01*
X106792181Y-79135049D01*
X106792184Y-79135051D01*
X106981588Y-79231557D01*
X107183757Y-79297246D01*
X107393713Y-79330500D01*
X107393714Y-79330500D01*
X107606286Y-79330500D01*
X107606287Y-79330500D01*
X107816243Y-79297246D01*
X108018412Y-79231557D01*
X108207816Y-79135051D01*
X108268995Y-79090602D01*
X108379786Y-79010109D01*
X108379788Y-79010106D01*
X108379792Y-79010104D01*
X108530104Y-78859792D01*
X108530106Y-78859788D01*
X108530109Y-78859786D01*
X108655048Y-78687820D01*
X108655047Y-78687820D01*
X108655051Y-78687816D01*
X108751557Y-78498412D01*
X108817246Y-78296243D01*
X108850500Y-78086287D01*
X108850500Y-77873713D01*
X108817246Y-77663757D01*
X108751557Y-77461588D01*
X108655051Y-77272184D01*
X108655049Y-77272181D01*
X108655048Y-77272179D01*
X108577659Y-77165661D01*
X108530109Y-77100214D01*
X108530105Y-77100209D01*
X108527544Y-77097648D01*
X111479500Y-77097648D01*
X111479500Y-77302351D01*
X111511522Y-77504534D01*
X111574781Y-77699223D01*
X111638691Y-77824653D01*
X111663689Y-77873713D01*
X111667715Y-77881613D01*
X111788028Y-78047213D01*
X111932786Y-78191971D01*
X112076302Y-78296239D01*
X112098390Y-78312287D01*
X112175568Y-78351611D01*
X112280776Y-78405218D01*
X112280778Y-78405218D01*
X112280781Y-78405220D01*
X112385137Y-78439127D01*
X112475465Y-78468477D01*
X112540907Y-78478842D01*
X112677648Y-78500500D01*
X112677649Y-78500500D01*
X112882351Y-78500500D01*
X112882352Y-78500500D01*
X113084534Y-78468477D01*
X113279219Y-78405220D01*
X113461610Y-78312287D01*
X113554590Y-78244732D01*
X113627213Y-78191971D01*
X113627215Y-78191968D01*
X113627219Y-78191966D01*
X113771966Y-78047219D01*
X113771968Y-78047215D01*
X113771971Y-78047213D01*
X113892284Y-77881614D01*
X113892285Y-77881613D01*
X113892287Y-77881610D01*
X113939516Y-77788917D01*
X113987489Y-77738123D01*
X114055310Y-77721328D01*
X114121445Y-77743865D01*
X114160485Y-77788919D01*
X114207715Y-77881614D01*
X114328028Y-78047213D01*
X114472786Y-78191971D01*
X114616302Y-78296239D01*
X114638390Y-78312287D01*
X114715568Y-78351611D01*
X114820776Y-78405218D01*
X114820778Y-78405218D01*
X114820781Y-78405220D01*
X114925137Y-78439127D01*
X115015465Y-78468477D01*
X115080907Y-78478842D01*
X115217648Y-78500500D01*
X115217649Y-78500500D01*
X115422351Y-78500500D01*
X115422352Y-78500500D01*
X115624534Y-78468477D01*
X115819219Y-78405220D01*
X115984210Y-78321153D01*
X120099500Y-78321153D01*
X120099500Y-78478846D01*
X120130261Y-78633489D01*
X120130264Y-78633501D01*
X120190602Y-78779172D01*
X120190609Y-78779185D01*
X120278210Y-78910288D01*
X120278213Y-78910292D01*
X120389707Y-79021786D01*
X120389711Y-79021789D01*
X120520814Y-79109390D01*
X120520827Y-79109397D01*
X120666498Y-79169735D01*
X120666503Y-79169737D01*
X120821153Y-79200499D01*
X120821156Y-79200500D01*
X120821158Y-79200500D01*
X120978844Y-79200500D01*
X120978845Y-79200499D01*
X121133497Y-79169737D01*
X121279179Y-79109394D01*
X121410289Y-79021789D01*
X121521789Y-78910289D01*
X121609394Y-78779179D01*
X121618299Y-78757678D01*
X121620510Y-78752659D01*
X121808125Y-78351608D01*
X121832757Y-78316476D01*
X122212416Y-77936819D01*
X122273739Y-77903334D01*
X122300097Y-77900500D01*
X127181375Y-77900500D01*
X127223642Y-77907926D01*
X127607801Y-78047213D01*
X127642494Y-78059792D01*
X127666503Y-78069737D01*
X127680018Y-78072425D01*
X127691881Y-78076238D01*
X127693549Y-78076707D01*
X127783720Y-78093419D01*
X127783724Y-78093418D01*
X127790243Y-78094627D01*
X127794374Y-78095172D01*
X127821158Y-78100500D01*
X127821162Y-78100500D01*
X127978844Y-78100500D01*
X127978845Y-78100499D01*
X128133497Y-78069737D01*
X128251592Y-78020821D01*
X128279172Y-78009397D01*
X128279172Y-78009396D01*
X128279179Y-78009394D01*
X128410289Y-77921789D01*
X128521789Y-77810289D01*
X128609394Y-77679179D01*
X128609525Y-77678864D01*
X128669735Y-77533501D01*
X128669737Y-77533497D01*
X128700500Y-77378842D01*
X128700500Y-77221158D01*
X128700500Y-77221155D01*
X128700499Y-77221153D01*
X128684441Y-77140426D01*
X128669737Y-77066503D01*
X128638298Y-76990602D01*
X128609397Y-76920827D01*
X128609390Y-76920814D01*
X128521789Y-76789711D01*
X128521786Y-76789707D01*
X128410292Y-76678213D01*
X128410288Y-76678210D01*
X128279185Y-76590609D01*
X128279172Y-76590602D01*
X128133501Y-76530264D01*
X128133489Y-76530261D01*
X127978845Y-76499500D01*
X127978842Y-76499500D01*
X127821158Y-76499500D01*
X127821156Y-76499500D01*
X127666504Y-76530262D01*
X127666499Y-76530264D01*
X127645058Y-76539144D01*
X127639879Y-76541154D01*
X127223640Y-76692074D01*
X127181373Y-76699500D01*
X122086669Y-76699500D01*
X122086653Y-76699499D01*
X122079057Y-76699499D01*
X121920943Y-76699499D01*
X121829306Y-76724053D01*
X121768213Y-76740423D01*
X121739538Y-76756980D01*
X121739536Y-76756981D01*
X121631287Y-76819477D01*
X121631282Y-76819481D01*
X121519478Y-76931286D01*
X120983528Y-77467235D01*
X120948390Y-77491872D01*
X120548668Y-77678864D01*
X120548621Y-77678887D01*
X120544836Y-77680658D01*
X120520821Y-77690606D01*
X120509243Y-77698341D01*
X120502279Y-77701923D01*
X120502204Y-77701961D01*
X120497707Y-77704275D01*
X120496191Y-77705128D01*
X120415799Y-77760446D01*
X120412423Y-77763034D01*
X120389714Y-77778208D01*
X120278209Y-77889712D01*
X120190609Y-78020814D01*
X120190602Y-78020827D01*
X120130264Y-78166498D01*
X120130261Y-78166510D01*
X120099500Y-78321153D01*
X115984210Y-78321153D01*
X116001610Y-78312287D01*
X116073190Y-78260281D01*
X116135863Y-78214748D01*
X116135864Y-78214747D01*
X116167215Y-78191969D01*
X116167215Y-78191968D01*
X116167219Y-78191966D01*
X116311966Y-78047219D01*
X116311968Y-78047215D01*
X116311971Y-78047213D01*
X116379409Y-77954391D01*
X116432287Y-77881610D01*
X116525220Y-77699219D01*
X116588477Y-77504534D01*
X116620500Y-77302352D01*
X116620500Y-77097648D01*
X116597097Y-76949890D01*
X116588477Y-76895465D01*
X116528215Y-76710000D01*
X116525220Y-76700781D01*
X116525218Y-76700778D01*
X116525218Y-76700776D01*
X116491503Y-76634607D01*
X116432287Y-76518390D01*
X116397209Y-76470109D01*
X116311971Y-76352786D01*
X116167213Y-76208028D01*
X116001613Y-76087715D01*
X116001612Y-76087714D01*
X116001610Y-76087713D01*
X115944653Y-76058691D01*
X115819223Y-75994781D01*
X115624534Y-75931522D01*
X115443313Y-75902820D01*
X115422352Y-75899500D01*
X115217648Y-75899500D01*
X115196687Y-75902820D01*
X115015465Y-75931522D01*
X114820776Y-75994781D01*
X114638386Y-76087715D01*
X114472786Y-76208028D01*
X114328028Y-76352786D01*
X114207715Y-76518386D01*
X114160485Y-76611080D01*
X114112510Y-76661876D01*
X114044689Y-76678671D01*
X113978554Y-76656134D01*
X113939515Y-76611080D01*
X113922764Y-76578205D01*
X113892287Y-76518390D01*
X113857209Y-76470109D01*
X113771971Y-76352786D01*
X113627213Y-76208028D01*
X113461613Y-76087715D01*
X113461612Y-76087714D01*
X113461610Y-76087713D01*
X113404653Y-76058691D01*
X113279223Y-75994781D01*
X113084534Y-75931522D01*
X112903313Y-75902820D01*
X112882352Y-75899500D01*
X112677648Y-75899500D01*
X112656687Y-75902820D01*
X112475465Y-75931522D01*
X112280776Y-75994781D01*
X112098386Y-76087715D01*
X111932786Y-76208028D01*
X111788028Y-76352786D01*
X111667715Y-76518386D01*
X111574781Y-76700776D01*
X111511522Y-76895465D01*
X111479500Y-77097648D01*
X108527544Y-77097648D01*
X108379786Y-76949890D01*
X108207820Y-76824951D01*
X108199708Y-76820818D01*
X108199054Y-76820485D01*
X108148259Y-76772512D01*
X108131463Y-76704692D01*
X108153999Y-76638556D01*
X108199054Y-76599515D01*
X108207816Y-76595051D01*
X108244088Y-76568698D01*
X108379786Y-76470109D01*
X108379788Y-76470106D01*
X108379792Y-76470104D01*
X108530104Y-76319792D01*
X108530106Y-76319788D01*
X108530109Y-76319786D01*
X108655048Y-76147820D01*
X108655047Y-76147820D01*
X108655051Y-76147816D01*
X108751557Y-75958412D01*
X108817246Y-75756243D01*
X108850500Y-75546287D01*
X108850500Y-75333713D01*
X108817246Y-75123757D01*
X108751557Y-74921588D01*
X108655051Y-74732184D01*
X108655049Y-74732181D01*
X108655048Y-74732179D01*
X108530109Y-74560213D01*
X108379786Y-74409890D01*
X108207820Y-74284951D01*
X108206313Y-74284183D01*
X108199054Y-74280485D01*
X108148259Y-74232512D01*
X108131463Y-74164692D01*
X108153999Y-74098556D01*
X108199054Y-74059515D01*
X108207816Y-74055051D01*
X108269426Y-74010289D01*
X108379786Y-73930109D01*
X108379788Y-73930106D01*
X108379792Y-73930104D01*
X108530104Y-73779792D01*
X108530106Y-73779788D01*
X108530109Y-73779786D01*
X108655048Y-73607820D01*
X108655047Y-73607820D01*
X108655051Y-73607816D01*
X108750160Y-73421153D01*
X112999500Y-73421153D01*
X112999500Y-73578846D01*
X113030261Y-73733489D01*
X113030264Y-73733501D01*
X113090602Y-73879172D01*
X113090609Y-73879185D01*
X113178210Y-74010288D01*
X113178213Y-74010292D01*
X113289707Y-74121786D01*
X113289711Y-74121789D01*
X113420814Y-74209390D01*
X113420827Y-74209397D01*
X113537131Y-74257571D01*
X113566503Y-74269737D01*
X113721153Y-74300499D01*
X113721156Y-74300500D01*
X113721158Y-74300500D01*
X113878843Y-74300500D01*
X113892941Y-74297695D01*
X113918246Y-74292661D01*
X113937858Y-74290364D01*
X113943182Y-74290167D01*
X113960198Y-74289538D01*
X114439137Y-74202498D01*
X114461309Y-74200500D01*
X122806960Y-74200500D01*
X122836400Y-74209144D01*
X122866387Y-74215668D01*
X122871402Y-74219422D01*
X122873999Y-74220185D01*
X122894641Y-74236819D01*
X123065355Y-74407534D01*
X123089990Y-74442670D01*
X123103374Y-74471280D01*
X123104926Y-74474596D01*
X123115504Y-74543661D01*
X123087063Y-74607480D01*
X123061500Y-74630242D01*
X122989711Y-74678210D01*
X122989707Y-74678213D01*
X122878213Y-74789707D01*
X122878210Y-74789711D01*
X122790609Y-74920814D01*
X122790602Y-74920827D01*
X122730264Y-75066498D01*
X122730261Y-75066510D01*
X122699500Y-75221153D01*
X122699500Y-75378846D01*
X122730261Y-75533489D01*
X122730264Y-75533501D01*
X122790602Y-75679172D01*
X122790609Y-75679185D01*
X122878210Y-75810288D01*
X122878213Y-75810292D01*
X122989707Y-75921786D01*
X122989711Y-75921789D01*
X123120814Y-76009390D01*
X123120827Y-76009397D01*
X123261235Y-76067555D01*
X123266503Y-76069737D01*
X123421153Y-76100499D01*
X123421156Y-76100500D01*
X123421158Y-76100500D01*
X123578843Y-76100500D01*
X123599023Y-76096485D01*
X123657610Y-76084831D01*
X123666914Y-76083347D01*
X123701985Y-76079111D01*
X124163827Y-75954764D01*
X124196065Y-75950500D01*
X127658885Y-75950500D01*
X127686891Y-75953704D01*
X127690680Y-75954583D01*
X127690685Y-75954583D01*
X127690688Y-75954584D01*
X128161876Y-75994781D01*
X128188110Y-75997019D01*
X128201956Y-75997852D01*
X128218709Y-76000012D01*
X128221158Y-76000500D01*
X128378844Y-76000500D01*
X128378845Y-76000499D01*
X128533497Y-75969737D01*
X128679179Y-75909394D01*
X128810289Y-75821789D01*
X128921789Y-75710289D01*
X129009394Y-75579179D01*
X129069737Y-75433497D01*
X129100500Y-75278842D01*
X129100500Y-75121158D01*
X129100500Y-75121155D01*
X129100499Y-75121153D01*
X129074531Y-74990606D01*
X129069737Y-74966503D01*
X129055760Y-74932760D01*
X129009397Y-74820827D01*
X129009390Y-74820814D01*
X128921789Y-74689711D01*
X128921786Y-74689707D01*
X128810291Y-74578212D01*
X128797855Y-74569903D01*
X128782205Y-74559445D01*
X128737401Y-74505835D01*
X128728692Y-74436510D01*
X128758847Y-74373482D01*
X128763396Y-74368681D01*
X128821789Y-74310289D01*
X128909394Y-74179179D01*
X128969737Y-74033497D01*
X129000500Y-73878842D01*
X129000500Y-73721158D01*
X129000500Y-73721155D01*
X129000499Y-73721153D01*
X128980734Y-73621789D01*
X128969737Y-73566503D01*
X128942398Y-73500500D01*
X128909397Y-73420827D01*
X128909390Y-73420814D01*
X128821789Y-73289711D01*
X128821786Y-73289707D01*
X128710292Y-73178213D01*
X128710284Y-73178207D01*
X128579181Y-73090607D01*
X128579182Y-73090607D01*
X128557744Y-73081727D01*
X128552657Y-73079485D01*
X128151608Y-72891872D01*
X128147496Y-72888989D01*
X128144724Y-72888386D01*
X128116470Y-72867235D01*
X127870388Y-72621153D01*
X131299500Y-72621153D01*
X131299500Y-72778846D01*
X131330261Y-72933489D01*
X131330264Y-72933501D01*
X131390602Y-73079172D01*
X131390609Y-73079185D01*
X131478210Y-73210288D01*
X131478213Y-73210292D01*
X131589707Y-73321786D01*
X131589711Y-73321789D01*
X131720814Y-73409390D01*
X131720827Y-73409397D01*
X131866498Y-73469735D01*
X131866503Y-73469737D01*
X132021153Y-73500499D01*
X132021156Y-73500500D01*
X132021158Y-73500500D01*
X132178844Y-73500500D01*
X132178845Y-73500499D01*
X132333497Y-73469737D01*
X132479179Y-73409394D01*
X132525847Y-73378211D01*
X132530081Y-73375382D01*
X132530392Y-73375175D01*
X132535947Y-73371487D01*
X132570773Y-73353417D01*
X132667367Y-73284245D01*
X132669185Y-73283039D01*
X132673996Y-73281548D01*
X132705670Y-73266574D01*
X132731785Y-73259577D01*
X132782618Y-73230228D01*
X132868716Y-73180520D01*
X132980520Y-73068716D01*
X132980520Y-73068714D01*
X132990723Y-73058512D01*
X132990727Y-73058506D01*
X133011698Y-73037535D01*
X133023115Y-73027444D01*
X133023153Y-73027414D01*
X133023943Y-73026798D01*
X133025404Y-73025558D01*
X133091897Y-72957351D01*
X133091897Y-72957349D01*
X133091911Y-72957336D01*
X133092940Y-72956293D01*
X133616476Y-72432757D01*
X133651608Y-72408125D01*
X134055129Y-72219355D01*
X134079179Y-72209394D01*
X134090734Y-72201673D01*
X134102117Y-72195821D01*
X134103627Y-72194972D01*
X134178741Y-72143308D01*
X134178741Y-72143306D01*
X134184210Y-72139546D01*
X134187577Y-72136963D01*
X134210289Y-72121789D01*
X134321789Y-72010289D01*
X134409394Y-71879179D01*
X134469737Y-71733497D01*
X134500500Y-71578842D01*
X134500500Y-71421158D01*
X134500500Y-71421155D01*
X134500499Y-71421153D01*
X134494323Y-71390104D01*
X134469737Y-71266503D01*
X134428314Y-71166498D01*
X134409397Y-71120827D01*
X134409390Y-71120814D01*
X134321789Y-70989711D01*
X134321786Y-70989707D01*
X134210292Y-70878213D01*
X134210288Y-70878210D01*
X134079185Y-70790609D01*
X134079172Y-70790602D01*
X133933501Y-70730264D01*
X133933489Y-70730261D01*
X133778845Y-70699500D01*
X133778842Y-70699500D01*
X133621158Y-70699500D01*
X133621155Y-70699500D01*
X133466510Y-70730261D01*
X133466498Y-70730264D01*
X133320827Y-70790602D01*
X133320814Y-70790609D01*
X133189711Y-70878210D01*
X133189707Y-70878213D01*
X133078213Y-70989707D01*
X133078207Y-70989715D01*
X132990607Y-71120818D01*
X132990606Y-71120819D01*
X132981726Y-71142257D01*
X132979485Y-71147342D01*
X132791872Y-71548390D01*
X132767235Y-71583528D01*
X132456330Y-71894433D01*
X132450795Y-71897455D01*
X132447240Y-71902666D01*
X132420495Y-71913999D01*
X132395007Y-71927918D01*
X132387252Y-71928088D01*
X132382909Y-71929929D01*
X132357376Y-71928743D01*
X132347629Y-71928957D01*
X132345304Y-71928557D01*
X132274487Y-71913603D01*
X132264964Y-71911687D01*
X132264896Y-71911674D01*
X132215949Y-71904777D01*
X132209110Y-71905130D01*
X132196248Y-71902918D01*
X132195697Y-71902647D01*
X132193084Y-71902332D01*
X132178842Y-71899500D01*
X132021158Y-71899500D01*
X132021155Y-71899500D01*
X131866510Y-71930261D01*
X131866498Y-71930264D01*
X131720827Y-71990602D01*
X131720814Y-71990609D01*
X131589711Y-72078210D01*
X131589707Y-72078213D01*
X131478213Y-72189707D01*
X131478210Y-72189711D01*
X131390609Y-72320814D01*
X131390602Y-72320827D01*
X131330264Y-72466498D01*
X131330261Y-72466510D01*
X131299500Y-72621153D01*
X127870388Y-72621153D01*
X123861416Y-68612181D01*
X123827931Y-68550858D01*
X123832915Y-68481166D01*
X123874787Y-68425233D01*
X123940251Y-68400816D01*
X123949097Y-68400500D01*
X126999903Y-68400500D01*
X127066942Y-68420185D01*
X127087584Y-68436819D01*
X127767235Y-69116470D01*
X127791872Y-69151608D01*
X127978868Y-69551339D01*
X127978883Y-69551370D01*
X127980655Y-69555157D01*
X127990606Y-69579179D01*
X127998321Y-69590726D01*
X128001915Y-69597716D01*
X128001932Y-69597750D01*
X128004175Y-69602111D01*
X128005028Y-69603630D01*
X128060434Y-69684183D01*
X128063029Y-69687569D01*
X128078208Y-69710286D01*
X128078215Y-69710294D01*
X128189707Y-69821786D01*
X128189711Y-69821789D01*
X128320814Y-69909390D01*
X128320827Y-69909397D01*
X128466498Y-69969735D01*
X128466503Y-69969737D01*
X128621153Y-70000499D01*
X128621156Y-70000500D01*
X128621158Y-70000500D01*
X128778844Y-70000500D01*
X128778845Y-70000499D01*
X128933497Y-69969737D01*
X129079179Y-69909394D01*
X129210289Y-69821789D01*
X129321789Y-69710289D01*
X129409394Y-69579179D01*
X129469737Y-69433497D01*
X129500500Y-69278842D01*
X129500500Y-69121158D01*
X129500500Y-69121155D01*
X129500499Y-69121153D01*
X129478269Y-69009397D01*
X129469737Y-68966503D01*
X129456062Y-68933489D01*
X129409397Y-68820827D01*
X129409390Y-68820814D01*
X129321789Y-68689711D01*
X129321786Y-68689707D01*
X129210292Y-68578213D01*
X129210284Y-68578207D01*
X129079181Y-68490607D01*
X129079182Y-68490607D01*
X129057744Y-68481727D01*
X129052657Y-68479485D01*
X128727520Y-68327384D01*
X128651608Y-68291872D01*
X128616470Y-68267235D01*
X128570388Y-68221153D01*
X139899500Y-68221153D01*
X139899500Y-68378846D01*
X139930261Y-68533489D01*
X139930264Y-68533501D01*
X139990602Y-68679172D01*
X139990609Y-68679185D01*
X140078210Y-68810288D01*
X140078213Y-68810292D01*
X140189707Y-68921786D01*
X140189711Y-68921789D01*
X140320814Y-69009390D01*
X140320827Y-69009397D01*
X140440185Y-69058836D01*
X140466503Y-69069737D01*
X140621153Y-69100499D01*
X140621156Y-69100500D01*
X140621158Y-69100500D01*
X140778844Y-69100500D01*
X140778845Y-69100499D01*
X140933497Y-69069737D01*
X140954964Y-69060843D01*
X140960120Y-69058842D01*
X141305830Y-68933497D01*
X141376357Y-68907926D01*
X141418624Y-68900500D01*
X148733741Y-68900500D01*
X148800780Y-68920185D01*
X148846535Y-68972989D01*
X148848302Y-68977048D01*
X148890602Y-69079172D01*
X148890609Y-69079185D01*
X148978210Y-69210288D01*
X148978213Y-69210292D01*
X149089707Y-69321786D01*
X149089711Y-69321789D01*
X149220814Y-69409390D01*
X149220827Y-69409397D01*
X149315693Y-69448691D01*
X149366503Y-69469737D01*
X149521153Y-69500499D01*
X149521156Y-69500500D01*
X149521158Y-69500500D01*
X149678844Y-69500500D01*
X149678845Y-69500499D01*
X149833497Y-69469737D01*
X149979179Y-69409394D01*
X150110289Y-69321789D01*
X150221789Y-69210289D01*
X150309394Y-69079179D01*
X150369737Y-68933497D01*
X150400500Y-68778842D01*
X150400500Y-68621158D01*
X150400500Y-68621155D01*
X150400499Y-68621153D01*
X150381933Y-68527816D01*
X150369737Y-68466503D01*
X150333427Y-68378842D01*
X150309397Y-68320827D01*
X150309390Y-68320814D01*
X150221789Y-68189711D01*
X150221786Y-68189707D01*
X150110296Y-68078217D01*
X150110291Y-68078213D01*
X150110289Y-68078211D01*
X150073298Y-68053494D01*
X150073082Y-68053298D01*
X150072305Y-68052831D01*
X150069833Y-68051179D01*
X149979184Y-67990609D01*
X149979175Y-67990604D01*
X149839151Y-67932604D01*
X149838495Y-67932330D01*
X149571321Y-67819863D01*
X149557432Y-67812964D01*
X149481904Y-67769360D01*
X149481902Y-67769358D01*
X149481901Y-67769358D01*
X149431785Y-67740423D01*
X149279057Y-67699499D01*
X149120943Y-67699499D01*
X149113347Y-67699499D01*
X149113331Y-67699500D01*
X141418625Y-67699500D01*
X141376358Y-67692074D01*
X140961490Y-67541652D01*
X140961456Y-67541640D01*
X140957516Y-67540212D01*
X140933497Y-67530263D01*
X140919991Y-67527576D01*
X140908178Y-67523779D01*
X140906520Y-67523312D01*
X140809793Y-67505377D01*
X140805598Y-67504822D01*
X140800244Y-67503757D01*
X140778842Y-67499500D01*
X140621158Y-67499500D01*
X140621155Y-67499500D01*
X140466510Y-67530261D01*
X140466498Y-67530264D01*
X140320827Y-67590602D01*
X140320814Y-67590609D01*
X140189711Y-67678210D01*
X140189707Y-67678213D01*
X140078213Y-67789707D01*
X140078210Y-67789711D01*
X139990609Y-67920814D01*
X139990602Y-67920827D01*
X139930264Y-68066498D01*
X139930261Y-68066510D01*
X139899500Y-68221153D01*
X128570388Y-68221153D01*
X127787590Y-67438355D01*
X127787588Y-67438352D01*
X127668717Y-67319481D01*
X127668716Y-67319480D01*
X127581904Y-67269360D01*
X127581904Y-67269359D01*
X127581900Y-67269358D01*
X127531785Y-67240423D01*
X127379057Y-67199499D01*
X127220943Y-67199499D01*
X127213347Y-67199499D01*
X127213331Y-67199500D01*
X124000097Y-67199500D01*
X123933058Y-67179815D01*
X123912416Y-67163181D01*
X123132761Y-66383526D01*
X123108124Y-66348388D01*
X123090217Y-66310109D01*
X122919351Y-65944861D01*
X122909394Y-65920821D01*
X122901675Y-65909269D01*
X122895821Y-65897882D01*
X122894972Y-65896372D01*
X122843308Y-65821258D01*
X122843307Y-65821257D01*
X122839569Y-65815822D01*
X122836970Y-65812431D01*
X122821786Y-65789707D01*
X122710292Y-65678213D01*
X122710288Y-65678210D01*
X122579185Y-65590609D01*
X122579172Y-65590602D01*
X122433501Y-65530264D01*
X122433489Y-65530261D01*
X122278845Y-65499500D01*
X122278842Y-65499500D01*
X122121158Y-65499500D01*
X122121155Y-65499500D01*
X121966510Y-65530261D01*
X121966498Y-65530264D01*
X121820827Y-65590602D01*
X121820814Y-65590609D01*
X121689711Y-65678210D01*
X121689707Y-65678213D01*
X121578213Y-65789707D01*
X121578210Y-65789711D01*
X121490609Y-65920814D01*
X121490602Y-65920827D01*
X121430264Y-66066498D01*
X121430261Y-66066510D01*
X121399500Y-66221153D01*
X121399500Y-66378846D01*
X121430261Y-66533489D01*
X121430264Y-66533501D01*
X121490602Y-66679172D01*
X121490609Y-66679185D01*
X121578210Y-66810288D01*
X121578213Y-66810292D01*
X121689710Y-66921789D01*
X121717284Y-66940213D01*
X121820821Y-67009394D01*
X121842288Y-67018285D01*
X121847363Y-67020521D01*
X122248388Y-67208123D01*
X122283525Y-67232760D01*
X122938584Y-67887819D01*
X122972069Y-67949142D01*
X122967085Y-68018834D01*
X122925213Y-68074767D01*
X122859749Y-68099184D01*
X122850903Y-68099500D01*
X120718625Y-68099500D01*
X120676358Y-68092074D01*
X120261490Y-67941652D01*
X120261456Y-67941640D01*
X120257516Y-67940212D01*
X120233497Y-67930263D01*
X120219991Y-67927576D01*
X120208178Y-67923779D01*
X120206520Y-67923312D01*
X120109793Y-67905377D01*
X120105598Y-67904822D01*
X120101292Y-67903965D01*
X120078842Y-67899500D01*
X119921158Y-67899500D01*
X119921155Y-67899500D01*
X119766510Y-67930261D01*
X119766498Y-67930264D01*
X119620827Y-67990602D01*
X119620814Y-67990609D01*
X119489711Y-68078210D01*
X119489707Y-68078213D01*
X119378213Y-68189707D01*
X119378210Y-68189711D01*
X119290609Y-68320814D01*
X119290602Y-68320827D01*
X119230264Y-68466498D01*
X119230261Y-68466510D01*
X119199500Y-68621153D01*
X119199500Y-68713444D01*
X119179815Y-68780483D01*
X119127011Y-68826238D01*
X119057853Y-68836182D01*
X119045366Y-68833727D01*
X119036493Y-68831504D01*
X119033497Y-68830263D01*
X119023986Y-68828370D01*
X119021029Y-68827630D01*
X119020402Y-68827262D01*
X119013225Y-68825401D01*
X119008178Y-68823779D01*
X119006520Y-68823312D01*
X118909793Y-68805377D01*
X118905598Y-68804822D01*
X118901292Y-68803965D01*
X118878842Y-68799500D01*
X118721158Y-68799500D01*
X118721155Y-68799500D01*
X118566510Y-68830261D01*
X118566498Y-68830264D01*
X118420827Y-68890602D01*
X118420814Y-68890609D01*
X118289711Y-68978210D01*
X118289707Y-68978213D01*
X118178213Y-69089707D01*
X118178210Y-69089711D01*
X118090609Y-69220814D01*
X118090602Y-69220827D01*
X118030264Y-69366498D01*
X118030261Y-69366510D01*
X117999500Y-69521153D01*
X117999500Y-69678846D01*
X118030261Y-69833489D01*
X118030264Y-69833501D01*
X118090602Y-69979172D01*
X118090609Y-69979185D01*
X118178210Y-70110288D01*
X118178213Y-70110292D01*
X118289707Y-70221786D01*
X118289711Y-70221789D01*
X118420814Y-70309390D01*
X118420827Y-70309397D01*
X118539000Y-70358345D01*
X118566503Y-70369737D01*
X118685188Y-70393345D01*
X118721153Y-70400499D01*
X118721156Y-70400500D01*
X118721158Y-70400500D01*
X118878844Y-70400500D01*
X118878845Y-70400499D01*
X119033497Y-70369737D01*
X119054964Y-70360843D01*
X119060120Y-70358842D01*
X119476357Y-70207926D01*
X119518624Y-70200500D01*
X121081375Y-70200500D01*
X121123642Y-70207926D01*
X121403503Y-70309397D01*
X121542494Y-70359792D01*
X121566503Y-70369737D01*
X121580018Y-70372425D01*
X121591881Y-70376238D01*
X121593549Y-70376707D01*
X121683720Y-70393419D01*
X121683724Y-70393418D01*
X121690243Y-70394627D01*
X121694374Y-70395172D01*
X121721158Y-70400500D01*
X121721162Y-70400500D01*
X121878844Y-70400500D01*
X121878845Y-70400499D01*
X122033497Y-70369737D01*
X122179179Y-70309394D01*
X122310289Y-70221789D01*
X122421789Y-70110289D01*
X122509394Y-69979179D01*
X122569737Y-69833497D01*
X122600500Y-69678842D01*
X122600500Y-69521158D01*
X122600500Y-69521155D01*
X122600499Y-69521153D01*
X122586086Y-69448691D01*
X122587963Y-69427707D01*
X122584965Y-69406853D01*
X122591015Y-69393605D01*
X122592313Y-69379100D01*
X122605237Y-69362461D01*
X122613990Y-69343297D01*
X122626241Y-69335423D01*
X122635176Y-69323922D01*
X122655044Y-69316912D01*
X122672768Y-69305523D01*
X122697351Y-69301988D01*
X122701066Y-69300678D01*
X122707703Y-69300500D01*
X122799903Y-69300500D01*
X122866942Y-69320185D01*
X122887584Y-69336819D01*
X124158905Y-70608140D01*
X124192390Y-70669463D01*
X124187406Y-70739155D01*
X124145534Y-70795088D01*
X124080070Y-70819505D01*
X124039131Y-70815596D01*
X124031718Y-70813609D01*
X123979057Y-70799499D01*
X123820943Y-70799499D01*
X123813347Y-70799499D01*
X123813331Y-70799500D01*
X117818625Y-70799500D01*
X117776358Y-70792074D01*
X117361490Y-70641652D01*
X117361456Y-70641640D01*
X117357516Y-70640212D01*
X117333497Y-70630263D01*
X117319991Y-70627576D01*
X117308178Y-70623779D01*
X117306520Y-70623312D01*
X117209793Y-70605377D01*
X117205598Y-70604822D01*
X117201292Y-70603965D01*
X117178842Y-70599500D01*
X117021158Y-70599500D01*
X117021155Y-70599500D01*
X116866510Y-70630261D01*
X116866498Y-70630264D01*
X116720827Y-70690602D01*
X116720814Y-70690609D01*
X116589711Y-70778210D01*
X116589707Y-70778213D01*
X116478213Y-70889707D01*
X116478210Y-70889711D01*
X116390609Y-71020814D01*
X116390602Y-71020827D01*
X116330264Y-71166498D01*
X116330261Y-71166510D01*
X116299500Y-71321153D01*
X116299500Y-71478846D01*
X116330261Y-71633489D01*
X116330264Y-71633501D01*
X116390602Y-71779172D01*
X116390609Y-71779185D01*
X116478210Y-71910288D01*
X116478213Y-71910292D01*
X116589707Y-72021786D01*
X116589711Y-72021789D01*
X116720814Y-72109390D01*
X116720827Y-72109397D01*
X116800017Y-72142198D01*
X116866503Y-72169737D01*
X117008821Y-72198046D01*
X117021153Y-72200499D01*
X117021156Y-72200500D01*
X117021158Y-72200500D01*
X117178844Y-72200500D01*
X117178845Y-72200499D01*
X117333497Y-72169737D01*
X117354964Y-72160843D01*
X117360120Y-72158842D01*
X117738130Y-72021786D01*
X117776357Y-72007926D01*
X117818624Y-72000500D01*
X123535855Y-72000500D01*
X123602894Y-72020185D01*
X123648173Y-72071958D01*
X123778860Y-72351324D01*
X123778892Y-72351389D01*
X123780655Y-72355157D01*
X123790606Y-72379179D01*
X123798321Y-72390726D01*
X123801915Y-72397716D01*
X123801932Y-72397750D01*
X123804175Y-72402111D01*
X123805028Y-72403630D01*
X123860434Y-72484183D01*
X123863029Y-72487569D01*
X123878208Y-72510286D01*
X123878215Y-72510294D01*
X123989707Y-72621786D01*
X123989711Y-72621789D01*
X124120814Y-72709390D01*
X124120827Y-72709397D01*
X124258683Y-72766498D01*
X124266503Y-72769737D01*
X124387038Y-72793713D01*
X124421153Y-72800499D01*
X124421156Y-72800500D01*
X124421158Y-72800500D01*
X124578844Y-72800500D01*
X124578845Y-72800499D01*
X124733497Y-72769737D01*
X124879179Y-72709394D01*
X125010289Y-72621789D01*
X125121789Y-72510289D01*
X125209394Y-72379179D01*
X125209793Y-72378217D01*
X125233569Y-72320814D01*
X125269737Y-72233497D01*
X125300500Y-72078842D01*
X125300500Y-72049097D01*
X125320185Y-71982058D01*
X125372989Y-71936303D01*
X125442147Y-71926359D01*
X125505703Y-71955384D01*
X125512181Y-71961416D01*
X127267235Y-73716470D01*
X127291872Y-73751608D01*
X127478868Y-74151339D01*
X127478883Y-74151370D01*
X127480655Y-74155157D01*
X127490606Y-74179179D01*
X127498321Y-74190726D01*
X127501915Y-74197716D01*
X127501932Y-74197750D01*
X127504175Y-74202111D01*
X127505028Y-74203630D01*
X127560434Y-74284183D01*
X127563029Y-74287569D01*
X127578208Y-74310286D01*
X127578215Y-74310294D01*
X127689299Y-74421378D01*
X127703316Y-74447049D01*
X127719723Y-74471280D01*
X127719868Y-74477362D01*
X127722784Y-74482701D01*
X127720697Y-74511881D01*
X127721399Y-74541130D01*
X127718233Y-74546324D01*
X127717800Y-74552393D01*
X127700266Y-74575814D01*
X127685045Y-74600797D01*
X127677986Y-74605576D01*
X127675928Y-74608326D01*
X127655820Y-74620585D01*
X127621991Y-74637026D01*
X127567789Y-74649500D01*
X124922618Y-74649500D01*
X124855579Y-74629815D01*
X124809824Y-74577011D01*
X124798618Y-74525500D01*
X124798618Y-74412216D01*
X124798617Y-74412214D01*
X124782959Y-74333497D01*
X124767855Y-74257564D01*
X124747904Y-74209397D01*
X124707515Y-74111888D01*
X124707508Y-74111875D01*
X124619907Y-73980772D01*
X124619904Y-73980768D01*
X124508410Y-73869274D01*
X124508402Y-73869268D01*
X124377299Y-73781668D01*
X124377300Y-73781668D01*
X124355862Y-73772788D01*
X124350775Y-73770546D01*
X123949727Y-73582934D01*
X123914589Y-73558297D01*
X123594647Y-73238355D01*
X123594645Y-73238352D01*
X123475774Y-73119481D01*
X123475766Y-73119475D01*
X123380748Y-73064617D01*
X123380746Y-73064616D01*
X123338847Y-73040425D01*
X123338846Y-73040424D01*
X123287997Y-73026799D01*
X123186114Y-72999499D01*
X123028000Y-72999499D01*
X123020404Y-72999499D01*
X123020388Y-72999500D01*
X114561589Y-72999500D01*
X114497184Y-72981462D01*
X114238779Y-72824398D01*
X114201420Y-72803797D01*
X114201417Y-72803796D01*
X114196394Y-72801026D01*
X114196519Y-72800798D01*
X114185039Y-72794521D01*
X114179179Y-72790606D01*
X114179177Y-72790605D01*
X114179174Y-72790603D01*
X114033501Y-72730264D01*
X114033489Y-72730261D01*
X113878845Y-72699500D01*
X113878842Y-72699500D01*
X113721158Y-72699500D01*
X113721155Y-72699500D01*
X113566510Y-72730261D01*
X113566498Y-72730264D01*
X113420827Y-72790602D01*
X113420814Y-72790609D01*
X113289711Y-72878210D01*
X113289707Y-72878213D01*
X113178213Y-72989707D01*
X113178210Y-72989711D01*
X113090609Y-73120814D01*
X113090602Y-73120827D01*
X113030264Y-73266498D01*
X113030261Y-73266510D01*
X112999500Y-73421153D01*
X108750160Y-73421153D01*
X108751557Y-73418412D01*
X108817246Y-73216243D01*
X108850500Y-73006287D01*
X108850500Y-72793713D01*
X108817246Y-72583757D01*
X108751557Y-72381588D01*
X108655051Y-72192184D01*
X108655049Y-72192181D01*
X108655048Y-72192179D01*
X108530109Y-72020213D01*
X108379786Y-71869890D01*
X108207820Y-71744951D01*
X108207115Y-71744591D01*
X108199054Y-71740485D01*
X108148259Y-71692512D01*
X108131463Y-71624692D01*
X108153999Y-71558556D01*
X108199054Y-71519515D01*
X108207816Y-71515051D01*
X108337054Y-71421155D01*
X108379786Y-71390109D01*
X108379788Y-71390106D01*
X108379792Y-71390104D01*
X108530104Y-71239792D01*
X108530106Y-71239788D01*
X108530109Y-71239786D01*
X108655048Y-71067820D01*
X108655047Y-71067820D01*
X108655051Y-71067816D01*
X108751557Y-70878412D01*
X108817246Y-70676243D01*
X108850500Y-70466287D01*
X108850500Y-70253713D01*
X108817246Y-70043757D01*
X108751557Y-69841588D01*
X108655051Y-69652184D01*
X108655049Y-69652181D01*
X108655048Y-69652179D01*
X108530109Y-69480213D01*
X108379786Y-69329890D01*
X108207820Y-69204951D01*
X108207115Y-69204591D01*
X108199054Y-69200485D01*
X108148259Y-69152512D01*
X108131463Y-69084692D01*
X108153999Y-69018556D01*
X108199054Y-68979515D01*
X108207816Y-68975051D01*
X108274731Y-68926435D01*
X108379786Y-68850109D01*
X108379788Y-68850106D01*
X108379792Y-68850104D01*
X108530104Y-68699792D01*
X108530106Y-68699788D01*
X108530109Y-68699786D01*
X108650921Y-68533501D01*
X108655051Y-68527816D01*
X108751557Y-68338412D01*
X108817246Y-68136243D01*
X108850500Y-67926287D01*
X108850500Y-67713713D01*
X108817246Y-67503757D01*
X108751557Y-67301588D01*
X108655051Y-67112184D01*
X108655049Y-67112181D01*
X108655048Y-67112179D01*
X108530109Y-66940213D01*
X108379786Y-66789890D01*
X108207820Y-66664951D01*
X108207115Y-66664591D01*
X108199054Y-66660485D01*
X108148259Y-66612512D01*
X108131463Y-66544692D01*
X108153999Y-66478556D01*
X108199054Y-66439515D01*
X108207816Y-66435051D01*
X108285182Y-66378842D01*
X108379786Y-66310109D01*
X108379788Y-66310106D01*
X108379792Y-66310104D01*
X108530104Y-66159792D01*
X108530106Y-66159788D01*
X108530109Y-66159786D01*
X108655048Y-65987820D01*
X108655047Y-65987820D01*
X108655051Y-65987816D01*
X108751557Y-65798412D01*
X108817246Y-65596243D01*
X108850500Y-65386287D01*
X108850500Y-65173713D01*
X108817246Y-64963757D01*
X108751557Y-64761588D01*
X108655051Y-64572184D01*
X108655049Y-64572181D01*
X108655048Y-64572179D01*
X108530109Y-64400213D01*
X108379786Y-64249890D01*
X108207820Y-64124951D01*
X108018414Y-64028444D01*
X108018413Y-64028443D01*
X108018412Y-64028443D01*
X107816243Y-63962754D01*
X107816241Y-63962753D01*
X107816240Y-63962753D01*
X107654957Y-63937208D01*
X107606287Y-63929500D01*
X107393713Y-63929500D01*
X107345042Y-63937208D01*
X107183760Y-63962753D01*
X106981585Y-64028444D01*
X106792179Y-64124951D01*
X106620213Y-64249890D01*
X106469890Y-64400213D01*
X106344951Y-64572179D01*
X106248444Y-64761585D01*
X106182753Y-64963760D01*
X106149500Y-65173713D01*
X102600500Y-65173713D01*
X102600500Y-63524500D01*
X102620185Y-63457461D01*
X102672989Y-63411706D01*
X102724500Y-63400500D01*
X160875500Y-63400500D01*
X160942539Y-63420185D01*
G37*
%TD.AperFunction*%
%TD*%
%TA.AperFunction,Conductor*%
%TO.N,/Dir*%
G36*
X113976221Y-73256363D02*
G01*
X114370381Y-73495942D01*
X114371434Y-73496582D01*
X114376724Y-73503807D01*
X114377057Y-73506580D01*
X114377057Y-73690235D01*
X114373630Y-73698508D01*
X114367449Y-73701746D01*
X113869812Y-73792184D01*
X113861059Y-73790292D01*
X113856252Y-73782993D01*
X113837486Y-73690235D01*
X113799969Y-73504789D01*
X113801688Y-73496001D01*
X113960436Y-73259834D01*
X113967894Y-73254881D01*
X113976221Y-73256363D01*
G37*
%TD.AperFunction*%
%TD*%
%TA.AperFunction,Conductor*%
%TO.N,/Dir*%
G36*
X123656067Y-74003637D02*
G01*
X123966831Y-74149014D01*
X124152491Y-74235867D01*
X124158532Y-74242477D01*
X124158131Y-74251423D01*
X124157282Y-74252933D01*
X124000133Y-74489795D01*
X123996852Y-74493076D01*
X123759990Y-74650225D01*
X123751202Y-74651944D01*
X123743773Y-74646944D01*
X123742924Y-74645434D01*
X123670115Y-74489795D01*
X123510694Y-74149012D01*
X123510294Y-74140068D01*
X123513018Y-74135785D01*
X123642841Y-74005962D01*
X123651113Y-74002536D01*
X123656067Y-74003637D01*
G37*
%TD.AperFunction*%
%TD*%
%TA.AperFunction,Conductor*%
%TO.N,Vdrive*%
G36*
X130680930Y-83655835D02*
G01*
X130688358Y-83660834D01*
X130690077Y-83669622D01*
X130689608Y-83671290D01*
X130502796Y-84186524D01*
X130496755Y-84193134D01*
X130491797Y-84194236D01*
X130308203Y-84194236D01*
X130299930Y-84190809D01*
X130297204Y-84186524D01*
X130249544Y-84055078D01*
X130110391Y-83671288D01*
X130110792Y-83662344D01*
X130117402Y-83656303D01*
X130119056Y-83655837D01*
X130397682Y-83599469D01*
X130402318Y-83599469D01*
X130680930Y-83655835D01*
G37*
%TD.AperFunction*%
%TD*%
%TA.AperFunction,Conductor*%
%TO.N,Vdrive*%
G36*
X130500070Y-86609191D02*
G01*
X130502796Y-86613476D01*
X130689608Y-87128709D01*
X130689207Y-87137655D01*
X130682597Y-87143696D01*
X130680929Y-87144165D01*
X130402320Y-87200530D01*
X130397680Y-87200530D01*
X130119070Y-87144165D01*
X130111641Y-87139165D01*
X130109922Y-87130377D01*
X130110387Y-87128720D01*
X130297204Y-86613476D01*
X130303245Y-86606866D01*
X130308203Y-86605764D01*
X130491797Y-86605764D01*
X130500070Y-86609191D01*
G37*
%TD.AperFunction*%
%TD*%
%TA.AperFunction,Conductor*%
%TO.N,/A*%
G36*
X124500070Y-86709191D02*
G01*
X124502796Y-86713476D01*
X124689608Y-87228709D01*
X124689207Y-87237655D01*
X124682597Y-87243696D01*
X124680929Y-87244165D01*
X124402320Y-87300530D01*
X124397680Y-87300530D01*
X124119070Y-87244165D01*
X124111641Y-87239165D01*
X124109922Y-87230377D01*
X124110387Y-87228720D01*
X124297204Y-86713476D01*
X124303245Y-86706866D01*
X124308203Y-86705764D01*
X124491797Y-86705764D01*
X124500070Y-86709191D01*
G37*
%TD.AperFunction*%
%TD*%
%TA.AperFunction,Conductor*%
%TO.N,/A*%
G36*
X124680930Y-85455835D02*
G01*
X124688358Y-85460834D01*
X124690077Y-85469622D01*
X124689608Y-85471290D01*
X124502796Y-85986524D01*
X124496755Y-85993134D01*
X124491797Y-85994236D01*
X124308203Y-85994236D01*
X124299930Y-85990809D01*
X124297204Y-85986524D01*
X124249544Y-85855078D01*
X124110391Y-85471288D01*
X124110792Y-85462344D01*
X124117402Y-85456303D01*
X124119056Y-85455837D01*
X124397682Y-85399469D01*
X124402318Y-85399469D01*
X124680930Y-85455835D01*
G37*
%TD.AperFunction*%
%TD*%
%TA.AperFunction,Conductor*%
%TO.N,Net-(J1-CC2)*%
G36*
X140771282Y-68010389D02*
G01*
X141286525Y-68197204D01*
X141293134Y-68203244D01*
X141294236Y-68208202D01*
X141294236Y-68391797D01*
X141290809Y-68400070D01*
X141286524Y-68402796D01*
X140771290Y-68589608D01*
X140762344Y-68589207D01*
X140756303Y-68582597D01*
X140755837Y-68580939D01*
X140699469Y-68302318D01*
X140699469Y-68297680D01*
X140755835Y-68019067D01*
X140760834Y-68011641D01*
X140769622Y-68009922D01*
X140771282Y-68010389D01*
G37*
%TD.AperFunction*%
%TD*%
%TA.AperFunction,Conductor*%
%TO.N,Net-(J1-CC2)*%
G36*
X149187685Y-68206834D02*
G01*
X149753644Y-68445075D01*
X149759940Y-68451444D01*
X149759889Y-68460398D01*
X149758851Y-68462332D01*
X149603694Y-68695942D01*
X149596262Y-68700938D01*
X149596223Y-68700946D01*
X149315509Y-68756595D01*
X149306728Y-68754842D01*
X149302278Y-68749223D01*
X149284192Y-68700946D01*
X149194077Y-68460398D01*
X149172194Y-68401985D01*
X149171450Y-68397880D01*
X149171450Y-68217619D01*
X149174877Y-68209346D01*
X149183150Y-68205919D01*
X149187685Y-68206834D01*
G37*
%TD.AperFunction*%
%TD*%
%TA.AperFunction,Conductor*%
%TO.N,/PWM*%
G36*
X124157949Y-71512576D02*
G01*
X124468713Y-71657953D01*
X124654373Y-71744806D01*
X124660414Y-71751416D01*
X124660013Y-71760362D01*
X124659164Y-71761872D01*
X124502015Y-71998734D01*
X124498734Y-72002015D01*
X124261872Y-72159164D01*
X124253084Y-72160883D01*
X124245655Y-72155883D01*
X124244806Y-72154373D01*
X124171997Y-71998734D01*
X124012576Y-71657951D01*
X124012176Y-71649007D01*
X124014900Y-71644724D01*
X124144723Y-71514901D01*
X124152995Y-71511475D01*
X124157949Y-71512576D01*
G37*
%TD.AperFunction*%
%TD*%
%TA.AperFunction,Conductor*%
%TO.N,/PWM*%
G36*
X117171282Y-71110389D02*
G01*
X117686525Y-71297204D01*
X117693134Y-71303244D01*
X117694236Y-71308202D01*
X117694236Y-71491797D01*
X117690809Y-71500070D01*
X117686524Y-71502796D01*
X117171290Y-71689608D01*
X117162344Y-71689207D01*
X117156303Y-71682597D01*
X117155837Y-71680939D01*
X117099469Y-71402318D01*
X117099469Y-71397680D01*
X117155835Y-71119067D01*
X117160834Y-71111641D01*
X117169622Y-71109922D01*
X117171282Y-71110389D01*
G37*
%TD.AperFunction*%
%TD*%
%TA.AperFunction,Conductor*%
%TO.N,/HEN*%
G36*
X121737655Y-69310792D02*
G01*
X121743696Y-69317402D01*
X121744165Y-69319070D01*
X121800530Y-69597680D01*
X121800530Y-69602320D01*
X121744165Y-69880929D01*
X121739165Y-69888358D01*
X121730377Y-69890077D01*
X121728709Y-69889608D01*
X121213476Y-69702796D01*
X121206866Y-69696755D01*
X121205764Y-69691797D01*
X121205764Y-69508202D01*
X121209191Y-69499929D01*
X121213473Y-69497204D01*
X121728711Y-69310391D01*
X121737655Y-69310792D01*
G37*
%TD.AperFunction*%
%TD*%
%TA.AperFunction,Conductor*%
%TO.N,/HEN*%
G36*
X118871282Y-69310389D02*
G01*
X119386525Y-69497204D01*
X119393134Y-69503244D01*
X119394236Y-69508202D01*
X119394236Y-69691797D01*
X119390809Y-69700070D01*
X119386524Y-69702796D01*
X118871290Y-69889608D01*
X118862344Y-69889207D01*
X118856303Y-69882597D01*
X118855837Y-69880939D01*
X118799469Y-69602318D01*
X118799469Y-69597680D01*
X118855835Y-69319067D01*
X118860834Y-69311641D01*
X118869622Y-69309922D01*
X118871282Y-69310389D01*
G37*
%TD.AperFunction*%
%TD*%
%TA.AperFunction,Conductor*%
%TO.N,/Out*%
G36*
X127857949Y-73312576D02*
G01*
X128168713Y-73457953D01*
X128354373Y-73544806D01*
X128360414Y-73551416D01*
X128360013Y-73560362D01*
X128359164Y-73561872D01*
X128202015Y-73798734D01*
X128198734Y-73802015D01*
X127961872Y-73959164D01*
X127953084Y-73960883D01*
X127945655Y-73955883D01*
X127944806Y-73954373D01*
X127871997Y-73798734D01*
X127712576Y-73457951D01*
X127712176Y-73449007D01*
X127714900Y-73444724D01*
X127844723Y-73314901D01*
X127852995Y-73311475D01*
X127857949Y-73312576D01*
G37*
%TD.AperFunction*%
%TD*%
%TA.AperFunction,Conductor*%
%TO.N,/Out*%
G36*
X120071282Y-68410389D02*
G01*
X120586525Y-68597204D01*
X120593134Y-68603244D01*
X120594236Y-68608202D01*
X120594236Y-68791797D01*
X120590809Y-68800070D01*
X120586524Y-68802796D01*
X120071290Y-68989608D01*
X120062344Y-68989207D01*
X120056303Y-68982597D01*
X120055837Y-68980939D01*
X119999469Y-68702318D01*
X119999469Y-68697680D01*
X120055835Y-68419067D01*
X120060834Y-68411641D01*
X120069622Y-68409922D01*
X120071282Y-68410389D01*
G37*
%TD.AperFunction*%
%TD*%
%TA.AperFunction,Conductor*%
%TO.N,/Vsense*%
G36*
X128357949Y-68712576D02*
G01*
X128668713Y-68857953D01*
X128854373Y-68944806D01*
X128860414Y-68951416D01*
X128860013Y-68960362D01*
X128859164Y-68961872D01*
X128702015Y-69198734D01*
X128698734Y-69202015D01*
X128461872Y-69359164D01*
X128453084Y-69360883D01*
X128445655Y-69355883D01*
X128444806Y-69354373D01*
X128371997Y-69198734D01*
X128212576Y-68857951D01*
X128212176Y-68849007D01*
X128214900Y-68844724D01*
X128344723Y-68714901D01*
X128352995Y-68711475D01*
X128357949Y-68712576D01*
G37*
%TD.AperFunction*%
%TD*%
%TA.AperFunction,Conductor*%
%TO.N,/Vsense*%
G36*
X122454344Y-66144116D02*
G01*
X122455193Y-66145626D01*
X122527080Y-66299293D01*
X122646791Y-66555193D01*
X122687422Y-66642046D01*
X122687823Y-66650992D01*
X122685097Y-66655277D01*
X122555277Y-66785097D01*
X122547004Y-66788524D01*
X122542047Y-66787422D01*
X122391428Y-66716961D01*
X122045626Y-66555193D01*
X122039585Y-66548583D01*
X122039986Y-66539637D01*
X122040835Y-66538127D01*
X122197985Y-66301263D01*
X122201263Y-66297985D01*
X122438127Y-66140834D01*
X122446915Y-66139116D01*
X122454344Y-66144116D01*
G37*
%TD.AperFunction*%
%TD*%
%TA.AperFunction,Conductor*%
%TO.N,/Vsense*%
G36*
X133460362Y-71339986D02*
G01*
X133461872Y-71340835D01*
X133698734Y-71497984D01*
X133702015Y-71501265D01*
X133859164Y-71738127D01*
X133860883Y-71746915D01*
X133855883Y-71754344D01*
X133854373Y-71755193D01*
X133357953Y-71987422D01*
X133349007Y-71987823D01*
X133344722Y-71985097D01*
X133214902Y-71855277D01*
X133211475Y-71847004D01*
X133212575Y-71842051D01*
X133444806Y-71345625D01*
X133451416Y-71339585D01*
X133460362Y-71339986D01*
G37*
%TD.AperFunction*%
%TD*%
%TA.AperFunction,Conductor*%
%TO.N,/Vsense*%
G36*
X132170043Y-72408195D02*
G01*
X132563235Y-72491226D01*
X132569091Y-72494401D01*
X132698301Y-72623611D01*
X132701728Y-72631884D01*
X132698301Y-72640157D01*
X132696840Y-72641397D01*
X132276464Y-72942427D01*
X132267742Y-72944457D01*
X132260139Y-72939726D01*
X132259945Y-72939446D01*
X132102018Y-72704756D01*
X132100242Y-72695980D01*
X132156200Y-72417348D01*
X132161189Y-72409913D01*
X132169975Y-72408182D01*
X132170043Y-72408195D01*
G37*
%TD.AperFunction*%
%TD*%
%TA.AperFunction,Conductor*%
%TO.N,/Vmid*%
G36*
X127837655Y-77010792D02*
G01*
X127843696Y-77017402D01*
X127844165Y-77019070D01*
X127900530Y-77297680D01*
X127900530Y-77302320D01*
X127844165Y-77580929D01*
X127839165Y-77588358D01*
X127830377Y-77590077D01*
X127828709Y-77589608D01*
X127313476Y-77402796D01*
X127306866Y-77396755D01*
X127305764Y-77391797D01*
X127305764Y-77208202D01*
X127309191Y-77199929D01*
X127313473Y-77197204D01*
X127828711Y-77010391D01*
X127837655Y-77010792D01*
G37*
%TD.AperFunction*%
%TD*%
%TA.AperFunction,Conductor*%
%TO.N,/Vmid*%
G36*
X121255277Y-77914902D02*
G01*
X121385097Y-78044722D01*
X121388524Y-78052995D01*
X121387422Y-78057953D01*
X121155193Y-78554373D01*
X121148583Y-78560414D01*
X121139637Y-78560013D01*
X121138127Y-78559164D01*
X120901265Y-78402015D01*
X120897984Y-78398734D01*
X120740835Y-78161872D01*
X120739116Y-78153084D01*
X120744116Y-78145655D01*
X120745621Y-78144808D01*
X121242048Y-77912576D01*
X121250992Y-77912176D01*
X121255277Y-77914902D01*
G37*
%TD.AperFunction*%
%TD*%
%TA.AperFunction,Conductor*%
%TO.N,Net-(U3-LDEL)*%
G36*
X127960362Y-79639986D02*
G01*
X127961872Y-79640835D01*
X128198734Y-79797984D01*
X128202015Y-79801265D01*
X128359164Y-80038127D01*
X128360883Y-80046915D01*
X128355883Y-80054344D01*
X128354373Y-80055193D01*
X127857953Y-80287422D01*
X127849007Y-80287823D01*
X127844722Y-80285097D01*
X127714902Y-80155277D01*
X127711475Y-80147004D01*
X127712575Y-80142051D01*
X127944806Y-79645625D01*
X127951416Y-79639585D01*
X127960362Y-79639986D01*
G37*
%TD.AperFunction*%
%TD*%
%TA.AperFunction,Conductor*%
%TO.N,Net-(U3-LDEL)*%
G36*
X123971282Y-81610389D02*
G01*
X124486525Y-81797204D01*
X124493134Y-81803244D01*
X124494236Y-81808202D01*
X124494236Y-81991797D01*
X124490809Y-82000070D01*
X124486524Y-82002796D01*
X123971290Y-82189608D01*
X123962344Y-82189207D01*
X123956303Y-82182597D01*
X123955837Y-82180939D01*
X123899469Y-81902318D01*
X123899469Y-81897680D01*
X123955835Y-81619067D01*
X123960834Y-81611641D01*
X123969622Y-81609922D01*
X123971282Y-81610389D01*
G37*
%TD.AperFunction*%
%TD*%
%TA.AperFunction,Conductor*%
%TO.N,Vdrive*%
G36*
X128139003Y-74959001D02*
G01*
X128298272Y-75195942D01*
X128300043Y-75204720D01*
X128300030Y-75204789D01*
X128243541Y-75484011D01*
X128238541Y-75491440D01*
X128231078Y-75493349D01*
X127733648Y-75450913D01*
X127725697Y-75446795D01*
X127722943Y-75439255D01*
X127722943Y-75157322D01*
X127726370Y-75149049D01*
X127729527Y-75146799D01*
X128124180Y-74955004D01*
X128133118Y-74954471D01*
X128139003Y-74959001D01*
G37*
%TD.AperFunction*%
%TD*%
%TA.AperFunction,Conductor*%
%TO.N,Vdrive*%
G36*
X123570564Y-75009005D02*
G01*
X123622042Y-75022865D01*
X123625500Y-75024435D01*
X123689984Y-75067522D01*
X123689988Y-75067524D01*
X123689991Y-75067526D01*
X123808374Y-75116562D01*
X123934049Y-75141561D01*
X123934050Y-75141561D01*
X124061344Y-75141561D01*
X124064385Y-75141963D01*
X124069102Y-75143232D01*
X124085578Y-75147668D01*
X124092675Y-75153128D01*
X124094236Y-75158966D01*
X124094236Y-75441033D01*
X124090809Y-75449306D01*
X124085578Y-75452331D01*
X123570564Y-75590994D01*
X123561684Y-75589836D01*
X123556224Y-75582738D01*
X123556059Y-75582039D01*
X123499469Y-75302318D01*
X123499469Y-75297680D01*
X123556055Y-75017980D01*
X123561054Y-75010554D01*
X123569842Y-75008835D01*
X123570564Y-75009005D01*
G37*
%TD.AperFunction*%
%TD*%
%TA.AperFunction,Conductor*%
%TO.N,Net-(Q2-B)*%
G36*
X133974927Y-80800458D02*
G01*
X133976388Y-80801698D01*
X134105598Y-80930908D01*
X134108773Y-80936764D01*
X134191794Y-81329911D01*
X134190150Y-81338713D01*
X134182763Y-81343776D01*
X134182650Y-81343799D01*
X133904079Y-81399745D01*
X133895293Y-81398014D01*
X133895243Y-81397981D01*
X133660553Y-81240054D01*
X133655602Y-81232592D01*
X133657378Y-81223815D01*
X133657572Y-81223535D01*
X133958603Y-80803157D01*
X133966205Y-80798428D01*
X133974927Y-80800458D01*
G37*
%TD.AperFunction*%
%TD*%
%TA.AperFunction,Conductor*%
%TO.N,Net-(Q2-B)*%
G36*
X137460362Y-77039986D02*
G01*
X137461872Y-77040835D01*
X137698734Y-77197984D01*
X137702015Y-77201265D01*
X137859164Y-77438127D01*
X137860883Y-77446915D01*
X137855883Y-77454344D01*
X137854373Y-77455193D01*
X137357953Y-77687422D01*
X137349007Y-77687823D01*
X137344722Y-77685097D01*
X137214902Y-77555277D01*
X137211475Y-77547004D01*
X137212575Y-77542051D01*
X137444806Y-77045625D01*
X137451416Y-77039585D01*
X137460362Y-77039986D01*
G37*
%TD.AperFunction*%
%TD*%
%TA.AperFunction,Conductor*%
%TO.N,Net-(U3-BLO)*%
G36*
X139487685Y-72506834D02*
G01*
X140053644Y-72745075D01*
X140059940Y-72751444D01*
X140059889Y-72760398D01*
X140058851Y-72762332D01*
X139903694Y-72995942D01*
X139896262Y-73000938D01*
X139896223Y-73000946D01*
X139615509Y-73056595D01*
X139606728Y-73054842D01*
X139602278Y-73049223D01*
X139584192Y-73000946D01*
X139494077Y-72760398D01*
X139472194Y-72701985D01*
X139471450Y-72697880D01*
X139471450Y-72517619D01*
X139474877Y-72509346D01*
X139483150Y-72505919D01*
X139487685Y-72506834D01*
G37*
%TD.AperFunction*%
%TD*%
%TA.AperFunction,Conductor*%
%TO.N,Net-(U3-BLO)*%
G36*
X137571282Y-72310389D02*
G01*
X138086525Y-72497204D01*
X138093134Y-72503244D01*
X138094236Y-72508202D01*
X138094236Y-72691797D01*
X138090809Y-72700070D01*
X138086524Y-72702796D01*
X137571290Y-72889608D01*
X137562344Y-72889207D01*
X137556303Y-72882597D01*
X137555837Y-72880939D01*
X137499469Y-72602318D01*
X137499469Y-72597680D01*
X137555835Y-72319067D01*
X137560834Y-72311641D01*
X137569622Y-72309922D01*
X137571282Y-72310389D01*
G37*
%TD.AperFunction*%
%TD*%
%TA.AperFunction,Conductor*%
%TO.N,/Vsense*%
G36*
X140657949Y-82012576D02*
G01*
X140968713Y-82157953D01*
X141154373Y-82244806D01*
X141160414Y-82251416D01*
X141160013Y-82260362D01*
X141159164Y-82261872D01*
X141002015Y-82498734D01*
X140998734Y-82502015D01*
X140761872Y-82659164D01*
X140753084Y-82660883D01*
X140745655Y-82655883D01*
X140744806Y-82654373D01*
X140671997Y-82498734D01*
X140512576Y-82157951D01*
X140512176Y-82149007D01*
X140514900Y-82144724D01*
X140644723Y-82014901D01*
X140652995Y-82011475D01*
X140657949Y-82012576D01*
G37*
%TD.AperFunction*%
%TD*%
%TA.AperFunction,Conductor*%
%TO.N,/Vsense*%
G36*
X138254344Y-76044116D02*
G01*
X138255193Y-76045626D01*
X138327080Y-76199293D01*
X138446791Y-76455193D01*
X138487422Y-76542046D01*
X138487823Y-76550992D01*
X138485097Y-76555277D01*
X138355277Y-76685097D01*
X138347004Y-76688524D01*
X138342047Y-76687422D01*
X138191428Y-76616961D01*
X137845626Y-76455193D01*
X137839585Y-76448583D01*
X137839986Y-76439637D01*
X137840835Y-76438127D01*
X137997985Y-76201263D01*
X138001263Y-76197985D01*
X138238127Y-76040834D01*
X138246915Y-76039116D01*
X138254344Y-76044116D01*
G37*
%TD.AperFunction*%
%TD*%
%TA.AperFunction,Conductor*%
%TO.N,Net-(Q2-B)*%
G36*
X140660362Y-73839986D02*
G01*
X140661872Y-73840835D01*
X140898734Y-73997984D01*
X140902015Y-74001265D01*
X141059164Y-74238127D01*
X141060883Y-74246915D01*
X141055883Y-74254344D01*
X141054373Y-74255193D01*
X140557953Y-74487422D01*
X140549007Y-74487823D01*
X140544722Y-74485097D01*
X140414902Y-74355277D01*
X140411475Y-74347004D01*
X140412575Y-74342051D01*
X140644806Y-73845625D01*
X140651416Y-73839585D01*
X140660362Y-73839986D01*
G37*
%TD.AperFunction*%
%TD*%
%TA.AperFunction,Conductor*%
%TO.N,Net-(Q2-B)*%
G36*
X139900070Y-75209191D02*
G01*
X139902796Y-75213476D01*
X140089608Y-75728709D01*
X140089207Y-75737655D01*
X140082597Y-75743696D01*
X140080929Y-75744165D01*
X139802320Y-75800530D01*
X139797680Y-75800530D01*
X139519070Y-75744165D01*
X139511641Y-75739165D01*
X139509922Y-75730377D01*
X139510387Y-75728720D01*
X139697204Y-75213476D01*
X139703245Y-75206866D01*
X139708203Y-75205764D01*
X139891797Y-75205764D01*
X139900070Y-75209191D01*
G37*
%TD.AperFunction*%
%TD*%
%TA.AperFunction,Conductor*%
%TO.N,/Out+*%
G36*
X151101000Y-81300000D02*
G01*
X151051227Y-81545196D01*
X150640000Y-81411447D01*
X150640000Y-81411446D01*
X150612885Y-81402628D01*
X150606078Y-81396811D01*
X150604804Y-81391502D01*
X150604804Y-81208497D01*
X150608231Y-81200224D01*
X150612882Y-81197372D01*
X151051227Y-81054804D01*
X151101000Y-81300000D01*
G37*
%TD.AperFunction*%
%TD*%
%TA.AperFunction,Conductor*%
%TO.N,/Out+*%
G36*
X141985505Y-80012955D02*
G01*
X141986354Y-80014465D01*
X142058241Y-80168132D01*
X142177952Y-80424032D01*
X142218583Y-80510885D01*
X142218984Y-80519831D01*
X142216258Y-80524116D01*
X142086438Y-80653936D01*
X142078165Y-80657363D01*
X142073208Y-80656261D01*
X141922589Y-80585800D01*
X141576787Y-80424032D01*
X141570746Y-80417422D01*
X141571147Y-80408476D01*
X141571996Y-80406966D01*
X141729146Y-80170102D01*
X141732424Y-80166824D01*
X141969288Y-80009673D01*
X141978076Y-80007955D01*
X141985505Y-80012955D01*
G37*
%TD.AperFunction*%
%TD*%
%TA.AperFunction,Conductor*%
%TO.N,/AL*%
G36*
X150060362Y-77039986D02*
G01*
X150061872Y-77040835D01*
X150298734Y-77197984D01*
X150302015Y-77201265D01*
X150459164Y-77438127D01*
X150460883Y-77446915D01*
X150455883Y-77454344D01*
X150454373Y-77455193D01*
X149957953Y-77687422D01*
X149949007Y-77687823D01*
X149944722Y-77685097D01*
X149814902Y-77555277D01*
X149811475Y-77547004D01*
X149812575Y-77542051D01*
X150044806Y-77045625D01*
X150051416Y-77039585D01*
X150060362Y-77039986D01*
G37*
%TD.AperFunction*%
%TD*%
%TA.AperFunction,Conductor*%
%TO.N,/AL*%
G36*
X145171282Y-78337769D02*
G01*
X145686525Y-78524584D01*
X145693134Y-78530624D01*
X145694236Y-78535582D01*
X145694236Y-78719177D01*
X145690809Y-78727450D01*
X145686524Y-78730176D01*
X145171290Y-78916988D01*
X145162344Y-78916587D01*
X145156303Y-78909977D01*
X145155837Y-78908319D01*
X145099469Y-78629698D01*
X145099469Y-78625060D01*
X145155835Y-78346447D01*
X145160834Y-78339021D01*
X145169622Y-78337302D01*
X145171282Y-78337769D01*
G37*
%TD.AperFunction*%
%TD*%
%TA.AperFunction,Conductor*%
%TO.N,/Out-*%
G36*
X155238893Y-79092133D02*
G01*
X155100707Y-79300707D01*
X154892133Y-79438893D01*
X154679133Y-79020554D01*
X154820554Y-78879133D01*
X155238893Y-79092133D01*
G37*
%TD.AperFunction*%
%TD*%
%TA.AperFunction,Conductor*%
%TO.N,/Out-*%
G36*
X149555277Y-75314902D02*
G01*
X149685097Y-75444722D01*
X149688524Y-75452995D01*
X149687422Y-75457953D01*
X149455193Y-75954373D01*
X149448583Y-75960414D01*
X149439637Y-75960013D01*
X149438127Y-75959164D01*
X149201265Y-75802015D01*
X149197984Y-75798734D01*
X149040835Y-75561872D01*
X149039116Y-75553084D01*
X149044116Y-75545655D01*
X149045621Y-75544808D01*
X149542048Y-75312576D01*
X149550992Y-75312176D01*
X149555277Y-75314902D01*
G37*
%TD.AperFunction*%
%TD*%
%TA.AperFunction,Conductor*%
%TO.N,/BH*%
G36*
X156537655Y-73910792D02*
G01*
X156543696Y-73917402D01*
X156544165Y-73919070D01*
X156600530Y-74197680D01*
X156600530Y-74202320D01*
X156544165Y-74480929D01*
X156539165Y-74488358D01*
X156530377Y-74490077D01*
X156528709Y-74489608D01*
X156013476Y-74302796D01*
X156006866Y-74296755D01*
X156005764Y-74291797D01*
X156005764Y-74108202D01*
X156009191Y-74099929D01*
X156013473Y-74097204D01*
X156528711Y-73910391D01*
X156537655Y-73910792D01*
G37*
%TD.AperFunction*%
%TD*%
%TA.AperFunction,Conductor*%
%TO.N,/BH*%
G36*
X148476221Y-73856363D02*
G01*
X148870381Y-74095942D01*
X148871434Y-74096582D01*
X148876724Y-74103807D01*
X148877057Y-74106580D01*
X148877057Y-74290235D01*
X148873630Y-74298508D01*
X148867449Y-74301746D01*
X148369812Y-74392184D01*
X148361059Y-74390292D01*
X148356252Y-74382993D01*
X148337486Y-74290235D01*
X148299969Y-74104789D01*
X148301688Y-74096001D01*
X148460436Y-73859834D01*
X148467894Y-73854881D01*
X148476221Y-73856363D01*
G37*
%TD.AperFunction*%
%TD*%
%TA.AperFunction,Conductor*%
%TO.N,/BL*%
G36*
X144871282Y-75410389D02*
G01*
X145386525Y-75597204D01*
X145393134Y-75603244D01*
X145394236Y-75608202D01*
X145394236Y-75791797D01*
X145390809Y-75800070D01*
X145386524Y-75802796D01*
X144871290Y-75989608D01*
X144862344Y-75989207D01*
X144856303Y-75982597D01*
X144855837Y-75980939D01*
X144799469Y-75702318D01*
X144799469Y-75697680D01*
X144855835Y-75419067D01*
X144860834Y-75411641D01*
X144869622Y-75409922D01*
X144871282Y-75410389D01*
G37*
%TD.AperFunction*%
%TD*%
%TA.AperFunction,Conductor*%
%TO.N,/BL*%
G36*
X156157949Y-75612576D02*
G01*
X156468713Y-75757953D01*
X156654373Y-75844806D01*
X156660414Y-75851416D01*
X156660013Y-75860362D01*
X156659164Y-75861872D01*
X156502015Y-76098734D01*
X156498734Y-76102015D01*
X156261872Y-76259164D01*
X156253084Y-76260883D01*
X156245655Y-76255883D01*
X156244806Y-76254373D01*
X156171997Y-76098734D01*
X156012576Y-75757951D01*
X156012176Y-75749007D01*
X156014900Y-75744724D01*
X156144723Y-75614901D01*
X156152995Y-75611475D01*
X156157949Y-75612576D01*
G37*
%TD.AperFunction*%
%TD*%
%TA.AperFunction,Conductor*%
%TO.N,/AH*%
G36*
X145437655Y-77410792D02*
G01*
X145443696Y-77417402D01*
X145444165Y-77419070D01*
X145500530Y-77697680D01*
X145500530Y-77702320D01*
X145444165Y-77980929D01*
X145439165Y-77988358D01*
X145430377Y-77990077D01*
X145428709Y-77989608D01*
X144913476Y-77802796D01*
X144906866Y-77796755D01*
X144905764Y-77791797D01*
X144905764Y-77608202D01*
X144909191Y-77599929D01*
X144913473Y-77597204D01*
X145428711Y-77410391D01*
X145437655Y-77410792D01*
G37*
%TD.AperFunction*%
%TD*%
%TA.AperFunction,Conductor*%
%TO.N,/AH*%
G36*
X140755277Y-79614902D02*
G01*
X140885097Y-79744722D01*
X140888524Y-79752995D01*
X140887422Y-79757953D01*
X140655193Y-80254373D01*
X140648583Y-80260414D01*
X140639637Y-80260013D01*
X140638127Y-80259164D01*
X140401265Y-80102015D01*
X140397984Y-80098734D01*
X140240835Y-79861872D01*
X140239116Y-79853084D01*
X140244116Y-79845655D01*
X140245621Y-79844808D01*
X140742048Y-79612576D01*
X140750992Y-79612176D01*
X140755277Y-79614902D01*
G37*
%TD.AperFunction*%
%TD*%
M02*
