M48
; DRILL file {KiCad 9.0.5} date 2026-04-02T16:14:02+0800
; FORMAT={-:-/ absolute / inch / decimal}
; #@! TF.CreationDate,2026-04-02T16:14:02+08:00
; #@! TF.GenerationSoftware,Kicad,Pcbnew,9.0.5
; #@! TF.FileFunction,Plated,1,2,PTH
FMAT,2
INCH
; #@! TA.AperFunction,Plated,PTH,ViaDrill
T1C0.0079
; #@! TA.AperFunction,Plated,PTH,ViaDrill
T2C0.0118
; #@! TA.AperFunction,Plated,PTH,ComponentDrill
T3C0.0276
; #@! TA.AperFunction,Plated,PTH,ComponentDrill
T4C0.0315
; #@! TA.AperFunction,Plated,PTH,ComponentDrill
T5C0.0394
%
G90
G05
T1
X5.9488Y-3.1732
X5.9488Y-3.2008
X5.9685Y-3.1496
X5.9724Y-3.2165
X5.9843Y-3.1732
X6.0Y-3.122
X6.0Y-3.1496
X6.0Y-3.2008
X6.0Y-3.2362
X6.0236Y-3.1732
X6.0236Y-3.2165
X6.0236Y-3.2559
X6.0276Y-3.1378
X6.0748Y-3.1496
X6.0748Y-3.1811
X6.0748Y-3.2126
X6.0748Y-3.2441
X6.0748Y-3.2717
X6.1063Y-3.122
X6.1063Y-3.1496
X6.1063Y-3.1811
X6.1063Y-3.2126
X6.1063Y-3.2441
X6.1063Y-3.2717
X6.1339Y-3.1614
X6.1339Y-3.1929
X6.1339Y-3.2244
X6.1339Y-3.2559
X6.1378Y-3.1339
X6.1614Y-3.1535
X6.1614Y-3.1811
X6.1614Y-3.2126
X6.1614Y-3.2402
X6.1614Y-3.2717
T2
X4.0669Y-2.5276
X4.0787Y-2.9961
X4.0787Y-3.626
X4.122Y-3.2953
X4.1339Y-2.748
X4.2717Y-3.3819
X4.3425Y-3.5394
X4.3465Y-2.9882
X4.3504Y-2.6535
X4.3583Y-2.7402
X4.3583Y-2.8543
X4.378Y-3.252
X4.4173Y-3.3583
X4.4173Y-3.4921
X4.4213Y-3.6024
X4.4488Y-2.8425
X4.4764Y-2.5354
X4.4803Y-2.8937
X4.5039Y-2.7402
X4.5591Y-3.378
X4.5984Y-2.6535
X4.6063Y-3.5591
X4.6102Y-2.811
X4.6102Y-3.1772
X4.6614Y-3.2087
X4.6772Y-2.7402
X4.7047Y-3.0512
X4.7087Y-2.9882
X4.7205Y-3.3504
X4.7244Y-2.7047
X4.7559Y-3.4488
X4.7598Y-3.0866
X4.7677Y-3.2323
X4.7795Y-3.3504
X4.7953Y-2.7402
X4.811Y-2.6102
X4.8346Y-3.1102
X4.8386Y-3.3504
X4.8583Y-2.5394
X4.8622Y-2.9646
X4.878Y-3.2244
X4.8818Y-2.9327
X4.8976Y-3.3622
X4.8976Y-3.437
X4.9016Y-2.8346
X4.9646Y-2.6102
X4.9724Y-3.3268
X5.0315Y-3.3504
X5.0354Y-3.0433
X5.0472Y-2.9055
X5.0472Y-3.1417
X5.0512Y-2.5512
X5.0512Y-2.9606
X5.0669Y-2.7244
X5.0669Y-2.7992
X5.0945Y-2.8543
X5.1063Y-3.0827
X5.1142Y-2.9213
X5.1339Y-3.2913
X5.1339Y-3.4331
X5.1378Y-2.878
X5.1535Y-3.1457
X5.1732Y-3.0157
X5.1772Y-2.9213
X5.2008Y-2.8622
X5.2126Y-3.6654
X5.2283Y-2.7638
X5.2402Y-3.0709
X5.2638Y-2.815
X5.2638Y-3.4606
X5.2717Y-3.2047
X5.3189Y-2.6457
X5.3622Y-2.5669
X5.4134Y-2.8583
X5.4213Y-3.0394
X5.4331Y-3.0
X5.4528Y-3.6693
X5.4646Y-2.7205
X5.4724Y-2.6417
X5.5039Y-2.9843
X5.5079Y-2.874
X5.5157Y-2.5591
X5.5276Y-3.1535
X5.5394Y-2.689
X5.5472Y-2.9134
X5.5512Y-3.248
X5.5551Y-2.7598
X5.58Y-3.1563
X5.5984Y-3.2441
X5.6181Y-2.7677
X5.685Y-2.8346
X5.7008Y-2.9803
X5.7008Y-3.2402
X5.7126Y-3.0956
X5.7205Y-2.8937
X5.7283Y-3.0591
X5.7441Y-3.1575
X5.752Y-2.8661
X5.7638Y-2.7205
X5.7717Y-2.8346
X5.7795Y-2.5315
X5.7795Y-2.9134
X5.7913Y-3.5433
X5.8031Y-2.8701
X5.8386Y-2.5315
X5.8386Y-2.5787
X5.8386Y-2.9173
X5.8386Y-3.4488
X5.8543Y-3.6339
X5.874Y-2.6299
X5.874Y-2.9843
X5.8898Y-2.7047
X5.8976Y-2.5787
X5.9134Y-2.5315
X5.9173Y-3.0394
X5.9331Y-2.6299
X5.9646Y-2.5787
X6.0Y-2.5315
X6.0512Y-2.6969
X6.0748Y-2.5118
X6.1457Y-2.8622
X6.1614Y-2.9961
X6.1654Y-2.9213
X6.1811Y-2.8228
X6.1929Y-2.7402
X6.2165Y-2.5118
X6.2992Y-2.6969
X6.3031Y-2.5748
T3
X5.6026Y-3.5039
X5.6059Y-3.6063
X5.6774Y-3.5039
X5.6807Y-3.6063
T4
X4.2242Y-3.4813
X4.2242Y-3.5813
X4.4402Y-3.0394
X4.5242Y-3.4813
X4.5242Y-3.5813
X4.5402Y-3.0394
T5
X4.2323Y-2.5701
X4.2323Y-2.6701
X4.2323Y-2.7701
X4.2323Y-2.8701
X4.2323Y-2.9701
X4.2323Y-3.0701
X4.2323Y-3.1701
X4.2323Y-3.2701
X4.715Y-3.563
X4.815Y-3.563
X4.915Y-3.563
X5.015Y-3.563
X5.115Y-3.563
X5.215Y-3.563
M30
