%TF.GenerationSoftware,KiCad,Pcbnew,9.0.5*%
%TF.CreationDate,2026-06-01T19:14:00+01:00*%
%TF.ProjectId,KiCadV2,4b694361-6456-4322-9e6b-696361645f70,rev?*%
%TF.SameCoordinates,Original*%
%TF.FileFunction,Copper,L2,Bot*%
%TF.FilePolarity,Positive*%
%FSLAX46Y46*%
G04 Gerber Fmt 4.6, Leading zero omitted, Abs format (unit mm)*
G04 Created by KiCad (PCBNEW 9.0.5) date 2026-06-01 19:14:00*
%MOMM*%
%LPD*%
G01*
G04 APERTURE LIST*
%TA.AperFunction,SMDPad,CuDef*%
%ADD10C,2.500000*%
%TD*%
%TA.AperFunction,ComponentPad*%
%ADD11R,1.700000X1.700000*%
%TD*%
%TA.AperFunction,ComponentPad*%
%ADD12C,1.700000*%
%TD*%
%TA.AperFunction,ComponentPad*%
%ADD13O,1.600000X1.600000*%
%TD*%
%TA.AperFunction,ViaPad*%
%ADD14C,0.600000*%
%TD*%
%TA.AperFunction,Conductor*%
%ADD15C,0.200000*%
%TD*%
%TA.AperFunction,Conductor*%
%ADD16C,0.300000*%
%TD*%
%TA.AperFunction,Conductor*%
%ADD17C,0.500000*%
%TD*%
G04 APERTURE END LIST*
D10*
%TO.P,TP3,1,1*%
%TO.N,/PerCoil1/SignalProcessingChain/HF PWM*%
X101845000Y-157712500D03*
%TD*%
%TO.P,TP2,1,1*%
%TO.N,/PerCoil/SignalProcessingChain/HF PWM*%
X90825000Y-158002500D03*
%TD*%
%TO.P,TP1,1,1*%
%TO.N,Net-(U6-Z)*%
X89184202Y-166800000D03*
%TD*%
D11*
%TO.P,J4,1,Pin_1*%
%TO.N,/+OUT2*%
X124387500Y-125700000D03*
D12*
%TO.P,J4,2,Pin_2*%
%TO.N,/-OUT2*%
X126927500Y-125700000D03*
%TD*%
D11*
%TO.P,J3,1,Pin_1*%
%TO.N,/+OUT1*%
X65000000Y-125700000D03*
D12*
%TO.P,J3,2,Pin_2*%
%TO.N,/-OUT1*%
X67540000Y-125700000D03*
%TD*%
D13*
%TO.P,A1,5,+5V*%
%TO.N,+5V*%
X89420000Y-123800000D03*
%TO.P,A1,6,GND*%
%TO.N,GND*%
X86880000Y-123800000D03*
%TO.P,A1,7,GND*%
X84340000Y-123800000D03*
%TO.P,A1,8,VIN*%
%TO.N,+12V*%
X81800000Y-123800000D03*
%TO.P,A1,9,A0*%
%TO.N,/Analog1*%
X76720000Y-123800000D03*
%TO.P,A1,10,A1*%
%TO.N,/Analog2*%
X74180000Y-123800000D03*
%TO.P,A1,18,D3*%
%TO.N,/PWM2*%
X71640000Y-172060000D03*
%TO.P,A1,19,D4*%
%TO.N,/D1*%
X74180000Y-172060000D03*
%TO.P,A1,20,D5*%
%TO.N,/PWM1*%
X76720000Y-172060000D03*
%TO.P,A1,21,D6*%
%TO.N,/PWM4*%
X79260000Y-172060000D03*
%TO.P,A1,22,D7*%
%TO.N,/D2*%
X81800000Y-172060000D03*
%TO.P,A1,23,D8*%
%TO.N,/D3*%
X85860000Y-172060000D03*
%TO.P,A1,24,D9*%
%TO.N,/PWM3*%
X88400000Y-172060000D03*
%TO.P,A1,25,D10*%
%TO.N,/PWM6*%
X90940000Y-172060000D03*
%TO.P,A1,26,D11*%
%TO.N,/PWM5*%
X93480000Y-172060000D03*
%TO.P,A1,27,D12*%
%TO.N,unconnected-(A1-D12-Pad27)*%
X96020000Y-172060000D03*
%TO.P,A1,28,D13*%
%TO.N,unconnected-(A1-D13-Pad28)*%
X98560000Y-172060000D03*
%TO.P,A1,29,GND*%
%TO.N,GND*%
X101100000Y-172060000D03*
%TD*%
D14*
%TO.N,GND*%
X119000000Y-155200000D03*
X117800000Y-155200000D03*
X108800000Y-161000000D03*
X84200000Y-171800000D03*
X87400000Y-167400000D03*
X87600000Y-168400000D03*
X77200000Y-167600000D03*
X78000000Y-168600000D03*
X83552565Y-169528000D03*
X80000000Y-165000000D03*
X69450000Y-151800000D03*
X121600000Y-140400000D03*
X119400000Y-140200000D03*
X84400000Y-137200000D03*
X87600000Y-142000000D03*
X90600000Y-140000000D03*
X110200000Y-127600000D03*
X106200000Y-129600000D03*
X118600000Y-125000000D03*
X122000000Y-123400000D03*
X121200000Y-130800000D03*
X120000000Y-124200000D03*
X115400000Y-126800000D03*
X113800000Y-127600000D03*
X117000000Y-125800000D03*
X117800000Y-123800000D03*
X124200000Y-130600000D03*
X125600000Y-132200000D03*
X122600000Y-130200000D03*
X125400000Y-129000000D03*
X128400000Y-134800000D03*
X129600000Y-130800000D03*
X128000000Y-127800000D03*
X131600000Y-139000000D03*
X129000000Y-140400000D03*
X133000000Y-141600000D03*
X126000000Y-145000000D03*
X120600000Y-145800000D03*
X118200000Y-146800000D03*
X106000000Y-150200000D03*
X104400000Y-150000000D03*
X103800000Y-152600000D03*
X99200000Y-151000000D03*
X96800000Y-158600000D03*
X94800000Y-158600000D03*
X112600000Y-158200000D03*
X110800000Y-153400000D03*
X110400000Y-155400000D03*
X103800000Y-172000000D03*
X97400000Y-166486500D03*
X94600000Y-166486500D03*
X74400000Y-155200000D03*
X75200000Y-157000000D03*
X79200000Y-155600000D03*
X85600000Y-150400000D03*
X84000000Y-150400000D03*
X86400000Y-145000000D03*
X84600000Y-142800000D03*
X83800000Y-145000000D03*
X81400000Y-143200000D03*
X79000000Y-145400000D03*
X69600000Y-143800000D03*
X77000000Y-143200000D03*
X66800000Y-140800000D03*
X60800000Y-140200000D03*
X62000000Y-138600000D03*
X59200000Y-138600000D03*
X63800000Y-136400000D03*
X62800000Y-133400000D03*
X63800000Y-130000000D03*
X62200000Y-128600000D03*
X66000000Y-130800000D03*
X67600000Y-129600000D03*
X66000000Y-128600000D03*
X78600000Y-123200000D03*
X72000000Y-124200000D03*
X70200000Y-123200000D03*
X76000000Y-127000000D03*
X91400000Y-132000000D03*
X101600000Y-128400000D03*
X92200000Y-128600000D03*
X91000000Y-131000000D03*
X99200000Y-131000000D03*
X103000000Y-131600000D03*
X103000000Y-130000000D03*
X100000000Y-128400000D03*
X98600000Y-128400000D03*
X106200000Y-127600000D03*
X106200000Y-126400000D03*
X106200000Y-125200000D03*
X105000000Y-128200000D03*
X105000000Y-127000000D03*
X105000000Y-125800000D03*
X105000000Y-124800000D03*
X101000000Y-124600000D03*
X102800000Y-124800000D03*
X102800000Y-126400000D03*
X99200000Y-126400000D03*
X98000000Y-124800000D03*
X97400000Y-125600000D03*
X96400000Y-126400000D03*
X96400000Y-124800000D03*
X95400000Y-125600000D03*
X94400000Y-126400000D03*
X94400000Y-124800000D03*
X93400000Y-125600000D03*
X92400000Y-126400000D03*
X92400000Y-124800000D03*
X88200000Y-130200000D03*
X86000000Y-129800000D03*
X85800000Y-127400000D03*
X84200000Y-125800000D03*
X82800000Y-127400000D03*
X81000000Y-126000000D03*
X80000000Y-127600000D03*
X78400000Y-126200000D03*
X71000000Y-131000000D03*
X73000000Y-132400000D03*
X70800000Y-140400000D03*
X75800000Y-139200000D03*
X72400000Y-140000000D03*
X73600000Y-139600000D03*
X58800000Y-152800000D03*
X62400000Y-146000000D03*
X61400000Y-147200000D03*
X61400000Y-149000000D03*
X59200000Y-154800000D03*
X75800000Y-160600000D03*
X77000000Y-159749000D03*
X73200000Y-151600000D03*
X72000000Y-150600000D03*
X74600000Y-148800000D03*
X73400000Y-148800000D03*
X78200000Y-150400000D03*
X81600000Y-150200000D03*
X80000000Y-150200000D03*
X93514589Y-149114589D03*
X94800000Y-150600000D03*
X95014589Y-147614589D03*
X97200000Y-146400000D03*
X100600000Y-148400000D03*
X100600000Y-146400000D03*
X101000000Y-141800000D03*
X103200000Y-138200000D03*
X100600000Y-140000000D03*
X98400000Y-141000000D03*
X105200000Y-142200000D03*
X104000000Y-143600000D03*
X110000000Y-141400000D03*
X113400000Y-145400000D03*
X110800000Y-143000000D03*
X110000000Y-145600000D03*
X107800000Y-143600000D03*
X106400000Y-145600000D03*
X109400000Y-150200000D03*
X108000000Y-151000000D03*
X112200000Y-151600000D03*
X120000000Y-151800000D03*
X118600000Y-151400000D03*
X122400000Y-149800000D03*
X123400000Y-149800000D03*
X127800000Y-146200000D03*
X129000000Y-146200000D03*
X130800000Y-149800000D03*
X133200000Y-151000000D03*
X133200000Y-148200000D03*
X132000000Y-155000000D03*
X131000000Y-160600000D03*
X127400000Y-163400000D03*
X131000000Y-163000000D03*
X126600000Y-160400000D03*
X122600000Y-165000000D03*
X123400000Y-159200000D03*
X120200000Y-163000000D03*
X121400000Y-160800000D03*
X121800000Y-158200000D03*
X119200000Y-160000000D03*
X117800000Y-168800000D03*
X117800000Y-166800000D03*
X115000000Y-169400000D03*
X110400000Y-168200000D03*
X106000000Y-164800000D03*
X104800000Y-168200000D03*
X103800000Y-165200000D03*
X101400000Y-166486500D03*
X104200000Y-161200000D03*
X105600000Y-161400000D03*
X106000000Y-156400000D03*
X103000000Y-155000000D03*
X101600000Y-153400000D03*
X99800000Y-154600000D03*
X98000000Y-154200000D03*
X93000000Y-155400000D03*
X91200000Y-153400000D03*
X89800000Y-154600000D03*
X93400000Y-153200000D03*
X90200000Y-151400000D03*
X88400000Y-150600000D03*
X88200000Y-162600000D03*
X88200000Y-164000000D03*
X86600000Y-162000000D03*
X84400000Y-163400000D03*
X82600000Y-163400000D03*
X69800000Y-166000000D03*
X71400000Y-165400000D03*
X69000000Y-164600000D03*
X68400000Y-162200000D03*
X66800000Y-163600000D03*
X66600000Y-161400000D03*
X65800000Y-158200000D03*
X65800000Y-156000000D03*
X59800000Y-159000000D03*
X59800000Y-162000000D03*
X63200000Y-164000000D03*
X61600000Y-164200000D03*
X60000000Y-172800000D03*
X60400000Y-169200000D03*
X59800000Y-168200000D03*
X66000000Y-172800000D03*
X72200000Y-167800000D03*
X69600000Y-173000000D03*
X74200000Y-169600000D03*
X72800000Y-173400000D03*
X77800000Y-173200000D03*
X80600000Y-173000000D03*
%TO.N,Net-(U6-Z)*%
X90200000Y-167200000D03*
%TO.N,/PerCoil/OC_SENSE*%
X71800000Y-133000000D03*
X65600000Y-134800000D03*
%TO.N,/0.2V*%
X64200000Y-153000000D03*
%TO.N,/Analog2*%
X116615000Y-139200000D03*
X124200000Y-145400000D03*
%TO.N,/EN1*%
X113000000Y-173200000D03*
X73000000Y-152800000D03*
%TO.N,/Analog2*%
X120200000Y-142600000D03*
%TO.N,GND*%
X67800000Y-150800000D03*
%TO.N,/0.2V*%
X66800000Y-150800000D03*
%TO.N,/VCM*%
X71800000Y-148600000D03*
X68600000Y-147680000D03*
X82982225Y-151782225D03*
X74400000Y-151200000D03*
X85400000Y-152000000D03*
X102400000Y-162800000D03*
X112400000Y-150000000D03*
X127800000Y-150200000D03*
X125800000Y-151800000D03*
X99200000Y-163600000D03*
X93000000Y-162800000D03*
%TO.N,/DACOUT2*%
X98000000Y-162600000D03*
X95600000Y-162600000D03*
%TO.N,/Analog2*%
X90600000Y-128400000D03*
X88200000Y-128800000D03*
%TO.N,/PWM3*%
X118000000Y-158800000D03*
%TO.N,GND*%
X80400000Y-157200000D03*
X81000000Y-160200000D03*
%TO.N,/PWM1*%
X81181258Y-158749733D03*
X76011765Y-166611765D03*
%TO.N,/EN2*%
X116600000Y-163400000D03*
%TO.N,/A2*%
X112400000Y-160000000D03*
X114800000Y-159400000D03*
%TO.N,Net-(D10-K)*%
X115000000Y-158200000D03*
%TO.N,/EN2*%
X114310051Y-156700001D03*
%TO.N,/A2*%
X78575735Y-167624265D03*
X113000000Y-168400000D03*
%TO.N,GND*%
X88919000Y-160861500D03*
X103294760Y-166486500D03*
X93000000Y-163600000D03*
X93445485Y-168750725D03*
%TO.N,/PerCoil1/SignalProcessingChain/HF PWM*%
X99095000Y-157662500D03*
%TO.N,/PerCoil/SignalProcessingChain/HF PWM*%
X93295000Y-157662500D03*
%TO.N,GND*%
X101332500Y-155225000D03*
X99095000Y-155662500D03*
%TO.N,/A1*%
X108600000Y-168400000D03*
%TO.N,/B1*%
X81800000Y-166351000D03*
X107400000Y-168400000D03*
%TO.N,/C1*%
X106200000Y-168400000D03*
X75200000Y-159000000D03*
X83600000Y-165400000D03*
%TO.N,/A1*%
X78000000Y-166200000D03*
X75952565Y-161552565D03*
%TO.N,/A2*%
X115400000Y-155600000D03*
%TO.N,GND*%
X114800000Y-165000000D03*
X115400000Y-163600000D03*
X112400000Y-160800000D03*
X113400000Y-161000000D03*
X112400000Y-161800000D03*
%TO.N,Net-(D10-K)*%
X112000000Y-153200000D03*
%TO.N,/A2*%
X113000000Y-165400000D03*
X110200000Y-161400000D03*
%TO.N,/B2*%
X109200000Y-164076000D03*
X111800000Y-168000000D03*
%TO.N,/C2*%
X106400000Y-157962500D03*
X110800000Y-165400000D03*
X109400000Y-158200000D03*
%TO.N,+5V*%
X108800000Y-123600000D03*
X131200000Y-152200000D03*
%TO.N,GND*%
X71000000Y-162600000D03*
X70800000Y-161000000D03*
X70225000Y-160375000D03*
X65600000Y-153800000D03*
X67800000Y-151600000D03*
%TO.N,+5V*%
X65800000Y-151000000D03*
X62600000Y-148600000D03*
X82600000Y-160200000D03*
X82600000Y-161800000D03*
%TO.N,GND*%
X77200000Y-162400000D03*
X81200000Y-161800000D03*
%TO.N,+5V*%
X78200000Y-157600000D03*
X81875500Y-157275500D03*
%TO.N,GND*%
X85600000Y-159000000D03*
X86800000Y-157400000D03*
X84200000Y-157200000D03*
X83400000Y-158800000D03*
X88400000Y-156400000D03*
X82800000Y-155200000D03*
%TO.N,/PWM4*%
X106200000Y-162600000D03*
X110000000Y-163476000D03*
%TO.N,+5V*%
X120200000Y-152600000D03*
X120800000Y-155000000D03*
X125800000Y-154600000D03*
%TO.N,/PerCoil1/OC_SENSE*%
X120200000Y-143800000D03*
X122800000Y-148200000D03*
%TO.N,+5V*%
X104000000Y-159000000D03*
X106400000Y-159400000D03*
%TO.N,/PerCoil1/~{OC1}*%
X112000000Y-154200000D03*
X112000000Y-155650000D03*
%TO.N,/PerCoil1/SignalProcessingChain/DIS*%
X104400000Y-151600000D03*
X106200000Y-152000000D03*
X106400000Y-153600000D03*
%TO.N,/PerCoil1/SignalProcessingChain/HF PWM*%
X112000000Y-157400000D03*
X108000000Y-157400000D03*
%TO.N,+5V*%
X82800000Y-167600000D03*
X81600000Y-168400000D03*
%TO.N,+12V*%
X88800000Y-145400000D03*
X91600000Y-146800000D03*
%TO.N,VBUS*%
X91600000Y-143600000D03*
X91600000Y-142800000D03*
X91600000Y-142000000D03*
X92200000Y-141400000D03*
X93000000Y-141400000D03*
X93800000Y-141400000D03*
X94600000Y-141400000D03*
X95400000Y-141400000D03*
X96200000Y-141400000D03*
%TO.N,+12V*%
X73400000Y-141400000D03*
X102687500Y-148087500D03*
X78600000Y-141400000D03*
X103900000Y-146500000D03*
X105085400Y-140807600D03*
X103205800Y-140706000D03*
X76300000Y-141000000D03*
%TO.N,/PerCoil/AHS*%
X67400000Y-136800000D03*
X71300000Y-138000000D03*
X80800000Y-134700000D03*
X67700000Y-138000000D03*
X74700000Y-137400000D03*
X67000000Y-138800000D03*
X68900000Y-138000000D03*
X80000000Y-133900000D03*
X67300000Y-134800000D03*
X78400000Y-133900000D03*
X78400000Y-134700000D03*
X72200000Y-137200000D03*
X73200000Y-138100000D03*
X71900000Y-135500000D03*
X73800000Y-136700000D03*
X71000000Y-138900000D03*
X80800000Y-133900000D03*
X69500000Y-138900000D03*
X81600000Y-134700000D03*
X72100000Y-136300000D03*
X80000000Y-134700000D03*
X70200000Y-138100000D03*
X81600000Y-133900000D03*
X72900000Y-136600000D03*
X79200000Y-134700000D03*
X67300000Y-135800000D03*
X68300000Y-138800000D03*
X79200000Y-133900000D03*
X73200000Y-137300000D03*
X72300000Y-138100000D03*
%TO.N,/+OUT2*%
X112700000Y-132900000D03*
X113500000Y-132100000D03*
X113200000Y-131300000D03*
X110300000Y-132100000D03*
X112300000Y-131400000D03*
X113500000Y-132900000D03*
X111900000Y-132100000D03*
X111900000Y-132900000D03*
X111100000Y-132900000D03*
X111100000Y-132100000D03*
X114000000Y-137600000D03*
X110300000Y-132900000D03*
X112700000Y-132100000D03*
%TO.N,/PerCoil1/BHS*%
X119700000Y-137200000D03*
X120600000Y-138000000D03*
X111900000Y-134700000D03*
X112700000Y-134700000D03*
X118200000Y-136900000D03*
X113500000Y-134700000D03*
X118400000Y-136000000D03*
X123000000Y-138000000D03*
X122400000Y-138900000D03*
X111100000Y-133900000D03*
X110300000Y-133900000D03*
X120900000Y-138900000D03*
X119800000Y-136300000D03*
X119200000Y-135700000D03*
X112700000Y-133900000D03*
X123600000Y-138800000D03*
X118000000Y-137800000D03*
X118800000Y-137500000D03*
X113500000Y-133900000D03*
X111100000Y-134700000D03*
X117500000Y-136300000D03*
X116700000Y-136600000D03*
X119000000Y-136600000D03*
X117300000Y-137200000D03*
X119600000Y-138100000D03*
X120000000Y-135500000D03*
X111900000Y-133900000D03*
X121700000Y-138100000D03*
X110300000Y-134700000D03*
X124200000Y-138000000D03*
%TO.N,/C1*%
X72398999Y-158999000D03*
X70598999Y-157399000D03*
%TO.N,VBUS*%
X97800000Y-132700000D03*
X92600000Y-133000000D03*
X97000000Y-131900000D03*
X93600000Y-130800000D03*
X97900000Y-131800000D03*
X92600000Y-131200000D03*
X96100000Y-130800000D03*
X94700000Y-130800000D03*
X97000000Y-130900000D03*
X92600000Y-132200000D03*
X97900000Y-130900000D03*
X96900000Y-132900000D03*
X96000000Y-128200000D03*
%TO.N,/-OUT1*%
X79600000Y-131400000D03*
X78400000Y-132100000D03*
X80800000Y-132100000D03*
X79200000Y-132100000D03*
X78700000Y-131300000D03*
X80800000Y-132900000D03*
X78400000Y-132900000D03*
X81600000Y-132900000D03*
X80000000Y-132900000D03*
X80000000Y-132100000D03*
X81600000Y-132100000D03*
X78100000Y-137700000D03*
X79200000Y-132900000D03*
%TO.N,/PerCoil/SignalProcessingChain/DIS*%
X88300000Y-146600000D03*
X89300000Y-148400000D03*
%TO.N,/PerCoil/SignalProcessingChain/Current_Dir*%
X80300000Y-153500000D03*
X75450000Y-152100000D03*
%TO.N,/PerCoil/BH*%
X77000000Y-140200000D03*
X87400000Y-131200000D03*
%TO.N,/PerCoil/BL*%
X79300000Y-137700000D03*
X84200000Y-130400000D03*
%TO.N,/PerCoil1/AL*%
X107560027Y-130522668D03*
X112800000Y-137600000D03*
%TO.N,/PerCoil1/AH*%
X115729976Y-140270025D03*
X104700000Y-131300000D03*
%TO.N,/PerCoil/SignalProcessingChain/EN*%
X75450000Y-153650000D03*
X79000000Y-153150000D03*
%TO.N,+5V*%
X109600000Y-152400000D03*
X105400000Y-155200000D03*
%TO.N,/D2*%
X112600000Y-170400000D03*
%TO.N,/PWM2*%
X75000000Y-165050000D03*
X73200000Y-162800000D03*
%TO.N,+5V*%
X96000000Y-152200000D03*
%TO.N,GND*%
X78000000Y-164600000D03*
%TO.N,/PWM3*%
X83400000Y-172600000D03*
%TD*%
D15*
%TO.N,GND*%
X97400000Y-166486500D02*
X94600000Y-166486500D01*
X94600000Y-166486500D02*
X93494760Y-166486500D01*
X101400000Y-166486500D02*
X97400000Y-166486500D01*
%TO.N,Net-(U6-Z)*%
X90200000Y-167200000D02*
X89584202Y-167200000D01*
X89584202Y-167200000D02*
X89184202Y-166800000D01*
%TO.N,/PerCoil/OC_SENSE*%
X67400000Y-133000000D02*
X71800000Y-133000000D01*
X65600000Y-134800000D02*
X67400000Y-133000000D01*
%TO.N,/Analog2*%
X123000000Y-145400000D02*
X120200000Y-142600000D01*
%TO.N,/EN1*%
X73000000Y-159247942D02*
X73000000Y-152800000D01*
X79770950Y-174128000D02*
X77974735Y-172331785D01*
X112072000Y-174128000D02*
X79770950Y-174128000D01*
X72400000Y-159847942D02*
X73000000Y-159247942D01*
X72400000Y-163849943D02*
X72400000Y-159847942D01*
X77974735Y-172331785D02*
X77974735Y-169424678D01*
X77974735Y-169424678D02*
X72400000Y-163849943D01*
X113000000Y-173200000D02*
X112072000Y-174128000D01*
%TO.N,/Analog2*%
X124200000Y-145400000D02*
X123000000Y-145400000D01*
%TO.N,/VCM*%
X71000000Y-148600000D02*
X70000000Y-147600000D01*
X70000000Y-147600000D02*
X68680000Y-147600000D01*
X68680000Y-147600000D02*
X68600000Y-147680000D01*
X71800000Y-148600000D02*
X71000000Y-148600000D01*
%TO.N,/0.2V*%
X64649943Y-153000000D02*
X66800000Y-150849943D01*
X64200000Y-153000000D02*
X64649943Y-153000000D01*
X66800000Y-150849943D02*
X66800000Y-150800000D01*
%TO.N,/VCM*%
X82400000Y-151200000D02*
X82982225Y-151782225D01*
X74400000Y-151200000D02*
X82400000Y-151200000D01*
X85400000Y-155150057D02*
X85400000Y-152000000D01*
X93000000Y-162750057D02*
X85400000Y-155150057D01*
X93000000Y-162800000D02*
X93000000Y-162750057D01*
X103396000Y-161804000D02*
X102400000Y-162800000D01*
X106551057Y-154599000D02*
X105151057Y-154599000D01*
X103396000Y-156354057D02*
X103396000Y-161804000D01*
X105151057Y-154599000D02*
X103396000Y-156354057D01*
X111150057Y-150000000D02*
X106551057Y-154599000D01*
X112400000Y-150000000D02*
X111150057Y-150000000D01*
X126200000Y-151800000D02*
X127800000Y-150200000D01*
X125800000Y-151800000D02*
X126200000Y-151800000D01*
X94600000Y-163600000D02*
X99200000Y-163600000D01*
X93800000Y-162800000D02*
X94600000Y-163600000D01*
X93000000Y-162800000D02*
X93800000Y-162800000D01*
%TO.N,GND*%
X93000000Y-163600000D02*
X93000000Y-165991740D01*
X90408260Y-163400000D02*
X88919000Y-161910740D01*
X93000000Y-165991740D02*
X93294760Y-166286500D01*
X88919000Y-161910740D02*
X88919000Y-160861500D01*
X93000000Y-163600000D02*
X92800000Y-163400000D01*
X92800000Y-163400000D02*
X90408260Y-163400000D01*
%TO.N,/DACOUT2*%
X95600000Y-162600000D02*
X98000000Y-162600000D01*
%TO.N,/Analog2*%
X116615000Y-139200000D02*
X113022333Y-139200000D01*
X113022333Y-139200000D02*
X107232027Y-133409694D01*
X107232027Y-132840663D02*
X101990364Y-127599000D01*
X107232027Y-133409694D02*
X107232027Y-132840663D01*
X91401000Y-127599000D02*
X90600000Y-128400000D01*
X101990364Y-127599000D02*
X91401000Y-127599000D01*
X88200000Y-128800000D02*
X79180000Y-128800000D01*
X79180000Y-128800000D02*
X74180000Y-123800000D01*
D16*
%TO.N,VBUS*%
X96000000Y-128200000D02*
X96000000Y-130700000D01*
X96000000Y-130700000D02*
X96100000Y-130800000D01*
D15*
%TO.N,/PerCoil1/AH*%
X115729976Y-140270025D02*
X112670025Y-140270025D01*
X112670025Y-140270025D02*
X104700000Y-132300000D01*
X104700000Y-132300000D02*
X104700000Y-131300000D01*
%TO.N,/PWM3*%
X118000000Y-164713805D02*
X118000000Y-158800000D01*
X113056805Y-169657000D02*
X118000000Y-164713805D01*
X89501000Y-173161000D02*
X107575138Y-173161000D01*
X111079138Y-169657000D02*
X113056805Y-169657000D01*
X107575138Y-173161000D02*
X111079138Y-169657000D01*
X88400000Y-172060000D02*
X89501000Y-173161000D01*
%TO.N,/D2*%
X112600000Y-170400000D02*
X110800000Y-170400000D01*
X110800000Y-170400000D02*
X107400000Y-173800000D01*
X83540000Y-173800000D02*
X81800000Y-172060000D01*
X107400000Y-173800000D02*
X83540000Y-173800000D01*
%TO.N,/PWM4*%
X79260000Y-172060000D02*
X80361000Y-170959000D01*
X80361000Y-170959000D02*
X107841000Y-170959000D01*
X107841000Y-170959000D02*
X109471000Y-169329000D01*
X110000000Y-165449943D02*
X110000000Y-163476000D01*
X109471000Y-169329000D02*
X112920943Y-169329000D01*
X112920943Y-169329000D02*
X113601000Y-168648943D01*
X113601000Y-168648943D02*
X113601000Y-166873000D01*
X113601000Y-166873000D02*
X111423057Y-166873000D01*
X111423057Y-166873000D02*
X110000000Y-165449943D01*
%TO.N,/PWM1*%
X81181258Y-158749733D02*
X80979168Y-158749733D01*
X80979168Y-158749733D02*
X80629435Y-158400000D01*
X74599000Y-158751057D02*
X74599000Y-163599000D01*
X80629435Y-158400000D02*
X74950057Y-158400000D01*
X74950057Y-158400000D02*
X74599000Y-158751057D01*
X76011765Y-165011765D02*
X76011765Y-166611765D01*
X74599000Y-163599000D02*
X76011765Y-165011765D01*
D16*
%TO.N,+5V*%
X78200000Y-157600000D02*
X78600000Y-158000000D01*
X78600000Y-158000000D02*
X81151000Y-158000000D01*
X81151000Y-158000000D02*
X81875500Y-157275500D01*
D15*
%TO.N,/EN2*%
X114199000Y-156811052D02*
X114199000Y-160999000D01*
X114310051Y-156700001D02*
X114199000Y-156811052D01*
X114199000Y-160999000D02*
X116600000Y-163400000D01*
%TO.N,/A2*%
X115601000Y-158599000D02*
X115601000Y-155801000D01*
X110200000Y-161400000D02*
X111600000Y-160000000D01*
X111600000Y-160000000D02*
X112400000Y-160000000D01*
X114800000Y-159400000D02*
X115601000Y-158599000D01*
X115601000Y-155801000D02*
X115400000Y-155600000D01*
D16*
%TO.N,Net-(D10-K)*%
X115000000Y-158200000D02*
X115000000Y-156137925D01*
X115000000Y-156137925D02*
X112062075Y-153200000D01*
X112062075Y-153200000D02*
X112000000Y-153200000D01*
D15*
%TO.N,/A2*%
X107007862Y-170456000D02*
X81407470Y-170456000D01*
X113000000Y-168400000D02*
X112399000Y-169001000D01*
X81407470Y-170456000D02*
X78575735Y-167624265D01*
X112399000Y-169001000D02*
X108462862Y-169001000D01*
X108462862Y-169001000D02*
X107007862Y-170456000D01*
%TO.N,/A1*%
X108600000Y-168400000D02*
X106872000Y-170128000D01*
X106872000Y-170128000D02*
X81928000Y-170128000D01*
X81928000Y-170128000D02*
X78000000Y-166200000D01*
%TO.N,/B1*%
X107400000Y-168400000D02*
X106000000Y-169800000D01*
X82400943Y-166351000D02*
X81800000Y-166351000D01*
X106000000Y-169800000D02*
X85849943Y-169800000D01*
X85849943Y-169800000D02*
X82400943Y-166351000D01*
%TO.N,/C1*%
X106200000Y-168400000D02*
X105200000Y-169400000D01*
X105200000Y-169400000D02*
X87600000Y-169400000D01*
X87600000Y-169400000D02*
X83600000Y-165400000D01*
%TO.N,GND*%
X93294760Y-166286500D02*
X93294760Y-168600000D01*
X93294760Y-168600000D02*
X93445485Y-168750725D01*
X93494760Y-166486500D02*
X93294760Y-166286500D01*
X103294760Y-166486500D02*
X101400000Y-166486500D01*
%TO.N,/PerCoil/SignalProcessingChain/HF PWM*%
X92955000Y-158002500D02*
X90825000Y-158002500D01*
X93295000Y-157662500D02*
X92955000Y-158002500D01*
%TO.N,/PerCoil1/SignalProcessingChain/HF PWM*%
X99095000Y-157662500D02*
X99145000Y-157712500D01*
%TO.N,GND*%
X99095000Y-155662500D02*
X99532500Y-155225000D01*
%TO.N,/PerCoil1/SignalProcessingChain/HF PWM*%
X99145000Y-157712500D02*
X101845000Y-157712500D01*
%TO.N,GND*%
X99532500Y-155225000D02*
X101332500Y-155225000D01*
%TO.N,/C1*%
X81600000Y-165400000D02*
X75200000Y-159000000D01*
X83600000Y-165400000D02*
X81600000Y-165400000D01*
%TO.N,/A1*%
X78000000Y-166200000D02*
X75952565Y-164152565D01*
X75952565Y-164152565D02*
X75952565Y-161552565D01*
%TO.N,/A2*%
X113000000Y-164200000D02*
X110200000Y-161400000D01*
X113000000Y-165400000D02*
X113000000Y-164200000D01*
%TO.N,/B2*%
X111800000Y-168000000D02*
X109200000Y-165400000D01*
X109200000Y-165400000D02*
X109200000Y-164076000D01*
%TO.N,/C2*%
X106637500Y-158200000D02*
X106400000Y-157962500D01*
X109400000Y-158200000D02*
X106637500Y-158200000D01*
X109400000Y-162000000D02*
X109400000Y-158200000D01*
X110800000Y-163400000D02*
X109400000Y-162000000D01*
X110800000Y-165400000D02*
X110800000Y-163400000D01*
D16*
%TO.N,+5V*%
X108800000Y-123600000D02*
X108000000Y-123600000D01*
X107800000Y-123800000D02*
X89420000Y-123800000D01*
X108000000Y-123600000D02*
X107800000Y-123800000D01*
X131200000Y-152200000D02*
X128800000Y-154600000D01*
X128800000Y-154600000D02*
X125800000Y-154600000D01*
X63400000Y-148600000D02*
X65800000Y-151000000D01*
X62600000Y-148600000D02*
X63400000Y-148600000D01*
D15*
%TO.N,/PWM2*%
X74000000Y-164050000D02*
X74000000Y-163600000D01*
X75000000Y-165050000D02*
X74000000Y-164050000D01*
X74000000Y-163600000D02*
X73200000Y-162800000D01*
D16*
%TO.N,+5V*%
X82600000Y-161800000D02*
X82600000Y-160200000D01*
D15*
%TO.N,/PWM4*%
X110000000Y-163476000D02*
X107076000Y-163476000D01*
X107076000Y-163476000D02*
X106200000Y-162600000D01*
D16*
%TO.N,+5V*%
X104000000Y-159000000D02*
X104000000Y-156600000D01*
X104000000Y-156600000D02*
X105400000Y-155200000D01*
X120200000Y-152600000D02*
X120200000Y-154400000D01*
X120200000Y-154400000D02*
X120800000Y-155000000D01*
X121200000Y-154600000D02*
X120800000Y-155000000D01*
X125800000Y-154600000D02*
X121200000Y-154600000D01*
D15*
%TO.N,/PerCoil1/OC_SENSE*%
X122800000Y-148200000D02*
X122800000Y-146400000D01*
X122800000Y-146400000D02*
X120200000Y-143800000D01*
D16*
%TO.N,+5V*%
X104400000Y-159400000D02*
X104000000Y-159000000D01*
X106400000Y-159400000D02*
X104400000Y-159400000D01*
D15*
%TO.N,/PerCoil1/~{OC1}*%
X112000000Y-155650000D02*
X112000000Y-154200000D01*
%TO.N,/PerCoil1/SignalProcessingChain/DIS*%
X104800000Y-152000000D02*
X104400000Y-151600000D01*
X106200000Y-152000000D02*
X104800000Y-152000000D01*
X106400000Y-152200000D02*
X106200000Y-152000000D01*
X106400000Y-153600000D02*
X106400000Y-152200000D01*
%TO.N,/PerCoil1/SignalProcessingChain/HF PWM*%
X108000000Y-157400000D02*
X112000000Y-157400000D01*
D16*
%TO.N,+5V*%
X82000000Y-168400000D02*
X82800000Y-167600000D01*
X81600000Y-168400000D02*
X82000000Y-168400000D01*
%TO.N,+12V*%
X102687500Y-148087500D02*
X103900000Y-146875000D01*
X103900000Y-146875000D02*
X103900000Y-146500000D01*
X91600000Y-146800000D02*
X90200000Y-146800000D01*
X90200000Y-146800000D02*
X88800000Y-145400000D01*
X76700000Y-141400000D02*
X73400000Y-141400000D01*
D15*
X103205800Y-140706000D02*
X104983800Y-140706000D01*
D16*
X76700000Y-141400000D02*
X78600000Y-141400000D01*
X76300000Y-141000000D02*
X76700000Y-141400000D01*
D15*
X104983800Y-140706000D02*
X105085400Y-140807600D01*
%TO.N,/+OUT2*%
X114000000Y-137600000D02*
X112800000Y-136400000D01*
X109699000Y-134948943D02*
X109699000Y-133501000D01*
X112800000Y-136400000D02*
X111150057Y-136400000D01*
X111150057Y-136400000D02*
X109699000Y-134948943D01*
X109699000Y-133501000D02*
X110300000Y-132900000D01*
%TO.N,/C1*%
X72198999Y-158999000D02*
X70598999Y-157399000D01*
X72398999Y-158999000D02*
X72198999Y-158999000D01*
%TO.N,/-OUT1*%
X78100000Y-137700000D02*
X79400000Y-136400000D01*
X80749943Y-136400000D02*
X82201000Y-134948943D01*
X82201000Y-133501000D02*
X81600000Y-132900000D01*
X79400000Y-136400000D02*
X80749943Y-136400000D01*
X82201000Y-134948943D02*
X82201000Y-133501000D01*
%TO.N,/PerCoil/SignalProcessingChain/DIS*%
X89300000Y-147600000D02*
X88300000Y-146600000D01*
X89300000Y-148400000D02*
X89300000Y-147600000D01*
%TO.N,/PerCoil/SignalProcessingChain/Current_Dir*%
X78941364Y-152100000D02*
X75450000Y-152100000D01*
X80300000Y-153500000D02*
X80300000Y-153458636D01*
X80300000Y-153458636D02*
X78941364Y-152100000D01*
%TO.N,/PerCoil/BH*%
X77000000Y-140200000D02*
X78200000Y-139000000D01*
X78200000Y-139000000D02*
X79600000Y-139000000D01*
X79600000Y-139000000D02*
X87400000Y-131200000D01*
%TO.N,/PerCoil/BL*%
X79300000Y-137700000D02*
X79913805Y-137700000D01*
X84200000Y-133413805D02*
X84200000Y-130400000D01*
X79913805Y-137700000D02*
X84200000Y-133413805D01*
%TO.N,/PerCoil1/AL*%
X107560027Y-133273832D02*
X107560027Y-130522668D01*
X111886195Y-137600000D02*
X107560027Y-133273832D01*
X112800000Y-137600000D02*
X111886195Y-137600000D01*
%TO.N,/PerCoil/SignalProcessingChain/EN*%
X78500000Y-153650000D02*
X79000000Y-153150000D01*
X75450000Y-153650000D02*
X78500000Y-153650000D01*
D16*
%TO.N,+5V*%
X106800000Y-155200000D02*
X105400000Y-155200000D01*
X109600000Y-152400000D02*
X106800000Y-155200000D01*
D17*
X89420000Y-123800000D02*
X89420000Y-143557925D01*
X89420000Y-143557925D02*
X96000000Y-150137925D01*
X96000000Y-150137925D02*
X96000000Y-152200000D01*
D15*
%TO.N,/PWM3*%
X87299000Y-173161000D02*
X83961000Y-173161000D01*
X88400000Y-172060000D02*
X87299000Y-173161000D01*
X83961000Y-173161000D02*
X83400000Y-172600000D01*
%TD*%
%TA.AperFunction,Conductor*%
%TO.N,GND*%
G36*
X133642539Y-122520185D02*
G01*
X133688294Y-122572989D01*
X133699500Y-122624500D01*
X133699500Y-165775500D01*
X133679815Y-165842539D01*
X133627011Y-165888294D01*
X133575500Y-165899500D01*
X119134108Y-165899500D01*
X119006812Y-165933608D01*
X118892686Y-165999500D01*
X118892683Y-165999502D01*
X118799502Y-166092683D01*
X118799500Y-166092686D01*
X118733608Y-166206812D01*
X118699500Y-166334108D01*
X118699500Y-173975500D01*
X118679815Y-174042539D01*
X118627011Y-174088294D01*
X118575500Y-174099500D01*
X112824832Y-174099500D01*
X112803586Y-174093261D01*
X112781498Y-174091682D01*
X112770714Y-174083609D01*
X112757793Y-174079815D01*
X112743293Y-174063081D01*
X112725565Y-174049810D01*
X112720857Y-174037189D01*
X112712038Y-174027011D01*
X112708886Y-174005093D01*
X112701148Y-173984346D01*
X112704010Y-173971185D01*
X112702094Y-173957853D01*
X112711293Y-173937709D01*
X112716000Y-173916073D01*
X112729268Y-173898347D01*
X112731119Y-173894297D01*
X112737151Y-173887819D01*
X112888151Y-173736819D01*
X112949474Y-173703334D01*
X112975832Y-173700500D01*
X113065890Y-173700500D01*
X113065892Y-173700500D01*
X113193186Y-173666392D01*
X113307314Y-173600500D01*
X113400500Y-173507314D01*
X113466392Y-173393186D01*
X113500500Y-173265892D01*
X113500500Y-173134108D01*
X113466392Y-173006814D01*
X113400500Y-172892686D01*
X113307314Y-172799500D01*
X113238294Y-172759651D01*
X113193187Y-172733608D01*
X113111976Y-172711848D01*
X113065892Y-172699500D01*
X112934108Y-172699500D01*
X112806812Y-172733608D01*
X112692686Y-172799500D01*
X112692683Y-172799502D01*
X112599502Y-172892683D01*
X112599500Y-172892686D01*
X112533608Y-173006812D01*
X112499500Y-173134108D01*
X112499500Y-173224166D01*
X112479815Y-173291205D01*
X112463181Y-173311847D01*
X111983848Y-173791181D01*
X111922525Y-173824666D01*
X111896167Y-173827500D01*
X108096833Y-173827500D01*
X108029794Y-173807815D01*
X107984039Y-173755011D01*
X107974095Y-173685853D01*
X108003120Y-173622297D01*
X108009152Y-173615819D01*
X110888152Y-170736819D01*
X110949475Y-170703334D01*
X110975833Y-170700500D01*
X112141324Y-170700500D01*
X112208363Y-170720185D01*
X112229005Y-170736819D01*
X112292686Y-170800500D01*
X112406814Y-170866392D01*
X112534108Y-170900500D01*
X112534110Y-170900500D01*
X112665890Y-170900500D01*
X112665892Y-170900500D01*
X112793186Y-170866392D01*
X112907314Y-170800500D01*
X113000500Y-170707314D01*
X113066392Y-170593186D01*
X113100500Y-170465892D01*
X113100500Y-170334108D01*
X113066392Y-170206814D01*
X113026549Y-170137804D01*
X113010077Y-170069907D01*
X113032929Y-170003880D01*
X113087850Y-169960689D01*
X113101822Y-169956038D01*
X113172794Y-169937021D01*
X113241316Y-169897460D01*
X113297265Y-169841511D01*
X118240460Y-164898316D01*
X118242136Y-164895413D01*
X118280021Y-164829794D01*
X118300500Y-164753367D01*
X118300500Y-159258676D01*
X118320185Y-159191637D01*
X118336819Y-159170995D01*
X118362902Y-159144912D01*
X118400500Y-159107314D01*
X118466392Y-158993186D01*
X118500500Y-158865892D01*
X118500500Y-158734108D01*
X118466392Y-158606814D01*
X118400500Y-158492686D01*
X118307314Y-158399500D01*
X118236721Y-158358743D01*
X118193187Y-158333608D01*
X118127430Y-158315989D01*
X118065892Y-158299500D01*
X117934108Y-158299500D01*
X117806812Y-158333608D01*
X117692686Y-158399500D01*
X117692683Y-158399502D01*
X117599502Y-158492683D01*
X117599500Y-158492686D01*
X117533608Y-158606812D01*
X117499500Y-158734108D01*
X117499500Y-158865891D01*
X117533608Y-158993187D01*
X117545152Y-159013181D01*
X117599500Y-159107314D01*
X117599502Y-159107316D01*
X117663181Y-159170995D01*
X117696666Y-159232318D01*
X117699500Y-159258676D01*
X117699500Y-164537972D01*
X117679815Y-164605011D01*
X117663181Y-164625653D01*
X114113181Y-168175653D01*
X114051858Y-168209138D01*
X113982166Y-168204154D01*
X113926233Y-168162282D01*
X113901816Y-168096818D01*
X113901500Y-168087972D01*
X113901500Y-166833439D01*
X113893867Y-166804952D01*
X113881021Y-166757011D01*
X113848394Y-166700499D01*
X113841464Y-166688495D01*
X113841458Y-166688487D01*
X113785512Y-166632541D01*
X113785504Y-166632535D01*
X113716995Y-166592982D01*
X113716990Y-166592979D01*
X113691513Y-166586152D01*
X113640562Y-166572500D01*
X113640560Y-166572500D01*
X111598890Y-166572500D01*
X111531851Y-166552815D01*
X111511209Y-166536181D01*
X111011238Y-166036210D01*
X110977753Y-165974887D01*
X110982737Y-165905195D01*
X111024609Y-165849262D01*
X111036920Y-165841142D01*
X111107314Y-165800500D01*
X111200500Y-165707314D01*
X111266392Y-165593186D01*
X111300500Y-165465892D01*
X111300500Y-165334108D01*
X111266392Y-165206814D01*
X111263424Y-165201674D01*
X111229482Y-165142885D01*
X111200500Y-165092686D01*
X111136818Y-165029004D01*
X111103334Y-164967680D01*
X111100500Y-164941323D01*
X111100500Y-163360439D01*
X111093445Y-163334110D01*
X111080021Y-163284011D01*
X111080017Y-163284004D01*
X111040464Y-163215495D01*
X111040458Y-163215487D01*
X109903129Y-162078158D01*
X109888367Y-162051124D01*
X109871764Y-162025176D01*
X109871772Y-162020733D01*
X109869644Y-162016835D01*
X109871841Y-161986111D01*
X109871902Y-161955307D01*
X109874311Y-161951574D01*
X109874628Y-161947143D01*
X109893089Y-161922481D01*
X109909793Y-161896604D01*
X109913837Y-161894766D01*
X109916500Y-161891210D01*
X109945358Y-161880446D01*
X109973406Y-161867704D01*
X109978667Y-161868022D01*
X109981964Y-161866793D01*
X110008700Y-161867774D01*
X110015876Y-161868820D01*
X110134108Y-161900500D01*
X110233161Y-161900500D01*
X110242057Y-161901797D01*
X110265968Y-161912774D01*
X110291206Y-161920185D01*
X110303248Y-161929888D01*
X110305555Y-161930948D01*
X110306611Y-161932599D01*
X110311848Y-161936819D01*
X112663181Y-164288152D01*
X112696666Y-164349475D01*
X112699500Y-164375833D01*
X112699500Y-164941323D01*
X112679815Y-165008362D01*
X112663182Y-165029004D01*
X112599500Y-165092686D01*
X112533608Y-165206812D01*
X112515196Y-165275529D01*
X112499500Y-165334108D01*
X112499500Y-165465892D01*
X112501814Y-165474529D01*
X112533608Y-165593187D01*
X112560902Y-165640460D01*
X112599500Y-165707314D01*
X112692686Y-165800500D01*
X112806814Y-165866392D01*
X112934108Y-165900500D01*
X112934110Y-165900500D01*
X113065890Y-165900500D01*
X113065892Y-165900500D01*
X113193186Y-165866392D01*
X113307314Y-165800500D01*
X113400500Y-165707314D01*
X113466392Y-165593186D01*
X113500500Y-165465892D01*
X113500500Y-165334108D01*
X113466392Y-165206814D01*
X113463424Y-165201674D01*
X113429482Y-165142885D01*
X113400500Y-165092686D01*
X113336818Y-165029004D01*
X113303334Y-164967680D01*
X113300500Y-164941323D01*
X113300500Y-164160439D01*
X113300500Y-164160438D01*
X113280021Y-164084011D01*
X113251412Y-164034458D01*
X113240464Y-164015495D01*
X113240461Y-164015491D01*
X113240460Y-164015489D01*
X113184511Y-163959540D01*
X110736819Y-161511848D01*
X110722115Y-161484920D01*
X110705523Y-161459102D01*
X110704631Y-161452901D01*
X110703334Y-161450525D01*
X110700500Y-161424167D01*
X110700500Y-161375832D01*
X110720185Y-161308793D01*
X110736819Y-161288151D01*
X111688152Y-160336819D01*
X111749475Y-160303334D01*
X111775833Y-160300500D01*
X111941324Y-160300500D01*
X112008363Y-160320185D01*
X112029005Y-160336819D01*
X112092686Y-160400500D01*
X112206814Y-160466392D01*
X112334108Y-160500500D01*
X112334110Y-160500500D01*
X112465890Y-160500500D01*
X112465892Y-160500500D01*
X112593186Y-160466392D01*
X112707314Y-160400500D01*
X112800500Y-160307314D01*
X112866392Y-160193186D01*
X112900500Y-160065892D01*
X112900500Y-159934108D01*
X112866392Y-159806814D01*
X112800500Y-159692686D01*
X112707314Y-159599500D01*
X112649975Y-159566395D01*
X112593187Y-159533608D01*
X112514204Y-159512445D01*
X112465892Y-159499500D01*
X112334108Y-159499500D01*
X112206812Y-159533608D01*
X112092686Y-159599500D01*
X112092683Y-159599502D01*
X112029005Y-159663181D01*
X111967682Y-159696666D01*
X111941324Y-159699500D01*
X111560438Y-159699500D01*
X111509486Y-159713152D01*
X111484010Y-159719979D01*
X111463272Y-159731953D01*
X111463270Y-159731953D01*
X111415495Y-159759535D01*
X111415487Y-159759541D01*
X110311847Y-160863181D01*
X110250524Y-160896666D01*
X110224166Y-160899500D01*
X110134108Y-160899500D01*
X110006814Y-160933608D01*
X110006813Y-160933608D01*
X110006811Y-160933609D01*
X110006810Y-160933609D01*
X109886500Y-161003071D01*
X109818600Y-161019544D01*
X109752573Y-160996692D01*
X109709382Y-160941770D01*
X109700500Y-160895684D01*
X109700500Y-158658676D01*
X109720185Y-158591637D01*
X109736819Y-158570995D01*
X109763677Y-158544137D01*
X109800500Y-158507314D01*
X109866392Y-158393186D01*
X109900500Y-158265892D01*
X109900500Y-158134108D01*
X109866392Y-158006814D01*
X109825795Y-157936499D01*
X109809323Y-157868601D01*
X109832175Y-157802574D01*
X109887096Y-157759383D01*
X109933183Y-157750500D01*
X111520614Y-157750500D01*
X111587653Y-157770185D01*
X111608295Y-157786819D01*
X111661985Y-157840509D01*
X111661986Y-157840510D01*
X111661988Y-157840511D01*
X111787511Y-157912982D01*
X111787512Y-157912982D01*
X111787515Y-157912984D01*
X111927525Y-157950500D01*
X111927528Y-157950500D01*
X112072472Y-157950500D01*
X112072475Y-157950500D01*
X112212485Y-157912984D01*
X112338015Y-157840509D01*
X112440509Y-157738015D01*
X112512984Y-157612485D01*
X112550500Y-157472475D01*
X112550500Y-157327525D01*
X112512984Y-157187515D01*
X112483533Y-157136505D01*
X112440511Y-157061988D01*
X112440506Y-157061982D01*
X112338017Y-156959493D01*
X112338011Y-156959488D01*
X112212488Y-156887017D01*
X112212489Y-156887017D01*
X112189518Y-156880862D01*
X112072475Y-156849500D01*
X111927525Y-156849500D01*
X111810482Y-156880862D01*
X111787511Y-156887017D01*
X111661988Y-156959488D01*
X111661982Y-156959493D01*
X111608295Y-157013181D01*
X111546972Y-157046666D01*
X111520614Y-157049500D01*
X108479386Y-157049500D01*
X108412347Y-157029815D01*
X108391705Y-157013181D01*
X108338017Y-156959493D01*
X108338011Y-156959488D01*
X108212488Y-156887017D01*
X108212489Y-156887017D01*
X108189518Y-156880862D01*
X108072475Y-156849500D01*
X107927525Y-156849500D01*
X107810482Y-156880862D01*
X107787511Y-156887017D01*
X107661988Y-156959488D01*
X107661982Y-156959493D01*
X107559493Y-157061982D01*
X107559488Y-157061988D01*
X107487017Y-157187511D01*
X107487016Y-157187515D01*
X107449500Y-157327525D01*
X107449500Y-157472475D01*
X107481577Y-157592186D01*
X107487017Y-157612488D01*
X107545337Y-157713500D01*
X107561810Y-157781400D01*
X107538958Y-157847427D01*
X107484037Y-157890617D01*
X107437950Y-157899500D01*
X106996423Y-157899500D01*
X106929384Y-157879815D01*
X106883629Y-157827011D01*
X106876648Y-157807592D01*
X106866392Y-157769314D01*
X106800500Y-157655186D01*
X106707314Y-157562000D01*
X106650250Y-157529054D01*
X106593187Y-157496108D01*
X106505049Y-157472492D01*
X106465892Y-157462000D01*
X106334108Y-157462000D01*
X106206812Y-157496108D01*
X106092686Y-157562000D01*
X106092683Y-157562002D01*
X105999502Y-157655183D01*
X105999500Y-157655186D01*
X105933608Y-157769312D01*
X105914531Y-157840511D01*
X105899500Y-157896608D01*
X105899500Y-158028392D01*
X105909682Y-158066392D01*
X105933608Y-158155687D01*
X105935833Y-158159540D01*
X105999500Y-158269814D01*
X106092686Y-158363000D01*
X106206814Y-158428892D01*
X106334108Y-158463000D01*
X106334110Y-158463000D01*
X106458804Y-158463000D01*
X106513677Y-158477702D01*
X106514005Y-158476912D01*
X106520012Y-158479400D01*
X106520801Y-158479611D01*
X106521512Y-158480022D01*
X106597938Y-158500500D01*
X108941324Y-158500500D01*
X108970764Y-158509144D01*
X109000751Y-158515668D01*
X109005766Y-158519422D01*
X109008363Y-158520185D01*
X109029005Y-158536819D01*
X109063181Y-158570995D01*
X109096666Y-158632318D01*
X109099500Y-158658676D01*
X109099500Y-162039562D01*
X109109842Y-162078158D01*
X109119979Y-162115990D01*
X109139902Y-162150496D01*
X109139903Y-162150499D01*
X109159537Y-162184507D01*
X109159541Y-162184512D01*
X109805280Y-162830251D01*
X109813654Y-162845586D01*
X109826083Y-162857872D01*
X109830051Y-162875616D01*
X109838765Y-162891574D01*
X109837518Y-162909002D01*
X109841333Y-162926057D01*
X109835077Y-162943130D01*
X109833781Y-162961266D01*
X109823247Y-162975422D01*
X109817298Y-162991663D01*
X109799025Y-163007975D01*
X109792487Y-163016764D01*
X109786301Y-163021450D01*
X109692686Y-163075500D01*
X109622989Y-163145196D01*
X109616212Y-163150332D01*
X109591180Y-163159834D01*
X109567682Y-163172666D01*
X109553311Y-163174211D01*
X109550891Y-163175130D01*
X109548825Y-163174693D01*
X109541324Y-163175500D01*
X107251833Y-163175500D01*
X107184794Y-163155815D01*
X107164152Y-163139181D01*
X106736819Y-162711848D01*
X106703334Y-162650525D01*
X106700500Y-162624167D01*
X106700500Y-162534109D01*
X106700500Y-162534108D01*
X106666392Y-162406814D01*
X106600500Y-162292686D01*
X106507314Y-162199500D01*
X106422437Y-162150496D01*
X106393187Y-162133608D01*
X106327430Y-162115989D01*
X106265892Y-162099500D01*
X106134108Y-162099500D01*
X106006812Y-162133608D01*
X105892686Y-162199500D01*
X105892683Y-162199502D01*
X105799502Y-162292683D01*
X105799500Y-162292686D01*
X105733608Y-162406812D01*
X105714048Y-162479815D01*
X105699500Y-162534108D01*
X105699500Y-162665892D01*
X105710995Y-162708793D01*
X105733608Y-162793187D01*
X105763861Y-162845586D01*
X105799500Y-162907314D01*
X105892686Y-163000500D01*
X106006814Y-163066392D01*
X106134108Y-163100500D01*
X106134110Y-163100500D01*
X106224167Y-163100500D01*
X106291206Y-163120185D01*
X106311848Y-163136819D01*
X106835540Y-163660511D01*
X106891489Y-163716460D01*
X106891491Y-163716461D01*
X106891495Y-163716464D01*
X106907098Y-163725472D01*
X106960011Y-163756021D01*
X107036438Y-163776500D01*
X107115562Y-163776500D01*
X108600495Y-163776500D01*
X108667534Y-163796185D01*
X108713289Y-163848989D01*
X108723233Y-163918147D01*
X108720270Y-163932591D01*
X108699500Y-164010108D01*
X108699500Y-164141892D01*
X108704470Y-164160439D01*
X108733608Y-164269187D01*
X108744558Y-164288152D01*
X108799500Y-164383314D01*
X108799502Y-164383316D01*
X108863181Y-164446995D01*
X108896666Y-164508318D01*
X108899500Y-164534676D01*
X108899500Y-165439562D01*
X108908592Y-165473492D01*
X108919979Y-165515990D01*
X108919982Y-165515995D01*
X108959535Y-165584504D01*
X108959541Y-165584512D01*
X111263181Y-167888152D01*
X111296666Y-167949475D01*
X111299500Y-167975833D01*
X111299500Y-168065892D01*
X111314729Y-168122728D01*
X111333608Y-168193187D01*
X111366554Y-168250250D01*
X111399500Y-168307314D01*
X111492686Y-168400500D01*
X111492687Y-168400501D01*
X111492689Y-168400502D01*
X111611526Y-168469113D01*
X111659742Y-168519680D01*
X111672964Y-168588287D01*
X111646996Y-168653152D01*
X111590082Y-168693680D01*
X111549526Y-168700500D01*
X109199237Y-168700500D01*
X109132198Y-168680815D01*
X109086443Y-168628011D01*
X109076499Y-168558853D01*
X109079462Y-168544407D01*
X109100500Y-168465892D01*
X109100500Y-168334108D01*
X109066392Y-168206814D01*
X109000500Y-168092686D01*
X108907314Y-167999500D01*
X108823331Y-167951012D01*
X108793187Y-167933608D01*
X108718354Y-167913557D01*
X108665892Y-167899500D01*
X108534108Y-167899500D01*
X108406812Y-167933608D01*
X108292686Y-167999500D01*
X108292683Y-167999502D01*
X108199502Y-168092683D01*
X108199500Y-168092686D01*
X108133608Y-168206812D01*
X108132985Y-168209138D01*
X108121903Y-168250500D01*
X108119775Y-168258441D01*
X108083410Y-168318102D01*
X108020563Y-168348631D01*
X107951188Y-168340336D01*
X107897310Y-168295851D01*
X107880225Y-168258441D01*
X107866392Y-168206814D01*
X107800500Y-168092686D01*
X107707314Y-167999500D01*
X107623331Y-167951012D01*
X107593187Y-167933608D01*
X107518354Y-167913557D01*
X107465892Y-167899500D01*
X107334108Y-167899500D01*
X107206812Y-167933608D01*
X107092686Y-167999500D01*
X107092683Y-167999502D01*
X106999502Y-168092683D01*
X106999500Y-168092686D01*
X106933608Y-168206812D01*
X106932985Y-168209138D01*
X106921903Y-168250500D01*
X106919775Y-168258441D01*
X106883410Y-168318102D01*
X106820563Y-168348631D01*
X106751188Y-168340336D01*
X106697310Y-168295851D01*
X106680225Y-168258441D01*
X106666392Y-168206814D01*
X106600500Y-168092686D01*
X106507314Y-167999500D01*
X106423331Y-167951012D01*
X106393187Y-167933608D01*
X106318354Y-167913557D01*
X106265892Y-167899500D01*
X106134108Y-167899500D01*
X106006812Y-167933608D01*
X105892686Y-167999500D01*
X105892683Y-167999502D01*
X105799502Y-168092683D01*
X105799500Y-168092686D01*
X105733608Y-168206812D01*
X105699500Y-168334108D01*
X105699500Y-168424166D01*
X105679815Y-168491205D01*
X105663181Y-168511847D01*
X105111848Y-169063181D01*
X105050525Y-169096666D01*
X105024167Y-169099500D01*
X87775833Y-169099500D01*
X87708794Y-169079815D01*
X87688152Y-169063181D01*
X85310808Y-166685837D01*
X87733702Y-166685837D01*
X87733702Y-166914162D01*
X87769417Y-167139660D01*
X87839972Y-167356803D01*
X87916662Y-167507314D01*
X87943623Y-167560228D01*
X88077823Y-167744937D01*
X88239265Y-167906379D01*
X88423974Y-168040579D01*
X88473650Y-168065890D01*
X88627398Y-168144229D01*
X88627400Y-168144229D01*
X88627403Y-168144231D01*
X88724110Y-168175653D01*
X88844541Y-168214784D01*
X89070040Y-168250500D01*
X89070045Y-168250500D01*
X89298364Y-168250500D01*
X89523862Y-168214784D01*
X89741001Y-168144231D01*
X89944430Y-168040579D01*
X90129139Y-167906379D01*
X90290581Y-167744937D01*
X90310827Y-167717070D01*
X90366153Y-167674404D01*
X90379039Y-167670182D01*
X90393186Y-167666392D01*
X90507314Y-167600500D01*
X90600500Y-167507314D01*
X90666392Y-167393186D01*
X90700500Y-167265892D01*
X90700500Y-167134108D01*
X90666392Y-167006814D01*
X90666390Y-167006810D01*
X90651315Y-166980699D01*
X90634702Y-166918699D01*
X90634702Y-166685837D01*
X90598986Y-166460339D01*
X90538275Y-166273492D01*
X90528433Y-166243201D01*
X90528431Y-166243198D01*
X90528431Y-166243196D01*
X90468975Y-166126507D01*
X90424781Y-166039772D01*
X90290581Y-165855063D01*
X90129139Y-165693621D01*
X89944430Y-165559421D01*
X89868481Y-165520723D01*
X89741005Y-165455770D01*
X89523862Y-165385215D01*
X89298364Y-165349500D01*
X89298359Y-165349500D01*
X89070045Y-165349500D01*
X89070040Y-165349500D01*
X88844541Y-165385215D01*
X88627398Y-165455770D01*
X88423973Y-165559421D01*
X88239263Y-165693622D01*
X88077824Y-165855061D01*
X87943623Y-166039771D01*
X87839972Y-166243196D01*
X87769417Y-166460339D01*
X87733702Y-166685837D01*
X85310808Y-166685837D01*
X84136819Y-165511848D01*
X84103334Y-165450525D01*
X84100500Y-165424167D01*
X84100500Y-165334110D01*
X84100500Y-165334108D01*
X84066392Y-165206814D01*
X84063424Y-165201674D01*
X84029482Y-165142885D01*
X84000500Y-165092686D01*
X83907314Y-164999500D01*
X83850250Y-164966554D01*
X83793187Y-164933608D01*
X83682716Y-164904008D01*
X83665892Y-164899500D01*
X83534108Y-164899500D01*
X83406812Y-164933608D01*
X83292686Y-164999500D01*
X83292683Y-164999502D01*
X83229005Y-165063181D01*
X83167682Y-165096666D01*
X83141324Y-165099500D01*
X81775833Y-165099500D01*
X81708794Y-165079815D01*
X81688152Y-165063181D01*
X76759079Y-160134108D01*
X82099500Y-160134108D01*
X82099500Y-160265892D01*
X82114048Y-160320185D01*
X82133608Y-160393187D01*
X82166554Y-160450250D01*
X82199500Y-160507314D01*
X82199502Y-160507316D01*
X82213181Y-160520995D01*
X82246666Y-160582318D01*
X82249500Y-160608676D01*
X82249500Y-161391324D01*
X82229815Y-161458363D01*
X82213181Y-161479005D01*
X82199502Y-161492683D01*
X82199500Y-161492686D01*
X82133608Y-161606812D01*
X82114124Y-161679529D01*
X82099500Y-161734108D01*
X82099500Y-161865892D01*
X82100071Y-161868022D01*
X82133608Y-161993187D01*
X82149512Y-162020733D01*
X82199500Y-162107314D01*
X82292686Y-162200500D01*
X82406814Y-162266392D01*
X82534108Y-162300500D01*
X82534110Y-162300500D01*
X82665890Y-162300500D01*
X82665892Y-162300500D01*
X82793186Y-162266392D01*
X82907314Y-162200500D01*
X83000500Y-162107314D01*
X83066392Y-161993186D01*
X83100500Y-161865892D01*
X83100500Y-161734108D01*
X83066392Y-161606814D01*
X83000500Y-161492686D01*
X82986819Y-161479005D01*
X82953334Y-161417682D01*
X82950500Y-161391324D01*
X82950500Y-160608676D01*
X82970185Y-160541637D01*
X82986819Y-160520995D01*
X83000500Y-160507314D01*
X83066392Y-160393186D01*
X83100500Y-160265892D01*
X83100500Y-160134108D01*
X83066392Y-160006814D01*
X83000500Y-159892686D01*
X82907314Y-159799500D01*
X82838103Y-159759541D01*
X82793187Y-159733608D01*
X82729539Y-159716554D01*
X82665892Y-159699500D01*
X82534108Y-159699500D01*
X82406812Y-159733608D01*
X82292686Y-159799500D01*
X82292683Y-159799502D01*
X82199502Y-159892683D01*
X82199500Y-159892686D01*
X82133608Y-160006812D01*
X82117778Y-160065892D01*
X82099500Y-160134108D01*
X76759079Y-160134108D01*
X75736819Y-159111848D01*
X75725680Y-159091450D01*
X75710784Y-159073610D01*
X75707611Y-159058359D01*
X75703334Y-159050525D01*
X75701460Y-159039570D01*
X75700500Y-159031901D01*
X75700500Y-158934108D01*
X75677523Y-158848356D01*
X75676465Y-158839903D01*
X75680756Y-158813491D01*
X75681393Y-158786743D01*
X75686273Y-158779532D01*
X75687670Y-158770937D01*
X75705558Y-158751038D01*
X75720556Y-158728881D01*
X75728560Y-158725453D01*
X75734382Y-158718978D01*
X75760185Y-158711910D01*
X75784784Y-158701377D01*
X75799505Y-158700500D01*
X80453602Y-158700500D01*
X80520641Y-158720185D01*
X80541283Y-158736819D01*
X80679469Y-158875005D01*
X80711562Y-158930589D01*
X80714866Y-158942919D01*
X80780758Y-159057047D01*
X80873944Y-159150233D01*
X80988072Y-159216125D01*
X81115366Y-159250233D01*
X81115368Y-159250233D01*
X81247148Y-159250233D01*
X81247150Y-159250233D01*
X81374444Y-159216125D01*
X81488572Y-159150233D01*
X81581758Y-159057047D01*
X81647650Y-158942919D01*
X81681758Y-158815625D01*
X81681758Y-158683841D01*
X81647650Y-158556547D01*
X81581758Y-158442419D01*
X81488572Y-158349233D01*
X81482825Y-158343486D01*
X81484746Y-158341564D01*
X81451403Y-158295903D01*
X81447246Y-158226157D01*
X81480408Y-158166273D01*
X81834363Y-157812319D01*
X81895686Y-157778834D01*
X81922044Y-157776000D01*
X81941390Y-157776000D01*
X81941392Y-157776000D01*
X82068686Y-157741892D01*
X82182814Y-157676000D01*
X82276000Y-157582814D01*
X82341892Y-157468686D01*
X82376000Y-157341392D01*
X82376000Y-157209608D01*
X82341892Y-157082314D01*
X82276000Y-156968186D01*
X82182814Y-156875000D01*
X82125750Y-156842054D01*
X82068687Y-156809108D01*
X82005039Y-156792054D01*
X81941392Y-156775000D01*
X81809608Y-156775000D01*
X81682312Y-156809108D01*
X81568186Y-156875000D01*
X81568183Y-156875002D01*
X81475002Y-156968183D01*
X81475000Y-156968186D01*
X81409108Y-157082312D01*
X81375000Y-157209608D01*
X81375000Y-157228956D01*
X81355315Y-157295995D01*
X81338681Y-157316637D01*
X81042137Y-157613181D01*
X80980814Y-157646666D01*
X80954456Y-157649500D01*
X78824437Y-157649500D01*
X78757398Y-157629815D01*
X78711643Y-157577011D01*
X78701498Y-157541690D01*
X78700500Y-157534114D01*
X78700500Y-157534108D01*
X78666392Y-157406814D01*
X78600500Y-157292686D01*
X78507314Y-157199500D01*
X78449971Y-157166393D01*
X78393187Y-157133608D01*
X78312543Y-157112000D01*
X78265892Y-157099500D01*
X78134108Y-157099500D01*
X78006812Y-157133608D01*
X77892686Y-157199500D01*
X77892683Y-157199502D01*
X77799502Y-157292683D01*
X77799500Y-157292686D01*
X77733608Y-157406812D01*
X77717029Y-157468687D01*
X77699500Y-157534108D01*
X77699500Y-157665892D01*
X77712256Y-157713500D01*
X77733608Y-157793187D01*
X77737253Y-157799500D01*
X77799500Y-157907314D01*
X77799502Y-157907316D01*
X77803072Y-157913499D01*
X77819545Y-157981399D01*
X77796693Y-158047426D01*
X77741772Y-158090617D01*
X77695685Y-158099500D01*
X74910495Y-158099500D01*
X74834067Y-158119978D01*
X74765546Y-158159540D01*
X74765543Y-158159542D01*
X74358541Y-158566544D01*
X74358535Y-158566552D01*
X74318982Y-158635061D01*
X74318979Y-158635066D01*
X74307206Y-158679005D01*
X74302294Y-158697338D01*
X74298500Y-158711496D01*
X74298500Y-163174167D01*
X74278815Y-163241206D01*
X74226011Y-163286961D01*
X74156853Y-163296905D01*
X74093297Y-163267880D01*
X74086819Y-163261848D01*
X73736819Y-162911848D01*
X73703334Y-162850525D01*
X73700500Y-162824167D01*
X73700500Y-162734110D01*
X73700500Y-162734108D01*
X73666392Y-162606814D01*
X73600500Y-162492686D01*
X73507314Y-162399500D01*
X73450250Y-162366554D01*
X73393187Y-162333608D01*
X73329539Y-162316554D01*
X73265892Y-162299500D01*
X73134108Y-162299500D01*
X73006814Y-162333608D01*
X73006813Y-162333608D01*
X73006811Y-162333609D01*
X73006810Y-162333609D01*
X72886500Y-162403071D01*
X72818600Y-162419544D01*
X72752573Y-162396692D01*
X72709382Y-162341770D01*
X72700500Y-162295684D01*
X72700500Y-160023775D01*
X72720185Y-159956736D01*
X72736819Y-159936094D01*
X72980230Y-159692683D01*
X73240460Y-159432453D01*
X73247098Y-159420954D01*
X73259485Y-159399501D01*
X73280019Y-159363934D01*
X73280020Y-159363933D01*
X73280021Y-159363931D01*
X73300500Y-159287504D01*
X73300500Y-153258676D01*
X73320185Y-153191637D01*
X73336819Y-153170995D01*
X73365071Y-153142743D01*
X73400500Y-153107314D01*
X73466392Y-152993186D01*
X73500500Y-152865892D01*
X73500500Y-152734108D01*
X73466392Y-152606814D01*
X73464749Y-152603969D01*
X73443054Y-152566392D01*
X73400500Y-152492686D01*
X73307314Y-152399500D01*
X73222442Y-152350499D01*
X73193187Y-152333608D01*
X73129539Y-152316554D01*
X73065892Y-152299500D01*
X72934108Y-152299500D01*
X72806812Y-152333608D01*
X72692686Y-152399500D01*
X72692683Y-152399502D01*
X72599502Y-152492683D01*
X72599500Y-152492686D01*
X72533608Y-152606812D01*
X72499634Y-152733608D01*
X72499500Y-152734108D01*
X72499500Y-152865892D01*
X72514265Y-152920995D01*
X72533608Y-152993187D01*
X72537253Y-152999500D01*
X72599500Y-153107314D01*
X72599502Y-153107316D01*
X72663181Y-153170995D01*
X72696666Y-153232318D01*
X72699500Y-153258676D01*
X72699500Y-158399763D01*
X72679815Y-158466802D01*
X72627011Y-158512557D01*
X72557853Y-158522501D01*
X72543407Y-158519538D01*
X72497793Y-158507316D01*
X72464891Y-158498500D01*
X72333107Y-158498500D01*
X72333105Y-158498500D01*
X72236921Y-158524272D01*
X72167072Y-158522609D01*
X72117148Y-158492178D01*
X71135818Y-157510848D01*
X71102333Y-157449525D01*
X71099499Y-157423167D01*
X71099499Y-157333110D01*
X71099499Y-157333108D01*
X71065391Y-157205814D01*
X70999499Y-157091686D01*
X70906313Y-156998500D01*
X70838748Y-156959491D01*
X70792186Y-156932608D01*
X70728538Y-156915554D01*
X70664891Y-156898500D01*
X70533107Y-156898500D01*
X70405811Y-156932608D01*
X70291685Y-156998500D01*
X70291682Y-156998502D01*
X70198501Y-157091683D01*
X70198499Y-157091686D01*
X70132607Y-157205812D01*
X70100809Y-157324488D01*
X70098499Y-157333108D01*
X70098499Y-157464892D01*
X70106863Y-157496108D01*
X70132607Y-157592187D01*
X70164061Y-157646666D01*
X70198499Y-157706314D01*
X70291685Y-157799500D01*
X70405813Y-157865392D01*
X70533107Y-157899500D01*
X70533109Y-157899500D01*
X70623166Y-157899500D01*
X70690205Y-157919185D01*
X70710847Y-157935819D01*
X71896445Y-159121417D01*
X71928538Y-159177002D01*
X71932606Y-159192185D01*
X71946428Y-159216125D01*
X71998499Y-159306314D01*
X72091685Y-159399500D01*
X72148763Y-159432454D01*
X72162079Y-159440142D01*
X72210295Y-159490709D01*
X72223518Y-159559316D01*
X72197550Y-159624181D01*
X72187762Y-159635209D01*
X72159538Y-159663433D01*
X72159535Y-159663437D01*
X72119982Y-159731946D01*
X72119979Y-159731951D01*
X72106326Y-159782904D01*
X72099500Y-159808380D01*
X72099500Y-163889505D01*
X72104272Y-163907313D01*
X72119979Y-163965934D01*
X72119981Y-163965937D01*
X72148590Y-164015488D01*
X72148591Y-164015489D01*
X72159540Y-164034454D01*
X72159542Y-164034457D01*
X72159543Y-164034458D01*
X77637916Y-169512830D01*
X77671401Y-169574153D01*
X77674235Y-169600511D01*
X77674235Y-171299951D01*
X77654550Y-171366990D01*
X77601746Y-171412745D01*
X77532588Y-171422689D01*
X77469032Y-171393664D01*
X77462554Y-171387632D01*
X77357785Y-171282863D01*
X77357781Y-171282860D01*
X77193920Y-171173371D01*
X77193907Y-171173364D01*
X77011839Y-171097950D01*
X77011829Y-171097947D01*
X76818543Y-171059500D01*
X76818541Y-171059500D01*
X76621459Y-171059500D01*
X76621457Y-171059500D01*
X76428170Y-171097947D01*
X76428160Y-171097950D01*
X76246092Y-171173364D01*
X76246079Y-171173371D01*
X76082218Y-171282860D01*
X76082214Y-171282863D01*
X75942863Y-171422214D01*
X75942860Y-171422218D01*
X75833371Y-171586079D01*
X75833364Y-171586092D01*
X75757950Y-171768160D01*
X75757947Y-171768170D01*
X75719500Y-171961456D01*
X75719500Y-171961459D01*
X75719500Y-172158541D01*
X75719500Y-172158543D01*
X75719499Y-172158543D01*
X75757947Y-172351829D01*
X75757950Y-172351839D01*
X75833364Y-172533907D01*
X75833371Y-172533920D01*
X75942860Y-172697781D01*
X75942863Y-172697785D01*
X76082214Y-172837136D01*
X76082218Y-172837139D01*
X76246079Y-172946628D01*
X76246092Y-172946635D01*
X76391379Y-173006814D01*
X76428165Y-173022051D01*
X76428169Y-173022051D01*
X76428170Y-173022052D01*
X76621456Y-173060500D01*
X76621459Y-173060500D01*
X76818543Y-173060500D01*
X76948582Y-173034632D01*
X77011835Y-173022051D01*
X77193914Y-172946632D01*
X77357782Y-172837139D01*
X77497139Y-172697782D01*
X77580872Y-172572465D01*
X77634484Y-172527661D01*
X77703808Y-172518954D01*
X77766836Y-172549108D01*
X77771655Y-172553676D01*
X79105798Y-173887819D01*
X79139283Y-173949142D01*
X79134299Y-174018834D01*
X79092427Y-174074767D01*
X79026963Y-174099184D01*
X79018117Y-174099500D01*
X58424500Y-174099500D01*
X58357461Y-174079815D01*
X58311706Y-174027011D01*
X58300500Y-173975500D01*
X58300500Y-172158543D01*
X70639499Y-172158543D01*
X70677947Y-172351829D01*
X70677950Y-172351839D01*
X70753364Y-172533907D01*
X70753371Y-172533920D01*
X70862860Y-172697781D01*
X70862863Y-172697785D01*
X71002214Y-172837136D01*
X71002218Y-172837139D01*
X71166079Y-172946628D01*
X71166092Y-172946635D01*
X71311379Y-173006814D01*
X71348165Y-173022051D01*
X71348169Y-173022051D01*
X71348170Y-173022052D01*
X71541456Y-173060500D01*
X71541459Y-173060500D01*
X71738543Y-173060500D01*
X71868582Y-173034632D01*
X71931835Y-173022051D01*
X72113914Y-172946632D01*
X72277782Y-172837139D01*
X72417139Y-172697782D01*
X72526632Y-172533914D01*
X72602051Y-172351835D01*
X72617934Y-172271989D01*
X72640500Y-172158543D01*
X73179499Y-172158543D01*
X73217947Y-172351829D01*
X73217950Y-172351839D01*
X73293364Y-172533907D01*
X73293371Y-172533920D01*
X73402860Y-172697781D01*
X73402863Y-172697785D01*
X73542214Y-172837136D01*
X73542218Y-172837139D01*
X73706079Y-172946628D01*
X73706092Y-172946635D01*
X73851379Y-173006814D01*
X73888165Y-173022051D01*
X73888169Y-173022051D01*
X73888170Y-173022052D01*
X74081456Y-173060500D01*
X74081459Y-173060500D01*
X74278543Y-173060500D01*
X74408582Y-173034632D01*
X74471835Y-173022051D01*
X74653914Y-172946632D01*
X74817782Y-172837139D01*
X74957139Y-172697782D01*
X75066632Y-172533914D01*
X75142051Y-172351835D01*
X75157934Y-172271989D01*
X75180500Y-172158543D01*
X75180500Y-171961456D01*
X75142052Y-171768170D01*
X75142051Y-171768169D01*
X75142051Y-171768165D01*
X75134235Y-171749295D01*
X75066635Y-171586092D01*
X75066628Y-171586079D01*
X74957139Y-171422218D01*
X74957136Y-171422214D01*
X74817785Y-171282863D01*
X74817781Y-171282860D01*
X74653920Y-171173371D01*
X74653907Y-171173364D01*
X74471839Y-171097950D01*
X74471829Y-171097947D01*
X74278543Y-171059500D01*
X74278541Y-171059500D01*
X74081459Y-171059500D01*
X74081457Y-171059500D01*
X73888170Y-171097947D01*
X73888160Y-171097950D01*
X73706092Y-171173364D01*
X73706079Y-171173371D01*
X73542218Y-171282860D01*
X73542214Y-171282863D01*
X73402863Y-171422214D01*
X73402860Y-171422218D01*
X73293371Y-171586079D01*
X73293364Y-171586092D01*
X73217950Y-171768160D01*
X73217947Y-171768170D01*
X73179500Y-171961456D01*
X73179500Y-171961459D01*
X73179500Y-172158541D01*
X73179500Y-172158543D01*
X73179499Y-172158543D01*
X72640500Y-172158543D01*
X72640500Y-171961456D01*
X72602052Y-171768170D01*
X72602051Y-171768169D01*
X72602051Y-171768165D01*
X72594235Y-171749295D01*
X72526635Y-171586092D01*
X72526628Y-171586079D01*
X72417139Y-171422218D01*
X72417136Y-171422214D01*
X72277785Y-171282863D01*
X72277781Y-171282860D01*
X72113920Y-171173371D01*
X72113907Y-171173364D01*
X71931839Y-171097950D01*
X71931829Y-171097947D01*
X71738543Y-171059500D01*
X71738541Y-171059500D01*
X71541459Y-171059500D01*
X71541457Y-171059500D01*
X71348170Y-171097947D01*
X71348160Y-171097950D01*
X71166092Y-171173364D01*
X71166079Y-171173371D01*
X71002218Y-171282860D01*
X71002214Y-171282863D01*
X70862863Y-171422214D01*
X70862860Y-171422218D01*
X70753371Y-171586079D01*
X70753364Y-171586092D01*
X70677950Y-171768160D01*
X70677947Y-171768170D01*
X70639500Y-171961456D01*
X70639500Y-171961459D01*
X70639500Y-172158541D01*
X70639500Y-172158543D01*
X70639499Y-172158543D01*
X58300500Y-172158543D01*
X58300500Y-148534108D01*
X62099500Y-148534108D01*
X62099500Y-148665891D01*
X62133608Y-148793187D01*
X62160900Y-148840457D01*
X62199500Y-148907314D01*
X62292686Y-149000500D01*
X62406814Y-149066392D01*
X62534108Y-149100500D01*
X62534110Y-149100500D01*
X62665890Y-149100500D01*
X62665892Y-149100500D01*
X62793186Y-149066392D01*
X62907314Y-149000500D01*
X62920995Y-148986819D01*
X62947922Y-148972115D01*
X62973741Y-148955523D01*
X62979941Y-148954631D01*
X62982318Y-148953334D01*
X63008676Y-148950500D01*
X63203456Y-148950500D01*
X63270495Y-148970185D01*
X63291137Y-148986819D01*
X65263181Y-150958863D01*
X65296666Y-151020186D01*
X65299500Y-151046544D01*
X65299500Y-151065892D01*
X65316554Y-151129539D01*
X65333608Y-151193187D01*
X65363757Y-151245406D01*
X65399500Y-151307314D01*
X65492686Y-151400500D01*
X65550029Y-151433607D01*
X65563080Y-151441142D01*
X65611296Y-151491709D01*
X65624519Y-151560316D01*
X65598551Y-151625181D01*
X65588761Y-151636210D01*
X64649503Y-152575468D01*
X64588180Y-152608953D01*
X64518488Y-152603969D01*
X64499822Y-152595174D01*
X64393189Y-152533609D01*
X64393186Y-152533608D01*
X64265892Y-152499500D01*
X64134108Y-152499500D01*
X64006812Y-152533608D01*
X63892686Y-152599500D01*
X63892683Y-152599502D01*
X63799502Y-152692683D01*
X63799500Y-152692686D01*
X63733608Y-152806812D01*
X63717644Y-152866392D01*
X63699500Y-152934108D01*
X63699500Y-153065892D01*
X63712339Y-153113809D01*
X63733608Y-153193187D01*
X63760902Y-153240460D01*
X63799500Y-153307314D01*
X63892686Y-153400500D01*
X64006814Y-153466392D01*
X64134108Y-153500500D01*
X64134110Y-153500500D01*
X64265890Y-153500500D01*
X64265892Y-153500500D01*
X64393186Y-153466392D01*
X64507314Y-153400500D01*
X64570995Y-153336819D01*
X64632318Y-153303334D01*
X64658676Y-153300500D01*
X64689503Y-153300500D01*
X64689505Y-153300500D01*
X64765932Y-153280021D01*
X64834454Y-153240460D01*
X64890403Y-153184511D01*
X66738095Y-151336819D01*
X66799418Y-151303334D01*
X66825776Y-151300500D01*
X66865890Y-151300500D01*
X66865892Y-151300500D01*
X66993186Y-151266392D01*
X67107314Y-151200500D01*
X67173706Y-151134108D01*
X73899500Y-151134108D01*
X73899500Y-151265892D01*
X73912882Y-151315833D01*
X73933608Y-151393187D01*
X73937831Y-151400501D01*
X73999500Y-151507314D01*
X74092686Y-151600500D01*
X74206814Y-151666392D01*
X74334108Y-151700500D01*
X74334110Y-151700500D01*
X74465890Y-151700500D01*
X74465892Y-151700500D01*
X74593186Y-151666392D01*
X74707314Y-151600500D01*
X74770995Y-151536819D01*
X74797922Y-151522115D01*
X74823741Y-151505523D01*
X74829941Y-151504631D01*
X74832318Y-151503334D01*
X74858676Y-151500500D01*
X75042324Y-151500500D01*
X75109363Y-151520185D01*
X75155118Y-151572989D01*
X75165062Y-151642147D01*
X75136037Y-151705703D01*
X75130005Y-151712181D01*
X75049502Y-151792683D01*
X75049500Y-151792686D01*
X74983608Y-151906812D01*
X74956814Y-152006812D01*
X74949500Y-152034108D01*
X74949500Y-152165892D01*
X74955107Y-152186819D01*
X74983608Y-152293187D01*
X75016554Y-152350250D01*
X75049500Y-152407314D01*
X75142686Y-152500500D01*
X75214821Y-152542147D01*
X75251877Y-152563542D01*
X75256814Y-152566392D01*
X75384108Y-152600500D01*
X75384110Y-152600500D01*
X75515890Y-152600500D01*
X75515892Y-152600500D01*
X75643186Y-152566392D01*
X75757314Y-152500500D01*
X75820995Y-152436819D01*
X75882318Y-152403334D01*
X75908676Y-152400500D01*
X78735124Y-152400500D01*
X78802163Y-152420185D01*
X78847918Y-152472989D01*
X78857862Y-152542147D01*
X78828837Y-152605703D01*
X78793523Y-152631168D01*
X78794553Y-152632952D01*
X78661988Y-152709488D01*
X78661982Y-152709493D01*
X78559493Y-152811982D01*
X78559488Y-152811988D01*
X78487017Y-152937511D01*
X78482583Y-152954055D01*
X78449500Y-153077525D01*
X78449500Y-153077527D01*
X78449500Y-153153456D01*
X78440855Y-153182896D01*
X78434332Y-153212883D01*
X78430577Y-153217898D01*
X78429815Y-153220495D01*
X78413181Y-153241137D01*
X78391137Y-153263181D01*
X78329814Y-153296666D01*
X78303456Y-153299500D01*
X75929386Y-153299500D01*
X75862347Y-153279815D01*
X75841705Y-153263181D01*
X75788017Y-153209493D01*
X75788011Y-153209488D01*
X75662488Y-153137017D01*
X75662489Y-153137017D01*
X75651006Y-153133940D01*
X75522475Y-153099500D01*
X75377525Y-153099500D01*
X75248993Y-153133940D01*
X75237511Y-153137017D01*
X75111988Y-153209488D01*
X75111982Y-153209493D01*
X75009493Y-153311982D01*
X75009488Y-153311988D01*
X74937017Y-153437511D01*
X74937016Y-153437515D01*
X74899500Y-153577525D01*
X74899500Y-153722475D01*
X74936881Y-153861982D01*
X74937017Y-153862488D01*
X75009488Y-153988011D01*
X75009490Y-153988013D01*
X75009491Y-153988015D01*
X75111985Y-154090509D01*
X75111986Y-154090510D01*
X75111988Y-154090511D01*
X75237511Y-154162982D01*
X75237512Y-154162982D01*
X75237515Y-154162984D01*
X75377525Y-154200500D01*
X75377528Y-154200500D01*
X75522472Y-154200500D01*
X75522475Y-154200500D01*
X75662485Y-154162984D01*
X75788015Y-154090509D01*
X75841705Y-154036819D01*
X75903028Y-154003334D01*
X75929386Y-154000500D01*
X78546142Y-154000500D01*
X78546144Y-154000500D01*
X78635288Y-153976614D01*
X78652993Y-153966392D01*
X78715212Y-153930470D01*
X78908863Y-153736819D01*
X78970186Y-153703334D01*
X78996544Y-153700500D01*
X79072472Y-153700500D01*
X79072475Y-153700500D01*
X79212485Y-153662984D01*
X79338015Y-153590509D01*
X79440509Y-153488015D01*
X79512984Y-153362485D01*
X79513586Y-153360235D01*
X79514612Y-153358552D01*
X79516092Y-153354981D01*
X79516649Y-153355211D01*
X79516745Y-153355052D01*
X79517179Y-153348996D01*
X79534718Y-153325566D01*
X79549951Y-153300576D01*
X79555412Y-153297922D01*
X79559051Y-153293063D01*
X79586470Y-153282835D01*
X79612798Y-153270047D01*
X79618826Y-153270767D01*
X79624515Y-153268646D01*
X79653115Y-153274867D01*
X79682173Y-153278342D01*
X79688371Y-153282537D01*
X79692788Y-153283498D01*
X79721042Y-153304649D01*
X79763181Y-153346788D01*
X79796666Y-153408111D01*
X79799500Y-153434469D01*
X79799500Y-153565891D01*
X79833608Y-153693187D01*
X79866554Y-153750250D01*
X79899500Y-153807314D01*
X79992686Y-153900500D01*
X80106814Y-153966392D01*
X80234108Y-154000500D01*
X80234110Y-154000500D01*
X80365890Y-154000500D01*
X80365892Y-154000500D01*
X80493186Y-153966392D01*
X80607314Y-153900500D01*
X80700500Y-153807314D01*
X80766392Y-153693186D01*
X80800500Y-153565892D01*
X80800500Y-153434108D01*
X80766392Y-153306814D01*
X80762790Y-153300576D01*
X80745580Y-153270767D01*
X80700500Y-153192686D01*
X80607314Y-153099500D01*
X80549102Y-153065891D01*
X80493187Y-153033608D01*
X80429539Y-153016554D01*
X80365892Y-152999500D01*
X80365891Y-152999500D01*
X80317197Y-152999500D01*
X80250158Y-152979815D01*
X80229516Y-152963181D01*
X79125876Y-151859541D01*
X79125871Y-151859537D01*
X79113347Y-151852307D01*
X79108487Y-151849501D01*
X79108484Y-151849498D01*
X79108484Y-151849499D01*
X79082919Y-151834739D01*
X79057354Y-151819979D01*
X79029386Y-151812485D01*
X78980926Y-151799500D01*
X78980924Y-151799500D01*
X75908676Y-151799500D01*
X75879235Y-151790855D01*
X75849249Y-151784332D01*
X75844233Y-151780577D01*
X75841637Y-151779815D01*
X75820995Y-151763181D01*
X75769995Y-151712181D01*
X75736510Y-151650858D01*
X75741494Y-151581166D01*
X75783366Y-151525233D01*
X75848830Y-151500816D01*
X75857676Y-151500500D01*
X82224167Y-151500500D01*
X82291206Y-151520185D01*
X82311848Y-151536819D01*
X82445406Y-151670377D01*
X82478891Y-151731700D01*
X82481725Y-151758058D01*
X82481725Y-151848117D01*
X82486488Y-151865892D01*
X82515833Y-151975412D01*
X82548779Y-152032475D01*
X82581725Y-152089539D01*
X82674911Y-152182725D01*
X82789039Y-152248617D01*
X82916333Y-152282725D01*
X82916335Y-152282725D01*
X83048115Y-152282725D01*
X83048117Y-152282725D01*
X83175411Y-152248617D01*
X83289539Y-152182725D01*
X83382725Y-152089539D01*
X83448617Y-151975411D01*
X83459684Y-151934108D01*
X84899500Y-151934108D01*
X84899500Y-152065892D01*
X84912118Y-152112982D01*
X84933608Y-152193187D01*
X84949375Y-152220495D01*
X84999500Y-152307314D01*
X84999502Y-152307316D01*
X85063181Y-152370995D01*
X85096666Y-152432318D01*
X85099500Y-152458676D01*
X85099500Y-155189619D01*
X85112371Y-155237653D01*
X85119979Y-155266046D01*
X85128305Y-155280466D01*
X85128306Y-155280470D01*
X85128307Y-155280470D01*
X85159539Y-155334566D01*
X85159541Y-155334569D01*
X92463191Y-162638219D01*
X92496676Y-162699542D01*
X92497885Y-162725981D01*
X92499500Y-162725981D01*
X92499500Y-162734108D01*
X92499500Y-162865892D01*
X92511051Y-162909002D01*
X92533608Y-162993187D01*
X92566554Y-163050250D01*
X92599500Y-163107314D01*
X92692686Y-163200500D01*
X92756384Y-163237276D01*
X92805019Y-163265356D01*
X92806814Y-163266392D01*
X92934108Y-163300500D01*
X92934110Y-163300500D01*
X93065890Y-163300500D01*
X93065892Y-163300500D01*
X93193186Y-163266392D01*
X93307314Y-163200500D01*
X93370995Y-163136819D01*
X93397922Y-163122115D01*
X93423741Y-163105523D01*
X93429941Y-163104631D01*
X93432318Y-163103334D01*
X93458676Y-163100500D01*
X93624167Y-163100500D01*
X93691206Y-163120185D01*
X93711848Y-163136819D01*
X94359540Y-163784511D01*
X94415489Y-163840460D01*
X94415491Y-163840461D01*
X94415495Y-163840464D01*
X94477912Y-163876500D01*
X94484011Y-163880021D01*
X94560438Y-163900500D01*
X94639562Y-163900500D01*
X98741324Y-163900500D01*
X98808363Y-163920185D01*
X98829005Y-163936819D01*
X98892686Y-164000500D01*
X99006814Y-164066392D01*
X99134108Y-164100500D01*
X99134110Y-164100500D01*
X99265890Y-164100500D01*
X99265892Y-164100500D01*
X99393186Y-164066392D01*
X99507314Y-164000500D01*
X99600500Y-163907314D01*
X99666392Y-163793186D01*
X99700500Y-163665892D01*
X99700500Y-163534108D01*
X99666392Y-163406814D01*
X99600500Y-163292686D01*
X99507314Y-163199500D01*
X99438611Y-163159834D01*
X99393187Y-163133608D01*
X99329539Y-163116554D01*
X99265892Y-163099500D01*
X99134108Y-163099500D01*
X99006812Y-163133608D01*
X98892686Y-163199500D01*
X98892683Y-163199502D01*
X98829005Y-163263181D01*
X98767682Y-163296666D01*
X98741324Y-163299500D01*
X98252206Y-163299500D01*
X98185167Y-163279815D01*
X98139412Y-163227011D01*
X98129468Y-163157853D01*
X98158493Y-163094297D01*
X98190206Y-163068113D01*
X98279144Y-163016764D01*
X98307314Y-163000500D01*
X98400500Y-162907314D01*
X98466392Y-162793186D01*
X98500500Y-162665892D01*
X98500500Y-162534108D01*
X98466392Y-162406814D01*
X98400500Y-162292686D01*
X98307314Y-162199500D01*
X98222437Y-162150496D01*
X98193187Y-162133608D01*
X98127430Y-162115989D01*
X98065892Y-162099500D01*
X97934108Y-162099500D01*
X97806812Y-162133608D01*
X97692686Y-162199500D01*
X97692683Y-162199502D01*
X97629005Y-162263181D01*
X97567682Y-162296666D01*
X97541324Y-162299500D01*
X96058676Y-162299500D01*
X95991637Y-162279815D01*
X95970995Y-162263181D01*
X95907316Y-162199502D01*
X95907314Y-162199500D01*
X95822437Y-162150496D01*
X95793187Y-162133608D01*
X95727430Y-162115989D01*
X95665892Y-162099500D01*
X95534108Y-162099500D01*
X95406812Y-162133608D01*
X95292686Y-162199500D01*
X95292683Y-162199502D01*
X95199502Y-162292683D01*
X95199500Y-162292686D01*
X95133608Y-162406812D01*
X95114048Y-162479815D01*
X95099500Y-162534108D01*
X95099500Y-162665892D01*
X95110995Y-162708793D01*
X95133608Y-162793187D01*
X95163861Y-162845586D01*
X95199500Y-162907314D01*
X95292686Y-163000500D01*
X95292687Y-163000501D01*
X95292689Y-163000502D01*
X95409794Y-163068113D01*
X95458010Y-163118680D01*
X95471232Y-163187287D01*
X95445264Y-163252152D01*
X95388350Y-163292680D01*
X95347794Y-163299500D01*
X94775833Y-163299500D01*
X94708794Y-163279815D01*
X94688152Y-163263181D01*
X93984512Y-162559541D01*
X93984507Y-162559537D01*
X93957183Y-162543762D01*
X93940461Y-162534108D01*
X93940459Y-162534106D01*
X93940459Y-162534107D01*
X93940457Y-162534106D01*
X93935287Y-162531121D01*
X93915990Y-162519979D01*
X93915991Y-162519979D01*
X93877775Y-162509739D01*
X93839562Y-162499500D01*
X93839560Y-162499500D01*
X93458676Y-162499500D01*
X93391637Y-162479815D01*
X93370995Y-162463181D01*
X93307316Y-162399502D01*
X93307314Y-162399500D01*
X93250250Y-162366554D01*
X93193187Y-162333608D01*
X93129539Y-162316554D01*
X93065892Y-162299500D01*
X93065891Y-162299500D01*
X93025776Y-162299500D01*
X92958737Y-162279815D01*
X92938095Y-162263181D01*
X90346072Y-159671158D01*
X90312587Y-159609835D01*
X90317571Y-159540143D01*
X90359443Y-159484210D01*
X90424907Y-159459793D01*
X90468828Y-159465151D01*
X90468885Y-159464914D01*
X90470955Y-159465410D01*
X90472077Y-159465547D01*
X90473632Y-159466053D01*
X90537742Y-159476207D01*
X90706903Y-159503000D01*
X90706908Y-159503000D01*
X90943097Y-159503000D01*
X91176368Y-159466053D01*
X91195634Y-159459793D01*
X91400992Y-159393068D01*
X91611433Y-159285843D01*
X91802510Y-159147017D01*
X91969517Y-158980010D01*
X92108343Y-158788933D01*
X92215568Y-158578492D01*
X92260995Y-158438681D01*
X92300433Y-158381006D01*
X92364791Y-158353808D01*
X92378926Y-158353000D01*
X93001142Y-158353000D01*
X93001144Y-158353000D01*
X93090288Y-158329114D01*
X93113021Y-158315989D01*
X93170212Y-158282970D01*
X93210341Y-158242840D01*
X93217701Y-158237385D01*
X93242239Y-158228363D01*
X93265186Y-158215834D01*
X93280925Y-158214141D01*
X93283280Y-158213276D01*
X93285136Y-158213688D01*
X93291544Y-158213000D01*
X93367472Y-158213000D01*
X93367475Y-158213000D01*
X93507485Y-158175484D01*
X93633015Y-158103009D01*
X93735509Y-158000515D01*
X93807984Y-157874985D01*
X93845500Y-157734975D01*
X93845500Y-157590025D01*
X98544500Y-157590025D01*
X98544500Y-157734975D01*
X98582016Y-157874985D01*
X98582017Y-157874988D01*
X98654488Y-158000511D01*
X98654490Y-158000513D01*
X98654491Y-158000515D01*
X98756985Y-158103009D01*
X98756986Y-158103010D01*
X98756988Y-158103011D01*
X98882511Y-158175482D01*
X98882512Y-158175482D01*
X98882515Y-158175484D01*
X99022525Y-158213000D01*
X99022528Y-158213000D01*
X99167472Y-158213000D01*
X99167475Y-158213000D01*
X99307485Y-158175484D01*
X99433015Y-158103009D01*
X99436705Y-158099319D01*
X99498028Y-158065834D01*
X99524386Y-158063000D01*
X100291074Y-158063000D01*
X100358113Y-158082685D01*
X100403868Y-158135489D01*
X100409003Y-158148679D01*
X100454432Y-158288492D01*
X100561657Y-158498933D01*
X100700483Y-158690010D01*
X100867490Y-158857017D01*
X101058567Y-158995843D01*
X101092595Y-159013181D01*
X101269003Y-159103066D01*
X101269005Y-159103066D01*
X101269008Y-159103068D01*
X101389412Y-159142189D01*
X101493631Y-159176053D01*
X101726903Y-159213000D01*
X101726908Y-159213000D01*
X101963097Y-159213000D01*
X102196368Y-159176053D01*
X102211935Y-159170995D01*
X102420992Y-159103068D01*
X102631433Y-158995843D01*
X102822510Y-158857017D01*
X102883819Y-158795708D01*
X102945142Y-158762223D01*
X103014834Y-158767207D01*
X103070767Y-158809079D01*
X103095184Y-158874543D01*
X103095500Y-158883389D01*
X103095500Y-161628166D01*
X103075815Y-161695205D01*
X103059181Y-161715847D01*
X102511847Y-162263181D01*
X102450524Y-162296666D01*
X102424166Y-162299500D01*
X102334108Y-162299500D01*
X102206812Y-162333608D01*
X102092686Y-162399500D01*
X102092683Y-162399502D01*
X101999502Y-162492683D01*
X101999500Y-162492686D01*
X101933608Y-162606812D01*
X101917778Y-162665892D01*
X101899500Y-162734108D01*
X101899500Y-162865892D01*
X101911051Y-162909002D01*
X101933608Y-162993187D01*
X101966554Y-163050250D01*
X101999500Y-163107314D01*
X102092686Y-163200500D01*
X102156384Y-163237276D01*
X102205019Y-163265356D01*
X102206814Y-163266392D01*
X102334108Y-163300500D01*
X102334110Y-163300500D01*
X102465890Y-163300500D01*
X102465892Y-163300500D01*
X102593186Y-163266392D01*
X102707314Y-163200500D01*
X102800500Y-163107314D01*
X102866392Y-162993186D01*
X102900500Y-162865892D01*
X102900500Y-162775832D01*
X102920185Y-162708793D01*
X102936819Y-162688151D01*
X103228278Y-162396692D01*
X103636460Y-161988511D01*
X103676022Y-161919988D01*
X103696500Y-161843562D01*
X103696500Y-161764438D01*
X103696500Y-159598432D01*
X103702389Y-159578375D01*
X103703451Y-159557500D01*
X103712034Y-159545527D01*
X103716185Y-159531393D01*
X103731980Y-159517706D01*
X103744161Y-159500716D01*
X103757857Y-159495283D01*
X103768989Y-159485638D01*
X103789676Y-159482663D01*
X103809109Y-159474956D01*
X103830574Y-159476782D01*
X103838147Y-159475694D01*
X103844358Y-159476749D01*
X103848492Y-159477559D01*
X103934108Y-159500500D01*
X103965497Y-159500500D01*
X103977315Y-159502817D01*
X103998063Y-159513598D01*
X104020496Y-159520185D01*
X104038205Y-159534456D01*
X104039314Y-159535032D01*
X104039651Y-159535621D01*
X104041138Y-159536819D01*
X104119531Y-159615212D01*
X104184788Y-159680469D01*
X104184791Y-159680470D01*
X104184794Y-159680473D01*
X104264706Y-159726611D01*
X104264707Y-159726611D01*
X104264712Y-159726614D01*
X104353856Y-159750500D01*
X105991324Y-159750500D01*
X106058363Y-159770185D01*
X106079005Y-159786819D01*
X106092686Y-159800500D01*
X106206814Y-159866392D01*
X106334108Y-159900500D01*
X106334110Y-159900500D01*
X106465890Y-159900500D01*
X106465892Y-159900500D01*
X106593186Y-159866392D01*
X106707314Y-159800500D01*
X106800500Y-159707314D01*
X106866392Y-159593186D01*
X106900500Y-159465892D01*
X106900500Y-159334108D01*
X106866392Y-159206814D01*
X106857946Y-159192186D01*
X106845712Y-159170995D01*
X106800500Y-159092686D01*
X106707314Y-158999500D01*
X106650250Y-158966554D01*
X106593187Y-158933608D01*
X106529539Y-158916554D01*
X106465892Y-158899500D01*
X106334108Y-158899500D01*
X106206812Y-158933608D01*
X106092686Y-158999500D01*
X106092683Y-158999502D01*
X106079005Y-159013181D01*
X106017682Y-159046666D01*
X105991324Y-159049500D01*
X104624437Y-159049500D01*
X104557398Y-159029815D01*
X104511643Y-158977011D01*
X104501498Y-158941690D01*
X104500500Y-158934114D01*
X104500500Y-158934108D01*
X104466392Y-158806814D01*
X104400500Y-158692686D01*
X104386819Y-158679005D01*
X104353334Y-158617682D01*
X104350500Y-158591324D01*
X104350500Y-156796544D01*
X104370185Y-156729505D01*
X104386819Y-156708863D01*
X105358863Y-155736819D01*
X105420186Y-155703334D01*
X105446544Y-155700500D01*
X105465890Y-155700500D01*
X105465892Y-155700500D01*
X105593186Y-155666392D01*
X105707314Y-155600500D01*
X105720995Y-155586819D01*
X105782318Y-155553334D01*
X105808676Y-155550500D01*
X106846142Y-155550500D01*
X106846144Y-155550500D01*
X106935288Y-155526614D01*
X106945912Y-155520480D01*
X107015212Y-155480470D01*
X108368157Y-154127525D01*
X111449500Y-154127525D01*
X111449500Y-154272475D01*
X111486414Y-154410239D01*
X111487017Y-154412488D01*
X111559488Y-154538011D01*
X111559493Y-154538017D01*
X111613181Y-154591705D01*
X111646666Y-154653028D01*
X111649500Y-154679386D01*
X111649500Y-155170614D01*
X111629815Y-155237653D01*
X111613181Y-155258295D01*
X111559493Y-155311982D01*
X111559488Y-155311988D01*
X111487017Y-155437511D01*
X111487016Y-155437515D01*
X111449500Y-155577525D01*
X111449500Y-155722475D01*
X111487016Y-155862485D01*
X111487017Y-155862488D01*
X111559488Y-155988011D01*
X111559490Y-155988013D01*
X111559491Y-155988015D01*
X111661985Y-156090509D01*
X111661986Y-156090510D01*
X111661988Y-156090511D01*
X111787511Y-156162982D01*
X111787512Y-156162982D01*
X111787515Y-156162984D01*
X111927525Y-156200500D01*
X111927528Y-156200500D01*
X112072472Y-156200500D01*
X112072475Y-156200500D01*
X112212485Y-156162984D01*
X112338015Y-156090509D01*
X112440509Y-155988015D01*
X112512984Y-155862485D01*
X112550500Y-155722475D01*
X112550500Y-155577525D01*
X112512984Y-155437515D01*
X112491613Y-155400500D01*
X112440511Y-155311988D01*
X112440506Y-155311982D01*
X112386819Y-155258295D01*
X112353334Y-155196972D01*
X112350500Y-155170614D01*
X112350500Y-154679386D01*
X112370185Y-154612347D01*
X112386819Y-154591705D01*
X112440509Y-154538015D01*
X112476746Y-154475250D01*
X112512982Y-154412489D01*
X112512982Y-154412487D01*
X112512984Y-154412485D01*
X112513586Y-154410236D01*
X112514612Y-154408553D01*
X112516092Y-154404981D01*
X112516649Y-154405211D01*
X112549949Y-154350577D01*
X112612795Y-154320046D01*
X112682171Y-154328339D01*
X112721042Y-154354648D01*
X114354214Y-155987820D01*
X114387699Y-156049143D01*
X114382715Y-156118835D01*
X114340843Y-156174768D01*
X114275379Y-156199185D01*
X114266533Y-156199501D01*
X114244159Y-156199501D01*
X114116863Y-156233609D01*
X114002737Y-156299501D01*
X114002734Y-156299503D01*
X113909553Y-156392684D01*
X113909551Y-156392687D01*
X113843659Y-156506813D01*
X113816373Y-156608650D01*
X113809551Y-156634109D01*
X113809551Y-156765893D01*
X113838786Y-156875002D01*
X113843660Y-156893189D01*
X113843661Y-156893192D01*
X113881886Y-156959398D01*
X113898500Y-157021399D01*
X113898500Y-161038562D01*
X113918979Y-161114989D01*
X113956142Y-161179358D01*
X113956144Y-161179361D01*
X113956143Y-161179361D01*
X113958406Y-161183279D01*
X113958540Y-161183511D01*
X113958543Y-161183514D01*
X116063181Y-163288152D01*
X116096666Y-163349475D01*
X116099500Y-163375833D01*
X116099500Y-163465891D01*
X116133608Y-163593187D01*
X116164115Y-163646025D01*
X116199500Y-163707314D01*
X116292686Y-163800500D01*
X116406814Y-163866392D01*
X116534108Y-163900500D01*
X116534110Y-163900500D01*
X116665890Y-163900500D01*
X116665892Y-163900500D01*
X116793186Y-163866392D01*
X116907314Y-163800500D01*
X117000500Y-163707314D01*
X117066392Y-163593186D01*
X117100500Y-163465892D01*
X117100500Y-163334108D01*
X117066392Y-163206814D01*
X117000500Y-163092686D01*
X116907314Y-162999500D01*
X116809679Y-162943130D01*
X116793187Y-162933608D01*
X116701354Y-162909002D01*
X116665892Y-162899500D01*
X116575833Y-162899500D01*
X116508794Y-162879815D01*
X116488152Y-162863181D01*
X114535819Y-160910848D01*
X114502334Y-160849525D01*
X114499500Y-160823167D01*
X114499500Y-159999236D01*
X114519185Y-159932197D01*
X114571989Y-159886442D01*
X114641147Y-159876498D01*
X114655571Y-159879456D01*
X114734108Y-159900500D01*
X114734111Y-159900500D01*
X114865890Y-159900500D01*
X114865892Y-159900500D01*
X114993186Y-159866392D01*
X115107314Y-159800500D01*
X115200500Y-159707314D01*
X115266392Y-159593186D01*
X115300500Y-159465892D01*
X115300500Y-159375832D01*
X115320185Y-159308793D01*
X115336819Y-159288151D01*
X115567924Y-159057046D01*
X115841460Y-158783511D01*
X115854781Y-158760438D01*
X115881021Y-158714989D01*
X115901500Y-158638562D01*
X115901500Y-155761438D01*
X115896798Y-155743890D01*
X115896798Y-155679704D01*
X115900500Y-155665892D01*
X115900500Y-155534108D01*
X115866392Y-155406814D01*
X115862290Y-155399710D01*
X115824681Y-155334569D01*
X115800500Y-155292686D01*
X115707314Y-155199500D01*
X115650250Y-155166554D01*
X115593187Y-155133608D01*
X115529539Y-155116554D01*
X115465892Y-155099500D01*
X115334108Y-155099500D01*
X115206812Y-155133608D01*
X115092686Y-155199500D01*
X115092683Y-155199502D01*
X114999502Y-155292683D01*
X114999495Y-155292692D01*
X114952534Y-155374030D01*
X114901967Y-155422245D01*
X114833359Y-155435467D01*
X114768495Y-155409499D01*
X114757467Y-155399710D01*
X112527154Y-153169397D01*
X112495061Y-153113812D01*
X112466392Y-153006814D01*
X112400500Y-152892686D01*
X112307314Y-152799500D01*
X112250250Y-152766554D01*
X112193187Y-152733608D01*
X112129539Y-152716554D01*
X112065892Y-152699500D01*
X111934108Y-152699500D01*
X111806812Y-152733608D01*
X111692686Y-152799500D01*
X111692683Y-152799502D01*
X111599502Y-152892683D01*
X111599500Y-152892686D01*
X111533608Y-153006812D01*
X111506680Y-153107313D01*
X111499500Y-153134108D01*
X111499500Y-153265892D01*
X111511851Y-153311988D01*
X111533608Y-153393187D01*
X111557443Y-153434469D01*
X111599500Y-153507314D01*
X111599502Y-153507316D01*
X111669336Y-153577150D01*
X111702821Y-153638473D01*
X111697837Y-153708165D01*
X111665674Y-153751686D01*
X111667732Y-153753744D01*
X111559493Y-153861982D01*
X111559488Y-153861988D01*
X111487017Y-153987511D01*
X111487016Y-153987515D01*
X111449500Y-154127525D01*
X108368157Y-154127525D01*
X109558863Y-152936819D01*
X109620186Y-152903334D01*
X109646544Y-152900500D01*
X109665890Y-152900500D01*
X109665892Y-152900500D01*
X109793186Y-152866392D01*
X109907314Y-152800500D01*
X110000500Y-152707314D01*
X110066392Y-152593186D01*
X110082222Y-152534108D01*
X119699500Y-152534108D01*
X119699500Y-152665892D01*
X119711181Y-152709488D01*
X119733608Y-152793187D01*
X119744463Y-152811988D01*
X119799500Y-152907314D01*
X119799502Y-152907316D01*
X119813181Y-152920995D01*
X119846666Y-152982318D01*
X119849500Y-153008676D01*
X119849500Y-154446144D01*
X119859378Y-154483011D01*
X119859379Y-154483011D01*
X119859379Y-154483012D01*
X119873386Y-154535288D01*
X119874962Y-154538017D01*
X119919527Y-154615208D01*
X119919531Y-154615213D01*
X120263181Y-154958863D01*
X120296666Y-155020186D01*
X120299500Y-155046544D01*
X120299500Y-155065891D01*
X120333608Y-155193187D01*
X120350230Y-155221976D01*
X120399500Y-155307314D01*
X120492686Y-155400500D01*
X120606814Y-155466392D01*
X120734108Y-155500500D01*
X120734110Y-155500500D01*
X120865890Y-155500500D01*
X120865892Y-155500500D01*
X120993186Y-155466392D01*
X121107314Y-155400500D01*
X121200500Y-155307314D01*
X121266392Y-155193186D01*
X121300500Y-155065892D01*
X121300500Y-155065884D01*
X121301498Y-155058310D01*
X121329767Y-154994415D01*
X121388093Y-154955946D01*
X121424437Y-154950500D01*
X125391324Y-154950500D01*
X125458363Y-154970185D01*
X125479005Y-154986819D01*
X125492686Y-155000500D01*
X125606814Y-155066392D01*
X125734108Y-155100500D01*
X125734110Y-155100500D01*
X125865890Y-155100500D01*
X125865892Y-155100500D01*
X125993186Y-155066392D01*
X126107314Y-155000500D01*
X126120995Y-154986819D01*
X126182318Y-154953334D01*
X126208676Y-154950500D01*
X128846142Y-154950500D01*
X128846144Y-154950500D01*
X128935288Y-154926614D01*
X128964762Y-154909597D01*
X129015212Y-154880470D01*
X131158863Y-152736819D01*
X131220186Y-152703334D01*
X131246544Y-152700500D01*
X131265890Y-152700500D01*
X131265892Y-152700500D01*
X131393186Y-152666392D01*
X131507314Y-152600500D01*
X131600500Y-152507314D01*
X131666392Y-152393186D01*
X131700500Y-152265892D01*
X131700500Y-152134108D01*
X131666392Y-152006814D01*
X131600500Y-151892686D01*
X131507314Y-151799500D01*
X131435535Y-151758058D01*
X131393187Y-151733608D01*
X131328714Y-151716333D01*
X131265892Y-151699500D01*
X131134108Y-151699500D01*
X131006812Y-151733608D01*
X130892686Y-151799500D01*
X130892683Y-151799502D01*
X130799502Y-151892683D01*
X130799500Y-151892686D01*
X130733608Y-152006812D01*
X130699500Y-152134108D01*
X130699500Y-152153456D01*
X130679815Y-152220495D01*
X130663181Y-152241137D01*
X128691137Y-154213181D01*
X128629814Y-154246666D01*
X128603456Y-154249500D01*
X126208676Y-154249500D01*
X126141637Y-154229815D01*
X126120995Y-154213181D01*
X126107316Y-154199502D01*
X126107314Y-154199500D01*
X126022444Y-154150500D01*
X125993187Y-154133608D01*
X125916215Y-154112984D01*
X125865892Y-154099500D01*
X125734108Y-154099500D01*
X125606812Y-154133608D01*
X125492686Y-154199500D01*
X125492683Y-154199502D01*
X125479005Y-154213181D01*
X125417682Y-154246666D01*
X125391324Y-154249500D01*
X121153856Y-154249500D01*
X121068111Y-154272475D01*
X121068110Y-154272474D01*
X121064714Y-154273384D01*
X121064706Y-154273388D01*
X120984794Y-154319526D01*
X120984789Y-154319530D01*
X120887681Y-154416638D01*
X120879734Y-154420977D01*
X120874310Y-154428223D01*
X120849552Y-154437457D01*
X120826358Y-154450122D01*
X120817328Y-154449476D01*
X120808846Y-154452640D01*
X120783025Y-154447023D01*
X120756666Y-154445138D01*
X120747612Y-154439319D01*
X120740573Y-154437788D01*
X120712319Y-154416637D01*
X120586819Y-154291137D01*
X120553334Y-154229814D01*
X120550500Y-154203456D01*
X120550500Y-153008676D01*
X120570185Y-152941637D01*
X120586819Y-152920995D01*
X120600500Y-152907314D01*
X120666392Y-152793186D01*
X120700500Y-152665892D01*
X120700500Y-152534108D01*
X120666392Y-152406814D01*
X120600500Y-152292686D01*
X120507314Y-152199500D01*
X120449102Y-152165891D01*
X120393187Y-152133608D01*
X120316208Y-152112982D01*
X120265892Y-152099500D01*
X120134108Y-152099500D01*
X120006812Y-152133608D01*
X119892686Y-152199500D01*
X119892683Y-152199502D01*
X119799502Y-152292683D01*
X119799500Y-152292686D01*
X119733608Y-152406812D01*
X119705160Y-152512984D01*
X119699500Y-152534108D01*
X110082222Y-152534108D01*
X110100500Y-152465892D01*
X110100500Y-152334108D01*
X110066392Y-152206814D01*
X110000500Y-152092686D01*
X109907314Y-151999500D01*
X109907312Y-151999499D01*
X109907310Y-151999497D01*
X109836919Y-151958857D01*
X109819665Y-151940762D01*
X109799652Y-151925780D01*
X109795971Y-151915913D01*
X109788703Y-151908290D01*
X109783971Y-151883739D01*
X109775235Y-151860316D01*
X109777473Y-151850023D01*
X109775481Y-151839683D01*
X109784772Y-151816474D01*
X109790087Y-151792043D01*
X109799687Y-151779218D01*
X109801449Y-151774818D01*
X109811238Y-151763789D01*
X109840919Y-151734108D01*
X125299500Y-151734108D01*
X125299500Y-151865892D01*
X125309051Y-151901536D01*
X125333608Y-151993187D01*
X125360902Y-152040460D01*
X125399500Y-152107314D01*
X125492686Y-152200500D01*
X125576025Y-152248616D01*
X125605944Y-152265890D01*
X125606814Y-152266392D01*
X125734108Y-152300500D01*
X125734110Y-152300500D01*
X125865890Y-152300500D01*
X125865892Y-152300500D01*
X125993186Y-152266392D01*
X126107314Y-152200500D01*
X126172663Y-152135150D01*
X126231783Y-152102868D01*
X126231712Y-152102603D01*
X126232807Y-152102309D01*
X126233982Y-152101668D01*
X126237469Y-152101060D01*
X126239559Y-152100500D01*
X126239562Y-152100500D01*
X126315989Y-152080021D01*
X126384511Y-152040460D01*
X126440460Y-151984511D01*
X127688151Y-150736818D01*
X127749474Y-150703334D01*
X127775832Y-150700500D01*
X127865890Y-150700500D01*
X127865892Y-150700500D01*
X127993186Y-150666392D01*
X128107314Y-150600500D01*
X128200500Y-150507314D01*
X128266392Y-150393186D01*
X128300500Y-150265892D01*
X128300500Y-150134108D01*
X128266392Y-150006814D01*
X128200500Y-149892686D01*
X128107314Y-149799500D01*
X128038103Y-149759541D01*
X127993187Y-149733608D01*
X127929539Y-149716554D01*
X127865892Y-149699500D01*
X127734108Y-149699500D01*
X127606812Y-149733608D01*
X127492686Y-149799500D01*
X127492683Y-149799502D01*
X127399502Y-149892683D01*
X127399500Y-149892686D01*
X127333608Y-150006812D01*
X127299500Y-150134108D01*
X127299500Y-150224166D01*
X127279815Y-150291205D01*
X127263181Y-150311847D01*
X126217840Y-151357187D01*
X126156517Y-151390672D01*
X126086825Y-151385688D01*
X126068159Y-151376893D01*
X125993189Y-151333609D01*
X125993186Y-151333608D01*
X125865892Y-151299500D01*
X125734108Y-151299500D01*
X125606812Y-151333608D01*
X125492686Y-151399500D01*
X125492683Y-151399502D01*
X125399502Y-151492683D01*
X125399500Y-151492686D01*
X125333608Y-151606812D01*
X125316015Y-151672472D01*
X125299500Y-151734108D01*
X109840919Y-151734108D01*
X109936727Y-151638300D01*
X110488011Y-151087017D01*
X111238209Y-150336819D01*
X111299532Y-150303334D01*
X111325890Y-150300500D01*
X111941324Y-150300500D01*
X112008363Y-150320185D01*
X112029005Y-150336819D01*
X112092686Y-150400500D01*
X112206814Y-150466392D01*
X112334108Y-150500500D01*
X112334110Y-150500500D01*
X112465890Y-150500500D01*
X112465892Y-150500500D01*
X112593186Y-150466392D01*
X112707314Y-150400500D01*
X112800500Y-150307314D01*
X112866392Y-150193186D01*
X112900500Y-150065892D01*
X112900500Y-149934108D01*
X112866392Y-149806814D01*
X112800500Y-149692686D01*
X112707314Y-149599500D01*
X112650250Y-149566554D01*
X112593187Y-149533608D01*
X112529539Y-149516554D01*
X112465892Y-149499500D01*
X112334108Y-149499500D01*
X112206812Y-149533608D01*
X112092686Y-149599500D01*
X112092683Y-149599502D01*
X112029005Y-149663181D01*
X111967682Y-149696666D01*
X111941324Y-149699500D01*
X111110495Y-149699500D01*
X111072281Y-149709739D01*
X111034066Y-149719979D01*
X111013252Y-149731996D01*
X111010462Y-149733608D01*
X110997117Y-149741312D01*
X110965546Y-149759539D01*
X110965544Y-149759541D01*
X107154577Y-153570507D01*
X107093254Y-153603992D01*
X107023562Y-153599008D01*
X106967629Y-153557136D01*
X106947123Y-153514924D01*
X106912984Y-153387515D01*
X106894333Y-153355211D01*
X106840511Y-153261988D01*
X106840506Y-153261982D01*
X106786819Y-153208295D01*
X106753334Y-153146972D01*
X106750500Y-153120614D01*
X106750500Y-152153855D01*
X106748197Y-152145261D01*
X106748198Y-152081066D01*
X106750500Y-152072476D01*
X106750500Y-151927527D01*
X106750500Y-151927525D01*
X106712984Y-151787515D01*
X106711146Y-151784332D01*
X106640511Y-151661988D01*
X106640506Y-151661982D01*
X106538017Y-151559493D01*
X106538011Y-151559488D01*
X106412488Y-151487017D01*
X106412489Y-151487017D01*
X106401006Y-151483940D01*
X106272475Y-151449500D01*
X106127525Y-151449500D01*
X105998993Y-151483940D01*
X105987511Y-151487017D01*
X105861988Y-151559488D01*
X105861982Y-151559493D01*
X105808295Y-151613181D01*
X105746972Y-151646666D01*
X105720614Y-151649500D01*
X105074500Y-151649500D01*
X105007461Y-151629815D01*
X104961706Y-151577011D01*
X104952662Y-151535439D01*
X104951561Y-151535585D01*
X104950500Y-151527528D01*
X104950500Y-151527527D01*
X104950500Y-151527525D01*
X104912984Y-151387515D01*
X104909642Y-151381727D01*
X104840511Y-151261988D01*
X104840506Y-151261982D01*
X104738017Y-151159493D01*
X104738011Y-151159488D01*
X104612488Y-151087017D01*
X104612489Y-151087017D01*
X104601006Y-151083940D01*
X104472475Y-151049500D01*
X104327525Y-151049500D01*
X104198993Y-151083940D01*
X104187511Y-151087017D01*
X104061988Y-151159488D01*
X104061982Y-151159493D01*
X103959493Y-151261982D01*
X103959488Y-151261988D01*
X103887017Y-151387511D01*
X103887016Y-151387515D01*
X103849500Y-151527525D01*
X103849500Y-151672475D01*
X103887016Y-151812485D01*
X103887017Y-151812488D01*
X103959488Y-151938011D01*
X103959490Y-151938013D01*
X103959491Y-151938015D01*
X104061985Y-152040509D01*
X104061986Y-152040510D01*
X104061988Y-152040511D01*
X104187511Y-152112982D01*
X104187512Y-152112982D01*
X104187515Y-152112984D01*
X104327525Y-152150500D01*
X104403457Y-152150500D01*
X104470496Y-152170185D01*
X104491138Y-152186819D01*
X104519531Y-152215212D01*
X104584788Y-152280469D01*
X104584791Y-152280470D01*
X104584794Y-152280473D01*
X104664706Y-152326611D01*
X104664707Y-152326611D01*
X104664712Y-152326614D01*
X104753856Y-152350500D01*
X105720614Y-152350500D01*
X105787653Y-152370185D01*
X105808295Y-152386819D01*
X105861985Y-152440509D01*
X105987500Y-152512975D01*
X106035716Y-152563542D01*
X106049500Y-152620362D01*
X106049500Y-153120614D01*
X106029815Y-153187653D01*
X106013181Y-153208295D01*
X105959493Y-153261982D01*
X105959488Y-153261988D01*
X105887017Y-153387511D01*
X105887016Y-153387515D01*
X105849500Y-153527525D01*
X105849500Y-153672475D01*
X105885631Y-153807316D01*
X105887017Y-153812488D01*
X105959488Y-153938011D01*
X105959490Y-153938013D01*
X105959491Y-153938015D01*
X106061985Y-154040509D01*
X106061986Y-154040510D01*
X106061988Y-154040511D01*
X106108064Y-154067113D01*
X106156280Y-154117680D01*
X106169502Y-154186287D01*
X106143534Y-154251152D01*
X106086620Y-154291680D01*
X106046064Y-154298500D01*
X105111495Y-154298500D01*
X105073281Y-154308739D01*
X105035066Y-154318979D01*
X105035065Y-154318980D01*
X104974659Y-154353856D01*
X104974657Y-154353857D01*
X104966549Y-154358537D01*
X104966544Y-154358541D01*
X103155541Y-156169544D01*
X103155535Y-156169552D01*
X103115982Y-156238061D01*
X103115979Y-156238066D01*
X103095500Y-156314496D01*
X103095500Y-156541611D01*
X103075815Y-156608650D01*
X103023011Y-156654405D01*
X102953853Y-156664349D01*
X102890297Y-156635324D01*
X102883819Y-156629292D01*
X102822512Y-156567985D01*
X102822510Y-156567983D01*
X102631433Y-156429157D01*
X102559851Y-156392684D01*
X102420996Y-156321933D01*
X102196368Y-156248946D01*
X101963097Y-156212000D01*
X101963092Y-156212000D01*
X101726908Y-156212000D01*
X101726903Y-156212000D01*
X101493631Y-156248946D01*
X101269003Y-156321933D01*
X101058566Y-156429157D01*
X100951683Y-156506813D01*
X100867490Y-156567983D01*
X100867488Y-156567985D01*
X100867487Y-156567985D01*
X100700485Y-156734987D01*
X100700485Y-156734988D01*
X100700483Y-156734990D01*
X100678031Y-156765893D01*
X100561657Y-156926066D01*
X100454433Y-157136505D01*
X100454432Y-157136507D01*
X100454432Y-157136508D01*
X100444397Y-157167394D01*
X100409005Y-157276318D01*
X100369567Y-157333994D01*
X100305209Y-157361192D01*
X100291074Y-157362000D01*
X99624386Y-157362000D01*
X99557347Y-157342315D01*
X99536705Y-157325681D01*
X99433017Y-157221993D01*
X99433011Y-157221988D01*
X99307488Y-157149517D01*
X99307489Y-157149517D01*
X99296006Y-157146440D01*
X99167475Y-157112000D01*
X99022525Y-157112000D01*
X98893993Y-157146440D01*
X98882511Y-157149517D01*
X98756988Y-157221988D01*
X98756982Y-157221993D01*
X98654493Y-157324482D01*
X98654488Y-157324488D01*
X98582017Y-157450011D01*
X98582016Y-157450015D01*
X98544500Y-157590025D01*
X93845500Y-157590025D01*
X93807984Y-157450015D01*
X93794410Y-157426505D01*
X93735511Y-157324488D01*
X93735506Y-157324482D01*
X93633017Y-157221993D01*
X93633011Y-157221988D01*
X93507488Y-157149517D01*
X93507489Y-157149517D01*
X93496006Y-157146440D01*
X93367475Y-157112000D01*
X93222525Y-157112000D01*
X93093993Y-157146440D01*
X93082511Y-157149517D01*
X92956988Y-157221988D01*
X92956982Y-157221993D01*
X92854493Y-157324482D01*
X92854488Y-157324488D01*
X92782017Y-157450011D01*
X92782016Y-157450015D01*
X92752519Y-157560096D01*
X92716156Y-157619754D01*
X92653309Y-157650283D01*
X92632746Y-157652000D01*
X92378926Y-157652000D01*
X92311887Y-157632315D01*
X92266132Y-157579511D01*
X92260995Y-157566318D01*
X92250529Y-157534107D01*
X92215568Y-157426508D01*
X92108343Y-157216067D01*
X91969517Y-157024990D01*
X91802510Y-156857983D01*
X91611433Y-156719157D01*
X91591230Y-156708863D01*
X91400996Y-156611933D01*
X91176368Y-156538946D01*
X90943097Y-156502000D01*
X90943092Y-156502000D01*
X90706908Y-156502000D01*
X90706903Y-156502000D01*
X90473631Y-156538946D01*
X90249003Y-156611933D01*
X90038566Y-156719157D01*
X89961706Y-156775000D01*
X89847490Y-156857983D01*
X89847488Y-156857985D01*
X89847487Y-156857985D01*
X89680485Y-157024987D01*
X89680485Y-157024988D01*
X89680483Y-157024990D01*
X89638836Y-157082312D01*
X89541657Y-157216066D01*
X89434433Y-157426503D01*
X89361446Y-157651131D01*
X89324500Y-157884402D01*
X89324500Y-158120597D01*
X89361447Y-158353869D01*
X89361449Y-158353877D01*
X89361954Y-158355432D01*
X89361971Y-158356055D01*
X89362586Y-158358615D01*
X89362048Y-158358743D01*
X89363947Y-158425273D01*
X89327865Y-158485105D01*
X89265163Y-158515931D01*
X89195749Y-158507964D01*
X89156341Y-158481427D01*
X85736819Y-155061905D01*
X85703334Y-155000582D01*
X85700500Y-154974224D01*
X85700500Y-152458676D01*
X85720185Y-152391637D01*
X85736819Y-152370995D01*
X85757315Y-152350499D01*
X85800500Y-152307314D01*
X85866392Y-152193186D01*
X85900500Y-152065892D01*
X85900500Y-151934108D01*
X85866392Y-151806814D01*
X85800500Y-151692686D01*
X85707314Y-151599500D01*
X85650250Y-151566554D01*
X85593187Y-151533608D01*
X85529539Y-151516554D01*
X85465892Y-151499500D01*
X85334108Y-151499500D01*
X85206812Y-151533608D01*
X85092686Y-151599500D01*
X85092683Y-151599502D01*
X84999502Y-151692683D01*
X84999500Y-151692686D01*
X84933608Y-151806812D01*
X84906814Y-151906812D01*
X84899500Y-151934108D01*
X83459684Y-151934108D01*
X83482725Y-151848117D01*
X83482725Y-151716333D01*
X83448617Y-151589039D01*
X83382725Y-151474911D01*
X83289539Y-151381725D01*
X83206200Y-151333609D01*
X83175412Y-151315833D01*
X83111764Y-151298779D01*
X83048117Y-151281725D01*
X82958058Y-151281725D01*
X82891019Y-151262040D01*
X82870377Y-151245406D01*
X82584512Y-150959541D01*
X82584507Y-150959537D01*
X82557183Y-150943762D01*
X82540461Y-150934108D01*
X82540459Y-150934106D01*
X82540459Y-150934107D01*
X82540457Y-150934106D01*
X82535287Y-150931121D01*
X82515990Y-150919979D01*
X82515991Y-150919979D01*
X82477775Y-150909739D01*
X82439562Y-150899500D01*
X82439560Y-150899500D01*
X74858676Y-150899500D01*
X74791637Y-150879815D01*
X74770995Y-150863181D01*
X74707316Y-150799502D01*
X74707314Y-150799500D01*
X74650250Y-150766554D01*
X74593187Y-150733608D01*
X74529539Y-150716554D01*
X74465892Y-150699500D01*
X74334108Y-150699500D01*
X74206812Y-150733608D01*
X74092686Y-150799500D01*
X74092683Y-150799502D01*
X73999502Y-150892683D01*
X73999500Y-150892686D01*
X73933608Y-151006812D01*
X73917778Y-151065892D01*
X73899500Y-151134108D01*
X67173706Y-151134108D01*
X67200500Y-151107314D01*
X67213023Y-151085622D01*
X67225520Y-151063980D01*
X67258525Y-151006812D01*
X67266392Y-150993186D01*
X67300500Y-150865892D01*
X67300500Y-150734108D01*
X67266392Y-150606814D01*
X67200500Y-150492686D01*
X67107314Y-150399500D01*
X67050250Y-150366554D01*
X66993187Y-150333608D01*
X66911972Y-150311847D01*
X66865892Y-150299500D01*
X66734108Y-150299500D01*
X66606812Y-150333608D01*
X66492686Y-150399500D01*
X66492683Y-150399502D01*
X66399502Y-150492683D01*
X66399500Y-150492686D01*
X66334255Y-150605693D01*
X66283687Y-150653908D01*
X66215080Y-150667130D01*
X66150216Y-150641162D01*
X66139187Y-150631373D01*
X66107316Y-150599502D01*
X66107314Y-150599500D01*
X66050250Y-150566554D01*
X65993187Y-150533608D01*
X65929539Y-150516554D01*
X65865892Y-150499500D01*
X65865891Y-150499500D01*
X65846544Y-150499500D01*
X65779505Y-150479815D01*
X65758863Y-150463181D01*
X63615213Y-148319531D01*
X63615208Y-148319527D01*
X63535290Y-148273387D01*
X63535289Y-148273386D01*
X63535288Y-148273386D01*
X63446144Y-148249500D01*
X63446143Y-148249500D01*
X63008676Y-148249500D01*
X62941637Y-148229815D01*
X62920995Y-148213181D01*
X62907316Y-148199502D01*
X62907314Y-148199500D01*
X62827451Y-148153391D01*
X62793187Y-148133608D01*
X62729539Y-148116554D01*
X62665892Y-148099500D01*
X62534108Y-148099500D01*
X62406812Y-148133608D01*
X62292686Y-148199500D01*
X62292683Y-148199502D01*
X62199502Y-148292683D01*
X62199500Y-148292686D01*
X62133608Y-148406812D01*
X62099500Y-148534108D01*
X58300500Y-148534108D01*
X58300500Y-147614108D01*
X68099500Y-147614108D01*
X68099500Y-147745892D01*
X68108688Y-147780183D01*
X68133608Y-147873187D01*
X68157336Y-147914284D01*
X68199500Y-147987314D01*
X68292686Y-148080500D01*
X68406814Y-148146392D01*
X68534108Y-148180500D01*
X68534110Y-148180500D01*
X68665890Y-148180500D01*
X68665892Y-148180500D01*
X68793186Y-148146392D01*
X68907314Y-148080500D01*
X69000500Y-147987314D01*
X69014828Y-147962497D01*
X69065394Y-147914284D01*
X69122213Y-147900500D01*
X69824167Y-147900500D01*
X69891206Y-147920185D01*
X69911848Y-147936819D01*
X70815489Y-148840460D01*
X70884012Y-148880022D01*
X70960438Y-148900500D01*
X71341324Y-148900500D01*
X71408363Y-148920185D01*
X71429005Y-148936819D01*
X71492686Y-149000500D01*
X71606814Y-149066392D01*
X71734108Y-149100500D01*
X71734110Y-149100500D01*
X71865890Y-149100500D01*
X71865892Y-149100500D01*
X71993186Y-149066392D01*
X72107314Y-149000500D01*
X72200500Y-148907314D01*
X72266392Y-148793186D01*
X72300500Y-148665892D01*
X72300500Y-148534108D01*
X72266392Y-148406814D01*
X72200500Y-148292686D01*
X72107314Y-148199500D01*
X72027451Y-148153391D01*
X71993187Y-148133608D01*
X71929539Y-148116554D01*
X71865892Y-148099500D01*
X71734108Y-148099500D01*
X71606812Y-148133608D01*
X71492686Y-148199500D01*
X71492683Y-148199502D01*
X71429005Y-148263181D01*
X71402077Y-148277884D01*
X71376259Y-148294477D01*
X71370058Y-148295368D01*
X71367682Y-148296666D01*
X71341324Y-148299500D01*
X71175833Y-148299500D01*
X71108794Y-148279815D01*
X71088152Y-148263181D01*
X70184512Y-147359541D01*
X70184507Y-147359537D01*
X70184339Y-147359441D01*
X70115989Y-147319979D01*
X70039562Y-147299500D01*
X70039560Y-147299500D01*
X68975180Y-147299500D01*
X68913179Y-147282887D01*
X68907315Y-147279501D01*
X68907314Y-147279500D01*
X68842342Y-147241988D01*
X68793187Y-147213608D01*
X68693207Y-147186819D01*
X68665892Y-147179500D01*
X68534108Y-147179500D01*
X68406812Y-147213608D01*
X68292686Y-147279500D01*
X68292683Y-147279502D01*
X68199502Y-147372683D01*
X68199500Y-147372686D01*
X68133608Y-147486812D01*
X68116495Y-147550681D01*
X68099500Y-147614108D01*
X58300500Y-147614108D01*
X58300500Y-146527525D01*
X87749500Y-146527525D01*
X87749500Y-146672475D01*
X87785631Y-146807316D01*
X87787017Y-146812488D01*
X87859488Y-146938011D01*
X87859490Y-146938013D01*
X87859491Y-146938015D01*
X87961985Y-147040509D01*
X87961986Y-147040510D01*
X87961988Y-147040511D01*
X88087511Y-147112982D01*
X88087512Y-147112982D01*
X88087515Y-147112984D01*
X88227525Y-147150500D01*
X88303456Y-147150500D01*
X88370495Y-147170185D01*
X88391137Y-147186819D01*
X88913181Y-147708863D01*
X88927884Y-147735790D01*
X88944477Y-147761609D01*
X88945368Y-147767809D01*
X88946666Y-147770186D01*
X88949500Y-147796544D01*
X88949500Y-147920614D01*
X88929815Y-147987653D01*
X88913181Y-148008295D01*
X88859493Y-148061982D01*
X88859488Y-148061988D01*
X88787017Y-148187511D01*
X88787016Y-148187515D01*
X88749500Y-148327525D01*
X88749500Y-148472475D01*
X88783805Y-148600500D01*
X88787017Y-148612488D01*
X88859488Y-148738011D01*
X88859490Y-148738013D01*
X88859491Y-148738015D01*
X88961985Y-148840509D01*
X88961986Y-148840510D01*
X88961988Y-148840511D01*
X89087511Y-148912982D01*
X89087512Y-148912982D01*
X89087515Y-148912984D01*
X89227525Y-148950500D01*
X89227528Y-148950500D01*
X89372472Y-148950500D01*
X89372475Y-148950500D01*
X89512485Y-148912984D01*
X89638015Y-148840509D01*
X89740509Y-148738015D01*
X89812984Y-148612485D01*
X89850500Y-148472475D01*
X89850500Y-148327525D01*
X89812984Y-148187515D01*
X89808933Y-148180499D01*
X89740511Y-148061988D01*
X89740506Y-148061982D01*
X89686819Y-148008295D01*
X89653334Y-147946972D01*
X89650500Y-147920614D01*
X89650500Y-147553858D01*
X89650500Y-147553856D01*
X89626614Y-147464712D01*
X89580470Y-147384788D01*
X88886819Y-146691137D01*
X88853334Y-146629814D01*
X88850500Y-146603456D01*
X88850500Y-146527527D01*
X88850500Y-146527525D01*
X88812984Y-146387515D01*
X88740509Y-146261985D01*
X88638015Y-146159491D01*
X88598372Y-146136603D01*
X88540194Y-146103013D01*
X88540188Y-146103010D01*
X88512485Y-146087016D01*
X88372475Y-146049500D01*
X88227525Y-146049500D01*
X88098993Y-146083940D01*
X88087511Y-146087017D01*
X87961988Y-146159488D01*
X87961982Y-146159493D01*
X87859493Y-146261982D01*
X87859488Y-146261988D01*
X87787017Y-146387511D01*
X87787016Y-146387515D01*
X87749500Y-146527525D01*
X58300500Y-146527525D01*
X58300500Y-145334108D01*
X88299500Y-145334108D01*
X88299500Y-145465891D01*
X88333608Y-145593187D01*
X88360902Y-145640460D01*
X88399500Y-145707314D01*
X88492686Y-145800500D01*
X88547673Y-145832246D01*
X88579102Y-145850393D01*
X88579105Y-145850394D01*
X88606814Y-145866392D01*
X88734108Y-145900500D01*
X88753456Y-145900500D01*
X88820495Y-145920185D01*
X88841137Y-145936819D01*
X89984788Y-147080470D01*
X89984789Y-147080471D01*
X89984791Y-147080472D01*
X90004161Y-147091655D01*
X90054085Y-147120478D01*
X90054087Y-147120480D01*
X90061342Y-147124668D01*
X90064712Y-147126614D01*
X90153856Y-147150500D01*
X91191324Y-147150500D01*
X91258363Y-147170185D01*
X91279005Y-147186819D01*
X91292686Y-147200500D01*
X91406814Y-147266392D01*
X91534108Y-147300500D01*
X91534110Y-147300500D01*
X91665890Y-147300500D01*
X91665892Y-147300500D01*
X91793186Y-147266392D01*
X91907314Y-147200500D01*
X92000500Y-147107314D01*
X92041142Y-147036919D01*
X92091708Y-146988704D01*
X92160315Y-146975480D01*
X92225180Y-147001448D01*
X92236210Y-147011238D01*
X95513181Y-150288209D01*
X95546666Y-150349532D01*
X95549500Y-150375890D01*
X95549500Y-151946062D01*
X95535383Y-151998751D01*
X95536719Y-151999304D01*
X95533609Y-152006812D01*
X95533608Y-152006814D01*
X95499500Y-152134108D01*
X95499500Y-152265892D01*
X95515769Y-152326611D01*
X95533608Y-152393187D01*
X95566554Y-152450250D01*
X95599500Y-152507314D01*
X95692686Y-152600500D01*
X95791521Y-152657563D01*
X95805944Y-152665890D01*
X95806814Y-152666392D01*
X95934108Y-152700500D01*
X95934110Y-152700500D01*
X96065890Y-152700500D01*
X96065892Y-152700500D01*
X96193186Y-152666392D01*
X96307314Y-152600500D01*
X96400500Y-152507314D01*
X96466392Y-152393186D01*
X96500500Y-152265892D01*
X96500500Y-152134108D01*
X96466392Y-152006814D01*
X96466388Y-152006807D01*
X96463281Y-151999304D01*
X96464616Y-151998751D01*
X96450500Y-151946062D01*
X96450500Y-150078618D01*
X96450500Y-150078616D01*
X96419799Y-149964039D01*
X96419799Y-149964038D01*
X96360489Y-149861311D01*
X94520786Y-148021608D01*
X102187000Y-148021608D01*
X102187000Y-148153392D01*
X102199355Y-148199502D01*
X102221108Y-148280687D01*
X102248152Y-148327527D01*
X102287000Y-148394814D01*
X102380186Y-148488000D01*
X102494314Y-148553892D01*
X102621608Y-148588000D01*
X102621610Y-148588000D01*
X102753390Y-148588000D01*
X102753392Y-148588000D01*
X102880686Y-148553892D01*
X102994814Y-148488000D01*
X103088000Y-148394814D01*
X103153892Y-148280686D01*
X103188000Y-148153392D01*
X103188000Y-148134044D01*
X103207685Y-148067005D01*
X103224319Y-148046363D01*
X103686516Y-147584166D01*
X104180470Y-147090212D01*
X104226614Y-147010288D01*
X104231196Y-146993186D01*
X104250500Y-146921144D01*
X104250500Y-146896288D01*
X104252950Y-146884148D01*
X104263691Y-146863750D01*
X104270185Y-146841637D01*
X104285054Y-146823185D01*
X104285506Y-146822327D01*
X104285946Y-146822077D01*
X104286819Y-146820995D01*
X104300500Y-146807314D01*
X104366392Y-146693186D01*
X104400500Y-146565892D01*
X104400500Y-146434108D01*
X104366392Y-146306814D01*
X104300500Y-146192686D01*
X104207314Y-146099500D01*
X104120712Y-146049500D01*
X104093187Y-146033608D01*
X104029539Y-146016554D01*
X103965892Y-145999500D01*
X103834108Y-145999500D01*
X103706812Y-146033608D01*
X103592686Y-146099500D01*
X103592683Y-146099502D01*
X103499502Y-146192683D01*
X103499500Y-146192686D01*
X103433608Y-146306812D01*
X103411984Y-146387515D01*
X103399500Y-146434108D01*
X103399500Y-146565892D01*
X103423328Y-146654818D01*
X103433608Y-146693185D01*
X103433610Y-146693190D01*
X103441860Y-146707479D01*
X103458334Y-146775378D01*
X103435482Y-146841406D01*
X103422155Y-146857161D01*
X102728637Y-147550681D01*
X102667314Y-147584166D01*
X102640956Y-147587000D01*
X102621608Y-147587000D01*
X102494312Y-147621108D01*
X102380186Y-147687000D01*
X102380183Y-147687002D01*
X102287002Y-147780183D01*
X102287000Y-147780186D01*
X102221108Y-147894312D01*
X102190964Y-148006814D01*
X102187000Y-148021608D01*
X94520786Y-148021608D01*
X89906819Y-143407641D01*
X89873334Y-143346318D01*
X89870500Y-143319960D01*
X89870500Y-128553125D01*
X89890185Y-128486086D01*
X89942989Y-128440331D01*
X90012147Y-128430387D01*
X90075703Y-128459412D01*
X90113477Y-128518190D01*
X90114275Y-128521032D01*
X90133608Y-128593187D01*
X90141475Y-128606812D01*
X90199500Y-128707314D01*
X90292686Y-128800500D01*
X90391521Y-128857563D01*
X90405944Y-128865890D01*
X90406814Y-128866392D01*
X90534108Y-128900500D01*
X90534110Y-128900500D01*
X90665890Y-128900500D01*
X90665892Y-128900500D01*
X90793186Y-128866392D01*
X90907314Y-128800500D01*
X91000500Y-128707314D01*
X91066392Y-128593186D01*
X91100500Y-128465892D01*
X91100500Y-128375832D01*
X91120185Y-128308793D01*
X91136819Y-128288151D01*
X91489152Y-127935819D01*
X91550475Y-127902334D01*
X91576833Y-127899500D01*
X95400763Y-127899500D01*
X95467802Y-127919185D01*
X95513557Y-127971989D01*
X95523501Y-128041147D01*
X95520538Y-128055593D01*
X95499500Y-128134108D01*
X95499500Y-128265891D01*
X95533608Y-128393187D01*
X95555086Y-128430387D01*
X95599500Y-128507314D01*
X95599502Y-128507316D01*
X95613181Y-128520995D01*
X95646666Y-128582318D01*
X95649500Y-128608676D01*
X95649500Y-130070500D01*
X95629815Y-130137539D01*
X95577011Y-130183294D01*
X95525500Y-130194500D01*
X92223992Y-130194500D01*
X92180313Y-130199197D01*
X92128825Y-130210397D01*
X92118627Y-130212890D01*
X92118624Y-130212891D01*
X92037916Y-130255899D01*
X92037913Y-130255901D01*
X91985104Y-130301660D01*
X91967160Y-130319242D01*
X91967154Y-130319249D01*
X91922511Y-130399059D01*
X91922509Y-130399064D01*
X91902826Y-130466096D01*
X91902825Y-130466101D01*
X91902825Y-130466102D01*
X91894502Y-130523992D01*
X91894500Y-130524003D01*
X91894500Y-133316047D01*
X91894558Y-133320933D01*
X91894701Y-133326903D01*
X91905963Y-133389252D01*
X91905965Y-133389258D01*
X91928837Y-133455279D01*
X91938501Y-133478476D01*
X91938503Y-133478480D01*
X91996031Y-133549577D01*
X92050965Y-133592751D01*
X92101627Y-133621981D01*
X92816554Y-133907950D01*
X92871486Y-133951123D01*
X92894358Y-134017143D01*
X92894500Y-134023080D01*
X92894500Y-140470500D01*
X92874815Y-140537539D01*
X92822011Y-140583294D01*
X92770500Y-140594500D01*
X91323992Y-140594500D01*
X91280313Y-140599197D01*
X91228825Y-140610397D01*
X91218627Y-140612890D01*
X91218624Y-140612891D01*
X91137916Y-140655899D01*
X91137913Y-140655901D01*
X91085104Y-140701660D01*
X91067160Y-140719242D01*
X91067154Y-140719249D01*
X91022511Y-140799059D01*
X91022509Y-140799064D01*
X91002826Y-140866096D01*
X91002825Y-140866101D01*
X91002825Y-140866102D01*
X90994502Y-140923992D01*
X90994500Y-140924003D01*
X90994500Y-143976007D01*
X90999197Y-144019686D01*
X91010397Y-144071174D01*
X91012890Y-144081372D01*
X91012891Y-144081375D01*
X91055899Y-144162083D01*
X91055901Y-144162086D01*
X91101660Y-144214895D01*
X91119242Y-144232839D01*
X91119246Y-144232843D01*
X91119247Y-144232844D01*
X91119249Y-144232845D01*
X91199059Y-144277488D01*
X91199063Y-144277490D01*
X91266102Y-144297175D01*
X91324000Y-144305500D01*
X91324004Y-144305500D01*
X96575991Y-144305500D01*
X96576000Y-144305500D01*
X96619684Y-144300803D01*
X96648875Y-144294452D01*
X96671174Y-144289602D01*
X96671190Y-144289598D01*
X96671195Y-144289597D01*
X96681373Y-144287110D01*
X96762085Y-144244100D01*
X96814889Y-144198345D01*
X96832843Y-144180754D01*
X96877490Y-144100937D01*
X96897175Y-144033898D01*
X96905500Y-143976000D01*
X96905500Y-142534108D01*
X119699500Y-142534108D01*
X119699500Y-142665892D01*
X119711814Y-142711848D01*
X119733608Y-142793187D01*
X119766554Y-142850250D01*
X119799500Y-142907314D01*
X119892686Y-143000500D01*
X120006814Y-143066392D01*
X120058441Y-143080225D01*
X120118102Y-143116590D01*
X120148631Y-143179437D01*
X120140336Y-143248812D01*
X120095851Y-143302690D01*
X120058442Y-143319774D01*
X120040666Y-143324537D01*
X120006812Y-143333608D01*
X119892686Y-143399500D01*
X119892683Y-143399502D01*
X119799502Y-143492683D01*
X119799500Y-143492686D01*
X119733608Y-143606812D01*
X119717778Y-143665892D01*
X119699500Y-143734108D01*
X119699500Y-143865892D01*
X119716554Y-143929539D01*
X119733608Y-143993187D01*
X119748908Y-144019686D01*
X119799500Y-144107314D01*
X119892686Y-144200500D01*
X120006814Y-144266392D01*
X120134108Y-144300500D01*
X120134110Y-144300500D01*
X120224167Y-144300500D01*
X120291206Y-144320185D01*
X120311848Y-144336819D01*
X122463181Y-146488152D01*
X122496666Y-146549475D01*
X122499500Y-146575833D01*
X122499500Y-147741323D01*
X122479815Y-147808362D01*
X122463182Y-147829004D01*
X122399500Y-147892686D01*
X122333608Y-148006812D01*
X122333211Y-148008295D01*
X122299500Y-148134108D01*
X122299500Y-148265892D01*
X122307159Y-148294477D01*
X122333608Y-148393187D01*
X122334549Y-148394816D01*
X122399500Y-148507314D01*
X122492686Y-148600500D01*
X122591521Y-148657563D01*
X122605944Y-148665890D01*
X122606814Y-148666392D01*
X122734108Y-148700500D01*
X122734110Y-148700500D01*
X122865890Y-148700500D01*
X122865892Y-148700500D01*
X122993186Y-148666392D01*
X123107314Y-148600500D01*
X123200500Y-148507314D01*
X123266392Y-148393186D01*
X123300500Y-148265892D01*
X123300500Y-148134108D01*
X123266392Y-148006814D01*
X123200500Y-147892686D01*
X123136818Y-147829004D01*
X123103334Y-147767680D01*
X123100500Y-147741323D01*
X123100500Y-146360439D01*
X123100500Y-146360438D01*
X123080021Y-146284011D01*
X123077711Y-146280010D01*
X123040464Y-146215495D01*
X123040458Y-146215487D01*
X122648736Y-145823765D01*
X122615251Y-145762442D01*
X122620235Y-145692750D01*
X122662107Y-145636817D01*
X122727571Y-145612400D01*
X122795844Y-145627252D01*
X122811907Y-145637711D01*
X122815494Y-145640464D01*
X122884004Y-145680017D01*
X122884011Y-145680021D01*
X122960438Y-145700500D01*
X123741324Y-145700500D01*
X123808363Y-145720185D01*
X123829005Y-145736819D01*
X123892686Y-145800500D01*
X124006814Y-145866392D01*
X124134108Y-145900500D01*
X124134110Y-145900500D01*
X124265890Y-145900500D01*
X124265892Y-145900500D01*
X124393186Y-145866392D01*
X124507314Y-145800500D01*
X124600500Y-145707314D01*
X124666392Y-145593186D01*
X124700500Y-145465892D01*
X124700500Y-145334108D01*
X124666392Y-145206814D01*
X124600500Y-145092686D01*
X124507314Y-144999500D01*
X124450250Y-144966554D01*
X124393187Y-144933608D01*
X124329539Y-144916554D01*
X124265892Y-144899500D01*
X124134108Y-144899500D01*
X124006812Y-144933608D01*
X123892686Y-144999500D01*
X123892683Y-144999502D01*
X123829005Y-145063181D01*
X123767682Y-145096666D01*
X123741324Y-145099500D01*
X123175833Y-145099500D01*
X123108794Y-145079815D01*
X123088152Y-145063181D01*
X120736819Y-142711848D01*
X120703334Y-142650525D01*
X120700500Y-142624167D01*
X120700500Y-142534110D01*
X120700500Y-142534108D01*
X120666392Y-142406814D01*
X120600500Y-142292686D01*
X120507314Y-142199500D01*
X120450250Y-142166554D01*
X120393187Y-142133608D01*
X120329539Y-142116554D01*
X120265892Y-142099500D01*
X120134108Y-142099500D01*
X120006812Y-142133608D01*
X119892686Y-142199500D01*
X119892683Y-142199502D01*
X119799502Y-142292683D01*
X119799500Y-142292686D01*
X119733608Y-142406812D01*
X119699500Y-142534108D01*
X96905500Y-142534108D01*
X96905500Y-140924000D01*
X96900803Y-140880316D01*
X96896897Y-140862364D01*
X96889602Y-140828825D01*
X96889348Y-140827789D01*
X96887110Y-140818627D01*
X96844100Y-140737915D01*
X96798345Y-140685111D01*
X96780754Y-140667157D01*
X96732398Y-140640108D01*
X102705300Y-140640108D01*
X102705300Y-140771892D01*
X102718331Y-140820525D01*
X102739408Y-140899187D01*
X102759570Y-140934108D01*
X102805300Y-141013314D01*
X102898486Y-141106500D01*
X103012614Y-141172392D01*
X103139908Y-141206500D01*
X103139910Y-141206500D01*
X103271690Y-141206500D01*
X103271692Y-141206500D01*
X103398986Y-141172392D01*
X103513114Y-141106500D01*
X103576795Y-141042819D01*
X103638118Y-141009334D01*
X103664476Y-141006500D01*
X104550716Y-141006500D01*
X104617755Y-141026185D01*
X104658102Y-141068499D01*
X104684900Y-141114914D01*
X104778086Y-141208100D01*
X104892214Y-141273992D01*
X105019508Y-141308100D01*
X105019510Y-141308100D01*
X105151290Y-141308100D01*
X105151292Y-141308100D01*
X105278586Y-141273992D01*
X105392714Y-141208100D01*
X105485900Y-141114914D01*
X105551792Y-141000786D01*
X105585900Y-140873492D01*
X105585900Y-140741708D01*
X105551792Y-140614414D01*
X105545417Y-140603373D01*
X105533825Y-140583294D01*
X105485900Y-140500286D01*
X105392714Y-140407100D01*
X105327037Y-140369181D01*
X105278587Y-140341208D01*
X105214939Y-140324154D01*
X105151292Y-140307100D01*
X105019508Y-140307100D01*
X104892214Y-140341208D01*
X104892211Y-140341209D01*
X104843763Y-140369181D01*
X104814953Y-140385815D01*
X104809632Y-140388887D01*
X104747632Y-140405500D01*
X103664476Y-140405500D01*
X103597437Y-140385815D01*
X103576795Y-140369181D01*
X103513116Y-140305502D01*
X103513114Y-140305500D01*
X103455908Y-140272472D01*
X103398987Y-140239608D01*
X103335339Y-140222554D01*
X103271692Y-140205500D01*
X103139908Y-140205500D01*
X103012612Y-140239608D01*
X102898486Y-140305500D01*
X102898483Y-140305502D01*
X102805302Y-140398683D01*
X102805300Y-140398686D01*
X102739408Y-140512812D01*
X102713892Y-140608042D01*
X102705300Y-140640108D01*
X96732398Y-140640108D01*
X96700937Y-140622510D01*
X96675163Y-140614941D01*
X96658573Y-140603373D01*
X96648850Y-140591257D01*
X96635781Y-140582857D01*
X96627427Y-140564562D01*
X96614843Y-140548880D01*
X96613213Y-140533431D01*
X96606761Y-140519299D01*
X96605500Y-140501661D01*
X96605500Y-134106803D01*
X96625185Y-134039764D01*
X96677989Y-133994009D01*
X96720666Y-133983118D01*
X98099477Y-133884633D01*
X98113101Y-133882425D01*
X98135650Y-133878773D01*
X98178326Y-133867882D01*
X98181373Y-133867080D01*
X98262085Y-133824070D01*
X98314889Y-133778315D01*
X98332843Y-133760724D01*
X98377490Y-133680907D01*
X98397175Y-133613868D01*
X98405500Y-133555970D01*
X98405500Y-130524000D01*
X98400803Y-130480316D01*
X98396897Y-130462364D01*
X98389602Y-130428825D01*
X98389348Y-130427789D01*
X98387110Y-130418627D01*
X98344100Y-130337915D01*
X98298345Y-130285111D01*
X98298339Y-130285104D01*
X98280757Y-130267160D01*
X98280756Y-130267159D01*
X98280754Y-130267157D01*
X98280752Y-130267156D01*
X98280750Y-130267154D01*
X98200940Y-130222511D01*
X98200935Y-130222509D01*
X98133903Y-130202826D01*
X98133899Y-130202825D01*
X98133898Y-130202825D01*
X98076000Y-130194500D01*
X98075996Y-130194500D01*
X96474500Y-130194500D01*
X96407461Y-130174815D01*
X96361706Y-130122011D01*
X96350500Y-130070500D01*
X96350500Y-128608676D01*
X96370185Y-128541637D01*
X96386819Y-128520995D01*
X96389624Y-128518190D01*
X96400500Y-128507314D01*
X96466392Y-128393186D01*
X96500500Y-128265892D01*
X96500500Y-128134108D01*
X96479462Y-128055592D01*
X96481125Y-127985743D01*
X96520288Y-127927881D01*
X96584516Y-127900377D01*
X96599237Y-127899500D01*
X101814531Y-127899500D01*
X101881570Y-127919185D01*
X101902212Y-127935819D01*
X104545350Y-130578957D01*
X104578835Y-130640280D01*
X104573851Y-130709972D01*
X104531979Y-130765905D01*
X104495003Y-130783869D01*
X104495019Y-130783908D01*
X104494373Y-130784175D01*
X104489776Y-130786409D01*
X104487520Y-130787013D01*
X104487511Y-130787017D01*
X104361988Y-130859488D01*
X104361982Y-130859493D01*
X104259493Y-130961982D01*
X104259488Y-130961988D01*
X104187017Y-131087511D01*
X104187016Y-131087515D01*
X104149500Y-131227525D01*
X104149500Y-131372475D01*
X104185067Y-131505211D01*
X104187017Y-131512488D01*
X104259488Y-131638011D01*
X104259493Y-131638017D01*
X104313181Y-131691705D01*
X104346666Y-131753028D01*
X104349500Y-131779386D01*
X104349500Y-132346145D01*
X104369417Y-132420478D01*
X104373385Y-132435286D01*
X104373387Y-132435291D01*
X104419527Y-132515208D01*
X104419529Y-132515211D01*
X104419530Y-132515212D01*
X112454812Y-140550494D01*
X112474199Y-140561687D01*
X112474200Y-140561688D01*
X112534731Y-140596636D01*
X112534732Y-140596636D01*
X112534737Y-140596639D01*
X112623881Y-140620525D01*
X115250590Y-140620525D01*
X115317629Y-140640210D01*
X115338271Y-140656844D01*
X115391961Y-140710534D01*
X115391962Y-140710535D01*
X115391964Y-140710536D01*
X115517487Y-140783007D01*
X115517488Y-140783007D01*
X115517491Y-140783009D01*
X115657501Y-140820525D01*
X115657504Y-140820525D01*
X115802448Y-140820525D01*
X115802451Y-140820525D01*
X115942461Y-140783009D01*
X116067991Y-140710534D01*
X116170485Y-140608040D01*
X116242960Y-140482510D01*
X116280476Y-140342500D01*
X116280476Y-140197550D01*
X116242960Y-140057540D01*
X116170485Y-139932010D01*
X116067991Y-139829516D01*
X116067989Y-139829515D01*
X116067987Y-139829513D01*
X115942464Y-139757042D01*
X115942465Y-139757042D01*
X115937269Y-139755650D01*
X115894814Y-139744273D01*
X115878358Y-139734243D01*
X115859871Y-139728815D01*
X115849145Y-139716437D01*
X115835156Y-139707910D01*
X115826734Y-139690573D01*
X115814116Y-139676011D01*
X115811784Y-139659798D01*
X115804627Y-139645063D01*
X115806914Y-139625928D01*
X115804172Y-139606853D01*
X115810977Y-139591951D01*
X115812922Y-139575687D01*
X115825191Y-139560827D01*
X115833197Y-139543297D01*
X115846977Y-139534441D01*
X115857407Y-139521809D01*
X115875764Y-139515940D01*
X115891975Y-139505523D01*
X115921745Y-139501242D01*
X115923959Y-139500535D01*
X115926910Y-139500500D01*
X116156324Y-139500500D01*
X116223363Y-139520185D01*
X116244005Y-139536819D01*
X116307686Y-139600500D01*
X116421814Y-139666392D01*
X116549108Y-139700500D01*
X116549110Y-139700500D01*
X116680890Y-139700500D01*
X116680892Y-139700500D01*
X116808186Y-139666392D01*
X116922314Y-139600500D01*
X117015500Y-139507314D01*
X117081392Y-139393186D01*
X117115500Y-139265892D01*
X117115500Y-139134108D01*
X117081392Y-139006814D01*
X117015500Y-138892686D01*
X116922314Y-138799500D01*
X116865250Y-138766554D01*
X116808187Y-138733608D01*
X116744539Y-138716554D01*
X116680892Y-138699500D01*
X116549108Y-138699500D01*
X116421812Y-138733608D01*
X116307686Y-138799500D01*
X116307683Y-138799502D01*
X116244005Y-138863181D01*
X116182682Y-138896666D01*
X116156324Y-138899500D01*
X113198166Y-138899500D01*
X113131127Y-138879815D01*
X113110485Y-138863181D01*
X112604347Y-138357043D01*
X112570862Y-138295720D01*
X112575846Y-138226028D01*
X112617718Y-138170095D01*
X112683182Y-138145678D01*
X112724124Y-138149588D01*
X112727525Y-138150500D01*
X112727527Y-138150500D01*
X112872472Y-138150500D01*
X112872475Y-138150500D01*
X113012485Y-138112984D01*
X113138015Y-138040509D01*
X113240509Y-137938015D01*
X113312984Y-137812485D01*
X113312986Y-137812475D01*
X113313569Y-137811069D01*
X113314391Y-137810047D01*
X113317048Y-137805447D01*
X113317764Y-137805860D01*
X113357403Y-137756660D01*
X113423694Y-137734586D01*
X113491395Y-137751855D01*
X113535524Y-137796505D01*
X113599500Y-137907314D01*
X113692686Y-138000500D01*
X113806814Y-138066392D01*
X113934108Y-138100500D01*
X113934110Y-138100500D01*
X114065890Y-138100500D01*
X114065892Y-138100500D01*
X114193186Y-138066392D01*
X114307314Y-138000500D01*
X114400500Y-137907314D01*
X114466392Y-137793186D01*
X114500500Y-137665892D01*
X114500500Y-137534108D01*
X114466392Y-137406814D01*
X114466389Y-137406808D01*
X114463821Y-137402359D01*
X114447350Y-137334458D01*
X114470203Y-137268432D01*
X114525125Y-137225242D01*
X114594679Y-137218602D01*
X114617986Y-137225523D01*
X117401036Y-138359359D01*
X120399958Y-139581143D01*
X120399980Y-139581151D01*
X120418033Y-139586540D01*
X120437998Y-139592502D01*
X120484773Y-139601665D01*
X120484776Y-139601666D01*
X120484779Y-139601666D01*
X120484783Y-139601667D01*
X120524289Y-139605500D01*
X120524294Y-139605500D01*
X125375991Y-139605500D01*
X125376000Y-139605500D01*
X125419684Y-139600803D01*
X125448875Y-139594452D01*
X125471174Y-139589602D01*
X125471190Y-139589598D01*
X125471195Y-139589597D01*
X125481373Y-139587110D01*
X125562085Y-139544100D01*
X125614889Y-139498345D01*
X125632843Y-139480754D01*
X125677490Y-139400937D01*
X125697175Y-139333898D01*
X125705500Y-139276000D01*
X125705500Y-133722440D01*
X125701076Y-133680029D01*
X125690513Y-133629949D01*
X125688419Y-133621013D01*
X125646434Y-133539763D01*
X125601351Y-133486384D01*
X125601348Y-133486381D01*
X125601326Y-133486357D01*
X125583988Y-133468208D01*
X125583987Y-133468207D01*
X125583986Y-133468206D01*
X125504740Y-133422553D01*
X125437955Y-133402022D01*
X125380170Y-133392966D01*
X125380168Y-133392965D01*
X125380163Y-133392965D01*
X115442694Y-133267174D01*
X115375910Y-133246643D01*
X115330827Y-133193264D01*
X115321759Y-133123985D01*
X115351586Y-133060802D01*
X115384203Y-133034701D01*
X125535582Y-127415189D01*
X125576522Y-127385395D01*
X125620782Y-127343947D01*
X125632843Y-127331665D01*
X125677490Y-127251848D01*
X125697175Y-127184809D01*
X125705500Y-127126911D01*
X125705500Y-126118310D01*
X125725185Y-126051271D01*
X125777989Y-126005516D01*
X125847147Y-125995572D01*
X125910703Y-126024597D01*
X125944061Y-126070857D01*
X125996558Y-126197596D01*
X126111524Y-126369657D01*
X126257842Y-126515975D01*
X126257845Y-126515977D01*
X126429902Y-126630941D01*
X126621080Y-126710130D01*
X126765552Y-126738867D01*
X126824030Y-126750499D01*
X126824034Y-126750500D01*
X126824035Y-126750500D01*
X127030966Y-126750500D01*
X127030967Y-126750499D01*
X127233920Y-126710130D01*
X127425098Y-126630941D01*
X127597155Y-126515977D01*
X127743477Y-126369655D01*
X127858441Y-126197598D01*
X127937630Y-126006420D01*
X127978000Y-125803465D01*
X127978000Y-125596535D01*
X127937630Y-125393580D01*
X127858441Y-125202402D01*
X127743477Y-125030345D01*
X127743475Y-125030342D01*
X127597157Y-124884024D01*
X127429155Y-124771770D01*
X127425098Y-124769059D01*
X127408179Y-124762051D01*
X127233920Y-124689870D01*
X127233912Y-124689868D01*
X127030969Y-124649500D01*
X127030965Y-124649500D01*
X126824035Y-124649500D01*
X126824030Y-124649500D01*
X126621087Y-124689868D01*
X126621079Y-124689870D01*
X126429903Y-124769058D01*
X126257842Y-124884024D01*
X126111524Y-125030342D01*
X125996557Y-125202403D01*
X125944061Y-125329142D01*
X125900220Y-125383545D01*
X125833926Y-125405610D01*
X125766226Y-125388331D01*
X125718616Y-125337193D01*
X125705500Y-125281689D01*
X125705500Y-124124008D01*
X125705499Y-124123992D01*
X125702042Y-124091840D01*
X125700803Y-124080316D01*
X125696897Y-124062364D01*
X125689602Y-124028825D01*
X125689348Y-124027789D01*
X125687110Y-124018627D01*
X125644100Y-123937915D01*
X125598345Y-123885111D01*
X125598339Y-123885104D01*
X125580757Y-123867160D01*
X125580756Y-123867159D01*
X125580754Y-123867157D01*
X125580752Y-123867156D01*
X125580750Y-123867154D01*
X125500940Y-123822511D01*
X125500935Y-123822509D01*
X125433903Y-123802826D01*
X125433899Y-123802825D01*
X125433898Y-123802825D01*
X125376000Y-123794500D01*
X122734345Y-123794500D01*
X122734339Y-123794500D01*
X122679497Y-123801954D01*
X122679494Y-123801955D01*
X122615696Y-123819625D01*
X122564819Y-123841454D01*
X119639687Y-125596535D01*
X117260938Y-127023785D01*
X109654480Y-131587658D01*
X109617147Y-131616347D01*
X109617143Y-131616350D01*
X109576614Y-131655651D01*
X109567160Y-131665448D01*
X109567155Y-131665455D01*
X109522512Y-131745266D01*
X109522509Y-131745271D01*
X109502826Y-131812303D01*
X109502825Y-131812308D01*
X109502825Y-131812309D01*
X109494501Y-131870205D01*
X109494500Y-131870210D01*
X109494500Y-133229166D01*
X109474815Y-133296205D01*
X109459927Y-133314681D01*
X109458535Y-133316496D01*
X109418982Y-133385004D01*
X109418979Y-133385009D01*
X109408919Y-133422553D01*
X109400151Y-133455279D01*
X109398500Y-133461439D01*
X109398500Y-134317261D01*
X109378815Y-134384300D01*
X109326011Y-134430055D01*
X109256853Y-134439999D01*
X109193297Y-134410974D01*
X109186819Y-134404942D01*
X107946846Y-133164969D01*
X107913361Y-133103646D01*
X107910527Y-133077288D01*
X107910527Y-131002054D01*
X107930212Y-130935015D01*
X107946846Y-130914373D01*
X108000536Y-130860683D01*
X108073011Y-130735153D01*
X108110527Y-130595143D01*
X108110527Y-130450193D01*
X108073011Y-130310183D01*
X108068090Y-130301660D01*
X108000538Y-130184656D01*
X108000533Y-130184650D01*
X107898044Y-130082161D01*
X107898038Y-130082156D01*
X107772515Y-130009685D01*
X107772516Y-130009685D01*
X107761033Y-130006608D01*
X107632502Y-129972168D01*
X107487552Y-129972168D01*
X107359020Y-130006608D01*
X107347538Y-130009685D01*
X107222015Y-130082156D01*
X107222009Y-130082161D01*
X107119520Y-130184650D01*
X107119515Y-130184656D01*
X107047044Y-130310179D01*
X107047043Y-130310183D01*
X107009527Y-130450193D01*
X107009527Y-130595143D01*
X107034145Y-130687016D01*
X107047044Y-130735156D01*
X107119515Y-130860679D01*
X107119520Y-130860685D01*
X107173208Y-130914373D01*
X107206693Y-130975696D01*
X107209527Y-131002054D01*
X107209527Y-132093830D01*
X107189842Y-132160869D01*
X107137038Y-132206624D01*
X107067880Y-132216568D01*
X107004324Y-132187543D01*
X106997846Y-132181511D01*
X102174874Y-127358539D01*
X102162237Y-127351243D01*
X102149599Y-127343947D01*
X102125747Y-127330176D01*
X102106355Y-127318980D01*
X102106354Y-127318979D01*
X102080877Y-127312152D01*
X102029926Y-127298500D01*
X91361438Y-127298500D01*
X91323224Y-127308739D01*
X91285009Y-127318979D01*
X91285008Y-127318980D01*
X91263038Y-127331665D01*
X91241765Y-127343947D01*
X91234255Y-127348282D01*
X91216489Y-127358539D01*
X90711847Y-127863181D01*
X90650524Y-127896666D01*
X90624166Y-127899500D01*
X90534108Y-127899500D01*
X90406812Y-127933608D01*
X90292686Y-127999500D01*
X90292683Y-127999502D01*
X90199502Y-128092683D01*
X90199500Y-128092686D01*
X90133608Y-128206814D01*
X90114275Y-128278968D01*
X90077910Y-128338628D01*
X90015063Y-128369157D01*
X89945687Y-128360862D01*
X89891809Y-128316377D01*
X89870535Y-128249825D01*
X89870500Y-128246874D01*
X89870500Y-124768556D01*
X89890185Y-124701517D01*
X89925610Y-124665454D01*
X90013002Y-124607060D01*
X90057782Y-124577139D01*
X90197139Y-124437782D01*
X90306632Y-124273914D01*
X90326044Y-124227046D01*
X90369884Y-124172645D01*
X90436178Y-124150579D01*
X90440605Y-124150500D01*
X107846142Y-124150500D01*
X107846144Y-124150500D01*
X107935288Y-124126614D01*
X108015212Y-124080470D01*
X108108863Y-123986819D01*
X108135790Y-123972115D01*
X108161609Y-123955523D01*
X108167809Y-123954631D01*
X108170186Y-123953334D01*
X108196544Y-123950500D01*
X108391324Y-123950500D01*
X108458363Y-123970185D01*
X108479005Y-123986819D01*
X108492686Y-124000500D01*
X108591521Y-124057563D01*
X108606311Y-124066102D01*
X108606814Y-124066392D01*
X108734108Y-124100500D01*
X108734110Y-124100500D01*
X108865890Y-124100500D01*
X108865892Y-124100500D01*
X108993186Y-124066392D01*
X109107314Y-124000500D01*
X109200500Y-123907314D01*
X109266392Y-123793186D01*
X109300500Y-123665892D01*
X109300500Y-123534108D01*
X109266392Y-123406814D01*
X109200500Y-123292686D01*
X109107314Y-123199500D01*
X109042733Y-123162214D01*
X108993187Y-123133608D01*
X108929539Y-123116554D01*
X108865892Y-123099500D01*
X108734108Y-123099500D01*
X108606812Y-123133608D01*
X108492686Y-123199500D01*
X108492683Y-123199502D01*
X108479005Y-123213181D01*
X108417682Y-123246666D01*
X108391324Y-123249500D01*
X107953856Y-123249500D01*
X107864712Y-123273386D01*
X107864709Y-123273387D01*
X107784791Y-123319527D01*
X107784786Y-123319531D01*
X107691137Y-123413181D01*
X107629814Y-123446666D01*
X107603456Y-123449500D01*
X90440605Y-123449500D01*
X90373566Y-123429815D01*
X90327811Y-123377011D01*
X90326060Y-123372990D01*
X90306632Y-123326086D01*
X90255459Y-123249500D01*
X90197139Y-123162217D01*
X90057785Y-123022863D01*
X90057781Y-123022860D01*
X89893920Y-122913371D01*
X89893907Y-122913364D01*
X89711839Y-122837950D01*
X89711829Y-122837947D01*
X89518543Y-122799500D01*
X89518541Y-122799500D01*
X89321459Y-122799500D01*
X89321457Y-122799500D01*
X89128170Y-122837947D01*
X89128160Y-122837950D01*
X88946092Y-122913364D01*
X88946079Y-122913371D01*
X88782218Y-123022860D01*
X88782214Y-123022863D01*
X88642863Y-123162214D01*
X88642860Y-123162218D01*
X88533371Y-123326079D01*
X88533364Y-123326092D01*
X88457950Y-123508160D01*
X88457947Y-123508170D01*
X88419500Y-123701456D01*
X88419500Y-123701459D01*
X88419500Y-123898541D01*
X88419500Y-123898543D01*
X88419499Y-123898543D01*
X88457947Y-124091829D01*
X88457950Y-124091839D01*
X88533364Y-124273907D01*
X88533371Y-124273920D01*
X88642860Y-124437781D01*
X88642863Y-124437785D01*
X88782214Y-124577136D01*
X88782222Y-124577142D01*
X88914390Y-124665454D01*
X88959196Y-124719066D01*
X88969500Y-124768556D01*
X88969500Y-143617235D01*
X88982537Y-143665892D01*
X88982538Y-143665892D01*
X89000201Y-143731812D01*
X89059511Y-143834539D01*
X89059513Y-143834541D01*
X91388761Y-146163789D01*
X91398731Y-146182048D01*
X91412703Y-146197467D01*
X91415138Y-146212096D01*
X91422246Y-146225112D01*
X91420761Y-146245865D01*
X91424179Y-146266388D01*
X91418319Y-146280010D01*
X91417262Y-146294804D01*
X91404793Y-146311459D01*
X91396573Y-146330572D01*
X91380021Y-146344550D01*
X91375390Y-146350737D01*
X91370419Y-146354271D01*
X91366819Y-146356699D01*
X91292686Y-146399500D01*
X91270561Y-146421624D01*
X91260663Y-146428301D01*
X91238288Y-146435413D01*
X91217682Y-146446666D01*
X91195336Y-146449068D01*
X91194077Y-146449469D01*
X91193374Y-146449279D01*
X91191324Y-146449500D01*
X90396544Y-146449500D01*
X90329505Y-146429815D01*
X90308863Y-146413181D01*
X89336819Y-145441137D01*
X89303334Y-145379814D01*
X89300500Y-145353456D01*
X89300500Y-145334110D01*
X89300500Y-145334108D01*
X89266392Y-145206814D01*
X89200500Y-145092686D01*
X89107314Y-144999500D01*
X89050250Y-144966554D01*
X88993187Y-144933608D01*
X88929539Y-144916554D01*
X88865892Y-144899500D01*
X88734108Y-144899500D01*
X88606812Y-144933608D01*
X88492686Y-144999500D01*
X88492683Y-144999502D01*
X88399502Y-145092683D01*
X88399500Y-145092686D01*
X88333608Y-145206812D01*
X88299500Y-145334108D01*
X58300500Y-145334108D01*
X58300500Y-124830247D01*
X63949500Y-124830247D01*
X63949500Y-126569752D01*
X63961131Y-126628229D01*
X63961132Y-126628230D01*
X64005447Y-126694552D01*
X64071769Y-126738867D01*
X64071770Y-126738868D01*
X64130247Y-126750499D01*
X64130250Y-126750500D01*
X64130252Y-126750500D01*
X65869750Y-126750500D01*
X65869751Y-126750499D01*
X65884568Y-126747552D01*
X65928229Y-126738868D01*
X65928229Y-126738867D01*
X65928231Y-126738867D01*
X65994552Y-126694552D01*
X65994551Y-126694552D01*
X66001609Y-126689837D01*
X66068286Y-126668959D01*
X66135666Y-126687443D01*
X66182357Y-126739422D01*
X66194500Y-126792939D01*
X66194500Y-127126911D01*
X66197335Y-127149749D01*
X66200737Y-127177162D01*
X66215561Y-127235950D01*
X66220466Y-127252450D01*
X66220468Y-127252454D01*
X66220469Y-127252458D01*
X66242142Y-127287398D01*
X66268676Y-127330174D01*
X66268678Y-127330176D01*
X66317797Y-127379866D01*
X66364418Y-127415189D01*
X76515790Y-133034698D01*
X76564908Y-133084387D01*
X76579365Y-133152745D01*
X76554570Y-133218067D01*
X76498395Y-133259614D01*
X76457304Y-133267174D01*
X72395958Y-133318584D01*
X72328674Y-133299750D01*
X72282255Y-133247529D01*
X72271437Y-133178502D01*
X72274609Y-133162517D01*
X72300500Y-133065892D01*
X72300500Y-132934108D01*
X72266392Y-132806814D01*
X72200500Y-132692686D01*
X72107314Y-132599500D01*
X72050250Y-132566554D01*
X71993187Y-132533608D01*
X71924534Y-132515213D01*
X71865892Y-132499500D01*
X71734108Y-132499500D01*
X71606812Y-132533608D01*
X71492686Y-132599500D01*
X71492683Y-132599502D01*
X71429005Y-132663181D01*
X71367682Y-132696666D01*
X71341324Y-132699500D01*
X67360438Y-132699500D01*
X67322224Y-132709739D01*
X67284009Y-132719979D01*
X67254642Y-132736935D01*
X67239958Y-132745413D01*
X67232687Y-132749610D01*
X67215489Y-132759539D01*
X65711847Y-134263181D01*
X65650524Y-134296666D01*
X65624166Y-134299500D01*
X65534108Y-134299500D01*
X65406812Y-134333608D01*
X65292686Y-134399500D01*
X65292683Y-134399502D01*
X65199502Y-134492683D01*
X65199500Y-134492686D01*
X65133608Y-134606812D01*
X65099500Y-134734108D01*
X65099500Y-134865891D01*
X65133608Y-134993187D01*
X65166554Y-135050250D01*
X65199500Y-135107314D01*
X65292686Y-135200500D01*
X65406814Y-135266392D01*
X65534108Y-135300500D01*
X65534110Y-135300500D01*
X65665890Y-135300500D01*
X65665892Y-135300500D01*
X65793186Y-135266392D01*
X65907314Y-135200500D01*
X65982819Y-135124995D01*
X66044142Y-135091510D01*
X66113834Y-135096494D01*
X66169767Y-135138366D01*
X66194184Y-135203830D01*
X66194500Y-135212676D01*
X66194500Y-139276007D01*
X66199197Y-139319686D01*
X66210397Y-139371174D01*
X66212890Y-139381372D01*
X66212891Y-139381375D01*
X66255899Y-139462083D01*
X66255901Y-139462086D01*
X66301660Y-139514895D01*
X66308435Y-139521809D01*
X66319246Y-139532843D01*
X66319247Y-139532844D01*
X66319249Y-139532845D01*
X66399059Y-139577488D01*
X66399063Y-139577490D01*
X66466102Y-139597175D01*
X66524000Y-139605500D01*
X66524004Y-139605500D01*
X71375706Y-139605500D01*
X71375711Y-139605500D01*
X71415217Y-139601667D01*
X71415221Y-139601666D01*
X71415223Y-139601666D01*
X71415224Y-139601665D01*
X71462002Y-139592502D01*
X71489499Y-139584291D01*
X71500019Y-139581151D01*
X71500025Y-139581148D01*
X71500031Y-139581147D01*
X71549908Y-139560827D01*
X72597308Y-139134108D01*
X77775028Y-137024664D01*
X77821593Y-137019932D01*
X77839667Y-137000051D01*
X77852406Y-136993626D01*
X77853293Y-136992866D01*
X77854738Y-136992449D01*
X77857414Y-136991100D01*
X78177250Y-136860796D01*
X78246760Y-136853732D01*
X78309056Y-136885371D01*
X78344358Y-136945666D01*
X78341457Y-137015476D01*
X78311715Y-137063313D01*
X78211845Y-137163182D01*
X78192131Y-137173946D01*
X78175077Y-137188567D01*
X78159056Y-137192007D01*
X78150525Y-137196666D01*
X78141160Y-137198330D01*
X78132704Y-137199500D01*
X78034108Y-137199500D01*
X77928844Y-137227705D01*
X77921198Y-137228763D01*
X77906081Y-137226507D01*
X77899055Y-137236503D01*
X77883813Y-137246886D01*
X77792692Y-137299496D01*
X77792683Y-137299502D01*
X77699502Y-137392683D01*
X77699500Y-137392686D01*
X77633608Y-137506812D01*
X77626294Y-137534110D01*
X77599500Y-137634108D01*
X77599500Y-137765892D01*
X77611987Y-137812496D01*
X77633608Y-137893187D01*
X77643927Y-137911059D01*
X77699500Y-138007314D01*
X77792686Y-138100500D01*
X77906814Y-138166392D01*
X78034108Y-138200500D01*
X78034110Y-138200500D01*
X78165890Y-138200500D01*
X78165892Y-138200500D01*
X78293186Y-138166392D01*
X78407314Y-138100500D01*
X78500500Y-138007314D01*
X78564475Y-137896505D01*
X78615042Y-137848290D01*
X78683649Y-137835067D01*
X78748514Y-137861035D01*
X78782409Y-137905760D01*
X78782952Y-137905447D01*
X78785447Y-137909768D01*
X78786425Y-137911059D01*
X78787015Y-137912485D01*
X78859488Y-138038011D01*
X78859490Y-138038013D01*
X78859491Y-138038015D01*
X78961985Y-138140509D01*
X78961986Y-138140510D01*
X78961988Y-138140511D01*
X79087511Y-138212982D01*
X79087512Y-138212982D01*
X79087515Y-138212984D01*
X79227525Y-138250500D01*
X79227528Y-138250500D01*
X79372472Y-138250500D01*
X79372475Y-138250500D01*
X79512485Y-138212984D01*
X79593166Y-138166402D01*
X79661064Y-138149930D01*
X79727091Y-138172782D01*
X79770282Y-138227703D01*
X79776924Y-138297256D01*
X79744909Y-138359359D01*
X79742846Y-138361471D01*
X79491137Y-138613181D01*
X79429814Y-138646666D01*
X79403456Y-138649500D01*
X78153856Y-138649500D01*
X78064712Y-138673386D01*
X78064711Y-138673386D01*
X78064709Y-138673387D01*
X78064706Y-138673388D01*
X77984794Y-138719526D01*
X77984785Y-138719533D01*
X77091137Y-139613181D01*
X77029814Y-139646666D01*
X77003456Y-139649500D01*
X76927525Y-139649500D01*
X76828586Y-139676011D01*
X76787511Y-139687017D01*
X76661988Y-139759488D01*
X76661982Y-139759493D01*
X76559493Y-139861982D01*
X76559488Y-139861988D01*
X76487017Y-139987511D01*
X76487016Y-139987515D01*
X76449500Y-140127525D01*
X76449500Y-140272475D01*
X76468506Y-140343409D01*
X76466844Y-140413256D01*
X76427682Y-140471118D01*
X76363454Y-140498623D01*
X76348732Y-140499500D01*
X76234108Y-140499500D01*
X76106812Y-140533608D01*
X75992686Y-140599500D01*
X75992683Y-140599502D01*
X75899502Y-140692683D01*
X75899500Y-140692686D01*
X75833608Y-140806812D01*
X75799500Y-140934107D01*
X75798502Y-140941690D01*
X75770233Y-141005585D01*
X75711907Y-141044054D01*
X75675563Y-141049500D01*
X73808676Y-141049500D01*
X73741637Y-141029815D01*
X73720995Y-141013181D01*
X73707316Y-140999502D01*
X73707314Y-140999500D01*
X73650250Y-140966554D01*
X73593187Y-140933608D01*
X73471680Y-140901051D01*
X73465892Y-140899500D01*
X73334108Y-140899500D01*
X73206812Y-140933608D01*
X73092686Y-140999500D01*
X73092683Y-140999502D01*
X72999502Y-141092683D01*
X72999500Y-141092686D01*
X72933608Y-141206812D01*
X72899500Y-141334108D01*
X72899500Y-141465891D01*
X72933608Y-141593187D01*
X72966554Y-141650250D01*
X72999500Y-141707314D01*
X73092686Y-141800500D01*
X73206814Y-141866392D01*
X73334108Y-141900500D01*
X73334110Y-141900500D01*
X73465890Y-141900500D01*
X73465892Y-141900500D01*
X73593186Y-141866392D01*
X73707314Y-141800500D01*
X73720995Y-141786819D01*
X73782318Y-141753334D01*
X73808676Y-141750500D01*
X76653856Y-141750500D01*
X78191324Y-141750500D01*
X78258363Y-141770185D01*
X78279005Y-141786819D01*
X78292686Y-141800500D01*
X78406814Y-141866392D01*
X78534108Y-141900500D01*
X78534110Y-141900500D01*
X78665890Y-141900500D01*
X78665892Y-141900500D01*
X78793186Y-141866392D01*
X78907314Y-141800500D01*
X79000500Y-141707314D01*
X79066392Y-141593186D01*
X79100500Y-141465892D01*
X79100500Y-141334108D01*
X79066392Y-141206814D01*
X79000500Y-141092686D01*
X78907314Y-140999500D01*
X78850250Y-140966554D01*
X78793187Y-140933608D01*
X78671680Y-140901051D01*
X78665892Y-140899500D01*
X78534108Y-140899500D01*
X78406812Y-140933608D01*
X78292686Y-140999500D01*
X78292683Y-140999502D01*
X78279005Y-141013181D01*
X78217682Y-141046666D01*
X78191324Y-141049500D01*
X76924437Y-141049500D01*
X76895506Y-141041005D01*
X76865983Y-141034858D01*
X76862320Y-141031260D01*
X76857398Y-141029815D01*
X76837656Y-141007032D01*
X76816139Y-140985895D01*
X76814157Y-140979913D01*
X76811643Y-140977011D01*
X76803511Y-140952938D01*
X76800500Y-140939667D01*
X76800500Y-140934108D01*
X76792265Y-140903377D01*
X76791738Y-140901051D01*
X76793775Y-140868481D01*
X76794552Y-140835858D01*
X76795944Y-140833800D01*
X76796100Y-140831317D01*
X76815433Y-140805005D01*
X76833714Y-140777995D01*
X76835998Y-140777016D01*
X76837471Y-140775013D01*
X76867941Y-140763337D01*
X76897942Y-140750490D01*
X76901415Y-140750510D01*
X76902715Y-140750013D01*
X76905215Y-140750533D01*
X76919398Y-140750618D01*
X76919398Y-140750500D01*
X77072472Y-140750500D01*
X77072475Y-140750500D01*
X77212485Y-140712984D01*
X77338015Y-140640509D01*
X77440509Y-140538015D01*
X77512984Y-140412485D01*
X77550500Y-140272475D01*
X77550500Y-140196543D01*
X77570185Y-140129504D01*
X77586819Y-140108862D01*
X78308862Y-139386819D01*
X78370185Y-139353334D01*
X78396543Y-139350500D01*
X79646142Y-139350500D01*
X79646144Y-139350500D01*
X79735288Y-139326614D01*
X79753691Y-139315989D01*
X79815212Y-139280470D01*
X87308863Y-131786819D01*
X87370186Y-131753334D01*
X87396544Y-131750500D01*
X87472472Y-131750500D01*
X87472475Y-131750500D01*
X87612485Y-131712984D01*
X87738015Y-131640509D01*
X87840509Y-131538015D01*
X87912984Y-131412485D01*
X87950500Y-131272475D01*
X87950500Y-131127525D01*
X87912984Y-130987515D01*
X87906160Y-130975696D01*
X87840511Y-130861988D01*
X87840506Y-130861982D01*
X87738017Y-130759493D01*
X87738011Y-130759488D01*
X87612488Y-130687017D01*
X87612489Y-130687017D01*
X87601006Y-130683940D01*
X87472475Y-130649500D01*
X87327525Y-130649500D01*
X87198993Y-130683940D01*
X87187511Y-130687017D01*
X87061988Y-130759488D01*
X87061982Y-130759493D01*
X86959493Y-130861982D01*
X86959488Y-130861988D01*
X86887017Y-130987511D01*
X86887016Y-130987515D01*
X86849500Y-131127525D01*
X86849500Y-131127527D01*
X86849500Y-131203455D01*
X86829815Y-131270494D01*
X86813181Y-131291136D01*
X84762181Y-133342136D01*
X84700858Y-133375621D01*
X84631166Y-133370637D01*
X84575233Y-133328765D01*
X84550816Y-133263301D01*
X84550500Y-133254455D01*
X84550500Y-130879386D01*
X84570185Y-130812347D01*
X84586819Y-130791705D01*
X84612619Y-130765905D01*
X84640509Y-130738015D01*
X84712984Y-130612485D01*
X84750500Y-130472475D01*
X84750500Y-130327525D01*
X84712984Y-130187515D01*
X84711333Y-130184656D01*
X84640511Y-130061988D01*
X84640506Y-130061982D01*
X84538017Y-129959493D01*
X84538011Y-129959488D01*
X84412488Y-129887017D01*
X84412489Y-129887017D01*
X84401006Y-129883940D01*
X84272475Y-129849500D01*
X84127525Y-129849500D01*
X83998993Y-129883940D01*
X83987511Y-129887017D01*
X83861988Y-129959488D01*
X83861982Y-129959493D01*
X83759493Y-130061982D01*
X83759488Y-130061988D01*
X83687017Y-130187511D01*
X83687016Y-130187515D01*
X83649500Y-130327525D01*
X83649500Y-130472475D01*
X83682369Y-130595143D01*
X83687017Y-130612488D01*
X83759488Y-130738011D01*
X83759493Y-130738017D01*
X83813181Y-130791705D01*
X83846666Y-130853028D01*
X83849500Y-130879386D01*
X83849500Y-133217261D01*
X83829815Y-133284300D01*
X83813181Y-133304942D01*
X82713181Y-134404942D01*
X82651858Y-134438427D01*
X82582166Y-134433443D01*
X82526233Y-134391571D01*
X82501816Y-134326107D01*
X82501500Y-134317261D01*
X82501500Y-133461439D01*
X82501101Y-133459949D01*
X82481021Y-133385011D01*
X82472722Y-133370637D01*
X82441464Y-133316495D01*
X82441461Y-133316492D01*
X82441460Y-133316489D01*
X82441457Y-133316486D01*
X82436514Y-133310044D01*
X82437634Y-133309184D01*
X82408334Y-133255525D01*
X82405500Y-133229167D01*
X82405500Y-131870205D01*
X82404711Y-131863365D01*
X82400108Y-131823441D01*
X82387264Y-131768483D01*
X82383720Y-131755308D01*
X82382589Y-131753334D01*
X82338248Y-131675959D01*
X82305568Y-131640511D01*
X82290888Y-131624587D01*
X82245526Y-131587663D01*
X82245524Y-131587661D01*
X82245519Y-131587658D01*
X69430329Y-123898543D01*
X73179499Y-123898543D01*
X73217947Y-124091829D01*
X73217950Y-124091839D01*
X73293364Y-124273907D01*
X73293371Y-124273920D01*
X73402860Y-124437781D01*
X73402863Y-124437785D01*
X73542214Y-124577136D01*
X73542218Y-124577139D01*
X73706079Y-124686628D01*
X73706092Y-124686635D01*
X73856188Y-124748806D01*
X73888165Y-124762051D01*
X73888169Y-124762051D01*
X73888170Y-124762052D01*
X74081456Y-124800500D01*
X74081459Y-124800500D01*
X74278543Y-124800500D01*
X74422980Y-124771769D01*
X74471835Y-124762051D01*
X74568702Y-124721926D01*
X74638169Y-124714457D01*
X74700649Y-124745731D01*
X74703835Y-124748806D01*
X78939540Y-128984511D01*
X78995489Y-129040460D01*
X78995491Y-129040461D01*
X78995495Y-129040464D01*
X79064004Y-129080017D01*
X79064011Y-129080021D01*
X79140438Y-129100500D01*
X79219562Y-129100500D01*
X87741324Y-129100500D01*
X87808363Y-129120185D01*
X87829005Y-129136819D01*
X87892686Y-129200500D01*
X88006814Y-129266392D01*
X88134108Y-129300500D01*
X88134110Y-129300500D01*
X88265890Y-129300500D01*
X88265892Y-129300500D01*
X88393186Y-129266392D01*
X88507314Y-129200500D01*
X88600500Y-129107314D01*
X88666392Y-128993186D01*
X88700500Y-128865892D01*
X88700500Y-128734108D01*
X88666392Y-128606814D01*
X88600500Y-128492686D01*
X88507314Y-128399500D01*
X88440391Y-128360862D01*
X88393187Y-128333608D01*
X88300574Y-128308793D01*
X88265892Y-128299500D01*
X88134108Y-128299500D01*
X88006812Y-128333608D01*
X87892686Y-128399500D01*
X87892683Y-128399502D01*
X87829005Y-128463181D01*
X87767682Y-128496666D01*
X87741324Y-128499500D01*
X79355833Y-128499500D01*
X79288794Y-128479815D01*
X79268152Y-128463181D01*
X75128806Y-124323835D01*
X75095321Y-124262512D01*
X75100305Y-124192820D01*
X75101910Y-124188743D01*
X75142051Y-124091835D01*
X75160219Y-124000499D01*
X75180500Y-123898543D01*
X75719499Y-123898543D01*
X75757947Y-124091829D01*
X75757950Y-124091839D01*
X75833364Y-124273907D01*
X75833371Y-124273920D01*
X75942860Y-124437781D01*
X75942863Y-124437785D01*
X76082214Y-124577136D01*
X76082218Y-124577139D01*
X76246079Y-124686628D01*
X76246092Y-124686635D01*
X76396188Y-124748806D01*
X76428165Y-124762051D01*
X76428169Y-124762051D01*
X76428170Y-124762052D01*
X76621456Y-124800500D01*
X76621459Y-124800500D01*
X76818543Y-124800500D01*
X76962980Y-124771769D01*
X77011835Y-124762051D01*
X77193914Y-124686632D01*
X77357782Y-124577139D01*
X77497139Y-124437782D01*
X77606632Y-124273914D01*
X77682051Y-124091835D01*
X77700219Y-124000499D01*
X77720500Y-123898543D01*
X80799499Y-123898543D01*
X80837947Y-124091829D01*
X80837950Y-124091839D01*
X80913364Y-124273907D01*
X80913371Y-124273920D01*
X81022860Y-124437781D01*
X81022863Y-124437785D01*
X81162214Y-124577136D01*
X81162218Y-124577139D01*
X81326079Y-124686628D01*
X81326092Y-124686635D01*
X81476188Y-124748806D01*
X81508165Y-124762051D01*
X81508169Y-124762051D01*
X81508170Y-124762052D01*
X81701456Y-124800500D01*
X81701459Y-124800500D01*
X81898543Y-124800500D01*
X82042980Y-124771769D01*
X82091835Y-124762051D01*
X82273914Y-124686632D01*
X82437782Y-124577139D01*
X82577139Y-124437782D01*
X82686632Y-124273914D01*
X82762051Y-124091835D01*
X82780219Y-124000499D01*
X82800500Y-123898543D01*
X82800500Y-123701456D01*
X82762052Y-123508170D01*
X82762051Y-123508169D01*
X82762051Y-123508165D01*
X82762049Y-123508160D01*
X82686635Y-123326092D01*
X82686628Y-123326079D01*
X82577139Y-123162218D01*
X82577136Y-123162214D01*
X82437785Y-123022863D01*
X82437781Y-123022860D01*
X82273920Y-122913371D01*
X82273907Y-122913364D01*
X82091839Y-122837950D01*
X82091829Y-122837947D01*
X81898543Y-122799500D01*
X81898541Y-122799500D01*
X81701459Y-122799500D01*
X81701457Y-122799500D01*
X81508170Y-122837947D01*
X81508160Y-122837950D01*
X81326092Y-122913364D01*
X81326079Y-122913371D01*
X81162218Y-123022860D01*
X81162214Y-123022863D01*
X81022863Y-123162214D01*
X81022860Y-123162218D01*
X80913371Y-123326079D01*
X80913364Y-123326092D01*
X80837950Y-123508160D01*
X80837947Y-123508170D01*
X80799500Y-123701456D01*
X80799500Y-123701459D01*
X80799500Y-123898541D01*
X80799500Y-123898543D01*
X80799499Y-123898543D01*
X77720500Y-123898543D01*
X77720500Y-123701456D01*
X77682052Y-123508170D01*
X77682051Y-123508169D01*
X77682051Y-123508165D01*
X77682049Y-123508160D01*
X77606635Y-123326092D01*
X77606628Y-123326079D01*
X77497139Y-123162218D01*
X77497136Y-123162214D01*
X77357785Y-123022863D01*
X77357781Y-123022860D01*
X77193920Y-122913371D01*
X77193907Y-122913364D01*
X77011839Y-122837950D01*
X77011829Y-122837947D01*
X76818543Y-122799500D01*
X76818541Y-122799500D01*
X76621459Y-122799500D01*
X76621457Y-122799500D01*
X76428170Y-122837947D01*
X76428160Y-122837950D01*
X76246092Y-122913364D01*
X76246079Y-122913371D01*
X76082218Y-123022860D01*
X76082214Y-123022863D01*
X75942863Y-123162214D01*
X75942860Y-123162218D01*
X75833371Y-123326079D01*
X75833364Y-123326092D01*
X75757950Y-123508160D01*
X75757947Y-123508170D01*
X75719500Y-123701456D01*
X75719500Y-123701459D01*
X75719500Y-123898541D01*
X75719500Y-123898543D01*
X75719499Y-123898543D01*
X75180500Y-123898543D01*
X75180500Y-123701456D01*
X75142052Y-123508170D01*
X75142051Y-123508169D01*
X75142051Y-123508165D01*
X75142049Y-123508160D01*
X75066635Y-123326092D01*
X75066628Y-123326079D01*
X74957139Y-123162218D01*
X74957136Y-123162214D01*
X74817785Y-123022863D01*
X74817781Y-123022860D01*
X74653920Y-122913371D01*
X74653907Y-122913364D01*
X74471839Y-122837950D01*
X74471829Y-122837947D01*
X74278543Y-122799500D01*
X74278541Y-122799500D01*
X74081459Y-122799500D01*
X74081457Y-122799500D01*
X73888170Y-122837947D01*
X73888160Y-122837950D01*
X73706092Y-122913364D01*
X73706079Y-122913371D01*
X73542218Y-123022860D01*
X73542214Y-123022863D01*
X73402863Y-123162214D01*
X73402860Y-123162218D01*
X73293371Y-123326079D01*
X73293364Y-123326092D01*
X73217950Y-123508160D01*
X73217947Y-123508170D01*
X73179500Y-123701456D01*
X73179500Y-123701459D01*
X73179500Y-123898541D01*
X73179500Y-123898543D01*
X73179499Y-123898543D01*
X69430329Y-123898543D01*
X69335182Y-123841455D01*
X69284304Y-123819626D01*
X69284292Y-123819621D01*
X69267128Y-123814868D01*
X69267127Y-123814868D01*
X69220505Y-123801955D01*
X69220502Y-123801954D01*
X69165660Y-123794500D01*
X69165655Y-123794500D01*
X66524000Y-123794500D01*
X66523992Y-123794500D01*
X66480313Y-123799197D01*
X66428825Y-123810397D01*
X66418627Y-123812890D01*
X66418624Y-123812891D01*
X66337916Y-123855899D01*
X66337913Y-123855901D01*
X66285104Y-123901660D01*
X66267160Y-123919242D01*
X66267154Y-123919249D01*
X66222511Y-123999059D01*
X66222509Y-123999064D01*
X66202826Y-124066096D01*
X66202825Y-124066101D01*
X66202825Y-124066102D01*
X66194502Y-124123992D01*
X66194500Y-124124003D01*
X66194500Y-124607060D01*
X66174815Y-124674099D01*
X66122011Y-124719854D01*
X66052853Y-124729798D01*
X66001610Y-124710162D01*
X65928233Y-124661133D01*
X65928229Y-124661131D01*
X65869752Y-124649500D01*
X65869748Y-124649500D01*
X64130252Y-124649500D01*
X64130247Y-124649500D01*
X64071770Y-124661131D01*
X64071769Y-124661132D01*
X64005447Y-124705447D01*
X63961132Y-124771769D01*
X63961131Y-124771770D01*
X63949500Y-124830247D01*
X58300500Y-124830247D01*
X58300500Y-122624500D01*
X58320185Y-122557461D01*
X58372989Y-122511706D01*
X58424500Y-122500500D01*
X133575500Y-122500500D01*
X133642539Y-122520185D01*
G37*
%TD.AperFunction*%
%TA.AperFunction,Conductor*%
G36*
X80966637Y-171279185D02*
G01*
X81012392Y-171331989D01*
X81022336Y-171401147D01*
X81002700Y-171452391D01*
X80913371Y-171586079D01*
X80913364Y-171586092D01*
X80837950Y-171768160D01*
X80837947Y-171768170D01*
X80799500Y-171961456D01*
X80799500Y-171961459D01*
X80799500Y-172158541D01*
X80799500Y-172158543D01*
X80799499Y-172158543D01*
X80837947Y-172351829D01*
X80837950Y-172351839D01*
X80913364Y-172533907D01*
X80913371Y-172533920D01*
X81022860Y-172697781D01*
X81022863Y-172697785D01*
X81162214Y-172837136D01*
X81162218Y-172837139D01*
X81326079Y-172946628D01*
X81326092Y-172946635D01*
X81471379Y-173006814D01*
X81508165Y-173022051D01*
X81508169Y-173022051D01*
X81508170Y-173022052D01*
X81701456Y-173060500D01*
X81701459Y-173060500D01*
X81898543Y-173060500D01*
X82028582Y-173034632D01*
X82091835Y-173022051D01*
X82188702Y-172981926D01*
X82258169Y-172974457D01*
X82320649Y-173005731D01*
X82323835Y-173008806D01*
X82930848Y-173615819D01*
X82964333Y-173677142D01*
X82959349Y-173746834D01*
X82917477Y-173802767D01*
X82852013Y-173827184D01*
X82843167Y-173827500D01*
X79946783Y-173827500D01*
X79879744Y-173807815D01*
X79859102Y-173791181D01*
X79330640Y-173262719D01*
X79297155Y-173201396D01*
X79302139Y-173131704D01*
X79344011Y-173075771D01*
X79394130Y-173053421D01*
X79429654Y-173046354D01*
X79551835Y-173022051D01*
X79733914Y-172946632D01*
X79897782Y-172837139D01*
X80037139Y-172697782D01*
X80146632Y-172533914D01*
X80222051Y-172351835D01*
X80237934Y-172271989D01*
X80260500Y-172158543D01*
X80260500Y-171961456D01*
X80222052Y-171768170D01*
X80222051Y-171768169D01*
X80222051Y-171768165D01*
X80181925Y-171671294D01*
X80174457Y-171601828D01*
X80205732Y-171539349D01*
X80208746Y-171536223D01*
X80449153Y-171295816D01*
X80510475Y-171262334D01*
X80536833Y-171259500D01*
X80899598Y-171259500D01*
X80966637Y-171279185D01*
G37*
%TD.AperFunction*%
%TA.AperFunction,Conductor*%
G36*
X85026637Y-171279185D02*
G01*
X85072392Y-171331989D01*
X85082336Y-171401147D01*
X85062700Y-171452391D01*
X84973371Y-171586079D01*
X84973364Y-171586092D01*
X84897950Y-171768160D01*
X84897947Y-171768170D01*
X84859500Y-171961456D01*
X84859500Y-171961459D01*
X84859500Y-172158541D01*
X84859500Y-172158543D01*
X84859499Y-172158543D01*
X84897947Y-172351829D01*
X84897950Y-172351839D01*
X84973364Y-172533907D01*
X84973371Y-172533920D01*
X85062700Y-172667609D01*
X85083578Y-172734286D01*
X85065094Y-172801667D01*
X85013115Y-172848357D01*
X84959598Y-172860500D01*
X84136833Y-172860500D01*
X84107392Y-172851855D01*
X84077406Y-172845332D01*
X84072390Y-172841577D01*
X84069794Y-172840815D01*
X84049152Y-172824181D01*
X83936819Y-172711848D01*
X83903334Y-172650525D01*
X83900500Y-172624167D01*
X83900500Y-172534110D01*
X83900500Y-172534108D01*
X83866392Y-172406814D01*
X83800500Y-172292686D01*
X83707314Y-172199500D01*
X83644907Y-172163469D01*
X83593187Y-172133608D01*
X83529539Y-172116554D01*
X83465892Y-172099500D01*
X83334108Y-172099500D01*
X83206812Y-172133608D01*
X83092686Y-172199500D01*
X83006825Y-172285361D01*
X82945501Y-172318845D01*
X82875810Y-172313861D01*
X82819876Y-172271989D01*
X82795460Y-172206524D01*
X82797527Y-172173485D01*
X82799520Y-172163469D01*
X82800500Y-172158541D01*
X82800500Y-171961459D01*
X82800500Y-171961456D01*
X82762052Y-171768170D01*
X82762051Y-171768169D01*
X82762051Y-171768165D01*
X82754235Y-171749295D01*
X82686635Y-171586092D01*
X82686628Y-171586079D01*
X82597300Y-171452391D01*
X82576422Y-171385714D01*
X82594906Y-171318333D01*
X82646885Y-171271643D01*
X82700402Y-171259500D01*
X84959598Y-171259500D01*
X85026637Y-171279185D01*
G37*
%TD.AperFunction*%
%TA.AperFunction,Conductor*%
G36*
X110449344Y-169649185D02*
G01*
X110495099Y-169701989D01*
X110505043Y-169771147D01*
X110476018Y-169834703D01*
X110469986Y-169841181D01*
X107486986Y-172824181D01*
X107425663Y-172857666D01*
X107399305Y-172860500D01*
X99460402Y-172860500D01*
X99393363Y-172840815D01*
X99347608Y-172788011D01*
X99337664Y-172718853D01*
X99357300Y-172667609D01*
X99446628Y-172533920D01*
X99446628Y-172533919D01*
X99446632Y-172533914D01*
X99522051Y-172351835D01*
X99537934Y-172271989D01*
X99560500Y-172158543D01*
X99560500Y-171961456D01*
X99522052Y-171768170D01*
X99522051Y-171768169D01*
X99522051Y-171768165D01*
X99514235Y-171749295D01*
X99446635Y-171586092D01*
X99446628Y-171586079D01*
X99357300Y-171452391D01*
X99336422Y-171385714D01*
X99354906Y-171318333D01*
X99406885Y-171271643D01*
X99460402Y-171259500D01*
X107880560Y-171259500D01*
X107880562Y-171259500D01*
X107956989Y-171239021D01*
X108025511Y-171199460D01*
X108081460Y-171143511D01*
X109559152Y-169665819D01*
X109620475Y-169632334D01*
X109646833Y-169629500D01*
X110382305Y-169629500D01*
X110449344Y-169649185D01*
G37*
%TD.AperFunction*%
%TA.AperFunction,Conductor*%
G36*
X76517468Y-165142885D02*
G01*
X76523946Y-165148917D01*
X77463181Y-166088152D01*
X77496666Y-166149475D01*
X77499500Y-166175833D01*
X77499500Y-166265892D01*
X77504649Y-166285108D01*
X77533608Y-166393187D01*
X77550856Y-166423061D01*
X77599500Y-166507314D01*
X77692686Y-166600500D01*
X77806814Y-166666392D01*
X77934108Y-166700500D01*
X77934110Y-166700500D01*
X78024167Y-166700500D01*
X78091206Y-166720185D01*
X78111848Y-166736819D01*
X78363600Y-166988571D01*
X78397085Y-167049894D01*
X78392101Y-167119586D01*
X78350229Y-167175519D01*
X78337920Y-167183638D01*
X78268427Y-167223760D01*
X78268418Y-167223767D01*
X78175237Y-167316948D01*
X78175235Y-167316951D01*
X78109343Y-167431077D01*
X78075235Y-167558373D01*
X78075235Y-167690156D01*
X78109343Y-167817452D01*
X78120583Y-167836920D01*
X78175235Y-167931579D01*
X78268421Y-168024765D01*
X78382549Y-168090657D01*
X78509843Y-168124765D01*
X78509845Y-168124765D01*
X78599902Y-168124765D01*
X78666941Y-168144450D01*
X78687583Y-168161084D01*
X80973318Y-170446819D01*
X81006803Y-170508142D01*
X81001819Y-170577834D01*
X80959947Y-170633767D01*
X80894483Y-170658184D01*
X80885637Y-170658500D01*
X80321438Y-170658500D01*
X80283224Y-170668739D01*
X80245009Y-170678979D01*
X80245008Y-170678980D01*
X80195934Y-170707312D01*
X80195935Y-170707313D01*
X80176487Y-170718541D01*
X79783835Y-171111192D01*
X79722512Y-171144677D01*
X79652820Y-171139693D01*
X79648702Y-171138072D01*
X79551839Y-171097950D01*
X79551829Y-171097947D01*
X79358543Y-171059500D01*
X79358541Y-171059500D01*
X79161459Y-171059500D01*
X79161457Y-171059500D01*
X78968170Y-171097947D01*
X78968160Y-171097950D01*
X78786092Y-171173364D01*
X78786079Y-171173371D01*
X78622218Y-171282860D01*
X78622214Y-171282863D01*
X78486916Y-171418162D01*
X78425593Y-171451647D01*
X78355901Y-171446663D01*
X78299968Y-171404791D01*
X78275551Y-171339327D01*
X78275235Y-171330481D01*
X78275235Y-169385117D01*
X78272253Y-169373989D01*
X78254756Y-169308689D01*
X78252242Y-169304334D01*
X78215199Y-169240173D01*
X78215193Y-169240165D01*
X76223003Y-167247975D01*
X76189518Y-167186652D01*
X76194502Y-167116960D01*
X76236374Y-167061027D01*
X76248685Y-167052907D01*
X76253904Y-167049894D01*
X76319079Y-167012265D01*
X76412265Y-166919079D01*
X76478157Y-166804951D01*
X76512265Y-166677657D01*
X76512265Y-166545873D01*
X76478157Y-166418579D01*
X76477182Y-166416891D01*
X76463496Y-166393186D01*
X76412265Y-166304451D01*
X76348583Y-166240769D01*
X76315099Y-166179445D01*
X76312265Y-166153088D01*
X76312265Y-165236598D01*
X76331950Y-165169559D01*
X76384754Y-165123804D01*
X76453912Y-165113860D01*
X76517468Y-165142885D01*
G37*
%TD.AperFunction*%
%TA.AperFunction,Conductor*%
G36*
X83425180Y-167801448D02*
G01*
X83436210Y-167811238D01*
X85240791Y-169615819D01*
X85274276Y-169677142D01*
X85269292Y-169746834D01*
X85227420Y-169802767D01*
X85161956Y-169827184D01*
X85153110Y-169827500D01*
X82103833Y-169827500D01*
X82036794Y-169807815D01*
X82016152Y-169791181D01*
X81303129Y-169078158D01*
X81269644Y-169016835D01*
X81274628Y-168947143D01*
X81316500Y-168891210D01*
X81381964Y-168866793D01*
X81422896Y-168870701D01*
X81534108Y-168900500D01*
X81534111Y-168900500D01*
X81665890Y-168900500D01*
X81665892Y-168900500D01*
X81793186Y-168866392D01*
X81907314Y-168800500D01*
X81920995Y-168786819D01*
X81980415Y-168753763D01*
X81994355Y-168750500D01*
X82046144Y-168750500D01*
X82135288Y-168726614D01*
X82145912Y-168720480D01*
X82215212Y-168680470D01*
X82758863Y-168136819D01*
X82820186Y-168103334D01*
X82846544Y-168100500D01*
X82865890Y-168100500D01*
X82865892Y-168100500D01*
X82993186Y-168066392D01*
X83107314Y-168000500D01*
X83200500Y-167907314D01*
X83241142Y-167836919D01*
X83291708Y-167788704D01*
X83360315Y-167775480D01*
X83425180Y-167801448D01*
G37*
%TD.AperFunction*%
%TA.AperFunction,Conductor*%
G36*
X75047393Y-159477265D02*
G01*
X75134108Y-159500500D01*
X75231944Y-159500500D01*
X75239656Y-159501471D01*
X75264847Y-159512445D01*
X75291206Y-159520185D01*
X75296415Y-159526197D01*
X75303712Y-159529376D01*
X75311848Y-159536819D01*
X81359540Y-165584511D01*
X81415489Y-165640460D01*
X81415491Y-165640461D01*
X81415495Y-165640464D01*
X81454843Y-165663181D01*
X81484011Y-165680021D01*
X81520755Y-165689866D01*
X81580415Y-165726232D01*
X81610943Y-165789079D01*
X81602648Y-165858454D01*
X81558162Y-165912332D01*
X81550661Y-165917028D01*
X81492686Y-165950500D01*
X81492683Y-165950502D01*
X81399502Y-166043683D01*
X81399500Y-166043686D01*
X81333608Y-166157812D01*
X81320340Y-166207330D01*
X81299500Y-166285108D01*
X81299500Y-166416892D01*
X81311142Y-166460340D01*
X81333608Y-166544187D01*
X81349955Y-166572500D01*
X81399500Y-166658314D01*
X81492686Y-166751500D01*
X81606814Y-166817392D01*
X81734108Y-166851500D01*
X81734110Y-166851500D01*
X81865890Y-166851500D01*
X81865892Y-166851500D01*
X81993186Y-166817392D01*
X82107314Y-166751500D01*
X82154212Y-166704602D01*
X82215535Y-166671117D01*
X82285227Y-166676101D01*
X82329574Y-166704602D01*
X82588761Y-166963789D01*
X82622246Y-167025112D01*
X82617262Y-167094804D01*
X82575390Y-167150737D01*
X82563081Y-167158857D01*
X82492686Y-167199500D01*
X82492683Y-167199502D01*
X82399502Y-167292683D01*
X82399500Y-167292686D01*
X82333608Y-167406812D01*
X82299500Y-167534108D01*
X82299500Y-167553455D01*
X82279815Y-167620494D01*
X82263181Y-167641136D01*
X81973011Y-167931305D01*
X81911688Y-167964790D01*
X81841996Y-167959806D01*
X81823331Y-167951012D01*
X81793186Y-167933608D01*
X81755466Y-167923501D01*
X81665892Y-167899500D01*
X81534108Y-167899500D01*
X81406812Y-167933608D01*
X81292686Y-167999500D01*
X81292683Y-167999502D01*
X81199502Y-168092683D01*
X81199500Y-168092686D01*
X81133608Y-168206812D01*
X81109751Y-168295851D01*
X81099500Y-168334108D01*
X81099500Y-168465892D01*
X81120538Y-168544407D01*
X81129297Y-168577096D01*
X81127634Y-168646946D01*
X81088471Y-168704808D01*
X81024243Y-168732312D01*
X80955341Y-168720725D01*
X80921841Y-168696870D01*
X78536819Y-166311848D01*
X78503334Y-166250525D01*
X78500500Y-166224167D01*
X78500500Y-166134110D01*
X78500500Y-166134108D01*
X78466392Y-166006814D01*
X78400500Y-165892686D01*
X78307314Y-165799500D01*
X78250250Y-165766554D01*
X78193187Y-165733608D01*
X78101884Y-165709144D01*
X78065892Y-165699500D01*
X77975833Y-165699500D01*
X77908794Y-165679815D01*
X77888152Y-165663181D01*
X76289384Y-164064413D01*
X76255899Y-164003090D01*
X76253065Y-163976732D01*
X76253065Y-162011241D01*
X76272750Y-161944202D01*
X76289384Y-161923560D01*
X76318178Y-161894766D01*
X76353065Y-161859879D01*
X76418957Y-161745751D01*
X76453065Y-161618457D01*
X76453065Y-161486673D01*
X76418957Y-161359379D01*
X76353065Y-161245251D01*
X76259879Y-161152065D01*
X76195662Y-161114989D01*
X76145752Y-161086173D01*
X76082104Y-161069119D01*
X76018457Y-161052065D01*
X75886673Y-161052065D01*
X75759377Y-161086173D01*
X75645251Y-161152065D01*
X75645248Y-161152067D01*
X75552067Y-161245248D01*
X75552065Y-161245251D01*
X75486173Y-161359377D01*
X75457633Y-161465892D01*
X75452065Y-161486673D01*
X75452065Y-161618457D01*
X75468429Y-161679529D01*
X75486173Y-161745752D01*
X75496962Y-161764438D01*
X75552065Y-161859879D01*
X75552067Y-161859881D01*
X75615746Y-161923560D01*
X75649231Y-161984883D01*
X75652065Y-162011241D01*
X75652065Y-163927732D01*
X75632380Y-163994771D01*
X75579576Y-164040526D01*
X75510418Y-164050470D01*
X75446862Y-164021445D01*
X75440384Y-164015413D01*
X74935819Y-163510848D01*
X74902334Y-163449525D01*
X74899500Y-163423167D01*
X74899500Y-159599236D01*
X74904222Y-159583153D01*
X74903928Y-159566395D01*
X74913862Y-159550322D01*
X74919185Y-159532197D01*
X74931849Y-159521223D01*
X74940664Y-159506963D01*
X74957712Y-159498812D01*
X74971989Y-159486442D01*
X74988578Y-159484056D01*
X75003701Y-159476827D01*
X75038989Y-159476207D01*
X75047393Y-159477265D01*
G37*
%TD.AperFunction*%
%TD*%
%TA.AperFunction,Conductor*%
%TO.N,VBUS*%
G36*
X96643039Y-140819685D02*
G01*
X96688794Y-140872489D01*
X96700000Y-140924000D01*
X96700000Y-143976000D01*
X96680315Y-144043039D01*
X96627511Y-144088794D01*
X96576000Y-144100000D01*
X91324000Y-144100000D01*
X91256961Y-144080315D01*
X91211206Y-144027511D01*
X91200000Y-143976000D01*
X91200000Y-140924000D01*
X91219685Y-140856961D01*
X91272489Y-140811206D01*
X91324000Y-140800000D01*
X93100000Y-140800000D01*
X96400000Y-140800000D01*
X96576000Y-140800000D01*
X96643039Y-140819685D01*
G37*
%TD.AperFunction*%
%TD*%
%TA.AperFunction,Conductor*%
%TO.N,/PerCoil/AHS*%
G36*
X77316766Y-133478096D02*
G01*
X77472450Y-133564278D01*
X77520581Y-133583456D01*
X77580636Y-133598969D01*
X77632032Y-133605500D01*
X77632038Y-133605500D01*
X78332248Y-133605500D01*
X78335818Y-133605266D01*
X78343929Y-133605000D01*
X78456071Y-133605000D01*
X78464182Y-133605266D01*
X78467752Y-133605500D01*
X78467758Y-133605500D01*
X79122171Y-133605500D01*
X79122184Y-133605500D01*
X79135457Y-133605065D01*
X79139482Y-133605000D01*
X79260518Y-133605000D01*
X79264542Y-133605065D01*
X79277816Y-133605500D01*
X79277829Y-133605500D01*
X79932248Y-133605500D01*
X79935818Y-133605266D01*
X79943929Y-133605000D01*
X80056071Y-133605000D01*
X80064182Y-133605266D01*
X80067752Y-133605500D01*
X80067758Y-133605500D01*
X80722171Y-133605500D01*
X80722184Y-133605500D01*
X80735457Y-133605065D01*
X80739482Y-133605000D01*
X80860518Y-133605000D01*
X80864542Y-133605065D01*
X80877816Y-133605500D01*
X80877829Y-133605500D01*
X81532248Y-133605500D01*
X81535818Y-133605266D01*
X81543929Y-133605000D01*
X81656071Y-133605000D01*
X81664182Y-133605266D01*
X81667752Y-133605500D01*
X81667758Y-133605500D01*
X81776500Y-133605500D01*
X81843539Y-133625185D01*
X81889294Y-133677989D01*
X81900500Y-133729500D01*
X81900500Y-134773109D01*
X81880815Y-134840148D01*
X81864181Y-134860790D01*
X81416096Y-135308874D01*
X81375200Y-135336028D01*
X79523723Y-136090335D01*
X79476938Y-136099500D01*
X79360438Y-136099500D01*
X79284010Y-136119978D01*
X79215489Y-136159540D01*
X79215485Y-136159543D01*
X79138065Y-136236962D01*
X79097170Y-136264115D01*
X71422496Y-139390835D01*
X71375711Y-139400000D01*
X66524000Y-139400000D01*
X66456961Y-139380315D01*
X66411206Y-139327511D01*
X66400000Y-139276000D01*
X66400000Y-134476332D01*
X66419685Y-134409293D01*
X66436319Y-134388651D01*
X66525470Y-134299500D01*
X67199879Y-133625090D01*
X67261199Y-133591608D01*
X67285978Y-133588785D01*
X77255142Y-133462593D01*
X77316766Y-133478096D01*
G37*
%TD.AperFunction*%
%TD*%
%TA.AperFunction,Conductor*%
%TO.N,/-OUT1*%
G36*
X69229451Y-124017670D02*
G01*
X74533334Y-127200000D01*
X82139797Y-131763878D01*
X82187156Y-131815249D01*
X82200000Y-131870207D01*
X82200000Y-133276000D01*
X82180315Y-133343039D01*
X82127511Y-133388794D01*
X82076000Y-133400000D01*
X81667758Y-133400000D01*
X81665892Y-133399500D01*
X81534108Y-133399500D01*
X81532242Y-133400000D01*
X80877816Y-133400000D01*
X80870187Y-133399500D01*
X80865892Y-133399500D01*
X80734108Y-133399500D01*
X80729813Y-133399500D01*
X80722184Y-133400000D01*
X80067758Y-133400000D01*
X80065892Y-133399500D01*
X79934108Y-133399500D01*
X79932242Y-133400000D01*
X79277816Y-133400000D01*
X79270187Y-133399500D01*
X79265892Y-133399500D01*
X79134108Y-133399500D01*
X79129813Y-133399500D01*
X79122184Y-133400000D01*
X78467758Y-133400000D01*
X78465892Y-133399500D01*
X78334108Y-133399500D01*
X78332242Y-133400000D01*
X77632032Y-133400000D01*
X77571977Y-133384487D01*
X66463945Y-127235398D01*
X66414826Y-127185708D01*
X66400000Y-127126911D01*
X66400000Y-124124000D01*
X66419685Y-124056961D01*
X66472489Y-124011206D01*
X66524000Y-124000000D01*
X69165655Y-124000000D01*
X69229451Y-124017670D01*
G37*
%TD.AperFunction*%
%TD*%
%TA.AperFunction,Conductor*%
%TO.N,VBUS*%
G36*
X98143039Y-130419685D02*
G01*
X98188794Y-130472489D01*
X98200000Y-130524000D01*
X98200000Y-133555970D01*
X98180315Y-133623009D01*
X98127511Y-133668764D01*
X98084835Y-133679655D01*
X96400000Y-133799999D01*
X96400000Y-133800000D01*
X93100000Y-133800000D01*
X93100000Y-133799999D01*
X92177948Y-133431179D01*
X92123014Y-133388005D01*
X92100142Y-133321984D01*
X92100000Y-133316048D01*
X92100000Y-130524000D01*
X92119685Y-130456961D01*
X92172489Y-130411206D01*
X92224000Y-130400000D01*
X98076000Y-130400000D01*
X98143039Y-130419685D01*
G37*
%TD.AperFunction*%
%TD*%
%TA.AperFunction,Conductor*%
%TO.N,/+OUT2*%
G36*
X125443039Y-124019685D02*
G01*
X125488794Y-124072489D01*
X125500000Y-124124000D01*
X125500000Y-127126911D01*
X125480315Y-127193950D01*
X125436055Y-127235398D01*
X114328023Y-133384487D01*
X114267968Y-133400000D01*
X113567758Y-133400000D01*
X113565892Y-133399500D01*
X113434108Y-133399500D01*
X113432242Y-133400000D01*
X112777816Y-133400000D01*
X112770187Y-133399500D01*
X112765892Y-133399500D01*
X112634108Y-133399500D01*
X112629813Y-133399500D01*
X112622184Y-133400000D01*
X111967758Y-133400000D01*
X111965892Y-133399500D01*
X111834108Y-133399500D01*
X111832242Y-133400000D01*
X111177816Y-133400000D01*
X111170187Y-133399500D01*
X111165892Y-133399500D01*
X111034108Y-133399500D01*
X111029813Y-133399500D01*
X111022184Y-133400000D01*
X110367758Y-133400000D01*
X110365892Y-133399500D01*
X110234108Y-133399500D01*
X110232242Y-133400000D01*
X109824000Y-133400000D01*
X109756961Y-133380315D01*
X109711206Y-133327511D01*
X109700000Y-133276000D01*
X109700000Y-131870207D01*
X109719685Y-131803168D01*
X109760203Y-131763878D01*
X117366667Y-127200000D01*
X122670548Y-124017670D01*
X122734345Y-124000000D01*
X125376000Y-124000000D01*
X125443039Y-124019685D01*
G37*
%TD.AperFunction*%
%TD*%
%TA.AperFunction,Conductor*%
%TO.N,VBUS*%
G36*
X96400000Y-140800000D02*
G01*
X93100000Y-140800000D01*
X93100000Y-133800000D01*
X96400000Y-133800000D01*
X96400000Y-140800000D01*
G37*
%TD.AperFunction*%
%TD*%
%TA.AperFunction,Conductor*%
%TO.N,/PerCoil1/BHS*%
G36*
X125377569Y-133598450D02*
G01*
X125444354Y-133618981D01*
X125489437Y-133672360D01*
X125500000Y-133722440D01*
X125500000Y-139276000D01*
X125480315Y-139343039D01*
X125427511Y-139388794D01*
X125376000Y-139400000D01*
X120524289Y-139400000D01*
X120477504Y-139390835D01*
X113309077Y-136470364D01*
X113268181Y-136443210D01*
X112984512Y-136159541D01*
X112984504Y-136159535D01*
X112915995Y-136119982D01*
X112915990Y-136119979D01*
X112890513Y-136113152D01*
X112839562Y-136099500D01*
X112839560Y-136099500D01*
X112423062Y-136099500D01*
X112376277Y-136090335D01*
X110524798Y-135336028D01*
X110483902Y-135308874D01*
X110035819Y-134860791D01*
X110002334Y-134799468D01*
X109999500Y-134773110D01*
X109999500Y-133729500D01*
X110001977Y-133721062D01*
X110000690Y-133712363D01*
X110011670Y-133688052D01*
X110019185Y-133662461D01*
X110025830Y-133656702D01*
X110029451Y-133648687D01*
X110051833Y-133634170D01*
X110071989Y-133616706D01*
X110082233Y-133614455D01*
X110088071Y-133610669D01*
X110121980Y-133605721D01*
X110122985Y-133605501D01*
X110123226Y-133605500D01*
X110232242Y-133605500D01*
X110235792Y-133605032D01*
X110243414Y-133605001D01*
X110243463Y-133605015D01*
X110243929Y-133605000D01*
X110356071Y-133605000D01*
X110364182Y-133605266D01*
X110367752Y-133605500D01*
X110367758Y-133605500D01*
X111022171Y-133605500D01*
X111022184Y-133605500D01*
X111035457Y-133605065D01*
X111039482Y-133605000D01*
X111160518Y-133605000D01*
X111164542Y-133605065D01*
X111177816Y-133605500D01*
X111177829Y-133605500D01*
X111832248Y-133605500D01*
X111835818Y-133605266D01*
X111843929Y-133605000D01*
X111956071Y-133605000D01*
X111964182Y-133605266D01*
X111967752Y-133605500D01*
X111967758Y-133605500D01*
X112622171Y-133605500D01*
X112622184Y-133605500D01*
X112635457Y-133605065D01*
X112639482Y-133605000D01*
X112760518Y-133605000D01*
X112764542Y-133605065D01*
X112777816Y-133605500D01*
X112777829Y-133605500D01*
X113432248Y-133605500D01*
X113435818Y-133605266D01*
X113443929Y-133605000D01*
X113556071Y-133605000D01*
X113564182Y-133605266D01*
X113567752Y-133605500D01*
X113567758Y-133605500D01*
X114267962Y-133605500D01*
X114267968Y-133605500D01*
X114319364Y-133598969D01*
X114379419Y-133583456D01*
X114427550Y-133564278D01*
X114583234Y-133478095D01*
X114644856Y-133462593D01*
X125377569Y-133598450D01*
G37*
%TD.AperFunction*%
%TD*%
M02*
