M48
; DRILL file {KiCad 9.0.5} date 2026-05-27T20:09:36+0100
; FORMAT={-:-/ absolute / inch / decimal}
; #@! TF.CreationDate,2026-05-27T20:09:36+01:00
; #@! TF.GenerationSoftware,Kicad,Pcbnew,9.0.5
; #@! TF.FileFunction,Plated,1,2,PTH
FMAT,2
INCH
; #@! TA.AperFunction,Plated,PTH,ComponentDrill
T1C0.0315
; #@! TA.AperFunction,Plated,PTH,ComponentDrill
T2C0.0394
%
G90
G05
T1
X5.5089Y-3.752
X5.6089Y-3.752
T2
X3.9809Y-3.2862
X4.0809Y-3.2862
X4.1809Y-3.2862
X4.2809Y-3.2862
X4.3407Y-1.3862
X4.3809Y-3.2862
X4.3998Y-3.5071
X4.3998Y-3.6878
X4.3998Y-3.8685
X4.4407Y-1.3862
X4.4809Y-3.2862
X4.4998Y-3.5071
X4.4998Y-3.6878
X4.4998Y-3.8685
X4.5407Y-1.3862
X4.5809Y-3.2862
X4.6407Y-1.3862
X4.6809Y-3.2862
X4.7407Y-1.3862
X4.7809Y-3.2862
X4.8407Y-1.3862
X4.8809Y-3.2862
X4.9407Y-1.3862
X5.0407Y-1.3862
X5.0407Y-3.2862
X5.1407Y-3.2862
X5.2407Y-1.3862
X5.2407Y-3.2862
X5.3407Y-1.3862
X5.3407Y-3.2862
X5.4407Y-1.3862
X5.4407Y-3.2862
X5.5407Y-1.3862
X5.5407Y-3.2862
X5.6407Y-1.3862
X5.6407Y-3.2862
X5.7407Y-1.3862
X5.7407Y-3.2862
M30
