%TF.GenerationSoftware,KiCad,Pcbnew,9.0.5*%
%TF.CreationDate,2026-05-27T20:09:36+01:00*%
%TF.ProjectId,KiCadV2,4b694361-6456-4322-9e6b-696361645f70,rev?*%
%TF.SameCoordinates,Original*%
%TF.FileFunction,Copper,L1,Top*%
%TF.FilePolarity,Positive*%
%FSLAX46Y46*%
G04 Gerber Fmt 4.6, Leading zero omitted, Abs format (unit mm)*
G04 Created by KiCad (PCBNEW 9.0.5) date 2026-05-27 20:09:36*
%MOMM*%
%LPD*%
G01*
G04 APERTURE LIST*
G04 Aperture macros list*
%AMRoundRect*
0 Rectangle with rounded corners*
0 $1 Rounding radius*
0 $2 $3 $4 $5 $6 $7 $8 $9 X,Y pos of 4 corners*
0 Add a 4 corners polygon primitive as box body*
4,1,4,$2,$3,$4,$5,$6,$7,$8,$9,$2,$3,0*
0 Add four circle primitives for the rounded corners*
1,1,$1+$1,$2,$3*
1,1,$1+$1,$4,$5*
1,1,$1+$1,$6,$7*
1,1,$1+$1,$8,$9*
0 Add four rect primitives between the rounded corners*
20,1,$1+$1,$2,$3,$4,$5,0*
20,1,$1+$1,$4,$5,$6,$7,0*
20,1,$1+$1,$6,$7,$8,$9,0*
20,1,$1+$1,$8,$9,$2,$3,0*%
G04 Aperture macros list end*
%TA.AperFunction,SMDPad,CuDef*%
%ADD10RoundRect,0.150000X-0.875000X-0.150000X0.875000X-0.150000X0.875000X0.150000X-0.875000X0.150000X0*%
%TD*%
%TA.AperFunction,SMDPad,CuDef*%
%ADD11RoundRect,0.200000X-0.200000X-0.275000X0.200000X-0.275000X0.200000X0.275000X-0.200000X0.275000X0*%
%TD*%
%TA.AperFunction,SMDPad,CuDef*%
%ADD12RoundRect,0.250000X-0.312500X-0.625000X0.312500X-0.625000X0.312500X0.625000X-0.312500X0.625000X0*%
%TD*%
%TA.AperFunction,SMDPad,CuDef*%
%ADD13RoundRect,0.225000X-0.225000X-0.250000X0.225000X-0.250000X0.225000X0.250000X-0.225000X0.250000X0*%
%TD*%
%TA.AperFunction,SMDPad,CuDef*%
%ADD14RoundRect,0.175000X-0.175000X-0.425000X0.175000X-0.425000X0.175000X0.425000X-0.175000X0.425000X0*%
%TD*%
%TA.AperFunction,SMDPad,CuDef*%
%ADD15RoundRect,0.190000X0.190000X0.410000X-0.190000X0.410000X-0.190000X-0.410000X0.190000X-0.410000X0*%
%TD*%
%TA.AperFunction,SMDPad,CuDef*%
%ADD16RoundRect,0.200000X0.200000X0.400000X-0.200000X0.400000X-0.200000X-0.400000X0.200000X-0.400000X0*%
%TD*%
%TA.AperFunction,SMDPad,CuDef*%
%ADD17RoundRect,0.175000X0.175000X0.425000X-0.175000X0.425000X-0.175000X-0.425000X0.175000X-0.425000X0*%
%TD*%
%TA.AperFunction,SMDPad,CuDef*%
%ADD18RoundRect,0.190000X-0.190000X-0.410000X0.190000X-0.410000X0.190000X0.410000X-0.190000X0.410000X0*%
%TD*%
%TA.AperFunction,SMDPad,CuDef*%
%ADD19RoundRect,0.200000X-0.200000X-0.400000X0.200000X-0.400000X0.200000X0.400000X-0.200000X0.400000X0*%
%TD*%
%TA.AperFunction,SMDPad,CuDef*%
%ADD20RoundRect,0.250000X-0.650000X-0.425000X0.650000X-0.425000X0.650000X0.425000X-0.650000X0.425000X0*%
%TD*%
%TA.AperFunction,SMDPad,CuDef*%
%ADD21RoundRect,0.250000X-0.650000X-0.500000X0.650000X-0.500000X0.650000X0.500000X-0.650000X0.500000X0*%
%TD*%
%TA.AperFunction,SMDPad,CuDef*%
%ADD22RoundRect,0.250000X-1.000000X-0.650000X1.000000X-0.650000X1.000000X0.650000X-1.000000X0.650000X0*%
%TD*%
%TA.AperFunction,SMDPad,CuDef*%
%ADD23RoundRect,0.100000X-0.225000X-0.100000X0.225000X-0.100000X0.225000X0.100000X-0.225000X0.100000X0*%
%TD*%
%TA.AperFunction,SMDPad,CuDef*%
%ADD24RoundRect,0.150000X-0.825000X-0.150000X0.825000X-0.150000X0.825000X0.150000X-0.825000X0.150000X0*%
%TD*%
%TA.AperFunction,SMDPad,CuDef*%
%ADD25RoundRect,0.060000X-0.140000X-0.290000X0.140000X-0.290000X0.140000X0.290000X-0.140000X0.290000X0*%
%TD*%
%TA.AperFunction,SMDPad,CuDef*%
%ADD26RoundRect,0.189000X-0.761000X-0.441000X0.761000X-0.441000X0.761000X0.441000X-0.761000X0.441000X0*%
%TD*%
%TA.AperFunction,SMDPad,CuDef*%
%ADD27RoundRect,0.189000X-1.011000X-0.441000X1.011000X-0.441000X1.011000X0.441000X-1.011000X0.441000X0*%
%TD*%
%TA.AperFunction,SMDPad,CuDef*%
%ADD28RoundRect,0.105000X-0.645000X-0.245000X0.645000X-0.245000X0.645000X0.245000X-0.645000X0.245000X0*%
%TD*%
%TA.AperFunction,SMDPad,CuDef*%
%ADD29RoundRect,0.100000X-0.637500X-0.100000X0.637500X-0.100000X0.637500X0.100000X-0.637500X0.100000X0*%
%TD*%
%TA.AperFunction,SMDPad,CuDef*%
%ADD30RoundRect,0.062500X-0.237500X-0.062500X0.237500X-0.062500X0.237500X0.062500X-0.237500X0.062500X0*%
%TD*%
%TA.AperFunction,HeatsinkPad*%
%ADD31R,1.600000X2.000000*%
%TD*%
%TA.AperFunction,SMDPad,CuDef*%
%ADD32RoundRect,0.218750X-0.218750X-0.256250X0.218750X-0.256250X0.218750X0.256250X-0.218750X0.256250X0*%
%TD*%
%TA.AperFunction,SMDPad,CuDef*%
%ADD33RoundRect,0.250000X-0.262500X-0.450000X0.262500X-0.450000X0.262500X0.450000X-0.262500X0.450000X0*%
%TD*%
%TA.AperFunction,SMDPad,CuDef*%
%ADD34RoundRect,0.250000X-0.325000X-0.650000X0.325000X-0.650000X0.325000X0.650000X-0.325000X0.650000X0*%
%TD*%
%TA.AperFunction,ComponentPad*%
%ADD35R,1.600000X1.600000*%
%TD*%
%TA.AperFunction,ComponentPad*%
%ADD36O,1.600000X1.600000*%
%TD*%
%TA.AperFunction,ComponentPad*%
%ADD37C,1.600000*%
%TD*%
%TA.AperFunction,SMDPad,CuDef*%
%ADD38RoundRect,0.250000X-1.050000X-1.350000X1.050000X-1.350000X1.050000X1.350000X-1.050000X1.350000X0*%
%TD*%
%TA.AperFunction,SMDPad,CuDef*%
%ADD39RoundRect,0.150000X-0.587500X-0.150000X0.587500X-0.150000X0.587500X0.150000X-0.587500X0.150000X0*%
%TD*%
%TA.AperFunction,SMDPad,CuDef*%
%ADD40RoundRect,0.162500X-0.825000X-0.162500X0.825000X-0.162500X0.825000X0.162500X-0.825000X0.162500X0*%
%TD*%
%TA.AperFunction,ComponentPad*%
%ADD41R,1.700000X1.700000*%
%TD*%
%TA.AperFunction,ComponentPad*%
%ADD42C,1.700000*%
%TD*%
%TA.AperFunction,SMDPad,CuDef*%
%ADD43RoundRect,0.150000X-0.512500X-0.150000X0.512500X-0.150000X0.512500X0.150000X-0.512500X0.150000X0*%
%TD*%
G04 APERTURE END LIST*
D10*
%TO.P,U17,20,BHO*%
%TO.N,/PerCoil/BH*%
X102575000Y-108580000D03*
%TO.P,U17,19,BHS*%
%TO.N,/PerCoil/BHS*%
X102575000Y-109850000D03*
%TO.P,U17,18,BLO*%
%TO.N,/PerCoil/BL*%
X102575000Y-111120000D03*
%TO.P,U17,17,BLS*%
%TO.N,/PerCoil/OC_SENSE*%
X102575000Y-112390000D03*
%TO.P,U17,16,VDD*%
%TO.N,+12V*%
X102575000Y-113660000D03*
%TO.P,U17,15,VCC*%
X102575000Y-114930000D03*
%TO.P,U17,14,ALS*%
%TO.N,/PerCoil/OC_SENSE*%
X102575000Y-116200000D03*
%TO.P,U17,13,ALO*%
%TO.N,/PerCoil/AL*%
X102575000Y-117470000D03*
%TO.P,U17,12,AHS*%
%TO.N,/+OUT1*%
X102575000Y-118740000D03*
%TO.P,U17,11,AHO*%
%TO.N,/PerCoil/AH*%
X102575000Y-120010000D03*
%TO.P,U17,10,AHB*%
%TO.N,Net-(D7-K)*%
X93275000Y-120010000D03*
%TO.P,U17,9,LDEL*%
%TO.N,Net-(U17-LDEL)*%
X93275000Y-118740000D03*
%TO.P,U17,8,HDEL*%
%TO.N,Net-(U17-HDEL)*%
X93275000Y-117470000D03*
%TO.P,U17,7,IN-*%
%TO.N,/VCM*%
X93275000Y-116200000D03*
%TO.P,U17,6,IN+*%
%TO.N,/PerCoil/SignalProcessingChain/DIR*%
X93275000Y-114930000D03*
%TO.P,U17,5,OUT*%
%TO.N,/PerCoil/SignalProcessingChain/Out*%
X93275000Y-113660000D03*
%TO.P,U17,4,VSS*%
%TO.N,GND*%
X93275000Y-112390000D03*
%TO.P,U17,3,DIS*%
%TO.N,/PerCoil/SignalProcessingChain/DIS*%
X93275000Y-111120000D03*
%TO.P,U17,2,HEN*%
%TO.N,/PerCoil/SignalProcessingChain/HEN*%
X93275000Y-109850000D03*
%TO.P,U17,1,BHB*%
%TO.N,Net-(D8-K)*%
X93275000Y-108580000D03*
%TD*%
D11*
%TO.P,R10,1*%
%TO.N,Net-(U8B-+)*%
X92480000Y-88040000D03*
%TO.P,R10,2*%
%TO.N,/~{OC2}*%
X94130000Y-88040000D03*
%TD*%
D12*
%TO.P,R24,1*%
%TO.N,/PerCoil/OC_SENSE*%
X175772500Y-87750000D03*
%TO.P,R24,2*%
%TO.N,GND*%
X178697500Y-87750000D03*
%TD*%
D13*
%TO.P,C29,1*%
%TO.N,+12V*%
X115870000Y-110750000D03*
%TO.P,C29,2*%
%TO.N,GND*%
X117420000Y-110750000D03*
%TD*%
D14*
%TO.P,J1,A5,CC1*%
%TO.N,Net-(J1-CC1)*%
X101885000Y-88477500D03*
D15*
%TO.P,J1,A9,VBUS*%
%TO.N,VBUS*%
X103905000Y-88477500D03*
D16*
%TO.P,J1,A12,GND*%
%TO.N,GND*%
X105135000Y-88477500D03*
D17*
%TO.P,J1,B5,CC2*%
%TO.N,Net-(J1-CC2)*%
X102885000Y-88477500D03*
D18*
%TO.P,J1,B9,VBUS*%
%TO.N,VBUS*%
X100865000Y-88477500D03*
D19*
%TO.P,J1,B12,GND*%
%TO.N,GND*%
X99635000Y-88477500D03*
D20*
%TO.P,J1,S1,SHIELD*%
X97260000Y-88532500D03*
D21*
X97260000Y-92112500D03*
D20*
X107510000Y-88532500D03*
D21*
X107510000Y-92112500D03*
%TD*%
D11*
%TO.P,R1,1*%
%TO.N,+5V*%
X84460000Y-95570000D03*
%TO.P,R1,2*%
%TO.N,/D1*%
X86110000Y-95570000D03*
%TD*%
%TO.P,R46,1*%
%TO.N,Net-(U30-K)*%
X156350000Y-148670000D03*
%TO.P,R46,2*%
%TO.N,Net-(U29B-+)*%
X158000000Y-148670000D03*
%TD*%
D13*
%TO.P,C15,1*%
%TO.N,Net-(D7-K)*%
X84680000Y-115770000D03*
%TO.P,C15,2*%
%TO.N,/+OUT1*%
X86230000Y-115770000D03*
%TD*%
%TO.P,C30,1*%
%TO.N,/VCM*%
X115870000Y-113260000D03*
%TO.P,C30,2*%
%TO.N,GND*%
X117420000Y-113260000D03*
%TD*%
D11*
%TO.P,R42,1*%
%TO.N,Net-(U28-LDEL)*%
X119830000Y-123300000D03*
%TO.P,R42,2*%
%TO.N,GND*%
X121480000Y-123300000D03*
%TD*%
D13*
%TO.P,C13,1*%
%TO.N,+12V*%
X84680000Y-110750000D03*
%TO.P,C13,2*%
%TO.N,GND*%
X86230000Y-110750000D03*
%TD*%
D11*
%TO.P,R2,1*%
%TO.N,+12V*%
X84460000Y-98080000D03*
%TO.P,R2,2*%
%TO.N,Net-(U1-FB)*%
X86110000Y-98080000D03*
%TD*%
%TO.P,R22,1*%
%TO.N,Net-(U17-HDEL)*%
X88640000Y-120790000D03*
%TO.P,R22,2*%
%TO.N,GND*%
X90290000Y-120790000D03*
%TD*%
D13*
%TO.P,C28,1*%
%TO.N,+5V*%
X115870000Y-108240000D03*
%TO.P,C28,2*%
%TO.N,GND*%
X117420000Y-108240000D03*
%TD*%
D11*
%TO.P,R7,1*%
%TO.N,/EN1*%
X88470000Y-95570000D03*
%TO.P,R7,2*%
%TO.N,GND*%
X90120000Y-95570000D03*
%TD*%
D13*
%TO.P,C21,1*%
%TO.N,/VCM*%
X111860000Y-108240000D03*
%TO.P,C21,2*%
%TO.N,GND*%
X113410000Y-108240000D03*
%TD*%
D22*
%TO.P,D8,1,K*%
%TO.N,Net-(D8-K)*%
X93540000Y-128290000D03*
%TO.P,D8,2,A*%
%TO.N,+12V*%
X97540000Y-128290000D03*
%TD*%
D13*
%TO.P,C8,1*%
%TO.N,+5V*%
X80670000Y-115770000D03*
%TO.P,C8,2*%
%TO.N,GND*%
X82220000Y-115770000D03*
%TD*%
%TO.P,C4,1*%
%TO.N,GND*%
X84510000Y-93060000D03*
%TO.P,C4,2*%
%TO.N,/0.2V*%
X86060000Y-93060000D03*
%TD*%
%TO.P,C16,1*%
%TO.N,Net-(D8-K)*%
X84680000Y-118280000D03*
%TO.P,C16,2*%
%TO.N,/PerCoil/BHS*%
X86230000Y-118280000D03*
%TD*%
D23*
%TO.P,U25,1,I1*%
%TO.N,/PWM4*%
X107555000Y-116185000D03*
%TO.P,U25,2,GND*%
%TO.N,GND*%
X107555000Y-116835000D03*
%TO.P,U25,3,I0*%
%TO.N,Net-(U23-Z)*%
X107555000Y-117485000D03*
%TO.P,U25,4,Z*%
%TO.N,Net-(U25-Z)*%
X109455000Y-117485000D03*
%TO.P,U25,5,Vcc*%
%TO.N,+5V*%
X109455000Y-116835000D03*
%TO.P,U25,6,S*%
%TO.N,/A2*%
X109455000Y-116185000D03*
%TD*%
D13*
%TO.P,C7,1*%
%TO.N,+5V*%
X80670000Y-113260000D03*
%TO.P,C7,2*%
%TO.N,GND*%
X82220000Y-113260000D03*
%TD*%
%TO.P,C14,1*%
%TO.N,/VCM*%
X84680000Y-113260000D03*
%TO.P,C14,2*%
%TO.N,GND*%
X86230000Y-113260000D03*
%TD*%
D11*
%TO.P,R47,1*%
%TO.N,Net-(U29B-+)*%
X156350000Y-151180000D03*
%TO.P,R47,2*%
%TO.N,GND*%
X158000000Y-151180000D03*
%TD*%
D13*
%TO.P,C18,1*%
%TO.N,Net-(U19--)*%
X171650000Y-89860000D03*
%TO.P,C18,2*%
%TO.N,Net-(U19-+)*%
X173200000Y-89860000D03*
%TD*%
D23*
%TO.P,U5,1,I1*%
%TO.N,Net-(U3-Z)*%
X126525000Y-95985000D03*
%TO.P,U5,2,GND*%
%TO.N,GND*%
X126525000Y-96635000D03*
%TO.P,U5,3,I0*%
%TO.N,Net-(U4-Z)*%
X126525000Y-97285000D03*
%TO.P,U5,4,Z*%
%TO.N,Net-(U5-Z)*%
X128425000Y-97285000D03*
%TO.P,U5,5,Vcc*%
%TO.N,+5V*%
X128425000Y-96635000D03*
%TO.P,U5,6,S*%
%TO.N,Net-(D3-K)*%
X128425000Y-95985000D03*
%TD*%
D13*
%TO.P,C26,1*%
%TO.N,/PerCoil1/SignalProcessingChain/Vtri*%
X111860000Y-120790000D03*
%TO.P,C26,2*%
%TO.N,GND*%
X113410000Y-120790000D03*
%TD*%
D23*
%TO.P,U26,1,I1*%
%TO.N,+5V*%
X107555000Y-120110000D03*
%TO.P,U26,2,GND*%
%TO.N,GND*%
X107555000Y-120760000D03*
%TO.P,U26,3,I0*%
%TO.N,Net-(U25-Z)*%
X107555000Y-121410000D03*
%TO.P,U26,4,Z*%
%TO.N,/PerCoil1/SignalProcessingChain/HEN*%
X109455000Y-121410000D03*
%TO.P,U26,5,Vcc*%
%TO.N,+5V*%
X109455000Y-120760000D03*
%TO.P,U26,6,S*%
%TO.N,/C2*%
X109455000Y-120110000D03*
%TD*%
D22*
%TO.P,D2,1,K*%
%TO.N,VBUS*%
X77260000Y-93610000D03*
%TO.P,D2,2,A*%
%TO.N,GND*%
X81260000Y-93610000D03*
%TD*%
D13*
%TO.P,C17,1*%
%TO.N,GND*%
X171650000Y-87350000D03*
%TO.P,C17,2*%
%TO.N,/A1*%
X173200000Y-87350000D03*
%TD*%
%TO.P,C22,1*%
%TO.N,Net-(U22B-+)*%
X111860000Y-110750000D03*
%TO.P,C22,2*%
%TO.N,GND*%
X113410000Y-110750000D03*
%TD*%
D23*
%TO.P,U4,1,I1*%
%TO.N,/PWM4*%
X126525000Y-92060000D03*
%TO.P,U4,2,GND*%
%TO.N,GND*%
X126525000Y-92710000D03*
%TO.P,U4,3,I0*%
%TO.N,/PWM3*%
X126525000Y-93360000D03*
%TO.P,U4,4,Z*%
%TO.N,Net-(U4-Z)*%
X128425000Y-93360000D03*
%TO.P,U4,5,Vcc*%
%TO.N,+5V*%
X128425000Y-92710000D03*
%TO.P,U4,6,S*%
%TO.N,/A2*%
X128425000Y-92060000D03*
%TD*%
D11*
%TO.P,R31,1*%
%TO.N,Net-(U21--)*%
X171600000Y-118010000D03*
%TO.P,R31,2*%
%TO.N,Net-(U21-+)*%
X173250000Y-118010000D03*
%TD*%
D22*
%TO.P,D11,1,K*%
%TO.N,Net-(D11-K)*%
X124730000Y-123740000D03*
%TO.P,D11,2,A*%
%TO.N,+12V*%
X128730000Y-123740000D03*
%TD*%
D11*
%TO.P,R23,1*%
%TO.N,Net-(U17-LDEL)*%
X88640000Y-123300000D03*
%TO.P,R23,2*%
%TO.N,GND*%
X90290000Y-123300000D03*
%TD*%
D23*
%TO.P,U15,1,I1*%
%TO.N,+5V*%
X76365000Y-120110000D03*
%TO.P,U15,2,GND*%
%TO.N,GND*%
X76365000Y-120760000D03*
%TO.P,U15,3,I0*%
%TO.N,Net-(U14-Z)*%
X76365000Y-121410000D03*
%TO.P,U15,4,Z*%
%TO.N,/PerCoil/SignalProcessingChain/HEN*%
X78265000Y-121410000D03*
%TO.P,U15,5,Vcc*%
%TO.N,+5V*%
X78265000Y-120760000D03*
%TO.P,U15,6,S*%
%TO.N,/C1*%
X78265000Y-120110000D03*
%TD*%
D11*
%TO.P,R8,1*%
%TO.N,/EN2*%
X88470000Y-98080000D03*
%TO.P,R8,2*%
%TO.N,GND*%
X90120000Y-98080000D03*
%TD*%
D22*
%TO.P,D4,1,K*%
%TO.N,Net-(D3-K)*%
X77260000Y-102710000D03*
%TO.P,D4,2,A*%
%TO.N,/C1*%
X81260000Y-102710000D03*
%TD*%
D11*
%TO.P,R4,1*%
%TO.N,Net-(J1-CC1)*%
X88470000Y-88040000D03*
%TO.P,R4,2*%
%TO.N,GND*%
X90120000Y-88040000D03*
%TD*%
D23*
%TO.P,U14,1,I1*%
%TO.N,/PWM2*%
X76365000Y-116185000D03*
%TO.P,U14,2,GND*%
%TO.N,GND*%
X76365000Y-116835000D03*
%TO.P,U14,3,I0*%
%TO.N,Net-(U12-Z)*%
X76365000Y-117485000D03*
%TO.P,U14,4,Z*%
%TO.N,Net-(U14-Z)*%
X78265000Y-117485000D03*
%TO.P,U14,5,Vcc*%
%TO.N,+5V*%
X78265000Y-116835000D03*
%TO.P,U14,6,S*%
%TO.N,/A1*%
X78265000Y-116185000D03*
%TD*%
D24*
%TO.P,U21,1,-*%
%TO.N,Net-(U21--)*%
X162600000Y-127240000D03*
%TO.P,U21,2,GND*%
%TO.N,GND*%
X162600000Y-128510000D03*
%TO.P,U21,3,REF2*%
X162600000Y-129780000D03*
%TO.P,U21,4,GND*%
X162600000Y-131050000D03*
%TO.P,U21,5*%
%TO.N,Net-(R32-Pad2)*%
X167550000Y-131050000D03*
%TO.P,U21,6,V+*%
%TO.N,+5V*%
X167550000Y-129780000D03*
%TO.P,U21,7,REF1*%
X167550000Y-128510000D03*
%TO.P,U21,8,+*%
%TO.N,Net-(U21-+)*%
X167550000Y-127240000D03*
%TD*%
D22*
%TO.P,D9,1,K*%
%TO.N,/PerCoil/OC_SENSE*%
X171370000Y-102420000D03*
%TO.P,D9,2,A*%
%TO.N,GND*%
X175370000Y-102420000D03*
%TD*%
D11*
%TO.P,R27,1*%
%TO.N,/A1*%
X171600000Y-94880000D03*
%TO.P,R27,2*%
%TO.N,Net-(R27-Pad2)*%
X173250000Y-94880000D03*
%TD*%
D13*
%TO.P,C32,1*%
%TO.N,Net-(D12-K)*%
X115870000Y-118280000D03*
%TO.P,C32,2*%
%TO.N,/PerCoil1/BHS*%
X117420000Y-118280000D03*
%TD*%
D22*
%TO.P,D12,1,K*%
%TO.N,Net-(D12-K)*%
X124730000Y-128290000D03*
%TO.P,D12,2,A*%
%TO.N,+12V*%
X128730000Y-128290000D03*
%TD*%
D11*
%TO.P,R3,1*%
%TO.N,Net-(U1-FB)*%
X84460000Y-100590000D03*
%TO.P,R3,2*%
%TO.N,GND*%
X86110000Y-100590000D03*
%TD*%
%TO.P,R32,1*%
%TO.N,/A2*%
X171600000Y-120520000D03*
%TO.P,R32,2*%
%TO.N,Net-(R32-Pad2)*%
X173250000Y-120520000D03*
%TD*%
D25*
%TO.P,U20,1,G1*%
%TO.N,/PerCoil1/AH*%
X156001343Y-134525000D03*
D26*
%TO.P,U20,2,D1*%
%TO.N,VBUS*%
X156620667Y-133281885D03*
D25*
X156801343Y-134525000D03*
%TO.P,U20,3,S1/D2*%
%TO.N,/+OUT2*%
X157601343Y-134525000D03*
D27*
X159151343Y-133285000D03*
D25*
%TO.P,U20,4,G2*%
%TO.N,/PerCoil1/AL*%
X158401343Y-134525000D03*
D28*
%TO.P,U20,5,S2*%
%TO.N,/PerCoil1/OC_SENSE*%
X159601343Y-134525000D03*
%TO.P,U20,6,S3*%
X159601343Y-130425000D03*
D25*
%TO.P,U20,7,G3*%
%TO.N,/PerCoil1/BL*%
X158401343Y-130425000D03*
%TO.P,U20,8,S4/D3*%
%TO.N,/PerCoil1/BHS*%
X157601343Y-130425000D03*
D27*
X159151343Y-131665000D03*
D26*
%TO.P,U20,9,D4*%
%TO.N,VBUS*%
X156620000Y-131661800D03*
D25*
X156801343Y-130425000D03*
%TO.P,U20,10,G4*%
%TO.N,/PerCoil1/BH*%
X156001343Y-130425000D03*
%TD*%
D13*
%TO.P,C23,1*%
%TO.N,+5V*%
X111860000Y-113260000D03*
%TO.P,C23,2*%
%TO.N,GND*%
X113410000Y-113260000D03*
%TD*%
D11*
%TO.P,R49,1*%
%TO.N,Net-(U29B--)*%
X156350000Y-156200000D03*
%TO.P,R49,2*%
%TO.N,/0.2V*%
X158000000Y-156200000D03*
%TD*%
D29*
%TO.P,U9,1*%
%TO.N,/~{OC1}*%
X118112500Y-94990000D03*
%TO.P,U9,2*%
%TO.N,Net-(R13-Pad2)*%
X118112500Y-95640000D03*
%TO.P,U9,3*%
%TO.N,/~{OC2}*%
X118112500Y-96290000D03*
%TO.P,U9,4*%
%TO.N,Net-(R14-Pad2)*%
X118112500Y-96940000D03*
%TO.P,U9,5*%
%TO.N,/PerCoil/EN*%
X118112500Y-97590000D03*
%TO.P,U9,6*%
%TO.N,Net-(U16-I0)*%
X118112500Y-98240000D03*
%TO.P,U9,7,GND*%
%TO.N,unconnected-(U9G-GND-Pad7)*%
X118112500Y-98890000D03*
%TO.P,U9,8*%
%TO.N,Net-(U27-I0)*%
X123837500Y-98890000D03*
%TO.P,U9,9*%
%TO.N,/PerCoil1/EN*%
X123837500Y-98240000D03*
%TO.P,U9,10*%
%TO.N,unconnected-(U9-Pad10)*%
X123837500Y-97590000D03*
%TO.P,U9,11*%
%TO.N,GND*%
X123837500Y-96940000D03*
%TO.P,U9,12*%
%TO.N,unconnected-(U9-Pad12)*%
X123837500Y-96290000D03*
%TO.P,U9,13*%
%TO.N,GND*%
X123837500Y-95640000D03*
%TO.P,U9,14,VCC*%
%TO.N,unconnected-(U9G-VCC-Pad14)*%
X123837500Y-94990000D03*
%TD*%
D11*
%TO.P,R35,1*%
%TO.N,Net-(U22B-+)*%
X115820000Y-123300000D03*
%TO.P,R35,2*%
%TO.N,+5V*%
X117470000Y-123300000D03*
%TD*%
%TO.P,R20,1*%
%TO.N,/PerCoil/SignalProcessingChain/Vtri*%
X88640000Y-115770000D03*
%TO.P,R20,2*%
%TO.N,/PerCoil/SignalProcessingChain/Vsq*%
X90290000Y-115770000D03*
%TD*%
%TO.P,R37,1*%
%TO.N,/VCM*%
X119830000Y-110750000D03*
%TO.P,R37,2*%
%TO.N,Net-(U22A-+)*%
X121480000Y-110750000D03*
%TD*%
%TO.P,R40,1*%
%TO.N,VBUS*%
X119830000Y-118280000D03*
%TO.P,R40,2*%
%TO.N,/PerCoil1/SignalProcessingChain/DIS*%
X121480000Y-118280000D03*
%TD*%
%TO.P,R11,1*%
%TO.N,/0.2V*%
X92480000Y-90550000D03*
%TO.P,R11,2*%
%TO.N,Net-(U8A-+)*%
X94130000Y-90550000D03*
%TD*%
%TO.P,R21,1*%
%TO.N,VBUS*%
X88640000Y-118280000D03*
%TO.P,R21,2*%
%TO.N,/PerCoil/SignalProcessingChain/DIS*%
X90290000Y-118280000D03*
%TD*%
D12*
%TO.P,R30,1*%
%TO.N,Net-(U21--)*%
X175772500Y-116700000D03*
%TO.P,R30,2*%
%TO.N,/-OUT2*%
X178697500Y-116700000D03*
%TD*%
D11*
%TO.P,R6,1*%
%TO.N,Net-(D3-K)*%
X88470000Y-93060000D03*
%TO.P,R6,2*%
%TO.N,GND*%
X90120000Y-93060000D03*
%TD*%
%TO.P,R28,1*%
%TO.N,/-OUT1*%
X171600000Y-97390000D03*
%TO.P,R28,2*%
%TO.N,Net-(U19-+)*%
X173250000Y-97390000D03*
%TD*%
%TO.P,R16,1*%
%TO.N,Net-(U11B-+)*%
X84630000Y-123300000D03*
%TO.P,R16,2*%
%TO.N,+5V*%
X86280000Y-123300000D03*
%TD*%
D29*
%TO.P,U6,1,A*%
%TO.N,/EN1*%
X118112500Y-88275000D03*
%TO.P,U6,2,B*%
%TO.N,/~{OC1}*%
X118112500Y-88925000D03*
%TO.P,U6,3,Y*%
%TO.N,/PerCoil/EN*%
X118112500Y-89575000D03*
%TO.P,U6,4,A*%
%TO.N,/EN2*%
X118112500Y-90225000D03*
%TO.P,U6,5,B*%
%TO.N,/~{OC2}*%
X118112500Y-90875000D03*
%TO.P,U6,6,Y*%
%TO.N,/PerCoil1/EN*%
X118112500Y-91525000D03*
%TO.P,U6,7,V-*%
%TO.N,Net-(U6E-V--Pad7)*%
X118112500Y-92175000D03*
%TO.P,U6,8,A*%
%TO.N,/PerCoil/EN*%
X123837500Y-92175000D03*
%TO.P,U6,9,B*%
%TO.N,/C1*%
X123837500Y-91525000D03*
%TO.P,U6,10,Y*%
%TO.N,/PerCoil/SignalProcessingChain/EN\u002AC*%
X123837500Y-90875000D03*
%TO.P,U6,11,A*%
%TO.N,/PerCoil1/EN*%
X123837500Y-90225000D03*
%TO.P,U6,12,B*%
%TO.N,/C2*%
X123837500Y-89575000D03*
%TO.P,U6,13,Y*%
%TO.N,/PerCoil1/SignalProcessingChain/EN\u002AC*%
X123837500Y-88925000D03*
%TO.P,U6,14,V+*%
%TO.N,unconnected-(U6E-V+-Pad14)*%
X123837500Y-88275000D03*
%TD*%
D11*
%TO.P,R33,1*%
%TO.N,/-OUT2*%
X171600000Y-123030000D03*
%TO.P,R33,2*%
%TO.N,Net-(U21-+)*%
X173250000Y-123030000D03*
%TD*%
D13*
%TO.P,C2,1*%
%TO.N,GND*%
X84510000Y-88040000D03*
%TO.P,C2,2*%
%TO.N,+5V*%
X86060000Y-88040000D03*
%TD*%
D11*
%TO.P,R38,1*%
%TO.N,Net-(U22A-+)*%
X119830000Y-113260000D03*
%TO.P,R38,2*%
%TO.N,/PerCoil1/SignalProcessingChain/Vsq*%
X121480000Y-113260000D03*
%TD*%
D13*
%TO.P,C3,1*%
%TO.N,GND*%
X84510000Y-90550000D03*
%TO.P,C3,2*%
%TO.N,+5V*%
X86060000Y-90550000D03*
%TD*%
D11*
%TO.P,R5,1*%
%TO.N,Net-(J1-CC2)*%
X88470000Y-90550000D03*
%TO.P,R5,2*%
%TO.N,GND*%
X90120000Y-90550000D03*
%TD*%
D23*
%TO.P,U23,1,I1*%
%TO.N,/PerCoil1/SignalProcessingChain/HF PWM*%
X107555000Y-108335000D03*
%TO.P,U23,2,GND*%
%TO.N,GND*%
X107555000Y-108985000D03*
%TO.P,U23,3,I0*%
%TO.N,/PWM4*%
X107555000Y-109635000D03*
%TO.P,U23,4,Z*%
%TO.N,Net-(U23-Z)*%
X109455000Y-109635000D03*
%TO.P,U23,5,Vcc*%
%TO.N,+5V*%
X109455000Y-108985000D03*
%TO.P,U23,6,S*%
%TO.N,/B2*%
X109455000Y-108335000D03*
%TD*%
D30*
%TO.P,U7,1,VDD*%
%TO.N,+5V*%
X139440000Y-98200000D03*
%TO.P,U7,2,OutA*%
%TO.N,/DACOUT1*%
X139440000Y-98700000D03*
%TO.P,U7,3,OutB*%
%TO.N,/DACOUT2*%
X139440000Y-99200000D03*
%TO.P,U7,4,NC*%
%TO.N,unconnected-(U7-NC-Pad4)*%
X139440000Y-99700000D03*
%TO.P,U7,5,NC*%
%TO.N,unconnected-(U7-NC-Pad5)*%
X139440000Y-100200000D03*
%TO.P,U7,6,GND*%
%TO.N,GND*%
X142240000Y-100200000D03*
%TO.P,U7,7,Vrefin*%
%TO.N,/VCM*%
X142240000Y-99700000D03*
%TO.P,U7,8,DIN*%
%TO.N,Net-(U5-Z)*%
X142240000Y-99200000D03*
%TO.P,U7,9,~{SYNC}*%
%TO.N,/PWM6*%
X142240000Y-98700000D03*
%TO.P,U7,10,SCLK*%
%TO.N,/PWM5*%
X142240000Y-98200000D03*
D31*
%TO.P,U7,11*%
%TO.N,N/C*%
X140840000Y-99200000D03*
%TD*%
D23*
%TO.P,U27,1,I1*%
%TO.N,Net-(U25-Z)*%
X107555000Y-124035000D03*
%TO.P,U27,2,GND*%
%TO.N,GND*%
X107555000Y-124685000D03*
%TO.P,U27,3,I0*%
%TO.N,Net-(U27-I0)*%
X107555000Y-125335000D03*
%TO.P,U27,4,Z*%
%TO.N,/PerCoil1/SignalProcessingChain/DIS*%
X109455000Y-125335000D03*
%TO.P,U27,5,Vcc*%
%TO.N,+5V*%
X109455000Y-124685000D03*
%TO.P,U27,6,S*%
%TO.N,/PerCoil1/SignalProcessingChain/EN\u002AC*%
X109455000Y-124035000D03*
%TD*%
D11*
%TO.P,R34,1*%
%TO.N,/DACOUT2*%
X115820000Y-120790000D03*
%TO.P,R34,2*%
%TO.N,Net-(U22B-+)*%
X117470000Y-120790000D03*
%TD*%
D13*
%TO.P,C19,1*%
%TO.N,GND*%
X171650000Y-112990000D03*
%TO.P,C19,2*%
%TO.N,/A2*%
X173200000Y-112990000D03*
%TD*%
D32*
%TO.P,D6,1,K*%
%TO.N,GND*%
X144497500Y-101060000D03*
%TO.P,D6,2,A*%
%TO.N,Net-(D6-A)*%
X146072500Y-101060000D03*
%TD*%
D13*
%TO.P,C6,1*%
%TO.N,Net-(U11B-+)*%
X80670000Y-110750000D03*
%TO.P,C6,2*%
%TO.N,GND*%
X82220000Y-110750000D03*
%TD*%
%TO.P,C5,1*%
%TO.N,/VCM*%
X80670000Y-108240000D03*
%TO.P,C5,2*%
%TO.N,GND*%
X82220000Y-108240000D03*
%TD*%
D23*
%TO.P,U3,1,I1*%
%TO.N,/PWM2*%
X126525000Y-88135000D03*
%TO.P,U3,2,GND*%
%TO.N,GND*%
X126525000Y-88785000D03*
%TO.P,U3,3,I0*%
%TO.N,/PWM1*%
X126525000Y-89435000D03*
%TO.P,U3,4,Z*%
%TO.N,Net-(U3-Z)*%
X128425000Y-89435000D03*
%TO.P,U3,5,Vcc*%
%TO.N,+5V*%
X128425000Y-88785000D03*
%TO.P,U3,6,S*%
%TO.N,/A1*%
X128425000Y-88135000D03*
%TD*%
D33*
%TO.P,R43,1*%
%TO.N,+5V*%
X160472500Y-149880000D03*
%TO.P,R43,2*%
%TO.N,Net-(U30-K)*%
X162297500Y-149880000D03*
%TD*%
D13*
%TO.P,C27,1*%
%TO.N,+5V*%
X111860000Y-123300000D03*
%TO.P,C27,2*%
%TO.N,GND*%
X113410000Y-123300000D03*
%TD*%
D22*
%TO.P,D10,1,K*%
%TO.N,/PerCoil1/OC_SENSE*%
X171370000Y-128060000D03*
%TO.P,D10,2,A*%
%TO.N,GND*%
X175370000Y-128060000D03*
%TD*%
D34*
%TO.P,C1,1*%
%TO.N,+12V*%
X145390000Y-95100000D03*
%TO.P,C1,2*%
%TO.N,GND*%
X148340000Y-95100000D03*
%TD*%
D13*
%TO.P,C11,1*%
%TO.N,+5V*%
X80670000Y-123300000D03*
%TO.P,C11,2*%
%TO.N,GND*%
X82220000Y-123300000D03*
%TD*%
D24*
%TO.P,U2,1,QB*%
%TO.N,/EN2*%
X131350000Y-88240000D03*
%TO.P,U2,2,QC*%
%TO.N,/A1*%
X131350000Y-89510000D03*
%TO.P,U2,3,QD*%
%TO.N,/B1*%
X131350000Y-90780000D03*
%TO.P,U2,4,QE*%
%TO.N,/C1*%
X131350000Y-92050000D03*
%TO.P,U2,5,QF*%
%TO.N,/A2*%
X131350000Y-93320000D03*
%TO.P,U2,6,QG*%
%TO.N,/B2*%
X131350000Y-94590000D03*
%TO.P,U2,7,QH*%
%TO.N,/C2*%
X131350000Y-95860000D03*
%TO.P,U2,8,GND*%
%TO.N,GND*%
X131350000Y-97130000D03*
%TO.P,U2,9,QH'*%
%TO.N,unconnected-(U2-QH&apos;-Pad9)*%
X136300000Y-97130000D03*
%TO.P,U2,10,~{SRCLR}*%
%TO.N,+5V*%
X136300000Y-95860000D03*
%TO.P,U2,11,SRCLK*%
%TO.N,/PWM5*%
X136300000Y-94590000D03*
%TO.P,U2,12,RCLK*%
%TO.N,/D3*%
X136300000Y-93320000D03*
%TO.P,U2,13,~{OE}*%
%TO.N,/D1*%
X136300000Y-92050000D03*
%TO.P,U2,14,SER*%
%TO.N,/D2*%
X136300000Y-90780000D03*
%TO.P,U2,15,QA*%
%TO.N,/EN1*%
X136300000Y-89510000D03*
%TO.P,U2,16,VCC*%
%TO.N,+5V*%
X136300000Y-88240000D03*
%TD*%
D11*
%TO.P,R19,1*%
%TO.N,Net-(U11A-+)*%
X88640000Y-113260000D03*
%TO.P,R19,2*%
%TO.N,/PerCoil/SignalProcessingChain/Vsq*%
X90290000Y-113260000D03*
%TD*%
%TO.P,R13,1*%
%TO.N,Net-(D5-A)*%
X92480000Y-95570000D03*
%TO.P,R13,2*%
%TO.N,Net-(R13-Pad2)*%
X94130000Y-95570000D03*
%TD*%
D22*
%TO.P,D1,1,K*%
%TO.N,+12V*%
X77260000Y-89060000D03*
%TO.P,D1,2,A*%
%TO.N,Net-(D1-A)*%
X81260000Y-89060000D03*
%TD*%
D11*
%TO.P,R41,1*%
%TO.N,Net-(U28-HDEL)*%
X119830000Y-120790000D03*
%TO.P,R41,2*%
%TO.N,GND*%
X121480000Y-120790000D03*
%TD*%
D35*
%TO.P,A1,1,NC*%
%TO.N,unconnected-(A1-NC-Pad1)*%
X110255000Y-35210000D03*
D36*
%TO.P,A1,2,IOREF*%
%TO.N,unconnected-(A1-IOREF-Pad2)*%
X112795000Y-35210000D03*
%TO.P,A1,3,~{RESET}*%
%TO.N,unconnected-(A1-~{RESET}-Pad3)*%
X115335000Y-35210000D03*
%TO.P,A1,4,3V3*%
%TO.N,unconnected-(A1-3V3-Pad4)*%
X117875000Y-35210000D03*
%TO.P,A1,5,+5V*%
%TO.N,+5V*%
X120415000Y-35210000D03*
%TO.P,A1,6,GND*%
%TO.N,GND*%
X122955000Y-35210000D03*
%TO.P,A1,7,GND*%
X125495000Y-35210000D03*
%TO.P,A1,8,VIN*%
%TO.N,+12V*%
X128035000Y-35210000D03*
%TO.P,A1,9,A0*%
%TO.N,/A1*%
X133115000Y-35210000D03*
%TO.P,A1,10,A1*%
%TO.N,/A2*%
X135655000Y-35210000D03*
%TO.P,A1,11,A2*%
%TO.N,unconnected-(A1-A2-Pad11)*%
X138195000Y-35210000D03*
%TO.P,A1,12,A3*%
%TO.N,unconnected-(A1-A3-Pad12)*%
X140735000Y-35210000D03*
%TO.P,A1,13,SDA/A4*%
%TO.N,unconnected-(A1-SDA{slash}A4-Pad13)*%
X143275000Y-35210000D03*
%TO.P,A1,14,SCL/A5*%
%TO.N,unconnected-(A1-SCL{slash}A5-Pad14)*%
X145815000Y-35210000D03*
%TO.P,A1,15,D0/RX*%
%TO.N,unconnected-(A1-D0{slash}RX-Pad15)*%
X145815000Y-83470000D03*
%TO.P,A1,16,D1/TX*%
%TO.N,unconnected-(A1-D1{slash}TX-Pad16)*%
X143275000Y-83470000D03*
%TO.P,A1,17,D2*%
%TO.N,unconnected-(A1-D2-Pad17)*%
X140735000Y-83470000D03*
%TO.P,A1,18,D3*%
%TO.N,/PWM6*%
X138195000Y-83470000D03*
%TO.P,A1,19,D4*%
%TO.N,/D1*%
X135655000Y-83470000D03*
%TO.P,A1,20,D5*%
%TO.N,/PWM5*%
X133115000Y-83470000D03*
%TO.P,A1,21,D6*%
%TO.N,/PWM4*%
X130575000Y-83470000D03*
%TO.P,A1,22,D7*%
%TO.N,/D2*%
X128035000Y-83470000D03*
%TO.P,A1,23,D8*%
%TO.N,/D3*%
X123975000Y-83470000D03*
%TO.P,A1,24,D9*%
%TO.N,/PWM3*%
X121435000Y-83470000D03*
%TO.P,A1,25,D10*%
%TO.N,/PWM2*%
X118895000Y-83470000D03*
%TO.P,A1,26,D11*%
%TO.N,/PWM1*%
X116355000Y-83470000D03*
%TO.P,A1,27,D12*%
%TO.N,unconnected-(A1-D12-Pad27)*%
X113815000Y-83470000D03*
%TO.P,A1,28,D13*%
%TO.N,unconnected-(A1-D13-Pad28)*%
X111275000Y-83470000D03*
%TO.P,A1,29,GND*%
%TO.N,GND*%
X108735000Y-83470000D03*
%TO.P,A1,30,AREF*%
%TO.N,unconnected-(A1-AREF-Pad30)*%
X106195000Y-83470000D03*
%TO.P,A1,31,SDA/A4*%
%TO.N,unconnected-(A1-SDA{slash}A4-Pad31)*%
X103655000Y-83470000D03*
%TO.P,A1,32,SCL/A5*%
%TO.N,unconnected-(A1-SCL{slash}A5-Pad32)*%
X101115000Y-83470000D03*
%TD*%
D37*
%TO.P,L1,1,1*%
%TO.N,VBUS*%
X139925000Y-95300000D03*
%TO.P,L1,2,2*%
%TO.N,Net-(D1-A)*%
X142465000Y-95300000D03*
%TD*%
D11*
%TO.P,R48,1*%
%TO.N,Net-(U29A--)*%
X156350000Y-153690000D03*
%TO.P,R48,2*%
%TO.N,/VCM*%
X158000000Y-153690000D03*
%TD*%
%TO.P,R15,1*%
%TO.N,/DACOUT1*%
X84630000Y-120790000D03*
%TO.P,R15,2*%
%TO.N,Net-(U11B-+)*%
X86280000Y-120790000D03*
%TD*%
%TO.P,R44,1*%
%TO.N,+5V*%
X156350000Y-143650000D03*
%TO.P,R44,2*%
%TO.N,Net-(U29A-+)*%
X158000000Y-143650000D03*
%TD*%
%TO.P,R39,1*%
%TO.N,/PerCoil1/SignalProcessingChain/Vtri*%
X119830000Y-115770000D03*
%TO.P,R39,2*%
%TO.N,/PerCoil1/SignalProcessingChain/Vsq*%
X121480000Y-115770000D03*
%TD*%
D38*
%TO.P,L2,1,1*%
%TO.N,/PerCoil/BHS*%
X157245000Y-93120000D03*
%TO.P,L2,2,2*%
%TO.N,Net-(U19--)*%
X168345000Y-93120000D03*
%TD*%
D23*
%TO.P,U16,1,I1*%
%TO.N,Net-(U14-Z)*%
X76365000Y-124035000D03*
%TO.P,U16,2,GND*%
%TO.N,GND*%
X76365000Y-124685000D03*
%TO.P,U16,3,I0*%
%TO.N,Net-(U16-I0)*%
X76365000Y-125335000D03*
%TO.P,U16,4,Z*%
%TO.N,/PerCoil/SignalProcessingChain/DIS*%
X78265000Y-125335000D03*
%TO.P,U16,5,Vcc*%
%TO.N,+5V*%
X78265000Y-124685000D03*
%TO.P,U16,6,S*%
%TO.N,/PerCoil/SignalProcessingChain/EN\u002AC*%
X78265000Y-124035000D03*
%TD*%
D13*
%TO.P,C12,1*%
%TO.N,+5V*%
X84680000Y-108240000D03*
%TO.P,C12,2*%
%TO.N,GND*%
X86230000Y-108240000D03*
%TD*%
D38*
%TO.P,L3,1,1*%
%TO.N,/PerCoil1/BHS*%
X157245000Y-118760000D03*
%TO.P,L3,2,2*%
%TO.N,Net-(U21--)*%
X168345000Y-118760000D03*
%TD*%
D13*
%TO.P,C10,1*%
%TO.N,/PerCoil/SignalProcessingChain/Vtri*%
X80670000Y-120790000D03*
%TO.P,C10,2*%
%TO.N,GND*%
X82220000Y-120790000D03*
%TD*%
D11*
%TO.P,R36,1*%
%TO.N,GND*%
X119830000Y-108240000D03*
%TO.P,R36,2*%
%TO.N,Net-(U22B-+)*%
X121480000Y-108240000D03*
%TD*%
%TO.P,R9,1*%
%TO.N,Net-(U8A-+)*%
X88470000Y-100590000D03*
%TO.P,R9,2*%
%TO.N,/~{OC1}*%
X90120000Y-100590000D03*
%TD*%
%TO.P,R14,1*%
%TO.N,Net-(D6-A)*%
X92480000Y-98080000D03*
%TO.P,R14,2*%
%TO.N,Net-(R14-Pad2)*%
X94130000Y-98080000D03*
%TD*%
D39*
%TO.P,U30,1,REF*%
%TO.N,Net-(U30-K)*%
X160697500Y-145230000D03*
%TO.P,U30,2,K*%
X160697500Y-147130000D03*
%TO.P,U30,3,A*%
%TO.N,GND*%
X162572500Y-146180000D03*
%TD*%
D13*
%TO.P,C20,1*%
%TO.N,Net-(U21--)*%
X171650000Y-115500000D03*
%TO.P,C20,2*%
%TO.N,Net-(U21-+)*%
X173200000Y-115500000D03*
%TD*%
%TO.P,C34,1*%
%TO.N,GND*%
X156400000Y-141140000D03*
%TO.P,C34,2*%
%TO.N,/0.2V*%
X157950000Y-141140000D03*
%TD*%
D40*
%TO.P,U22,1,+*%
%TO.N,Net-(U22A-+)*%
X112397500Y-126040000D03*
%TO.P,U22,2,-*%
%TO.N,/PerCoil1/SignalProcessingChain/Vtri*%
X112397500Y-127310000D03*
%TO.P,U22,3,+*%
%TO.N,Net-(U22B-+)*%
X112397500Y-128580000D03*
%TO.P,U22,4,-*%
%TO.N,/PerCoil1/SignalProcessingChain/Vtri*%
X112397500Y-129850000D03*
%TO.P,U22,5,V-*%
%TO.N,GND*%
X117472500Y-129850000D03*
%TO.P,U22,6*%
%TO.N,/PerCoil1/SignalProcessingChain/HF PWM*%
X117472500Y-128580000D03*
%TO.P,U22,7*%
%TO.N,/PerCoil1/SignalProcessingChain/Vsq*%
X117472500Y-127310000D03*
%TO.P,U22,8,V+*%
%TO.N,+5V*%
X117472500Y-126040000D03*
%TD*%
D24*
%TO.P,U29,1*%
%TO.N,Net-(U29A--)*%
X160930000Y-138830000D03*
%TO.P,U29,2,-*%
X160930000Y-140100000D03*
%TO.P,U29,3,+*%
%TO.N,Net-(U29A-+)*%
X160930000Y-141370000D03*
%TO.P,U29,4,V-*%
%TO.N,GND*%
X160930000Y-142640000D03*
%TO.P,U29,5,+*%
%TO.N,Net-(U29B-+)*%
X165880000Y-142640000D03*
%TO.P,U29,6,-*%
%TO.N,Net-(U29B--)*%
X165880000Y-141370000D03*
%TO.P,U29,7*%
X165880000Y-140100000D03*
%TO.P,U29,8,V+*%
%TO.N,+5V*%
X165880000Y-138830000D03*
%TD*%
D41*
%TO.P,J3,1,Pin_1*%
%TO.N,/+OUT1*%
X111755000Y-93670000D03*
D42*
%TO.P,J3,2,Pin_2*%
%TO.N,/-OUT1*%
X114295000Y-93670000D03*
%TD*%
D32*
%TO.P,D5,1,K*%
%TO.N,GND*%
X144497500Y-98470000D03*
%TO.P,D5,2,A*%
%TO.N,Net-(D5-A)*%
X146072500Y-98470000D03*
%TD*%
D23*
%TO.P,U24,1,I1*%
%TO.N,/PerCoil1/SignalProcessingChain/HF PWM*%
X107555000Y-112260000D03*
%TO.P,U24,2,GND*%
%TO.N,GND*%
X107555000Y-112910000D03*
%TO.P,U24,3,I0*%
%TO.N,/PWM3*%
X107555000Y-113560000D03*
%TO.P,U24,4,Z*%
%TO.N,/PerCoil1/SignalProcessingChain/DIR*%
X109455000Y-113560000D03*
%TO.P,U24,5,Vcc*%
%TO.N,+5V*%
X109455000Y-112910000D03*
%TO.P,U24,6,S*%
%TO.N,/A2*%
X109455000Y-112260000D03*
%TD*%
D11*
%TO.P,R12,1*%
%TO.N,/0.2V*%
X92480000Y-93060000D03*
%TO.P,R12,2*%
%TO.N,Net-(U8B-+)*%
X94130000Y-93060000D03*
%TD*%
%TO.P,R26,1*%
%TO.N,Net-(U19--)*%
X171600000Y-92370000D03*
%TO.P,R26,2*%
%TO.N,Net-(U19-+)*%
X173250000Y-92370000D03*
%TD*%
D13*
%TO.P,C33,1*%
%TO.N,GND*%
X156400000Y-138630000D03*
%TO.P,C33,2*%
%TO.N,/VCM*%
X157950000Y-138630000D03*
%TD*%
%TO.P,C9,1*%
%TO.N,+5V*%
X80670000Y-118280000D03*
%TO.P,C9,2*%
%TO.N,GND*%
X82220000Y-118280000D03*
%TD*%
D11*
%TO.P,R18,1*%
%TO.N,/VCM*%
X88640000Y-110750000D03*
%TO.P,R18,2*%
%TO.N,Net-(U11A-+)*%
X90290000Y-110750000D03*
%TD*%
%TO.P,R17,1*%
%TO.N,GND*%
X88640000Y-108240000D03*
%TO.P,R17,2*%
%TO.N,Net-(U11B-+)*%
X90290000Y-108240000D03*
%TD*%
D41*
%TO.P,J2,1,Pin_1*%
%TO.N,VBUS*%
X111755000Y-89080000D03*
D42*
%TO.P,J2,2,Pin_2*%
%TO.N,GND*%
X114295000Y-89080000D03*
%TD*%
D22*
%TO.P,D7,1,K*%
%TO.N,Net-(D7-K)*%
X93540000Y-123740000D03*
%TO.P,D7,2,A*%
%TO.N,+12V*%
X97540000Y-123740000D03*
%TD*%
D41*
%TO.P,J4,1,Pin_1*%
%TO.N,/+OUT2*%
X111755000Y-98260000D03*
D42*
%TO.P,J4,2,Pin_2*%
%TO.N,/-OUT2*%
X114295000Y-98260000D03*
%TD*%
D13*
%TO.P,C31,1*%
%TO.N,Net-(D11-K)*%
X115870000Y-115770000D03*
%TO.P,C31,2*%
%TO.N,/+OUT2*%
X117420000Y-115770000D03*
%TD*%
D12*
%TO.P,R25,1*%
%TO.N,Net-(U19--)*%
X175772500Y-91060000D03*
%TO.P,R25,2*%
%TO.N,/-OUT1*%
X178697500Y-91060000D03*
%TD*%
D40*
%TO.P,U11,1,+*%
%TO.N,Net-(U11A-+)*%
X81207500Y-126040000D03*
%TO.P,U11,2,-*%
%TO.N,/PerCoil/SignalProcessingChain/Vtri*%
X81207500Y-127310000D03*
%TO.P,U11,3,+*%
%TO.N,Net-(U11B-+)*%
X81207500Y-128580000D03*
%TO.P,U11,4,-*%
%TO.N,/PerCoil/SignalProcessingChain/Vtri*%
X81207500Y-129850000D03*
%TO.P,U11,5,V-*%
%TO.N,GND*%
X86282500Y-129850000D03*
%TO.P,U11,6*%
%TO.N,/PerCoil/SignalProcessingChain/HF PWM*%
X86282500Y-128580000D03*
%TO.P,U11,7*%
%TO.N,/PerCoil/SignalProcessingChain/Vsq*%
X86282500Y-127310000D03*
%TO.P,U11,8,V+*%
%TO.N,+5V*%
X86282500Y-126040000D03*
%TD*%
D13*
%TO.P,C25,1*%
%TO.N,+5V*%
X111860000Y-118280000D03*
%TO.P,C25,2*%
%TO.N,GND*%
X113410000Y-118280000D03*
%TD*%
D24*
%TO.P,U19,1,-*%
%TO.N,Net-(U19--)*%
X162600000Y-101600000D03*
%TO.P,U19,2,GND*%
%TO.N,GND*%
X162600000Y-102870000D03*
%TO.P,U19,3,REF2*%
X162600000Y-104140000D03*
%TO.P,U19,4,GND*%
X162600000Y-105410000D03*
%TO.P,U19,5*%
%TO.N,Net-(R27-Pad2)*%
X167550000Y-105410000D03*
%TO.P,U19,6,V+*%
%TO.N,+5V*%
X167550000Y-104140000D03*
%TO.P,U19,7,REF1*%
X167550000Y-102870000D03*
%TO.P,U19,8,+*%
%TO.N,Net-(U19-+)*%
X167550000Y-101600000D03*
%TD*%
D11*
%TO.P,R45,1*%
%TO.N,Net-(U29A-+)*%
X156350000Y-146160000D03*
%TO.P,R45,2*%
%TO.N,GND*%
X158000000Y-146160000D03*
%TD*%
D25*
%TO.P,U18,1,G1*%
%TO.N,/PerCoil/AH*%
X156001343Y-108885000D03*
D26*
%TO.P,U18,2,D1*%
%TO.N,VBUS*%
X156620667Y-107641885D03*
D25*
X156801343Y-108885000D03*
%TO.P,U18,3,S1/D2*%
%TO.N,/+OUT1*%
X157601343Y-108885000D03*
D27*
X159151343Y-107645000D03*
D25*
%TO.P,U18,4,G2*%
%TO.N,/PerCoil/AL*%
X158401343Y-108885000D03*
D28*
%TO.P,U18,5,S2*%
%TO.N,/PerCoil/OC_SENSE*%
X159601343Y-108885000D03*
%TO.P,U18,6,S3*%
X159601343Y-104785000D03*
D25*
%TO.P,U18,7,G3*%
%TO.N,/PerCoil/BL*%
X158401343Y-104785000D03*
%TO.P,U18,8,S4/D3*%
%TO.N,/PerCoil/BHS*%
X157601343Y-104785000D03*
D27*
X159151343Y-106025000D03*
D26*
%TO.P,U18,9,D4*%
%TO.N,VBUS*%
X156620000Y-106021800D03*
D25*
X156801343Y-104785000D03*
%TO.P,U18,10,G4*%
%TO.N,/PerCoil/BH*%
X156001343Y-104785000D03*
%TD*%
D40*
%TO.P,U8,1,+*%
%TO.N,Net-(U8A-+)*%
X139817500Y-88270000D03*
%TO.P,U8,2,-*%
%TO.N,/PerCoil/OC_SENSE*%
X139817500Y-89540000D03*
%TO.P,U8,3,+*%
%TO.N,Net-(U8B-+)*%
X139817500Y-90810000D03*
%TO.P,U8,4,-*%
%TO.N,/PerCoil1/OC_SENSE*%
X139817500Y-92080000D03*
%TO.P,U8,5,V-*%
%TO.N,GND*%
X144892500Y-92080000D03*
%TO.P,U8,6*%
%TO.N,/~{OC2}*%
X144892500Y-90810000D03*
%TO.P,U8,7*%
%TO.N,/~{OC1}*%
X144892500Y-89540000D03*
%TO.P,U8,8,V+*%
%TO.N,+5V*%
X144892500Y-88270000D03*
%TD*%
D23*
%TO.P,U13,1,I1*%
%TO.N,/PerCoil/SignalProcessingChain/HF PWM*%
X76365000Y-112260000D03*
%TO.P,U13,2,GND*%
%TO.N,GND*%
X76365000Y-112910000D03*
%TO.P,U13,3,I0*%
%TO.N,/PWM1*%
X76365000Y-113560000D03*
%TO.P,U13,4,Z*%
%TO.N,/PerCoil/SignalProcessingChain/DIR*%
X78265000Y-113560000D03*
%TO.P,U13,5,Vcc*%
%TO.N,+5V*%
X78265000Y-112910000D03*
%TO.P,U13,6,S*%
%TO.N,/A1*%
X78265000Y-112260000D03*
%TD*%
D12*
%TO.P,R29,1*%
%TO.N,/PerCoil1/OC_SENSE*%
X175772500Y-113390000D03*
%TO.P,R29,2*%
%TO.N,GND*%
X178697500Y-113390000D03*
%TD*%
D10*
%TO.P,U28,1,BHB*%
%TO.N,Net-(D12-K)*%
X124465000Y-108580000D03*
%TO.P,U28,2,HEN*%
%TO.N,/PerCoil1/SignalProcessingChain/HEN*%
X124465000Y-109850000D03*
%TO.P,U28,3,DIS*%
%TO.N,/PerCoil1/SignalProcessingChain/DIS*%
X124465000Y-111120000D03*
%TO.P,U28,4,VSS*%
%TO.N,GND*%
X124465000Y-112390000D03*
%TO.P,U28,5,OUT*%
%TO.N,/PerCoil1/SignalProcessingChain/Out*%
X124465000Y-113660000D03*
%TO.P,U28,6,IN+*%
%TO.N,/PerCoil1/SignalProcessingChain/DIR*%
X124465000Y-114930000D03*
%TO.P,U28,7,IN-*%
%TO.N,/VCM*%
X124465000Y-116200000D03*
%TO.P,U28,8,HDEL*%
%TO.N,Net-(U28-HDEL)*%
X124465000Y-117470000D03*
%TO.P,U28,9,LDEL*%
%TO.N,Net-(U28-LDEL)*%
X124465000Y-118740000D03*
%TO.P,U28,10,AHB*%
%TO.N,Net-(D11-K)*%
X124465000Y-120010000D03*
%TO.P,U28,11,AHO*%
%TO.N,/PerCoil1/AH*%
X133765000Y-120010000D03*
%TO.P,U28,12,AHS*%
%TO.N,/+OUT2*%
X133765000Y-118740000D03*
%TO.P,U28,13,ALO*%
%TO.N,/PerCoil1/AL*%
X133765000Y-117470000D03*
%TO.P,U28,14,ALS*%
%TO.N,/PerCoil1/OC_SENSE*%
X133765000Y-116200000D03*
%TO.P,U28,15,VCC*%
%TO.N,+12V*%
X133765000Y-114930000D03*
%TO.P,U28,16,VDD*%
X133765000Y-113660000D03*
%TO.P,U28,17,BLS*%
%TO.N,/PerCoil1/OC_SENSE*%
X133765000Y-112390000D03*
%TO.P,U28,18,BLO*%
%TO.N,/PerCoil1/BL*%
X133765000Y-111120000D03*
%TO.P,U28,19,BHS*%
%TO.N,/PerCoil1/BHS*%
X133765000Y-109850000D03*
%TO.P,U28,20,BHO*%
%TO.N,/PerCoil1/BH*%
X133765000Y-108580000D03*
%TD*%
D13*
%TO.P,C24,1*%
%TO.N,+5V*%
X111860000Y-115770000D03*
%TO.P,C24,2*%
%TO.N,GND*%
X113410000Y-115770000D03*
%TD*%
D23*
%TO.P,U12,1,I1*%
%TO.N,/PerCoil/SignalProcessingChain/HF PWM*%
X76365000Y-108335000D03*
%TO.P,U12,2,GND*%
%TO.N,GND*%
X76365000Y-108985000D03*
%TO.P,U12,3,I0*%
%TO.N,/PWM2*%
X76365000Y-109635000D03*
%TO.P,U12,4,Z*%
%TO.N,Net-(U12-Z)*%
X78265000Y-109635000D03*
%TO.P,U12,5,Vcc*%
%TO.N,+5V*%
X78265000Y-108985000D03*
%TO.P,U12,6,S*%
%TO.N,/B1*%
X78265000Y-108335000D03*
%TD*%
D43*
%TO.P,U1,1,SW*%
%TO.N,Net-(D1-A)*%
X131037500Y-99855000D03*
%TO.P,U1,2,GND*%
%TO.N,GND*%
X131037500Y-100805000D03*
%TO.P,U1,3,FB*%
%TO.N,Net-(U1-FB)*%
X131037500Y-101755000D03*
%TO.P,U1,4,EN*%
%TO.N,VBUS*%
X133312500Y-101755000D03*
%TO.P,U1,5,IN*%
X133312500Y-100805000D03*
%TO.P,U1,6,NC*%
%TO.N,unconnected-(U1-NC-Pad6)*%
X133312500Y-99855000D03*
%TD*%
D22*
%TO.P,D3,1,K*%
%TO.N,Net-(D3-K)*%
X77260000Y-98160000D03*
%TO.P,D3,2,A*%
%TO.N,/B1*%
X81260000Y-98160000D03*
%TD*%
M02*
