M48
; DRILL file {KiCad 9.0.5} date 2026-06-01T19:14:00+0100
; FORMAT={-:-/ absolute / inch / decimal}
; #@! TF.CreationDate,2026-06-01T19:14:00+01:00
; #@! TF.GenerationSoftware,Kicad,Pcbnew,9.0.5
; #@! TF.FileFunction,Plated,1,2,PTH
FMAT,2
INCH
; #@! TA.AperFunction,Plated,PTH,ViaDrill
T1C0.0118
; #@! TA.AperFunction,Plated,PTH,ComponentDrill
T2C0.0394
%
G90
G05
T1
X2.315Y-6.0157
X2.3307Y-5.4567
X2.3307Y-6.0945
X2.3543Y-6.2598
X2.3543Y-6.378
X2.3543Y-6.622
X2.3622Y-6.8031
X2.378Y-6.6614
X2.3937Y-5.5197
X2.4173Y-5.7953
X2.4173Y-5.8661
X2.4252Y-6.4646
X2.4409Y-5.4567
X2.4488Y-5.063
X2.4567Y-5.748
X2.4646Y-5.8504
X2.4724Y-5.252
X2.4882Y-6.4567
X2.5118Y-5.1181
X2.5118Y-5.3701
X2.5276Y-6.0236
X2.5827Y-5.3071
X2.5827Y-6.0551
X2.5906Y-5.9449
X2.5906Y-6.1417
X2.5906Y-6.2283
X2.5984Y-5.063
X2.5984Y-5.1496
X2.5984Y-6.8031
X2.622Y-6.3543
X2.6299Y-5.5433
X2.6299Y-5.937
X2.6299Y-6.4409
X2.6378Y-5.4646
X2.6496Y-5.3071
X2.6496Y-5.3465
X2.6535Y-5.3858
X2.6614Y-5.1024
X2.6654Y-5.4331
X2.6693Y-5.937
X2.6693Y-5.9685
X2.689Y-5.4646
X2.6929Y-6.3858
X2.7008Y-5.8142
X2.7126Y-5.4331
X2.7165Y-6.4803
X2.7343Y-5.9764
X2.7362Y-5.4685
X2.7402Y-5.6614
X2.7402Y-6.811
X2.748Y-6.5354
X2.7638Y-4.8504
X2.7638Y-5.437
X2.7648Y-6.314
X2.7795Y-6.1968
X2.7874Y-5.5276
X2.7874Y-6.3386
X2.7953Y-5.1575
X2.7953Y-5.4685
X2.7953Y-6.4016
X2.8071Y-5.4331
X2.811Y-6.5118
X2.8268Y-5.2362
X2.8268Y-5.8504
X2.8307Y-5.3346
X2.8346Y-4.8898
X2.8346Y-5.9291
X2.8386Y-5.3661
X2.8425Y-5.4016
X2.8425Y-6.6063
X2.8465Y-5.437
X2.8504Y-6.2598
X2.8504Y-5.5118
X2.8661Y-6.8268
X2.8701Y-5.378
X2.874Y-5.2126
X2.874Y-6.0157
X2.8819Y-5.4055
X2.8819Y-5.437
X2.8819Y-5.9685
X2.8819Y-6.4094
X2.8898Y-5.5669
X2.8898Y-5.8583
X2.8976Y-5.4961
X2.9055Y-5.3819
X2.9213Y-6.6772
X2.9291Y-5.9528
X2.9291Y-6.1102
X2.937Y-5.8583
X2.9409Y-5.4094
X2.9528Y-6.498
X2.9606Y-6.1811
X2.9606Y-6.2598
X2.9705Y-5.9882
X2.9705Y-6.0492
X2.9843Y-5.4803
X2.9843Y-6.3228
X2.9903Y-6.3603
X2.9921Y-5.0
X2.9926Y-6.5595
X3.0039Y-5.5512
X3.0315Y-5.5197
X3.0315Y-5.6378
X3.0315Y-6.2893
X3.0394Y-6.3937
X3.0394Y-6.5984
X3.063Y-6.8189
X3.0709Y-6.4803
X3.0709Y-6.5433
X3.0709Y-6.6378
X3.0748Y-5.4213
X3.0787Y-5.9213
X3.0787Y-6.2047
X3.0866Y-4.9685
X3.0866Y-5.2008
X3.0866Y-5.2323
X3.0866Y-5.2717
X3.0866Y-5.3031
X3.0935Y-6.5994
X3.0945Y-4.8504
X3.0945Y-5.5669
X3.0984Y-5.1693
X3.1102Y-5.7244
X3.1102Y-6.0295
X3.1181Y-5.2008
X3.1181Y-5.2323
X3.1181Y-5.2717
X3.1181Y-5.3031
X3.1181Y-6.126
X3.122Y-5.4213
X3.1339Y-5.1732
X3.1496Y-5.0236
X3.1496Y-5.2008
X3.1496Y-5.2323
X3.1496Y-5.2717
X3.1496Y-5.3031
X3.1496Y-5.9134
X3.1496Y-6.4961
X3.1614Y-6.0433
X3.1654Y-6.189
X3.1732Y-6.811
X3.1811Y-5.2008
X3.1811Y-5.2323
X3.1811Y-5.2717
X3.1811Y-5.3031
X3.189Y-4.9606
X3.189Y-6.3071
X3.1961Y-6.25
X3.1969Y-6.3701
X3.2047Y-5.6378
X3.2126Y-5.2008
X3.2126Y-5.2323
X3.2126Y-5.2717
X3.2126Y-5.3031
X3.2126Y-5.9134
X3.2126Y-6.6299
X3.2205Y-6.5493
X3.2234Y-6.1919
X3.252Y-6.3071
X3.252Y-6.3701
X3.252Y-6.4331
X3.2598Y-5.0157
X3.2598Y-6.1102
X3.2598Y-6.5984
X3.267Y-5.9757
X3.2835Y-6.252
X3.2835Y-6.7953
X3.2895Y-6.6743
X3.2913Y-6.5118
X3.2992Y-5.7087
X3.3071Y-5.9213
X3.315Y-4.9528
X3.315Y-5.1339
X3.315Y-6.189
X3.315Y-6.7638
X3.3228Y-5.4016
X3.3228Y-6.4331
X3.3307Y-5.622
X3.3622Y-5.9843
X3.3701Y-5.9213
X3.3701Y-6.2598
X3.378Y-5.0157
X3.3858Y-5.1102
X3.4016Y-5.7087
X3.4094Y-6.378
X3.4173Y-6.1969
X3.4409Y-5.1654
X3.4409Y-6.5906
X3.4488Y-5.5906
X3.4488Y-6.6299
X3.4724Y-5.0709
X3.4724Y-5.126
X3.4724Y-6.4016
X3.4724Y-6.4567
X3.4764Y-5.7717
X3.4803Y-5.9291
X3.4803Y-6.1575
X3.4961Y-5.7244
X3.5007Y-6.3331
X3.5157Y-5.8425
X3.5354Y-6.0866
X3.5512Y-5.9606
X3.5512Y-6.5827
X3.5669Y-5.0551
X3.5669Y-5.5118
X3.5827Y-5.1575
X3.5906Y-6.0394
X3.5984Y-5.1969
X3.6063Y-5.5906
X3.6063Y-5.622
X3.6063Y-5.6535
X3.6063Y-5.7795
X3.6299Y-5.063
X3.6299Y-5.5669
X3.6378Y-4.9134
X3.6378Y-4.9764
X3.6457Y-5.1654
X3.6457Y-5.2047
X3.6457Y-5.2362
X3.6614Y-5.5669
X3.6614Y-6.1181
X3.6614Y-6.4094
X3.6614Y-6.4409
X3.673Y-6.2072
X3.6772Y-4.9449
X3.6772Y-6.0315
X3.679Y-6.6437
X3.6817Y-5.8707
X3.685Y-5.1496
X3.6929Y-5.5669
X3.7165Y-4.9134
X3.7165Y-4.9764
X3.7244Y-5.5669
X3.7244Y-6.5546
X3.7283Y-5.1496
X3.7323Y-5.9291
X3.7323Y-6.2441
X3.7407Y-5.8116
X3.7559Y-4.9449
X3.7559Y-5.5669
X3.7638Y-6.4016
X3.7795Y-5.0472
X3.7795Y-5.9921
X3.7835Y-5.1496
X3.7874Y-5.5669
X3.7953Y-4.9134
X3.7953Y-4.9764
X3.811Y-6.2441
X3.815Y-5.2323
X3.8189Y-5.1535
X3.8189Y-5.1929
X3.8268Y-5.7638
X3.8346Y-4.9449
X3.8346Y-6.5546
X3.8504Y-5.2244
X3.8543Y-5.1535
X3.8543Y-5.189
X3.8583Y-4.9134
X3.8583Y-6.0709
X3.8583Y-6.4016
X3.874Y-5.5512
X3.8819Y-5.0551
X3.9014Y-6.1284
X3.9014Y-6.2072
X3.9055Y-4.9764
X3.9055Y-5.1575
X3.9055Y-5.9449
X3.9055Y-6.4409
X3.9291Y-6.0866
X3.937Y-5.0551
X3.9606Y-5.5118
X3.9606Y-5.7638
X3.9606Y-5.8425
X3.9764Y-4.9055
X3.9764Y-5.5827
X3.9895Y-6.1112
X3.9921Y-6.5546
X4.0Y-5.0551
X4.0Y-6.0394
X4.0315Y-6.4094
X4.0428Y-5.8302
X4.0472Y-4.9134
X4.0472Y-4.9764
X4.0551Y-5.1181
X4.0551Y-5.1811
X4.0551Y-6.1024
X4.063Y-5.4409
X4.0632Y-5.5396
X4.0667Y-6.5546
X4.0866Y-6.0079
X4.0866Y-6.5039
X4.0866Y-6.7717
X4.0906Y-5.7677
X4.0945Y-5.6535
X4.0945Y-6.2598
X4.1024Y-6.3465
X4.1102Y-5.9055
X4.1102Y-5.9685
X4.122Y-5.1693
X4.126Y-6.622
X4.1339Y-4.9134
X4.1339Y-4.9528
X4.1339Y-5.0
X4.1339Y-5.0472
X4.1372Y-5.5436
X4.1417Y-5.5984
X4.1496Y-6.1102
X4.1575Y-6.3543
X4.1732Y-5.9134
X4.1732Y-6.1575
X4.1732Y-6.4882
X4.1811Y-4.9291
X4.1811Y-4.9764
X4.1811Y-5.0236
X4.1811Y-5.1024
X4.1811Y-5.9843
X4.1811Y-6.4016
X4.1811Y-6.6299
X4.189Y-5.7323
X4.189Y-6.0472
X4.189Y-6.219
X4.189Y-6.2756
X4.2283Y-6.6299
X4.2346Y-5.1387
X4.2441Y-5.6535
X4.252Y-5.9449
X4.252Y-6.1969
X4.2756Y-6.6299
X4.2835Y-4.8661
X4.2835Y-6.3386
X4.2992Y-6.4597
X4.3071Y-5.9134
X4.3071Y-6.2283
X4.315Y-6.0
X4.3307Y-5.5669
X4.3307Y-5.7323
X4.3307Y-6.4361
X4.3386Y-5.0236
X4.3386Y-6.3543
X4.3425Y-5.2008
X4.3425Y-5.2323
X4.3425Y-5.2717
X4.3425Y-5.3031
X4.3465Y-6.1181
X4.3465Y-6.622
X4.3622Y-5.6299
X4.3622Y-6.0394
X4.3622Y-6.5118
X4.374Y-5.2008
X4.374Y-5.2323
X4.374Y-5.2717
X4.374Y-5.3031
X4.4016Y-6.6142
X4.4055Y-5.2008
X4.4055Y-5.2323
X4.4055Y-5.2717
X4.4055Y-5.3031
X4.4094Y-6.0315
X4.4094Y-6.0709
X4.4094Y-6.128
X4.4094Y-6.1969
X4.4173Y-5.9685
X4.4213Y-5.1732
X4.4252Y-5.9055
X4.4252Y-6.2992
X4.4252Y-6.3307
X4.4252Y-6.3701
X4.4331Y-6.2283
X4.4331Y-6.7087
X4.437Y-5.2008
X4.437Y-5.2323
X4.437Y-5.2717
X4.437Y-5.3031
X4.4409Y-5.4173
X4.4488Y-6.5118
X4.4488Y-6.6299
X4.4488Y-6.8189
X4.4567Y-5.1693
X4.4646Y-5.7244
X4.4646Y-6.3386
X4.4685Y-5.2008
X4.4685Y-5.2323
X4.4685Y-5.2717
X4.4685Y-5.3031
X4.4803Y-5.0236
X4.4882Y-5.4173
X4.5004Y-6.1693
X4.5197Y-6.2756
X4.5197Y-6.4961
X4.5276Y-6.2283
X4.5276Y-6.6693
X4.5433Y-4.9921
X4.5433Y-6.126
X4.5433Y-6.4409
X4.5563Y-5.5224
X4.5906Y-6.4331
X4.5911Y-5.4803
X4.5945Y-5.378
X4.6063Y-4.9528
X4.6181Y-5.4016
X4.626Y-5.3661
X4.6378Y-4.874
X4.6378Y-6.1102
X4.6378Y-6.5669
X4.6378Y-6.6457
X4.6457Y-5.4252
X4.6457Y-6.252
X4.6535Y-5.3898
X4.6535Y-5.7795
X4.6614Y-5.3543
X4.6693Y-4.9213
X4.6693Y-5.9606
X4.6772Y-5.4134
X4.685Y-5.378
X4.685Y-6.1102
X4.6929Y-5.3425
X4.6929Y-6.2992
X4.7008Y-5.5197
X4.7087Y-5.437
X4.7126Y-5.4016
X4.7165Y-5.3661
X4.7244Y-4.8898
X4.7244Y-5.3346
X4.7244Y-5.9764
X4.7323Y-5.6142
X4.7323Y-5.6614
X4.7323Y-6.0079
X4.7323Y-6.4173
X4.748Y-5.4331
X4.748Y-5.7402
X4.7559Y-6.1024
X4.7598Y-5.4685
X4.7717Y-5.1496
X4.7795Y-6.3307
X4.7874Y-5.5276
X4.7913Y-5.437
X4.7953Y-6.2283
X4.8031Y-4.8583
X4.8189Y-5.4685
X4.8189Y-5.8976
X4.8268Y-5.126
X4.8268Y-6.4961
X4.8346Y-5.8346
X4.8425Y-5.4331
X4.8583Y-5.8976
X4.8583Y-6.2677
X4.8661Y-5.4646
X4.8898Y-5.1417
X4.8898Y-5.4331
X4.8898Y-5.7244
X4.937Y-5.0787
X4.9449Y-5.2047
X4.9528Y-5.9764
X4.9528Y-6.0866
X4.9606Y-5.7087
X4.9843Y-6.315
X5.0157Y-6.4331
X5.0315Y-5.7559
X5.0315Y-5.9134
X5.0394Y-5.0315
X5.0551Y-5.3071
X5.0787Y-5.5276
X5.0787Y-5.7559
X5.1024Y-5.1496
X5.1496Y-5.8976
X5.1575Y-6.3228
X5.1575Y-6.4173
X5.1654Y-5.9921
X5.1811Y-5.4724
X5.1969Y-6.1024
X5.2362Y-5.5748
X5.2441Y-5.8346
X5.2441Y-5.9449
T2
X2.5591Y-4.9488
X2.6591Y-4.9488
X2.8205Y-6.774
X2.9205Y-4.874
X2.9205Y-6.774
X3.0205Y-4.874
X3.0205Y-6.774
X3.1205Y-6.774
X3.2205Y-4.874
X3.2205Y-6.774
X3.3205Y-4.874
X3.3803Y-6.774
X3.4205Y-4.874
X3.4803Y-6.774
X3.5205Y-4.874
X3.5803Y-6.774
X3.6803Y-6.774
X3.7803Y-6.774
X3.8803Y-6.774
X3.9803Y-6.774
X4.8971Y-4.9488
X4.9971Y-4.9488
M30
