%TF.GenerationSoftware,KiCad,Pcbnew,9.0.5*%
%TF.CreationDate,2026-05-27T20:09:36+01:00*%
%TF.ProjectId,KiCadV2,4b694361-6456-4322-9e6b-696361645f70,rev?*%
%TF.SameCoordinates,Original*%
%TF.FileFunction,Copper,L2,Bot*%
%TF.FilePolarity,Positive*%
%FSLAX46Y46*%
G04 Gerber Fmt 4.6, Leading zero omitted, Abs format (unit mm)*
G04 Created by KiCad (PCBNEW 9.0.5) date 2026-05-27 20:09:36*
%MOMM*%
%LPD*%
G01*
G04 APERTURE LIST*
%TA.AperFunction,ComponentPad*%
%ADD10R,1.600000X1.600000*%
%TD*%
%TA.AperFunction,ComponentPad*%
%ADD11O,1.600000X1.600000*%
%TD*%
%TA.AperFunction,ComponentPad*%
%ADD12C,1.600000*%
%TD*%
%TA.AperFunction,ComponentPad*%
%ADD13R,1.700000X1.700000*%
%TD*%
%TA.AperFunction,ComponentPad*%
%ADD14C,1.700000*%
%TD*%
G04 APERTURE END LIST*
D10*
%TO.P,A1,1,NC*%
%TO.N,unconnected-(A1-NC-Pad1)*%
X110255000Y-35210000D03*
D11*
%TO.P,A1,2,IOREF*%
%TO.N,unconnected-(A1-IOREF-Pad2)*%
X112795000Y-35210000D03*
%TO.P,A1,3,~{RESET}*%
%TO.N,unconnected-(A1-~{RESET}-Pad3)*%
X115335000Y-35210000D03*
%TO.P,A1,4,3V3*%
%TO.N,unconnected-(A1-3V3-Pad4)*%
X117875000Y-35210000D03*
%TO.P,A1,5,+5V*%
%TO.N,+5V*%
X120415000Y-35210000D03*
%TO.P,A1,6,GND*%
%TO.N,GND*%
X122955000Y-35210000D03*
%TO.P,A1,7,GND*%
X125495000Y-35210000D03*
%TO.P,A1,8,VIN*%
%TO.N,+12V*%
X128035000Y-35210000D03*
%TO.P,A1,9,A0*%
%TO.N,/A1*%
X133115000Y-35210000D03*
%TO.P,A1,10,A1*%
%TO.N,/A2*%
X135655000Y-35210000D03*
%TO.P,A1,11,A2*%
%TO.N,unconnected-(A1-A2-Pad11)*%
X138195000Y-35210000D03*
%TO.P,A1,12,A3*%
%TO.N,unconnected-(A1-A3-Pad12)*%
X140735000Y-35210000D03*
%TO.P,A1,13,SDA/A4*%
%TO.N,unconnected-(A1-SDA{slash}A4-Pad13)*%
X143275000Y-35210000D03*
%TO.P,A1,14,SCL/A5*%
%TO.N,unconnected-(A1-SCL{slash}A5-Pad14)*%
X145815000Y-35210000D03*
%TO.P,A1,15,D0/RX*%
%TO.N,unconnected-(A1-D0{slash}RX-Pad15)*%
X145815000Y-83470000D03*
%TO.P,A1,16,D1/TX*%
%TO.N,unconnected-(A1-D1{slash}TX-Pad16)*%
X143275000Y-83470000D03*
%TO.P,A1,17,D2*%
%TO.N,unconnected-(A1-D2-Pad17)*%
X140735000Y-83470000D03*
%TO.P,A1,18,D3*%
%TO.N,/PWM6*%
X138195000Y-83470000D03*
%TO.P,A1,19,D4*%
%TO.N,/D1*%
X135655000Y-83470000D03*
%TO.P,A1,20,D5*%
%TO.N,/PWM5*%
X133115000Y-83470000D03*
%TO.P,A1,21,D6*%
%TO.N,/PWM4*%
X130575000Y-83470000D03*
%TO.P,A1,22,D7*%
%TO.N,/D2*%
X128035000Y-83470000D03*
%TO.P,A1,23,D8*%
%TO.N,/D3*%
X123975000Y-83470000D03*
%TO.P,A1,24,D9*%
%TO.N,/PWM3*%
X121435000Y-83470000D03*
%TO.P,A1,25,D10*%
%TO.N,/PWM2*%
X118895000Y-83470000D03*
%TO.P,A1,26,D11*%
%TO.N,/PWM1*%
X116355000Y-83470000D03*
%TO.P,A1,27,D12*%
%TO.N,unconnected-(A1-D12-Pad27)*%
X113815000Y-83470000D03*
%TO.P,A1,28,D13*%
%TO.N,unconnected-(A1-D13-Pad28)*%
X111275000Y-83470000D03*
%TO.P,A1,29,GND*%
%TO.N,GND*%
X108735000Y-83470000D03*
%TO.P,A1,30,AREF*%
%TO.N,unconnected-(A1-AREF-Pad30)*%
X106195000Y-83470000D03*
%TO.P,A1,31,SDA/A4*%
%TO.N,unconnected-(A1-SDA{slash}A4-Pad31)*%
X103655000Y-83470000D03*
%TO.P,A1,32,SCL/A5*%
%TO.N,unconnected-(A1-SCL{slash}A5-Pad32)*%
X101115000Y-83470000D03*
%TD*%
D12*
%TO.P,L1,1,1*%
%TO.N,VBUS*%
X139925000Y-95300000D03*
%TO.P,L1,2,2*%
%TO.N,Net-(D1-A)*%
X142465000Y-95300000D03*
%TD*%
D13*
%TO.P,J3,1,Pin_1*%
%TO.N,/+OUT1*%
X111755000Y-93670000D03*
D14*
%TO.P,J3,2,Pin_2*%
%TO.N,/-OUT1*%
X114295000Y-93670000D03*
%TD*%
D13*
%TO.P,J2,1,Pin_1*%
%TO.N,VBUS*%
X111755000Y-89080000D03*
D14*
%TO.P,J2,2,Pin_2*%
%TO.N,GND*%
X114295000Y-89080000D03*
%TD*%
D13*
%TO.P,J4,1,Pin_1*%
%TO.N,/+OUT2*%
X111755000Y-98260000D03*
D14*
%TO.P,J4,2,Pin_2*%
%TO.N,/-OUT2*%
X114295000Y-98260000D03*
%TD*%
M02*
